G04 #@! TF.FileFunction,Legend,Top*
%FSLAX46Y46*%
G04 Gerber Fmt 4.6, Leading zero omitted, Abs format (unit mm)*
G04 Created by KiCad (PCBNEW 4.0.7) date 03/17/18 14:29:31*
%MOMM*%
%LPD*%
G01*
G04 APERTURE LIST*
%ADD10C,0.100000*%
%ADD11C,0.120000*%
%ADD12C,0.150000*%
G04 APERTURE END LIST*
D10*
D11*
X210086000Y-101964000D02*
X214186000Y-101964000D01*
X214186000Y-101964000D02*
X214186000Y-89164000D01*
X214186000Y-89164000D02*
X210086000Y-89164000D01*
X210086000Y-89164000D02*
X210086000Y-101964000D01*
X211836000Y-101964000D02*
X211836000Y-101464000D01*
X211836000Y-101464000D02*
X210586000Y-101464000D01*
X210586000Y-101464000D02*
X210586000Y-89664000D01*
X210586000Y-89664000D02*
X211836000Y-89664000D01*
X211836000Y-89664000D02*
X211836000Y-89164000D01*
X212686000Y-101964000D02*
X212686000Y-100964000D01*
X212686000Y-100964000D02*
X214186000Y-100964000D01*
X212686000Y-89164000D02*
X212686000Y-90164000D01*
X212686000Y-90164000D02*
X214186000Y-90164000D01*
X211986000Y-102264000D02*
X214486000Y-102264000D01*
X214486000Y-102264000D02*
X214486000Y-99764000D01*
X173986000Y-120497000D02*
X155706000Y-120497000D01*
X155706000Y-120497000D02*
X155706000Y-110897000D01*
X155706000Y-110897000D02*
X173986000Y-110897000D01*
X173986000Y-110897000D02*
X173986000Y-120497000D01*
X178915000Y-114780000D02*
X177741000Y-114780000D01*
X178915000Y-113058000D02*
X177741000Y-113058000D01*
X178915000Y-119733000D02*
X177741000Y-119733000D01*
X178915000Y-118011000D02*
X177741000Y-118011000D01*
X184757000Y-108430000D02*
X183583000Y-108430000D01*
X184757000Y-106708000D02*
X183583000Y-106708000D01*
X198783000Y-103660000D02*
X199957000Y-103660000D01*
X198783000Y-105382000D02*
X199957000Y-105382000D01*
X189008437Y-88151736D02*
G75*
G03X179210643Y-88155000I-4898437J-1383264D01*
G01*
X189008437Y-90918264D02*
G75*
G02X179210643Y-90915000I-4898437J1383264D01*
G01*
X189008437Y-90918264D02*
G75*
G03X189009357Y-88155000I-4898437J1383264D01*
G01*
X184110000Y-84485000D02*
X184110000Y-94585000D01*
X184150000Y-84485000D02*
X184150000Y-94585000D01*
X184190000Y-84485000D02*
X184190000Y-94585000D01*
X184230000Y-84486000D02*
X184230000Y-94584000D01*
X184270000Y-84487000D02*
X184270000Y-94583000D01*
X184310000Y-84488000D02*
X184310000Y-94582000D01*
X184350000Y-84490000D02*
X184350000Y-94580000D01*
X184390000Y-84492000D02*
X184390000Y-94578000D01*
X184430000Y-84495000D02*
X184430000Y-94575000D01*
X184470000Y-84497000D02*
X184470000Y-94573000D01*
X184510000Y-84500000D02*
X184510000Y-94570000D01*
X184550000Y-84504000D02*
X184550000Y-94566000D01*
X184590000Y-84507000D02*
X184590000Y-94563000D01*
X184630000Y-84511000D02*
X184630000Y-94559000D01*
X184670000Y-84515000D02*
X184670000Y-94555000D01*
X184710000Y-84520000D02*
X184710000Y-94550000D01*
X184750000Y-84525000D02*
X184750000Y-94545000D01*
X184790000Y-84530000D02*
X184790000Y-94540000D01*
X184831000Y-84536000D02*
X184831000Y-94534000D01*
X184871000Y-84542000D02*
X184871000Y-94528000D01*
X184911000Y-84548000D02*
X184911000Y-94522000D01*
X184951000Y-84554000D02*
X184951000Y-94516000D01*
X184991000Y-84561000D02*
X184991000Y-94509000D01*
X185031000Y-84568000D02*
X185031000Y-94502000D01*
X185071000Y-84576000D02*
X185071000Y-94494000D01*
X185111000Y-84584000D02*
X185111000Y-94486000D01*
X185151000Y-84592000D02*
X185151000Y-94478000D01*
X185191000Y-84600000D02*
X185191000Y-94470000D01*
X185231000Y-84609000D02*
X185231000Y-94461000D01*
X185271000Y-84618000D02*
X185271000Y-94452000D01*
X185311000Y-84628000D02*
X185311000Y-94442000D01*
X185351000Y-84638000D02*
X185351000Y-94432000D01*
X185391000Y-84648000D02*
X185391000Y-94422000D01*
X185431000Y-84659000D02*
X185431000Y-88354000D01*
X185431000Y-90716000D02*
X185431000Y-94411000D01*
X185471000Y-84670000D02*
X185471000Y-88354000D01*
X185471000Y-90716000D02*
X185471000Y-94400000D01*
X185511000Y-84681000D02*
X185511000Y-88354000D01*
X185511000Y-90716000D02*
X185511000Y-94389000D01*
X185551000Y-84692000D02*
X185551000Y-88354000D01*
X185551000Y-90716000D02*
X185551000Y-94378000D01*
X185591000Y-84704000D02*
X185591000Y-88354000D01*
X185591000Y-90716000D02*
X185591000Y-94366000D01*
X185631000Y-84717000D02*
X185631000Y-88354000D01*
X185631000Y-90716000D02*
X185631000Y-94353000D01*
X185671000Y-84729000D02*
X185671000Y-88354000D01*
X185671000Y-90716000D02*
X185671000Y-94341000D01*
X185711000Y-84743000D02*
X185711000Y-88354000D01*
X185711000Y-90716000D02*
X185711000Y-94327000D01*
X185751000Y-84756000D02*
X185751000Y-88354000D01*
X185751000Y-90716000D02*
X185751000Y-94314000D01*
X185791000Y-84770000D02*
X185791000Y-88354000D01*
X185791000Y-90716000D02*
X185791000Y-94300000D01*
X185831000Y-84784000D02*
X185831000Y-88354000D01*
X185831000Y-90716000D02*
X185831000Y-94286000D01*
X185871000Y-84798000D02*
X185871000Y-88354000D01*
X185871000Y-90716000D02*
X185871000Y-94272000D01*
X185911000Y-84813000D02*
X185911000Y-88354000D01*
X185911000Y-90716000D02*
X185911000Y-94257000D01*
X185951000Y-84829000D02*
X185951000Y-88354000D01*
X185951000Y-90716000D02*
X185951000Y-94241000D01*
X185991000Y-84844000D02*
X185991000Y-88354000D01*
X185991000Y-90716000D02*
X185991000Y-94226000D01*
X186031000Y-84861000D02*
X186031000Y-88354000D01*
X186031000Y-90716000D02*
X186031000Y-94209000D01*
X186071000Y-84877000D02*
X186071000Y-88354000D01*
X186071000Y-90716000D02*
X186071000Y-94193000D01*
X186111000Y-84894000D02*
X186111000Y-88354000D01*
X186111000Y-92715000D02*
X186111000Y-94176000D01*
X186151000Y-84911000D02*
X186151000Y-88354000D01*
X186151000Y-92715000D02*
X186151000Y-94159000D01*
X186191000Y-84929000D02*
X186191000Y-88354000D01*
X186191000Y-92715000D02*
X186191000Y-94141000D01*
X186231000Y-84947000D02*
X186231000Y-88354000D01*
X186231000Y-92715000D02*
X186231000Y-94123000D01*
X186271000Y-84966000D02*
X186271000Y-88354000D01*
X186271000Y-92715000D02*
X186271000Y-94104000D01*
X186311000Y-84985000D02*
X186311000Y-88354000D01*
X186311000Y-92715000D02*
X186311000Y-94085000D01*
X186351000Y-85004000D02*
X186351000Y-88354000D01*
X186351000Y-92715000D02*
X186351000Y-94066000D01*
X186391000Y-85024000D02*
X186391000Y-88354000D01*
X186391000Y-92715000D02*
X186391000Y-94046000D01*
X186431000Y-85044000D02*
X186431000Y-88354000D01*
X186431000Y-92715000D02*
X186431000Y-94026000D01*
X186471000Y-85065000D02*
X186471000Y-88354000D01*
X186471000Y-92715000D02*
X186471000Y-94005000D01*
X186511000Y-85086000D02*
X186511000Y-88354000D01*
X186511000Y-92715000D02*
X186511000Y-93984000D01*
X186551000Y-85107000D02*
X186551000Y-88354000D01*
X186551000Y-92715000D02*
X186551000Y-93963000D01*
X186591000Y-85130000D02*
X186591000Y-88354000D01*
X186591000Y-92715000D02*
X186591000Y-93940000D01*
X186631000Y-85152000D02*
X186631000Y-88354000D01*
X186631000Y-92715000D02*
X186631000Y-93918000D01*
X186671000Y-85175000D02*
X186671000Y-88354000D01*
X186671000Y-92715000D02*
X186671000Y-93895000D01*
X186711000Y-85199000D02*
X186711000Y-88354000D01*
X186711000Y-92715000D02*
X186711000Y-93871000D01*
X186751000Y-85223000D02*
X186751000Y-88354000D01*
X186751000Y-92715000D02*
X186751000Y-93847000D01*
X186791000Y-85247000D02*
X186791000Y-88354000D01*
X186791000Y-92715000D02*
X186791000Y-93823000D01*
X186831000Y-85272000D02*
X186831000Y-88354000D01*
X186831000Y-92715000D02*
X186831000Y-93798000D01*
X186871000Y-85298000D02*
X186871000Y-88354000D01*
X186871000Y-92715000D02*
X186871000Y-93772000D01*
X186911000Y-85324000D02*
X186911000Y-88354000D01*
X186911000Y-92715000D02*
X186911000Y-93746000D01*
X186951000Y-85350000D02*
X186951000Y-88354000D01*
X186951000Y-92715000D02*
X186951000Y-93720000D01*
X186991000Y-85378000D02*
X186991000Y-88354000D01*
X186991000Y-92715000D02*
X186991000Y-93692000D01*
X187031000Y-85405000D02*
X187031000Y-88354000D01*
X187031000Y-92715000D02*
X187031000Y-93665000D01*
X187071000Y-85434000D02*
X187071000Y-88354000D01*
X187071000Y-92715000D02*
X187071000Y-93636000D01*
X187111000Y-85463000D02*
X187111000Y-88354000D01*
X187111000Y-92715000D02*
X187111000Y-93607000D01*
X187151000Y-85492000D02*
X187151000Y-88354000D01*
X187151000Y-92715000D02*
X187151000Y-93578000D01*
X187191000Y-85522000D02*
X187191000Y-88354000D01*
X187191000Y-92715000D02*
X187191000Y-93548000D01*
X187231000Y-85553000D02*
X187231000Y-88354000D01*
X187231000Y-92715000D02*
X187231000Y-93517000D01*
X187271000Y-85584000D02*
X187271000Y-88354000D01*
X187271000Y-92715000D02*
X187271000Y-93486000D01*
X187311000Y-85616000D02*
X187311000Y-88354000D01*
X187311000Y-92715000D02*
X187311000Y-93454000D01*
X187351000Y-85649000D02*
X187351000Y-88354000D01*
X187351000Y-92715000D02*
X187351000Y-93421000D01*
X187391000Y-85682000D02*
X187391000Y-88354000D01*
X187391000Y-92715000D02*
X187391000Y-93388000D01*
X187431000Y-85716000D02*
X187431000Y-88354000D01*
X187431000Y-92715000D02*
X187431000Y-93354000D01*
X187471000Y-85751000D02*
X187471000Y-88354000D01*
X187471000Y-92715000D02*
X187471000Y-93319000D01*
X187511000Y-85787000D02*
X187511000Y-88354000D01*
X187511000Y-92715000D02*
X187511000Y-93283000D01*
X187551000Y-85823000D02*
X187551000Y-88354000D01*
X187551000Y-92715000D02*
X187551000Y-93247000D01*
X187591000Y-85860000D02*
X187591000Y-88354000D01*
X187591000Y-92715000D02*
X187591000Y-93210000D01*
X187631000Y-85898000D02*
X187631000Y-88354000D01*
X187631000Y-92715000D02*
X187631000Y-93172000D01*
X187671000Y-85937000D02*
X187671000Y-88354000D01*
X187671000Y-92715000D02*
X187671000Y-93133000D01*
X187711000Y-85976000D02*
X187711000Y-88354000D01*
X187711000Y-92715000D02*
X187711000Y-93094000D01*
X187751000Y-86017000D02*
X187751000Y-88354000D01*
X187751000Y-92715000D02*
X187751000Y-93053000D01*
X187791000Y-86058000D02*
X187791000Y-90355000D01*
X187791000Y-92715000D02*
X187791000Y-93012000D01*
X187831000Y-86100000D02*
X187831000Y-90355000D01*
X187831000Y-92715000D02*
X187831000Y-92970000D01*
X187871000Y-86144000D02*
X187871000Y-90355000D01*
X187871000Y-92715000D02*
X187871000Y-92926000D01*
X187911000Y-86188000D02*
X187911000Y-90355000D01*
X187911000Y-92715000D02*
X187911000Y-92882000D01*
X187951000Y-86233000D02*
X187951000Y-90355000D01*
X187951000Y-92715000D02*
X187951000Y-92837000D01*
X187991000Y-86280000D02*
X187991000Y-90355000D01*
X187991000Y-92715000D02*
X187991000Y-92790000D01*
X188031000Y-86328000D02*
X188031000Y-90355000D01*
X188031000Y-92715000D02*
X188031000Y-92742000D01*
X188071000Y-86377000D02*
X188071000Y-90355000D01*
X188111000Y-86427000D02*
X188111000Y-90355000D01*
X188151000Y-86478000D02*
X188151000Y-90355000D01*
X188191000Y-86531000D02*
X188191000Y-90355000D01*
X188231000Y-86586000D02*
X188231000Y-90355000D01*
X188271000Y-86641000D02*
X188271000Y-90355000D01*
X188311000Y-86699000D02*
X188311000Y-90355000D01*
X188351000Y-86758000D02*
X188351000Y-90355000D01*
X188391000Y-86820000D02*
X188391000Y-90355000D01*
X188431000Y-86883000D02*
X188431000Y-90355000D01*
X188471000Y-86948000D02*
X188471000Y-92122000D01*
X188511000Y-87016000D02*
X188511000Y-92054000D01*
X188551000Y-87086000D02*
X188551000Y-91984000D01*
X188591000Y-87158000D02*
X188591000Y-91912000D01*
X188631000Y-87234000D02*
X188631000Y-91836000D01*
X188671000Y-87313000D02*
X188671000Y-91757000D01*
X188711000Y-87395000D02*
X188711000Y-91675000D01*
X188751000Y-87482000D02*
X188751000Y-91588000D01*
X188791000Y-87573000D02*
X188791000Y-91497000D01*
X188831000Y-87669000D02*
X188831000Y-91401000D01*
X188871000Y-87772000D02*
X188871000Y-91298000D01*
X188911000Y-87881000D02*
X188911000Y-91189000D01*
X188951000Y-87999000D02*
X188951000Y-91071000D01*
X188991000Y-88128000D02*
X188991000Y-90942000D01*
X189031000Y-88270000D02*
X189031000Y-90800000D01*
X189071000Y-88431000D02*
X189071000Y-90639000D01*
X189111000Y-88622000D02*
X189111000Y-90448000D01*
X189151000Y-88863000D02*
X189151000Y-90207000D01*
X189191000Y-89256000D02*
X189191000Y-89814000D01*
X178910000Y-89535000D02*
X180410000Y-89535000D01*
X179660000Y-88785000D02*
X179660000Y-90285000D01*
X198246722Y-90006277D02*
G75*
G03X193635420Y-90006000I-2305722J-1179723D01*
G01*
X198246722Y-92365723D02*
G75*
G02X193635420Y-92366000I-2305722J1179723D01*
G01*
X198246722Y-92365723D02*
G75*
G03X198246580Y-90006000I-2305722J1179723D01*
G01*
X195941000Y-88636000D02*
X195941000Y-93736000D01*
X195981000Y-88636000D02*
X195981000Y-93736000D01*
X196021000Y-88637000D02*
X196021000Y-93735000D01*
X196061000Y-88638000D02*
X196061000Y-93734000D01*
X196101000Y-88640000D02*
X196101000Y-93732000D01*
X196141000Y-88643000D02*
X196141000Y-93729000D01*
X196181000Y-88647000D02*
X196181000Y-93725000D01*
X196221000Y-88651000D02*
X196221000Y-90206000D01*
X196221000Y-92166000D02*
X196221000Y-93721000D01*
X196261000Y-88655000D02*
X196261000Y-90206000D01*
X196261000Y-92166000D02*
X196261000Y-93717000D01*
X196301000Y-88661000D02*
X196301000Y-90206000D01*
X196301000Y-92166000D02*
X196301000Y-93711000D01*
X196341000Y-88667000D02*
X196341000Y-90206000D01*
X196341000Y-92166000D02*
X196341000Y-93705000D01*
X196381000Y-88673000D02*
X196381000Y-90206000D01*
X196381000Y-92166000D02*
X196381000Y-93699000D01*
X196421000Y-88680000D02*
X196421000Y-90206000D01*
X196421000Y-92166000D02*
X196421000Y-93692000D01*
X196461000Y-88688000D02*
X196461000Y-90206000D01*
X196461000Y-92166000D02*
X196461000Y-93684000D01*
X196501000Y-88697000D02*
X196501000Y-90206000D01*
X196501000Y-92166000D02*
X196501000Y-93675000D01*
X196541000Y-88706000D02*
X196541000Y-90206000D01*
X196541000Y-92166000D02*
X196541000Y-93666000D01*
X196581000Y-88716000D02*
X196581000Y-90206000D01*
X196581000Y-92166000D02*
X196581000Y-93656000D01*
X196621000Y-88726000D02*
X196621000Y-90206000D01*
X196621000Y-92166000D02*
X196621000Y-93646000D01*
X196662000Y-88738000D02*
X196662000Y-90206000D01*
X196662000Y-92166000D02*
X196662000Y-93634000D01*
X196702000Y-88750000D02*
X196702000Y-90206000D01*
X196702000Y-92166000D02*
X196702000Y-93622000D01*
X196742000Y-88762000D02*
X196742000Y-90206000D01*
X196742000Y-92166000D02*
X196742000Y-93610000D01*
X196782000Y-88776000D02*
X196782000Y-90206000D01*
X196782000Y-92166000D02*
X196782000Y-93596000D01*
X196822000Y-88790000D02*
X196822000Y-90206000D01*
X196822000Y-92166000D02*
X196822000Y-93582000D01*
X196862000Y-88804000D02*
X196862000Y-90206000D01*
X196862000Y-92166000D02*
X196862000Y-93568000D01*
X196902000Y-88820000D02*
X196902000Y-90206000D01*
X196902000Y-92166000D02*
X196902000Y-93552000D01*
X196942000Y-88836000D02*
X196942000Y-90206000D01*
X196942000Y-92166000D02*
X196942000Y-93536000D01*
X196982000Y-88853000D02*
X196982000Y-90206000D01*
X196982000Y-92166000D02*
X196982000Y-93519000D01*
X197022000Y-88871000D02*
X197022000Y-90206000D01*
X197022000Y-92166000D02*
X197022000Y-93501000D01*
X197062000Y-88890000D02*
X197062000Y-90206000D01*
X197062000Y-92166000D02*
X197062000Y-93482000D01*
X197102000Y-88910000D02*
X197102000Y-90206000D01*
X197102000Y-92166000D02*
X197102000Y-93462000D01*
X197142000Y-88930000D02*
X197142000Y-90206000D01*
X197142000Y-92166000D02*
X197142000Y-93442000D01*
X197182000Y-88952000D02*
X197182000Y-90206000D01*
X197182000Y-92166000D02*
X197182000Y-93420000D01*
X197222000Y-88974000D02*
X197222000Y-90206000D01*
X197222000Y-92166000D02*
X197222000Y-93398000D01*
X197262000Y-88997000D02*
X197262000Y-90206000D01*
X197262000Y-92166000D02*
X197262000Y-93375000D01*
X197302000Y-89021000D02*
X197302000Y-90206000D01*
X197302000Y-92166000D02*
X197302000Y-93351000D01*
X197342000Y-89046000D02*
X197342000Y-90206000D01*
X197342000Y-92166000D02*
X197342000Y-93326000D01*
X197382000Y-89073000D02*
X197382000Y-90206000D01*
X197382000Y-92166000D02*
X197382000Y-93299000D01*
X197422000Y-89100000D02*
X197422000Y-90206000D01*
X197422000Y-92166000D02*
X197422000Y-93272000D01*
X197462000Y-89128000D02*
X197462000Y-90206000D01*
X197462000Y-92166000D02*
X197462000Y-93244000D01*
X197502000Y-89158000D02*
X197502000Y-90206000D01*
X197502000Y-92166000D02*
X197502000Y-93214000D01*
X197542000Y-89189000D02*
X197542000Y-90206000D01*
X197542000Y-92166000D02*
X197542000Y-93183000D01*
X197582000Y-89221000D02*
X197582000Y-90206000D01*
X197582000Y-92166000D02*
X197582000Y-93151000D01*
X197622000Y-89254000D02*
X197622000Y-90206000D01*
X197622000Y-92166000D02*
X197622000Y-93118000D01*
X197662000Y-89289000D02*
X197662000Y-90206000D01*
X197662000Y-92166000D02*
X197662000Y-93083000D01*
X197702000Y-89325000D02*
X197702000Y-90206000D01*
X197702000Y-92166000D02*
X197702000Y-93047000D01*
X197742000Y-89363000D02*
X197742000Y-90206000D01*
X197742000Y-92166000D02*
X197742000Y-93009000D01*
X197782000Y-89403000D02*
X197782000Y-90206000D01*
X197782000Y-92166000D02*
X197782000Y-92969000D01*
X197822000Y-89444000D02*
X197822000Y-90206000D01*
X197822000Y-92166000D02*
X197822000Y-92928000D01*
X197862000Y-89487000D02*
X197862000Y-90206000D01*
X197862000Y-92166000D02*
X197862000Y-92885000D01*
X197902000Y-89532000D02*
X197902000Y-90206000D01*
X197902000Y-92166000D02*
X197902000Y-92840000D01*
X197942000Y-89580000D02*
X197942000Y-90206000D01*
X197942000Y-92166000D02*
X197942000Y-92792000D01*
X197982000Y-89630000D02*
X197982000Y-90206000D01*
X197982000Y-92166000D02*
X197982000Y-92742000D01*
X198022000Y-89682000D02*
X198022000Y-90206000D01*
X198022000Y-92166000D02*
X198022000Y-92690000D01*
X198062000Y-89738000D02*
X198062000Y-90206000D01*
X198062000Y-92166000D02*
X198062000Y-92634000D01*
X198102000Y-89796000D02*
X198102000Y-90206000D01*
X198102000Y-92166000D02*
X198102000Y-92576000D01*
X198142000Y-89859000D02*
X198142000Y-90206000D01*
X198142000Y-92166000D02*
X198142000Y-92513000D01*
X198182000Y-89925000D02*
X198182000Y-92447000D01*
X198222000Y-89997000D02*
X198222000Y-92375000D01*
X198262000Y-90074000D02*
X198262000Y-92298000D01*
X198302000Y-90158000D02*
X198302000Y-92214000D01*
X198342000Y-90252000D02*
X198342000Y-92120000D01*
X198382000Y-90357000D02*
X198382000Y-92015000D01*
X198422000Y-90479000D02*
X198422000Y-91893000D01*
X198462000Y-90627000D02*
X198462000Y-91745000D01*
X198502000Y-90832000D02*
X198502000Y-91540000D01*
X192491000Y-91186000D02*
X193691000Y-91186000D01*
X193091000Y-90536000D02*
X193091000Y-91836000D01*
X201013000Y-89690000D02*
X201013000Y-90864000D01*
X199291000Y-89690000D02*
X199291000Y-90864000D01*
X158976000Y-102136000D02*
X158976000Y-103310000D01*
X157254000Y-102136000D02*
X157254000Y-103310000D01*
X182175000Y-80502000D02*
X185375000Y-80502000D01*
X187161479Y-79554157D02*
G75*
G03X187198000Y-74422000I-3646479J2592157D01*
G01*
X185805818Y-73154895D02*
G75*
G03X181229000Y-73152000I-2290818J-3807105D01*
G01*
X179868521Y-74369843D02*
G75*
G03X179832000Y-79502000I3646479J-2592157D01*
G01*
X168268000Y-72602000D02*
X168268000Y-74802000D01*
X168268000Y-74802000D02*
X166768000Y-74802000D01*
X166768000Y-74802000D02*
X166768000Y-66302000D01*
X166768000Y-66302000D02*
X174568000Y-66302000D01*
X174568000Y-66302000D02*
X174568000Y-74802000D01*
X174568000Y-74802000D02*
X173068000Y-74802000D01*
X173068000Y-74802000D02*
X173068000Y-72602000D01*
X166768000Y-67802000D02*
X168268000Y-67802000D01*
X168268000Y-67802000D02*
X168268000Y-72602000D01*
X168268000Y-72602000D02*
X166768000Y-72602000D01*
X174568000Y-67802000D02*
X173068000Y-67802000D01*
X173068000Y-67802000D02*
X173068000Y-72602000D01*
X173068000Y-72602000D02*
X174568000Y-72602000D01*
X168268000Y-70652000D02*
X173068000Y-70652000D01*
X168268000Y-71652000D02*
X173068000Y-71652000D01*
X169418000Y-70652000D02*
X169098000Y-70652000D01*
X169098000Y-70652000D02*
X169098000Y-67232000D01*
X169098000Y-67232000D02*
X169418000Y-67152000D01*
X169418000Y-67152000D02*
X169738000Y-67232000D01*
X169738000Y-67232000D02*
X169738000Y-70652000D01*
X169738000Y-70652000D02*
X169418000Y-70652000D01*
X171918000Y-70652000D02*
X171598000Y-70652000D01*
X171598000Y-70652000D02*
X171598000Y-67232000D01*
X171598000Y-67232000D02*
X171918000Y-67152000D01*
X171918000Y-67152000D02*
X172238000Y-67232000D01*
X172238000Y-67232000D02*
X172238000Y-70652000D01*
X172238000Y-70652000D02*
X171918000Y-70652000D01*
X169418000Y-74652000D02*
X169118000Y-75252000D01*
X169118000Y-75252000D02*
X169718000Y-75252000D01*
X169718000Y-75252000D02*
X169418000Y-74652000D01*
X207619000Y-107446000D02*
X207619000Y-123186000D01*
X207619000Y-123186000D02*
X198019000Y-123186000D01*
X198019000Y-123186000D02*
X198019000Y-107446000D01*
X198019000Y-107446000D02*
X207619000Y-107446000D01*
X160926000Y-95151000D02*
X160926000Y-99251000D01*
X160926000Y-99251000D02*
X171226000Y-99251000D01*
X171226000Y-99251000D02*
X171226000Y-95151000D01*
X171226000Y-95151000D02*
X160926000Y-95151000D01*
X160926000Y-96901000D02*
X161426000Y-96901000D01*
X161426000Y-96901000D02*
X161426000Y-95651000D01*
X161426000Y-95651000D02*
X170726000Y-95651000D01*
X170726000Y-95651000D02*
X170726000Y-96901000D01*
X170726000Y-96901000D02*
X171226000Y-96901000D01*
X160926000Y-97751000D02*
X161926000Y-97751000D01*
X161926000Y-97751000D02*
X161926000Y-99251000D01*
X171226000Y-97751000D02*
X170226000Y-97751000D01*
X170226000Y-97751000D02*
X170226000Y-99251000D01*
X160626000Y-97051000D02*
X160626000Y-99551000D01*
X160626000Y-99551000D02*
X163126000Y-99551000D01*
X203355000Y-101964000D02*
X207455000Y-101964000D01*
X207455000Y-101964000D02*
X207455000Y-89164000D01*
X207455000Y-89164000D02*
X203355000Y-89164000D01*
X203355000Y-89164000D02*
X203355000Y-101964000D01*
X205105000Y-101964000D02*
X205105000Y-101464000D01*
X205105000Y-101464000D02*
X203855000Y-101464000D01*
X203855000Y-101464000D02*
X203855000Y-89664000D01*
X203855000Y-89664000D02*
X205105000Y-89664000D01*
X205105000Y-89664000D02*
X205105000Y-89164000D01*
X205955000Y-101964000D02*
X205955000Y-100964000D01*
X205955000Y-100964000D02*
X207455000Y-100964000D01*
X205955000Y-89164000D02*
X205955000Y-90164000D01*
X205955000Y-90164000D02*
X207455000Y-90164000D01*
X205255000Y-102264000D02*
X207755000Y-102264000D01*
X207755000Y-102264000D02*
X207755000Y-99764000D01*
X168188000Y-123917000D02*
X165568000Y-123917000D01*
X165568000Y-123917000D02*
X165568000Y-130337000D01*
X165568000Y-130337000D02*
X168188000Y-130337000D01*
X168188000Y-130337000D02*
X168188000Y-123917000D01*
X166878000Y-123027000D02*
X166878000Y-123917000D01*
X166878000Y-131227000D02*
X166878000Y-130337000D01*
X174919000Y-123790000D02*
X172299000Y-123790000D01*
X172299000Y-123790000D02*
X172299000Y-130210000D01*
X172299000Y-130210000D02*
X174919000Y-130210000D01*
X174919000Y-130210000D02*
X174919000Y-123790000D01*
X173609000Y-122900000D02*
X173609000Y-123790000D01*
X173609000Y-131100000D02*
X173609000Y-130210000D01*
X193837000Y-105831000D02*
X193837000Y-103211000D01*
X193837000Y-103211000D02*
X187417000Y-103211000D01*
X187417000Y-103211000D02*
X187417000Y-105831000D01*
X187417000Y-105831000D02*
X193837000Y-105831000D01*
X194727000Y-104521000D02*
X193837000Y-104521000D01*
X186527000Y-104521000D02*
X187417000Y-104521000D01*
X168997000Y-130337000D02*
X171617000Y-130337000D01*
X171617000Y-130337000D02*
X171617000Y-123917000D01*
X171617000Y-123917000D02*
X168997000Y-123917000D01*
X168997000Y-123917000D02*
X168997000Y-130337000D01*
X170307000Y-131227000D02*
X170307000Y-130337000D01*
X170307000Y-123027000D02*
X170307000Y-123917000D01*
X162266000Y-130337000D02*
X164886000Y-130337000D01*
X164886000Y-130337000D02*
X164886000Y-123917000D01*
X164886000Y-123917000D02*
X162266000Y-123917000D01*
X162266000Y-123917000D02*
X162266000Y-130337000D01*
X163576000Y-131227000D02*
X163576000Y-130337000D01*
X163576000Y-123027000D02*
X163576000Y-123917000D01*
X214717000Y-115986000D02*
X217337000Y-115986000D01*
X217337000Y-115986000D02*
X217337000Y-109566000D01*
X217337000Y-109566000D02*
X214717000Y-109566000D01*
X214717000Y-109566000D02*
X214717000Y-115986000D01*
X216027000Y-116876000D02*
X216027000Y-115986000D01*
X216027000Y-108676000D02*
X216027000Y-109566000D01*
X211415000Y-115986000D02*
X214035000Y-115986000D01*
X214035000Y-115986000D02*
X214035000Y-109566000D01*
X214035000Y-109566000D02*
X211415000Y-109566000D01*
X211415000Y-109566000D02*
X211415000Y-115986000D01*
X212725000Y-116876000D02*
X212725000Y-115986000D01*
X212725000Y-108676000D02*
X212725000Y-109566000D01*
X208113000Y-115986000D02*
X210733000Y-115986000D01*
X210733000Y-115986000D02*
X210733000Y-109566000D01*
X210733000Y-109566000D02*
X208113000Y-109566000D01*
X208113000Y-109566000D02*
X208113000Y-115986000D01*
X209423000Y-116876000D02*
X209423000Y-115986000D01*
X209423000Y-108676000D02*
X209423000Y-109566000D01*
X190770000Y-106306000D02*
X189000000Y-106306000D01*
X189000000Y-106306000D02*
X189000000Y-131946000D01*
X189000000Y-131946000D02*
X194540000Y-131946000D01*
X194540000Y-131946000D02*
X194540000Y-106306000D01*
X194540000Y-106306000D02*
X192770000Y-106306000D01*
X192770000Y-106306000D02*
G75*
G02X190770000Y-106306000I-1000000J0D01*
G01*
X192238000Y-82289000D02*
X202478000Y-82289000D01*
X192238000Y-66399000D02*
X202478000Y-66399000D01*
X192238000Y-66399000D02*
X192238000Y-82289000D01*
X202478000Y-66399000D02*
X202478000Y-82289000D01*
X194818000Y-82289000D02*
X194818000Y-84929000D01*
X197358000Y-82289000D02*
X197358000Y-84913000D01*
X199898000Y-82289000D02*
X199898000Y-84913000D01*
X186040000Y-113234000D02*
X186040000Y-119484000D01*
X180990000Y-113234000D02*
X180990000Y-119484000D01*
X180990000Y-113234000D02*
G75*
G02X186040000Y-113234000I2525000J0D01*
G01*
X180990000Y-119484000D02*
G75*
G03X186040000Y-119484000I2525000J0D01*
G01*
X159646000Y-106410000D02*
X159646000Y-108180000D01*
X159646000Y-108180000D02*
X170046000Y-108180000D01*
X170046000Y-108180000D02*
X170046000Y-102640000D01*
X170046000Y-102640000D02*
X159646000Y-102640000D01*
X159646000Y-102640000D02*
X159646000Y-104410000D01*
X159646000Y-104410000D02*
G75*
G02X159646000Y-106410000I0J-1000000D01*
G01*
X224465000Y-100418000D02*
X216225000Y-100418000D01*
X224465000Y-96928000D02*
X216225000Y-96928000D01*
X224465000Y-100418000D02*
X224465000Y-96928000D01*
X216225000Y-100418000D02*
X216225000Y-96928000D01*
X221945000Y-100418000D02*
X221945000Y-99348000D01*
X221945000Y-97248000D02*
X221945000Y-96928000D01*
X218744000Y-100418000D02*
X218744000Y-98838000D01*
X218744000Y-97758000D02*
X218744000Y-96928000D01*
X224465000Y-96481000D02*
X216225000Y-96481000D01*
X224465000Y-92991000D02*
X216225000Y-92991000D01*
X224465000Y-96481000D02*
X224465000Y-92991000D01*
X216225000Y-96481000D02*
X216225000Y-92991000D01*
X221945000Y-96481000D02*
X221945000Y-95411000D01*
X221945000Y-93311000D02*
X221945000Y-92991000D01*
X218744000Y-96481000D02*
X218744000Y-94901000D01*
X218744000Y-93821000D02*
X218744000Y-92991000D01*
X224592000Y-92671000D02*
X216352000Y-92671000D01*
X224592000Y-89181000D02*
X216352000Y-89181000D01*
X224592000Y-92671000D02*
X224592000Y-89181000D01*
X216352000Y-92671000D02*
X216352000Y-89181000D01*
X222072000Y-92671000D02*
X222072000Y-91601000D01*
X222072000Y-89501000D02*
X222072000Y-89181000D01*
X218871000Y-92671000D02*
X218871000Y-91091000D01*
X218871000Y-90011000D02*
X218871000Y-89181000D01*
D12*
X208288381Y-95897333D02*
X209002667Y-95897333D01*
X209145524Y-95944953D01*
X209240762Y-96040191D01*
X209288381Y-96183048D01*
X209288381Y-96278286D01*
X208288381Y-94992571D02*
X208288381Y-95183048D01*
X208336000Y-95278286D01*
X208383619Y-95325905D01*
X208526476Y-95421143D01*
X208716952Y-95468762D01*
X209097905Y-95468762D01*
X209193143Y-95421143D01*
X209240762Y-95373524D01*
X209288381Y-95278286D01*
X209288381Y-95087809D01*
X209240762Y-94992571D01*
X209193143Y-94944952D01*
X209097905Y-94897333D01*
X208859810Y-94897333D01*
X208764571Y-94944952D01*
X208716952Y-94992571D01*
X208669333Y-95087809D01*
X208669333Y-95278286D01*
X208716952Y-95373524D01*
X208764571Y-95421143D01*
X208859810Y-95468762D01*
X164322667Y-121379381D02*
X164322667Y-122093667D01*
X164275047Y-122236524D01*
X164179809Y-122331762D01*
X164036952Y-122379381D01*
X163941714Y-122379381D01*
X164751238Y-121474619D02*
X164798857Y-121427000D01*
X164894095Y-121379381D01*
X165132191Y-121379381D01*
X165227429Y-121427000D01*
X165275048Y-121474619D01*
X165322667Y-121569857D01*
X165322667Y-121665095D01*
X165275048Y-121807952D01*
X164703619Y-122379381D01*
X165322667Y-122379381D01*
D11*
X168921715Y-113159381D02*
X168350286Y-113159381D01*
X168636000Y-113159381D02*
X168636000Y-112159381D01*
X168540762Y-112302238D01*
X168445524Y-112397476D01*
X168350286Y-112445095D01*
D12*
X178161334Y-116386143D02*
X178113715Y-116433762D01*
X177970858Y-116481381D01*
X177875620Y-116481381D01*
X177732762Y-116433762D01*
X177637524Y-116338524D01*
X177589905Y-116243286D01*
X177542286Y-116052810D01*
X177542286Y-115909952D01*
X177589905Y-115719476D01*
X177637524Y-115624238D01*
X177732762Y-115529000D01*
X177875620Y-115481381D01*
X177970858Y-115481381D01*
X178113715Y-115529000D01*
X178161334Y-115576619D01*
X179113715Y-116481381D02*
X178542286Y-116481381D01*
X178828000Y-116481381D02*
X178828000Y-115481381D01*
X178732762Y-115624238D01*
X178637524Y-115719476D01*
X178542286Y-115767095D01*
X178161334Y-121339143D02*
X178113715Y-121386762D01*
X177970858Y-121434381D01*
X177875620Y-121434381D01*
X177732762Y-121386762D01*
X177637524Y-121291524D01*
X177589905Y-121196286D01*
X177542286Y-121005810D01*
X177542286Y-120862952D01*
X177589905Y-120672476D01*
X177637524Y-120577238D01*
X177732762Y-120482000D01*
X177875620Y-120434381D01*
X177970858Y-120434381D01*
X178113715Y-120482000D01*
X178161334Y-120529619D01*
X178542286Y-120529619D02*
X178589905Y-120482000D01*
X178685143Y-120434381D01*
X178923239Y-120434381D01*
X179018477Y-120482000D01*
X179066096Y-120529619D01*
X179113715Y-120624857D01*
X179113715Y-120720095D01*
X179066096Y-120862952D01*
X178494667Y-121434381D01*
X179113715Y-121434381D01*
X184003334Y-110036143D02*
X183955715Y-110083762D01*
X183812858Y-110131381D01*
X183717620Y-110131381D01*
X183574762Y-110083762D01*
X183479524Y-109988524D01*
X183431905Y-109893286D01*
X183384286Y-109702810D01*
X183384286Y-109559952D01*
X183431905Y-109369476D01*
X183479524Y-109274238D01*
X183574762Y-109179000D01*
X183717620Y-109131381D01*
X183812858Y-109131381D01*
X183955715Y-109179000D01*
X184003334Y-109226619D01*
X184336667Y-109131381D02*
X184955715Y-109131381D01*
X184622381Y-109512333D01*
X184765239Y-109512333D01*
X184860477Y-109559952D01*
X184908096Y-109607571D01*
X184955715Y-109702810D01*
X184955715Y-109940905D01*
X184908096Y-110036143D01*
X184860477Y-110083762D01*
X184765239Y-110131381D01*
X184479524Y-110131381D01*
X184384286Y-110083762D01*
X184336667Y-110036143D01*
X199203334Y-102768143D02*
X199155715Y-102815762D01*
X199012858Y-102863381D01*
X198917620Y-102863381D01*
X198774762Y-102815762D01*
X198679524Y-102720524D01*
X198631905Y-102625286D01*
X198584286Y-102434810D01*
X198584286Y-102291952D01*
X198631905Y-102101476D01*
X198679524Y-102006238D01*
X198774762Y-101911000D01*
X198917620Y-101863381D01*
X199012858Y-101863381D01*
X199155715Y-101911000D01*
X199203334Y-101958619D01*
X200060477Y-102196714D02*
X200060477Y-102863381D01*
X199822381Y-101815762D02*
X199584286Y-102530048D01*
X200203334Y-102530048D01*
X183943334Y-83582143D02*
X183895715Y-83629762D01*
X183752858Y-83677381D01*
X183657620Y-83677381D01*
X183514762Y-83629762D01*
X183419524Y-83534524D01*
X183371905Y-83439286D01*
X183324286Y-83248810D01*
X183324286Y-83105952D01*
X183371905Y-82915476D01*
X183419524Y-82820238D01*
X183514762Y-82725000D01*
X183657620Y-82677381D01*
X183752858Y-82677381D01*
X183895715Y-82725000D01*
X183943334Y-82772619D01*
X184848096Y-82677381D02*
X184371905Y-82677381D01*
X184324286Y-83153571D01*
X184371905Y-83105952D01*
X184467143Y-83058333D01*
X184705239Y-83058333D01*
X184800477Y-83105952D01*
X184848096Y-83153571D01*
X184895715Y-83248810D01*
X184895715Y-83486905D01*
X184848096Y-83582143D01*
X184800477Y-83629762D01*
X184705239Y-83677381D01*
X184467143Y-83677381D01*
X184371905Y-83629762D01*
X184324286Y-83582143D01*
X195774334Y-87733143D02*
X195726715Y-87780762D01*
X195583858Y-87828381D01*
X195488620Y-87828381D01*
X195345762Y-87780762D01*
X195250524Y-87685524D01*
X195202905Y-87590286D01*
X195155286Y-87399810D01*
X195155286Y-87256952D01*
X195202905Y-87066476D01*
X195250524Y-86971238D01*
X195345762Y-86876000D01*
X195488620Y-86828381D01*
X195583858Y-86828381D01*
X195726715Y-86876000D01*
X195774334Y-86923619D01*
X196631477Y-86828381D02*
X196441000Y-86828381D01*
X196345762Y-86876000D01*
X196298143Y-86923619D01*
X196202905Y-87066476D01*
X196155286Y-87256952D01*
X196155286Y-87637905D01*
X196202905Y-87733143D01*
X196250524Y-87780762D01*
X196345762Y-87828381D01*
X196536239Y-87828381D01*
X196631477Y-87780762D01*
X196679096Y-87733143D01*
X196726715Y-87637905D01*
X196726715Y-87399810D01*
X196679096Y-87304571D01*
X196631477Y-87256952D01*
X196536239Y-87209333D01*
X196345762Y-87209333D01*
X196250524Y-87256952D01*
X196202905Y-87304571D01*
X196155286Y-87399810D01*
X202619143Y-90443666D02*
X202666762Y-90491285D01*
X202714381Y-90634142D01*
X202714381Y-90729380D01*
X202666762Y-90872238D01*
X202571524Y-90967476D01*
X202476286Y-91015095D01*
X202285810Y-91062714D01*
X202142952Y-91062714D01*
X201952476Y-91015095D01*
X201857238Y-90967476D01*
X201762000Y-90872238D01*
X201714381Y-90729380D01*
X201714381Y-90634142D01*
X201762000Y-90491285D01*
X201809619Y-90443666D01*
X201714381Y-90110333D02*
X201714381Y-89443666D01*
X202714381Y-89872238D01*
X160582143Y-102889666D02*
X160629762Y-102937285D01*
X160677381Y-103080142D01*
X160677381Y-103175380D01*
X160629762Y-103318238D01*
X160534524Y-103413476D01*
X160439286Y-103461095D01*
X160248810Y-103508714D01*
X160105952Y-103508714D01*
X159915476Y-103461095D01*
X159820238Y-103413476D01*
X159725000Y-103318238D01*
X159677381Y-103175380D01*
X159677381Y-103080142D01*
X159725000Y-102937285D01*
X159772619Y-102889666D01*
X160105952Y-102318238D02*
X160058333Y-102413476D01*
X160010714Y-102461095D01*
X159915476Y-102508714D01*
X159867857Y-102508714D01*
X159772619Y-102461095D01*
X159725000Y-102413476D01*
X159677381Y-102318238D01*
X159677381Y-102127761D01*
X159725000Y-102032523D01*
X159772619Y-101984904D01*
X159867857Y-101937285D01*
X159915476Y-101937285D01*
X160010714Y-101984904D01*
X160058333Y-102032523D01*
X160105952Y-102127761D01*
X160105952Y-102318238D01*
X160153571Y-102413476D01*
X160201190Y-102461095D01*
X160296429Y-102508714D01*
X160486905Y-102508714D01*
X160582143Y-102461095D01*
X160629762Y-102413476D01*
X160677381Y-102318238D01*
X160677381Y-102127761D01*
X160629762Y-102032523D01*
X160582143Y-101984904D01*
X160486905Y-101937285D01*
X160296429Y-101937285D01*
X160201190Y-101984904D01*
X160153571Y-102032523D01*
X160105952Y-102127761D01*
X178633381Y-77700095D02*
X177633381Y-77700095D01*
X177633381Y-77462000D01*
X177681000Y-77319142D01*
X177776238Y-77223904D01*
X177871476Y-77176285D01*
X178061952Y-77128666D01*
X178204810Y-77128666D01*
X178395286Y-77176285D01*
X178490524Y-77223904D01*
X178585762Y-77319142D01*
X178633381Y-77462000D01*
X178633381Y-77700095D01*
X178633381Y-76176285D02*
X178633381Y-76747714D01*
X178633381Y-76462000D02*
X177633381Y-76462000D01*
X177776238Y-76557238D01*
X177871476Y-76652476D01*
X177919095Y-76747714D01*
X170334667Y-75604381D02*
X170334667Y-76318667D01*
X170287047Y-76461524D01*
X170191809Y-76556762D01*
X170048952Y-76604381D01*
X169953714Y-76604381D01*
X171334667Y-76604381D02*
X170763238Y-76604381D01*
X171048952Y-76604381D02*
X171048952Y-75604381D01*
X170953714Y-75747238D01*
X170858476Y-75842476D01*
X170763238Y-75890095D01*
X208501381Y-116109333D02*
X209215667Y-116109333D01*
X209358524Y-116156953D01*
X209453762Y-116252191D01*
X209501381Y-116395048D01*
X209501381Y-116490286D01*
X208501381Y-115728381D02*
X208501381Y-115109333D01*
X208882333Y-115442667D01*
X208882333Y-115299809D01*
X208929952Y-115204571D01*
X208977571Y-115156952D01*
X209072810Y-115109333D01*
X209310905Y-115109333D01*
X209406143Y-115156952D01*
X209453762Y-115204571D01*
X209501381Y-115299809D01*
X209501381Y-115585524D01*
X209453762Y-115680762D01*
X209406143Y-115728381D01*
D11*
X200281381Y-112510285D02*
X200281381Y-113081714D01*
X200281381Y-112796000D02*
X199281381Y-112796000D01*
X199424238Y-112891238D01*
X199519476Y-112986476D01*
X199567095Y-113081714D01*
D12*
X165742667Y-93353381D02*
X165742667Y-94067667D01*
X165695047Y-94210524D01*
X165599809Y-94305762D01*
X165456952Y-94353381D01*
X165361714Y-94353381D01*
X166647429Y-93686714D02*
X166647429Y-94353381D01*
X166409333Y-93305762D02*
X166171238Y-94020048D01*
X166790286Y-94020048D01*
X201557381Y-95897333D02*
X202271667Y-95897333D01*
X202414524Y-95944953D01*
X202509762Y-96040191D01*
X202557381Y-96183048D01*
X202557381Y-96278286D01*
X201557381Y-94944952D02*
X201557381Y-95421143D01*
X202033571Y-95468762D01*
X201985952Y-95421143D01*
X201938333Y-95325905D01*
X201938333Y-95087809D01*
X201985952Y-94992571D01*
X202033571Y-94944952D01*
X202128810Y-94897333D01*
X202366905Y-94897333D01*
X202462143Y-94944952D01*
X202509762Y-94992571D01*
X202557381Y-95087809D01*
X202557381Y-95325905D01*
X202509762Y-95421143D01*
X202462143Y-95468762D01*
X169640381Y-127293666D02*
X169164190Y-127627000D01*
X169640381Y-127865095D02*
X168640381Y-127865095D01*
X168640381Y-127484142D01*
X168688000Y-127388904D01*
X168735619Y-127341285D01*
X168830857Y-127293666D01*
X168973714Y-127293666D01*
X169068952Y-127341285D01*
X169116571Y-127388904D01*
X169164190Y-127484142D01*
X169164190Y-127865095D01*
X169640381Y-126341285D02*
X169640381Y-126912714D01*
X169640381Y-126627000D02*
X168640381Y-126627000D01*
X168783238Y-126722238D01*
X168878476Y-126817476D01*
X168926095Y-126912714D01*
X176371381Y-127166666D02*
X175895190Y-127500000D01*
X176371381Y-127738095D02*
X175371381Y-127738095D01*
X175371381Y-127357142D01*
X175419000Y-127261904D01*
X175466619Y-127214285D01*
X175561857Y-127166666D01*
X175704714Y-127166666D01*
X175799952Y-127214285D01*
X175847571Y-127261904D01*
X175895190Y-127357142D01*
X175895190Y-127738095D01*
X175466619Y-126785714D02*
X175419000Y-126738095D01*
X175371381Y-126642857D01*
X175371381Y-126404761D01*
X175419000Y-126309523D01*
X175466619Y-126261904D01*
X175561857Y-126214285D01*
X175657095Y-126214285D01*
X175799952Y-126261904D01*
X176371381Y-126833333D01*
X176371381Y-126214285D01*
X190460334Y-107283381D02*
X190127000Y-106807190D01*
X189888905Y-107283381D02*
X189888905Y-106283381D01*
X190269858Y-106283381D01*
X190365096Y-106331000D01*
X190412715Y-106378619D01*
X190460334Y-106473857D01*
X190460334Y-106616714D01*
X190412715Y-106711952D01*
X190365096Y-106759571D01*
X190269858Y-106807190D01*
X189888905Y-106807190D01*
X190793667Y-106283381D02*
X191412715Y-106283381D01*
X191079381Y-106664333D01*
X191222239Y-106664333D01*
X191317477Y-106711952D01*
X191365096Y-106759571D01*
X191412715Y-106854810D01*
X191412715Y-107092905D01*
X191365096Y-107188143D01*
X191317477Y-107235762D01*
X191222239Y-107283381D01*
X190936524Y-107283381D01*
X190841286Y-107235762D01*
X190793667Y-107188143D01*
X168449381Y-127293666D02*
X167973190Y-127627000D01*
X168449381Y-127865095D02*
X167449381Y-127865095D01*
X167449381Y-127484142D01*
X167497000Y-127388904D01*
X167544619Y-127341285D01*
X167639857Y-127293666D01*
X167782714Y-127293666D01*
X167877952Y-127341285D01*
X167925571Y-127388904D01*
X167973190Y-127484142D01*
X167973190Y-127865095D01*
X167782714Y-126436523D02*
X168449381Y-126436523D01*
X167401762Y-126674619D02*
X168116048Y-126912714D01*
X168116048Y-126293666D01*
X161718381Y-127293666D02*
X161242190Y-127627000D01*
X161718381Y-127865095D02*
X160718381Y-127865095D01*
X160718381Y-127484142D01*
X160766000Y-127388904D01*
X160813619Y-127341285D01*
X160908857Y-127293666D01*
X161051714Y-127293666D01*
X161146952Y-127341285D01*
X161194571Y-127388904D01*
X161242190Y-127484142D01*
X161242190Y-127865095D01*
X160718381Y-126388904D02*
X160718381Y-126865095D01*
X161194571Y-126912714D01*
X161146952Y-126865095D01*
X161099333Y-126769857D01*
X161099333Y-126531761D01*
X161146952Y-126436523D01*
X161194571Y-126388904D01*
X161289810Y-126341285D01*
X161527905Y-126341285D01*
X161623143Y-126388904D01*
X161670762Y-126436523D01*
X161718381Y-126531761D01*
X161718381Y-126769857D01*
X161670762Y-126865095D01*
X161623143Y-126912714D01*
X214169381Y-112942666D02*
X213693190Y-113276000D01*
X214169381Y-113514095D02*
X213169381Y-113514095D01*
X213169381Y-113133142D01*
X213217000Y-113037904D01*
X213264619Y-112990285D01*
X213359857Y-112942666D01*
X213502714Y-112942666D01*
X213597952Y-112990285D01*
X213645571Y-113037904D01*
X213693190Y-113133142D01*
X213693190Y-113514095D01*
X213169381Y-112085523D02*
X213169381Y-112276000D01*
X213217000Y-112371238D01*
X213264619Y-112418857D01*
X213407476Y-112514095D01*
X213597952Y-112561714D01*
X213978905Y-112561714D01*
X214074143Y-112514095D01*
X214121762Y-112466476D01*
X214169381Y-112371238D01*
X214169381Y-112180761D01*
X214121762Y-112085523D01*
X214074143Y-112037904D01*
X213978905Y-111990285D01*
X213740810Y-111990285D01*
X213645571Y-112037904D01*
X213597952Y-112085523D01*
X213550333Y-112180761D01*
X213550333Y-112371238D01*
X213597952Y-112466476D01*
X213645571Y-112514095D01*
X213740810Y-112561714D01*
X210867381Y-112942666D02*
X210391190Y-113276000D01*
X210867381Y-113514095D02*
X209867381Y-113514095D01*
X209867381Y-113133142D01*
X209915000Y-113037904D01*
X209962619Y-112990285D01*
X210057857Y-112942666D01*
X210200714Y-112942666D01*
X210295952Y-112990285D01*
X210343571Y-113037904D01*
X210391190Y-113133142D01*
X210391190Y-113514095D01*
X209867381Y-112609333D02*
X209867381Y-111942666D01*
X210867381Y-112371238D01*
X207565381Y-112942666D02*
X207089190Y-113276000D01*
X207565381Y-113514095D02*
X206565381Y-113514095D01*
X206565381Y-113133142D01*
X206613000Y-113037904D01*
X206660619Y-112990285D01*
X206755857Y-112942666D01*
X206898714Y-112942666D01*
X206993952Y-112990285D01*
X207041571Y-113037904D01*
X207089190Y-113133142D01*
X207089190Y-113514095D01*
X206993952Y-112371238D02*
X206946333Y-112466476D01*
X206898714Y-112514095D01*
X206803476Y-112561714D01*
X206755857Y-112561714D01*
X206660619Y-112514095D01*
X206613000Y-112466476D01*
X206565381Y-112371238D01*
X206565381Y-112180761D01*
X206613000Y-112085523D01*
X206660619Y-112037904D01*
X206755857Y-111990285D01*
X206803476Y-111990285D01*
X206898714Y-112037904D01*
X206946333Y-112085523D01*
X206993952Y-112180761D01*
X206993952Y-112371238D01*
X207041571Y-112466476D01*
X207089190Y-112514095D01*
X207184429Y-112561714D01*
X207374905Y-112561714D01*
X207470143Y-112514095D01*
X207517762Y-112466476D01*
X207565381Y-112371238D01*
X207565381Y-112180761D01*
X207517762Y-112085523D01*
X207470143Y-112037904D01*
X207374905Y-111990285D01*
X207184429Y-111990285D01*
X207089190Y-112037904D01*
X207041571Y-112085523D01*
X206993952Y-112180761D01*
X191008095Y-104758381D02*
X191008095Y-105567905D01*
X191055714Y-105663143D01*
X191103333Y-105710762D01*
X191198571Y-105758381D01*
X191389048Y-105758381D01*
X191484286Y-105710762D01*
X191531905Y-105663143D01*
X191579524Y-105567905D01*
X191579524Y-104758381D01*
X192579524Y-105758381D02*
X192008095Y-105758381D01*
X192293809Y-105758381D02*
X192293809Y-104758381D01*
X192198571Y-104901238D01*
X192103333Y-104996476D01*
X192008095Y-105044095D01*
X196596095Y-64851381D02*
X196596095Y-65660905D01*
X196643714Y-65756143D01*
X196691333Y-65803762D01*
X196786571Y-65851381D01*
X196977048Y-65851381D01*
X197072286Y-65803762D01*
X197119905Y-65756143D01*
X197167524Y-65660905D01*
X197167524Y-64851381D01*
X197596095Y-64946619D02*
X197643714Y-64899000D01*
X197738952Y-64851381D01*
X197977048Y-64851381D01*
X198072286Y-64899000D01*
X198119905Y-64946619D01*
X198167524Y-65041857D01*
X198167524Y-65137095D01*
X198119905Y-65279952D01*
X197548476Y-65851381D01*
X198167524Y-65851381D01*
X187016190Y-116835191D02*
X187492381Y-116835191D01*
X186492381Y-117168524D02*
X187016190Y-116835191D01*
X186492381Y-116501857D01*
X187492381Y-115644714D02*
X187492381Y-116216143D01*
X187492381Y-115930429D02*
X186492381Y-115930429D01*
X186635238Y-116025667D01*
X186730476Y-116120905D01*
X186778095Y-116216143D01*
X158098381Y-106171905D02*
X158907905Y-106171905D01*
X159003143Y-106124286D01*
X159050762Y-106076667D01*
X159098381Y-105981429D01*
X159098381Y-105790952D01*
X159050762Y-105695714D01*
X159003143Y-105648095D01*
X158907905Y-105600476D01*
X158098381Y-105600476D01*
X158098381Y-105219524D02*
X158098381Y-104600476D01*
X158479333Y-104933810D01*
X158479333Y-104790952D01*
X158526952Y-104695714D01*
X158574571Y-104648095D01*
X158669810Y-104600476D01*
X158907905Y-104600476D01*
X159003143Y-104648095D01*
X159050762Y-104695714D01*
X159098381Y-104790952D01*
X159098381Y-105076667D01*
X159050762Y-105171905D01*
X159003143Y-105219524D01*
X225583762Y-98972619D02*
X225488524Y-98925000D01*
X225393286Y-98829762D01*
X225250429Y-98686905D01*
X225155190Y-98639286D01*
X225059952Y-98639286D01*
X225107571Y-98877381D02*
X225012333Y-98829762D01*
X224917095Y-98734524D01*
X224869476Y-98544048D01*
X224869476Y-98210714D01*
X224917095Y-98020238D01*
X225012333Y-97925000D01*
X225107571Y-97877381D01*
X225298048Y-97877381D01*
X225393286Y-97925000D01*
X225488524Y-98020238D01*
X225536143Y-98210714D01*
X225536143Y-98544048D01*
X225488524Y-98734524D01*
X225393286Y-98829762D01*
X225298048Y-98877381D01*
X225107571Y-98877381D01*
X226488524Y-98877381D02*
X225917095Y-98877381D01*
X226202809Y-98877381D02*
X226202809Y-97877381D01*
X226107571Y-98020238D01*
X226012333Y-98115476D01*
X225917095Y-98163095D01*
X225710762Y-95035619D02*
X225615524Y-94988000D01*
X225520286Y-94892762D01*
X225377429Y-94749905D01*
X225282190Y-94702286D01*
X225186952Y-94702286D01*
X225234571Y-94940381D02*
X225139333Y-94892762D01*
X225044095Y-94797524D01*
X224996476Y-94607048D01*
X224996476Y-94273714D01*
X225044095Y-94083238D01*
X225139333Y-93988000D01*
X225234571Y-93940381D01*
X225425048Y-93940381D01*
X225520286Y-93988000D01*
X225615524Y-94083238D01*
X225663143Y-94273714D01*
X225663143Y-94607048D01*
X225615524Y-94797524D01*
X225520286Y-94892762D01*
X225425048Y-94940381D01*
X225234571Y-94940381D01*
X226044095Y-94035619D02*
X226091714Y-93988000D01*
X226186952Y-93940381D01*
X226425048Y-93940381D01*
X226520286Y-93988000D01*
X226567905Y-94035619D01*
X226615524Y-94130857D01*
X226615524Y-94226095D01*
X226567905Y-94368952D01*
X225996476Y-94940381D01*
X226615524Y-94940381D01*
X225710762Y-91733619D02*
X225615524Y-91686000D01*
X225520286Y-91590762D01*
X225377429Y-91447905D01*
X225282190Y-91400286D01*
X225186952Y-91400286D01*
X225234571Y-91638381D02*
X225139333Y-91590762D01*
X225044095Y-91495524D01*
X224996476Y-91305048D01*
X224996476Y-90971714D01*
X225044095Y-90781238D01*
X225139333Y-90686000D01*
X225234571Y-90638381D01*
X225425048Y-90638381D01*
X225520286Y-90686000D01*
X225615524Y-90781238D01*
X225663143Y-90971714D01*
X225663143Y-91305048D01*
X225615524Y-91495524D01*
X225520286Y-91590762D01*
X225425048Y-91638381D01*
X225234571Y-91638381D01*
X225996476Y-90638381D02*
X226615524Y-90638381D01*
X226282190Y-91019333D01*
X226425048Y-91019333D01*
X226520286Y-91066952D01*
X226567905Y-91114571D01*
X226615524Y-91209810D01*
X226615524Y-91447905D01*
X226567905Y-91543143D01*
X226520286Y-91590762D01*
X226425048Y-91638381D01*
X226139333Y-91638381D01*
X226044095Y-91590762D01*
X225996476Y-91543143D01*
M02*
