G04 #@! TF.FileFunction,Copper,L2,Bot,Signal*
%FSLAX46Y46*%
G04 Gerber Fmt 4.6, Leading zero omitted, Abs format (unit mm)*
G04 Created by KiCad (PCBNEW 4.0.7) date 03/17/18 14:29:31*
%MOMM*%
%LPD*%
G01*
G04 APERTURE LIST*
%ADD10C,0.100000*%
%ADD11R,1.850000X1.850000*%
%ADD12C,1.850000*%
%ADD13R,1.727200X1.727200*%
%ADD14O,1.727200X1.727200*%
%ADD15C,1.600000*%
%ADD16R,2.000000X2.000000*%
%ADD17C,2.000000*%
%ADD18R,1.600000X1.600000*%
%ADD19O,2.000000X2.000000*%
%ADD20O,1.600000X1.600000*%
%ADD21R,1.800000X1.800000*%
%ADD22O,1.800000X1.800000*%
%ADD23C,1.500000*%
%ADD24C,0.250000*%
%ADD25C,2.000000*%
%ADD26C,0.254000*%
G04 APERTURE END LIST*
D10*
D11*
X211836000Y-99314000D03*
D12*
X211836000Y-96814000D03*
X211836000Y-94314000D03*
X211836000Y-91814000D03*
D13*
X168656000Y-114427000D03*
D14*
X168656000Y-116967000D03*
X166116000Y-114427000D03*
X166116000Y-116967000D03*
X163576000Y-114427000D03*
X163576000Y-116967000D03*
X161036000Y-114427000D03*
X161036000Y-116967000D03*
D15*
X179578000Y-113919000D03*
X177078000Y-113919000D03*
X179578000Y-118872000D03*
X177078000Y-118872000D03*
X185420000Y-107569000D03*
X182920000Y-107569000D03*
X198120000Y-104521000D03*
X200620000Y-104521000D03*
D16*
X181610000Y-89535000D03*
D17*
X186610000Y-89535000D03*
D16*
X180937856Y-87535000D03*
D17*
X187282144Y-91535000D03*
D18*
X194691000Y-91186000D03*
D15*
X197191000Y-91186000D03*
X200152000Y-89027000D03*
X200152000Y-91527000D03*
X158115000Y-101473000D03*
X158115000Y-103973000D03*
D19*
X180975000Y-74422000D03*
X186055000Y-79502000D03*
X186055000Y-74422000D03*
D16*
X180975000Y-79502000D03*
D11*
X169418000Y-73152000D03*
D12*
X171918000Y-73152000D03*
D13*
X201549000Y-112776000D03*
D14*
X204089000Y-112776000D03*
X201549000Y-115316000D03*
X204089000Y-115316000D03*
X201549000Y-117856000D03*
X204089000Y-117856000D03*
D11*
X163576000Y-96901000D03*
D12*
X166076000Y-96901000D03*
X168576000Y-96901000D03*
D11*
X205105000Y-99314000D03*
D12*
X205105000Y-96814000D03*
X205105000Y-94314000D03*
X205105000Y-91814000D03*
D15*
X166878000Y-122047000D03*
D20*
X166878000Y-132207000D03*
D15*
X173609000Y-121920000D03*
D20*
X173609000Y-132080000D03*
D15*
X195707000Y-104521000D03*
D20*
X185547000Y-104521000D03*
D15*
X170307000Y-132207000D03*
D20*
X170307000Y-122047000D03*
D15*
X163576000Y-132207000D03*
D20*
X163576000Y-122047000D03*
D15*
X216027000Y-117856000D03*
D20*
X216027000Y-107696000D03*
D15*
X212725000Y-117856000D03*
D20*
X212725000Y-107696000D03*
D15*
X209423000Y-117856000D03*
D20*
X209423000Y-107696000D03*
D18*
X187960000Y-107696000D03*
D20*
X195580000Y-130556000D03*
X187960000Y-110236000D03*
X195580000Y-128016000D03*
X187960000Y-112776000D03*
X195580000Y-125476000D03*
X187960000Y-115316000D03*
X195580000Y-122936000D03*
X187960000Y-117856000D03*
X195580000Y-120396000D03*
X187960000Y-120396000D03*
X195580000Y-117856000D03*
X187960000Y-122936000D03*
X195580000Y-115316000D03*
X187960000Y-125476000D03*
X195580000Y-112776000D03*
X187960000Y-128016000D03*
X195580000Y-110236000D03*
X187960000Y-130556000D03*
X195580000Y-107696000D03*
D21*
X194818000Y-85979000D03*
D22*
X197358000Y-85979000D03*
X199898000Y-85979000D03*
D23*
X183515000Y-113919000D03*
X183515000Y-118799000D03*
D18*
X161036000Y-109220000D03*
D20*
X168656000Y-101600000D03*
X163576000Y-109220000D03*
X166116000Y-101600000D03*
X166116000Y-109220000D03*
X163576000Y-101600000D03*
X168656000Y-109220000D03*
X161036000Y-101600000D03*
D21*
X222885000Y-98298000D03*
D22*
X220345000Y-98298000D03*
X217805000Y-98298000D03*
D21*
X222885000Y-94361000D03*
D22*
X220345000Y-94361000D03*
X217805000Y-94361000D03*
D21*
X223012000Y-90551000D03*
D22*
X220472000Y-90551000D03*
X217932000Y-90551000D03*
D24*
X183515000Y-113919000D02*
X179578000Y-113919000D01*
X187960000Y-115316000D02*
X184912000Y-115316000D01*
X184912000Y-115316000D02*
X183515000Y-113919000D01*
X168656000Y-101600000D02*
X168656000Y-96981000D01*
X168656000Y-96981000D02*
X168576000Y-96901000D01*
X183515000Y-118799000D02*
X183969000Y-118799000D01*
X183969000Y-118799000D02*
X184912000Y-117856000D01*
X184912000Y-117856000D02*
X187960000Y-117856000D01*
X179578000Y-118872000D02*
X183442000Y-118872000D01*
X183442000Y-118872000D02*
X183515000Y-118799000D01*
X201549000Y-117856000D02*
X199263000Y-117856000D01*
X192913000Y-104521000D02*
X185547000Y-104521000D01*
X193548000Y-105156000D02*
X192913000Y-104521000D01*
X193548000Y-117983000D02*
X193548000Y-105156000D01*
X194691000Y-119126000D02*
X193548000Y-117983000D01*
X197993000Y-119126000D02*
X194691000Y-119126000D01*
X199263000Y-117856000D02*
X197993000Y-119126000D01*
X185420000Y-107569000D02*
X187833000Y-107569000D01*
X187833000Y-107569000D02*
X187960000Y-107696000D01*
X185547000Y-104521000D02*
X185547000Y-107442000D01*
X185547000Y-107442000D02*
X185420000Y-107569000D01*
X199898000Y-85979000D02*
X199898000Y-88773000D01*
X199898000Y-88773000D02*
X200152000Y-89027000D01*
X173609000Y-132080000D02*
X173609000Y-124333000D01*
X174117000Y-116967000D02*
X168656000Y-116967000D01*
X175006000Y-117856000D02*
X174117000Y-116967000D01*
X175006000Y-122936000D02*
X175006000Y-117856000D01*
X173609000Y-124333000D02*
X175006000Y-122936000D01*
X163576000Y-132207000D02*
X166878000Y-132207000D01*
X166878000Y-132207000D02*
X170307000Y-132207000D01*
X170307000Y-132207000D02*
X170434000Y-132080000D01*
X170434000Y-132080000D02*
X173609000Y-132080000D01*
X195707000Y-104521000D02*
X198120000Y-104521000D01*
X161036000Y-101600000D02*
X158242000Y-101600000D01*
X158242000Y-101600000D02*
X158115000Y-101473000D01*
X195580000Y-107696000D02*
X195707000Y-107696000D01*
X195707000Y-107696000D02*
X199136000Y-111125000D01*
X202438000Y-111125000D02*
X204089000Y-112776000D01*
X199136000Y-111125000D02*
X202438000Y-111125000D01*
X195580000Y-107696000D02*
X195580000Y-104648000D01*
X195580000Y-104648000D02*
X195707000Y-104521000D01*
D25*
X194691000Y-91186000D02*
X194691000Y-96393000D01*
X197612000Y-99314000D02*
X205105000Y-99314000D01*
X194691000Y-96393000D02*
X197612000Y-99314000D01*
X180975000Y-79502000D02*
X180975000Y-87497856D01*
X180975000Y-87497856D02*
X180937856Y-87535000D01*
D24*
X194818000Y-85979000D02*
X182493856Y-85979000D01*
X182493856Y-85979000D02*
X180937856Y-87535000D01*
X194691000Y-91186000D02*
X194691000Y-86106000D01*
X194691000Y-86106000D02*
X194818000Y-85979000D01*
D25*
X169418000Y-73152000D02*
X169418000Y-71120000D01*
X177038000Y-70485000D02*
X180975000Y-74422000D01*
X170053000Y-70485000D02*
X177038000Y-70485000D01*
X169418000Y-71120000D02*
X170053000Y-70485000D01*
X171918000Y-73152000D02*
X174371000Y-73152000D01*
X183388000Y-76835000D02*
X186055000Y-79502000D01*
X178054000Y-76835000D02*
X183388000Y-76835000D01*
X174371000Y-73152000D02*
X178054000Y-76835000D01*
D24*
X187960000Y-112776000D02*
X187452000Y-112776000D01*
X187452000Y-112776000D02*
X185039000Y-110363000D01*
X185039000Y-110363000D02*
X169799000Y-110363000D01*
X169799000Y-110363000D02*
X168656000Y-109220000D01*
X168656000Y-114427000D02*
X168656000Y-109220000D01*
X173609000Y-121920000D02*
X172085000Y-120396000D01*
X167386000Y-115697000D02*
X166116000Y-114427000D01*
X167386000Y-118110000D02*
X167386000Y-115697000D01*
X169672000Y-120396000D02*
X167386000Y-118110000D01*
X172085000Y-120396000D02*
X169672000Y-120396000D01*
X170307000Y-122047000D02*
X169418000Y-122047000D01*
X166116000Y-118745000D02*
X166116000Y-116967000D01*
X169418000Y-122047000D02*
X166116000Y-118745000D01*
X166878000Y-122047000D02*
X165100000Y-120269000D01*
X164846000Y-115697000D02*
X163576000Y-114427000D01*
X164846000Y-120015000D02*
X164846000Y-115697000D01*
X165100000Y-120269000D02*
X164846000Y-120015000D01*
X163576000Y-122047000D02*
X163576000Y-116967000D01*
X187960000Y-110236000D02*
X186817000Y-110236000D01*
X162433000Y-107823000D02*
X161036000Y-109220000D01*
X170180000Y-107823000D02*
X162433000Y-107823000D01*
X171577000Y-109220000D02*
X170180000Y-107823000D01*
X185801000Y-109220000D02*
X171577000Y-109220000D01*
X186817000Y-110236000D02*
X185801000Y-109220000D01*
X161036000Y-116967000D02*
X162306000Y-115697000D01*
X162306000Y-110490000D02*
X161036000Y-109220000D01*
X162306000Y-115697000D02*
X162306000Y-110490000D01*
X201549000Y-112776000D02*
X195580000Y-112776000D01*
X195580000Y-115316000D02*
X197739000Y-115316000D01*
X202819000Y-114046000D02*
X204089000Y-115316000D01*
X199009000Y-114046000D02*
X202819000Y-114046000D01*
X197739000Y-115316000D02*
X199009000Y-114046000D01*
X163576000Y-101600000D02*
X163576000Y-96901000D01*
X166116000Y-101600000D02*
X166116000Y-96941000D01*
X166116000Y-96941000D02*
X166076000Y-96901000D01*
D25*
X217805000Y-98298000D02*
X216154000Y-98298000D01*
X214670000Y-96814000D02*
X211836000Y-96814000D01*
X216154000Y-98298000D02*
X214670000Y-96814000D01*
X217805000Y-94361000D02*
X211883000Y-94361000D01*
X211883000Y-94361000D02*
X211836000Y-94314000D01*
X217932000Y-90551000D02*
X213099000Y-90551000D01*
X213099000Y-90551000D02*
X211836000Y-91814000D01*
D24*
X195580000Y-122936000D02*
X210947000Y-122936000D01*
X210947000Y-122936000D02*
X216027000Y-117856000D01*
X195580000Y-120396000D02*
X210185000Y-120396000D01*
X210185000Y-120396000D02*
X212725000Y-117856000D01*
X163576000Y-109220000D02*
X166116000Y-109220000D01*
X195580000Y-110236000D02*
X195326000Y-110236000D01*
X195326000Y-110236000D02*
X194183000Y-111379000D01*
X194183000Y-111379000D02*
X194183000Y-115697000D01*
X194183000Y-115697000D02*
X195072000Y-116586000D01*
X195072000Y-116586000D02*
X200279000Y-116586000D01*
X200279000Y-116586000D02*
X201549000Y-115316000D01*
X216027000Y-107696000D02*
X216027000Y-107569000D01*
X216027000Y-107569000D02*
X220345000Y-103251000D01*
X220345000Y-103251000D02*
X220345000Y-98298000D01*
X212725000Y-107696000D02*
X212852000Y-107696000D01*
X212852000Y-107696000D02*
X214122000Y-108966000D01*
X214122000Y-108966000D02*
X217678000Y-108966000D01*
X217678000Y-108966000D02*
X221615000Y-105029000D01*
X221615000Y-105029000D02*
X221615000Y-95631000D01*
X221615000Y-95631000D02*
X220345000Y-94361000D01*
D26*
G36*
X226391000Y-133300000D02*
X174358516Y-133300000D01*
X174623698Y-133122811D01*
X174934767Y-132657264D01*
X175044000Y-132108113D01*
X175044000Y-132051887D01*
X174934767Y-131502736D01*
X174623698Y-131037189D01*
X174425922Y-130905039D01*
X186568096Y-130905039D01*
X186728959Y-131293423D01*
X187104866Y-131708389D01*
X187610959Y-131947914D01*
X187833000Y-131826629D01*
X187833000Y-130683000D01*
X188087000Y-130683000D01*
X188087000Y-131826629D01*
X188309041Y-131947914D01*
X188815134Y-131708389D01*
X189191041Y-131293423D01*
X189351904Y-130905039D01*
X189229915Y-130683000D01*
X188087000Y-130683000D01*
X187833000Y-130683000D01*
X186690085Y-130683000D01*
X186568096Y-130905039D01*
X174425922Y-130905039D01*
X174369000Y-130867005D01*
X174369000Y-124647802D01*
X175543401Y-123473401D01*
X175708148Y-123226840D01*
X175766000Y-122936000D01*
X175766000Y-119879745D01*
X176249861Y-119879745D01*
X176323995Y-120125864D01*
X176861223Y-120318965D01*
X177431454Y-120291778D01*
X177832005Y-120125864D01*
X177906139Y-119879745D01*
X177078000Y-119051605D01*
X176249861Y-119879745D01*
X175766000Y-119879745D01*
X175766000Y-119485653D01*
X175824136Y-119626005D01*
X176070255Y-119700139D01*
X176898395Y-118872000D01*
X176070255Y-118043861D01*
X175824136Y-118117995D01*
X175766000Y-118279736D01*
X175766000Y-117864255D01*
X176249861Y-117864255D01*
X177078000Y-118692395D01*
X177906139Y-117864255D01*
X177832005Y-117618136D01*
X177294777Y-117425035D01*
X176724546Y-117452222D01*
X176323995Y-117618136D01*
X176249861Y-117864255D01*
X175766000Y-117864255D01*
X175766000Y-117856000D01*
X175708148Y-117565161D01*
X175543401Y-117318599D01*
X174654401Y-116429599D01*
X174407839Y-116264852D01*
X174117000Y-116207000D01*
X169945262Y-116207000D01*
X169745029Y-115907330D01*
X169731358Y-115898195D01*
X169754917Y-115893762D01*
X169971041Y-115754690D01*
X170116031Y-115542490D01*
X170167040Y-115290600D01*
X170167040Y-114926745D01*
X176249861Y-114926745D01*
X176323995Y-115172864D01*
X176861223Y-115365965D01*
X177431454Y-115338778D01*
X177832005Y-115172864D01*
X177906139Y-114926745D01*
X177078000Y-114098605D01*
X176249861Y-114926745D01*
X170167040Y-114926745D01*
X170167040Y-113702223D01*
X175631035Y-113702223D01*
X175658222Y-114272454D01*
X175824136Y-114673005D01*
X176070255Y-114747139D01*
X176898395Y-113919000D01*
X176070255Y-113090861D01*
X175824136Y-113164995D01*
X175631035Y-113702223D01*
X170167040Y-113702223D01*
X170167040Y-113563400D01*
X170122762Y-113328083D01*
X169983690Y-113111959D01*
X169771490Y-112966969D01*
X169519600Y-112915960D01*
X169416000Y-112915960D01*
X169416000Y-112911255D01*
X176249861Y-112911255D01*
X177078000Y-113739395D01*
X177906139Y-112911255D01*
X177832005Y-112665136D01*
X177294777Y-112472035D01*
X176724546Y-112499222D01*
X176323995Y-112665136D01*
X176249861Y-112911255D01*
X169416000Y-112911255D01*
X169416000Y-111003568D01*
X169508161Y-111065148D01*
X169799000Y-111123000D01*
X184724198Y-111123000D01*
X186526606Y-112925408D01*
X186606120Y-113325151D01*
X186917189Y-113790698D01*
X187299275Y-114046000D01*
X186917189Y-114301302D01*
X186747005Y-114556000D01*
X185226802Y-114556000D01*
X184890002Y-114219200D01*
X184899759Y-114195702D01*
X184900240Y-113644715D01*
X184689831Y-113135485D01*
X184300564Y-112745539D01*
X183791702Y-112534241D01*
X183240715Y-112533760D01*
X182731485Y-112744169D01*
X182341539Y-113133436D01*
X182330924Y-113159000D01*
X180816646Y-113159000D01*
X180795243Y-113107200D01*
X180391923Y-112703176D01*
X179864691Y-112484250D01*
X179293813Y-112483752D01*
X178766200Y-112701757D01*
X178362176Y-113105077D01*
X178334577Y-113171544D01*
X178331864Y-113164995D01*
X178085745Y-113090861D01*
X177257605Y-113919000D01*
X178085745Y-114747139D01*
X178331864Y-114673005D01*
X178334196Y-114666517D01*
X178360757Y-114730800D01*
X178764077Y-115134824D01*
X179291309Y-115353750D01*
X179862187Y-115354248D01*
X180389800Y-115136243D01*
X180793824Y-114732923D01*
X180816215Y-114679000D01*
X182330453Y-114679000D01*
X182340169Y-114702515D01*
X182729436Y-115092461D01*
X183238298Y-115303759D01*
X183789285Y-115304240D01*
X183814868Y-115293670D01*
X184374599Y-115853401D01*
X184621160Y-116018148D01*
X184912000Y-116076000D01*
X186747005Y-116076000D01*
X186917189Y-116330698D01*
X187299275Y-116586000D01*
X186917189Y-116841302D01*
X186747005Y-117096000D01*
X184912000Y-117096000D01*
X184621160Y-117153852D01*
X184374599Y-117318599D01*
X184135994Y-117557204D01*
X183791702Y-117414241D01*
X183240715Y-117413760D01*
X182731485Y-117624169D01*
X182341539Y-118013436D01*
X182300612Y-118112000D01*
X180816646Y-118112000D01*
X180795243Y-118060200D01*
X180391923Y-117656176D01*
X179864691Y-117437250D01*
X179293813Y-117436752D01*
X178766200Y-117654757D01*
X178362176Y-118058077D01*
X178334577Y-118124544D01*
X178331864Y-118117995D01*
X178085745Y-118043861D01*
X177257605Y-118872000D01*
X178085745Y-119700139D01*
X178331864Y-119626005D01*
X178334196Y-119619517D01*
X178360757Y-119683800D01*
X178764077Y-120087824D01*
X179291309Y-120306750D01*
X179862187Y-120307248D01*
X180389800Y-120089243D01*
X180793824Y-119685923D01*
X180816215Y-119632000D01*
X182389568Y-119632000D01*
X182729436Y-119972461D01*
X183238298Y-120183759D01*
X183789285Y-120184240D01*
X184298515Y-119973831D01*
X184688461Y-119584564D01*
X184899759Y-119075702D01*
X184899875Y-118942927D01*
X185226802Y-118616000D01*
X186747005Y-118616000D01*
X186917189Y-118870698D01*
X187299275Y-119126000D01*
X186917189Y-119381302D01*
X186606120Y-119846849D01*
X186496887Y-120396000D01*
X186606120Y-120945151D01*
X186917189Y-121410698D01*
X187299275Y-121666000D01*
X186917189Y-121921302D01*
X186606120Y-122386849D01*
X186496887Y-122936000D01*
X186606120Y-123485151D01*
X186917189Y-123950698D01*
X187299275Y-124206000D01*
X186917189Y-124461302D01*
X186606120Y-124926849D01*
X186496887Y-125476000D01*
X186606120Y-126025151D01*
X186917189Y-126490698D01*
X187299275Y-126746000D01*
X186917189Y-127001302D01*
X186606120Y-127466849D01*
X186496887Y-128016000D01*
X186606120Y-128565151D01*
X186917189Y-129030698D01*
X187321703Y-129300986D01*
X187104866Y-129403611D01*
X186728959Y-129818577D01*
X186568096Y-130206961D01*
X186690085Y-130429000D01*
X187833000Y-130429000D01*
X187833000Y-130409000D01*
X188087000Y-130409000D01*
X188087000Y-130429000D01*
X189229915Y-130429000D01*
X189351904Y-130206961D01*
X189191041Y-129818577D01*
X188815134Y-129403611D01*
X188598297Y-129300986D01*
X189002811Y-129030698D01*
X189313880Y-128565151D01*
X189423113Y-128016000D01*
X189313880Y-127466849D01*
X189002811Y-127001302D01*
X188620725Y-126746000D01*
X189002811Y-126490698D01*
X189313880Y-126025151D01*
X189423113Y-125476000D01*
X189313880Y-124926849D01*
X189002811Y-124461302D01*
X188620725Y-124206000D01*
X189002811Y-123950698D01*
X189313880Y-123485151D01*
X189423113Y-122936000D01*
X189313880Y-122386849D01*
X189002811Y-121921302D01*
X188620725Y-121666000D01*
X189002811Y-121410698D01*
X189313880Y-120945151D01*
X189423113Y-120396000D01*
X189313880Y-119846849D01*
X189002811Y-119381302D01*
X188620725Y-119126000D01*
X189002811Y-118870698D01*
X189313880Y-118405151D01*
X189423113Y-117856000D01*
X189313880Y-117306849D01*
X189002811Y-116841302D01*
X188620725Y-116586000D01*
X189002811Y-116330698D01*
X189313880Y-115865151D01*
X189423113Y-115316000D01*
X189313880Y-114766849D01*
X189002811Y-114301302D01*
X188620725Y-114046000D01*
X189002811Y-113790698D01*
X189313880Y-113325151D01*
X189423113Y-112776000D01*
X189313880Y-112226849D01*
X189002811Y-111761302D01*
X188620725Y-111506000D01*
X189002811Y-111250698D01*
X189313880Y-110785151D01*
X189423113Y-110236000D01*
X189313880Y-109686849D01*
X189002811Y-109221302D01*
X188858535Y-109124899D01*
X188995317Y-109099162D01*
X189211441Y-108960090D01*
X189356431Y-108747890D01*
X189407440Y-108496000D01*
X189407440Y-106896000D01*
X189363162Y-106660683D01*
X189224090Y-106444559D01*
X189011890Y-106299569D01*
X188760000Y-106248560D01*
X187160000Y-106248560D01*
X186924683Y-106292838D01*
X186708559Y-106431910D01*
X186563569Y-106644110D01*
X186556955Y-106676772D01*
X186307000Y-106426381D01*
X186307000Y-105724667D01*
X186589811Y-105535698D01*
X186759995Y-105281000D01*
X192598198Y-105281000D01*
X192788000Y-105470802D01*
X192788000Y-117983000D01*
X192845852Y-118273839D01*
X193010599Y-118520401D01*
X194153599Y-119663401D01*
X194288478Y-119753524D01*
X194226120Y-119846849D01*
X194116887Y-120396000D01*
X194226120Y-120945151D01*
X194537189Y-121410698D01*
X194919275Y-121666000D01*
X194537189Y-121921302D01*
X194226120Y-122386849D01*
X194116887Y-122936000D01*
X194226120Y-123485151D01*
X194537189Y-123950698D01*
X194919275Y-124206000D01*
X194537189Y-124461302D01*
X194226120Y-124926849D01*
X194116887Y-125476000D01*
X194226120Y-126025151D01*
X194537189Y-126490698D01*
X194919275Y-126746000D01*
X194537189Y-127001302D01*
X194226120Y-127466849D01*
X194116887Y-128016000D01*
X194226120Y-128565151D01*
X194537189Y-129030698D01*
X194919275Y-129286000D01*
X194537189Y-129541302D01*
X194226120Y-130006849D01*
X194116887Y-130556000D01*
X194226120Y-131105151D01*
X194537189Y-131570698D01*
X195002736Y-131881767D01*
X195551887Y-131991000D01*
X195608113Y-131991000D01*
X196157264Y-131881767D01*
X196622811Y-131570698D01*
X196933880Y-131105151D01*
X197043113Y-130556000D01*
X196933880Y-130006849D01*
X196622811Y-129541302D01*
X196240725Y-129286000D01*
X196622811Y-129030698D01*
X196933880Y-128565151D01*
X197043113Y-128016000D01*
X196933880Y-127466849D01*
X196622811Y-127001302D01*
X196240725Y-126746000D01*
X196622811Y-126490698D01*
X196933880Y-126025151D01*
X197043113Y-125476000D01*
X196933880Y-124926849D01*
X196622811Y-124461302D01*
X196240725Y-124206000D01*
X196622811Y-123950698D01*
X196792995Y-123696000D01*
X210947000Y-123696000D01*
X211237839Y-123638148D01*
X211484401Y-123473401D01*
X215688546Y-119269256D01*
X215740309Y-119290750D01*
X216311187Y-119291248D01*
X216838800Y-119073243D01*
X217242824Y-118669923D01*
X217461750Y-118142691D01*
X217462248Y-117571813D01*
X217244243Y-117044200D01*
X216840923Y-116640176D01*
X216313691Y-116421250D01*
X215742813Y-116420752D01*
X215215200Y-116638757D01*
X214811176Y-117042077D01*
X214592250Y-117569309D01*
X214591752Y-118140187D01*
X214614049Y-118194149D01*
X210632198Y-122176000D01*
X196792995Y-122176000D01*
X196622811Y-121921302D01*
X196240725Y-121666000D01*
X196622811Y-121410698D01*
X196792995Y-121156000D01*
X210185000Y-121156000D01*
X210475839Y-121098148D01*
X210722401Y-120933401D01*
X212386546Y-119269256D01*
X212438309Y-119290750D01*
X213009187Y-119291248D01*
X213536800Y-119073243D01*
X213940824Y-118669923D01*
X214159750Y-118142691D01*
X214160248Y-117571813D01*
X213942243Y-117044200D01*
X213538923Y-116640176D01*
X213011691Y-116421250D01*
X212440813Y-116420752D01*
X211913200Y-116638757D01*
X211509176Y-117042077D01*
X211290250Y-117569309D01*
X211289752Y-118140187D01*
X211312049Y-118194149D01*
X209870198Y-119636000D01*
X198557802Y-119636000D01*
X199577802Y-118616000D01*
X200269480Y-118616000D01*
X200489330Y-118945029D01*
X200975511Y-119269885D01*
X201549000Y-119383959D01*
X202122489Y-119269885D01*
X202608670Y-118945029D01*
X202824664Y-118621772D01*
X202882179Y-118744490D01*
X203314053Y-119138688D01*
X203729974Y-119310958D01*
X203962000Y-119189817D01*
X203962000Y-117983000D01*
X204216000Y-117983000D01*
X204216000Y-119189817D01*
X204448026Y-119310958D01*
X204863947Y-119138688D01*
X205295821Y-118744490D01*
X205543968Y-118215027D01*
X205505102Y-118140187D01*
X207987752Y-118140187D01*
X208205757Y-118667800D01*
X208609077Y-119071824D01*
X209136309Y-119290750D01*
X209707187Y-119291248D01*
X210234800Y-119073243D01*
X210638824Y-118669923D01*
X210857750Y-118142691D01*
X210858248Y-117571813D01*
X210640243Y-117044200D01*
X210236923Y-116640176D01*
X209709691Y-116421250D01*
X209138813Y-116420752D01*
X208611200Y-116638757D01*
X208207176Y-117042077D01*
X207988250Y-117569309D01*
X207987752Y-118140187D01*
X205505102Y-118140187D01*
X205423469Y-117983000D01*
X204216000Y-117983000D01*
X203962000Y-117983000D01*
X203942000Y-117983000D01*
X203942000Y-117729000D01*
X203962000Y-117729000D01*
X203962000Y-117709000D01*
X204216000Y-117709000D01*
X204216000Y-117729000D01*
X205423469Y-117729000D01*
X205543968Y-117496973D01*
X205295821Y-116967510D01*
X204877839Y-116585992D01*
X205148670Y-116405029D01*
X205473526Y-115918848D01*
X205587600Y-115345359D01*
X205587600Y-115286641D01*
X205473526Y-114713152D01*
X205148670Y-114226971D01*
X204877828Y-114046000D01*
X205148670Y-113865029D01*
X205473526Y-113378848D01*
X205587600Y-112805359D01*
X205587600Y-112746641D01*
X205473526Y-112173152D01*
X205148670Y-111686971D01*
X204662489Y-111362115D01*
X204089000Y-111248041D01*
X203711027Y-111323225D01*
X202975401Y-110587599D01*
X202728839Y-110422852D01*
X202438000Y-110365000D01*
X199450802Y-110365000D01*
X196999759Y-107913957D01*
X197043113Y-107696000D01*
X197037521Y-107667887D01*
X207988000Y-107667887D01*
X207988000Y-107724113D01*
X208097233Y-108273264D01*
X208408302Y-108738811D01*
X208873849Y-109049880D01*
X209423000Y-109159113D01*
X209972151Y-109049880D01*
X210437698Y-108738811D01*
X210748767Y-108273264D01*
X210858000Y-107724113D01*
X210858000Y-107667887D01*
X210748767Y-107118736D01*
X210437698Y-106653189D01*
X209972151Y-106342120D01*
X209423000Y-106232887D01*
X208873849Y-106342120D01*
X208408302Y-106653189D01*
X208097233Y-107118736D01*
X207988000Y-107667887D01*
X197037521Y-107667887D01*
X196933880Y-107146849D01*
X196622811Y-106681302D01*
X196340000Y-106492333D01*
X196340000Y-105812122D01*
X196518800Y-105738243D01*
X196913835Y-105343897D01*
X197306077Y-105736824D01*
X197833309Y-105955750D01*
X198404187Y-105956248D01*
X198931800Y-105738243D01*
X199141663Y-105528745D01*
X199791861Y-105528745D01*
X199865995Y-105774864D01*
X200403223Y-105967965D01*
X200973454Y-105940778D01*
X201374005Y-105774864D01*
X201448139Y-105528745D01*
X200620000Y-104700605D01*
X199791861Y-105528745D01*
X199141663Y-105528745D01*
X199335824Y-105334923D01*
X199363423Y-105268456D01*
X199366136Y-105275005D01*
X199612255Y-105349139D01*
X200440395Y-104521000D01*
X200799605Y-104521000D01*
X201627745Y-105349139D01*
X201873864Y-105275005D01*
X202066965Y-104737777D01*
X202039778Y-104167546D01*
X201873864Y-103766995D01*
X201627745Y-103692861D01*
X200799605Y-104521000D01*
X200440395Y-104521000D01*
X199612255Y-103692861D01*
X199366136Y-103766995D01*
X199363804Y-103773483D01*
X199337243Y-103709200D01*
X199141640Y-103513255D01*
X199791861Y-103513255D01*
X200620000Y-104341395D01*
X201448139Y-103513255D01*
X201374005Y-103267136D01*
X200836777Y-103074035D01*
X200266546Y-103101222D01*
X199865995Y-103267136D01*
X199791861Y-103513255D01*
X199141640Y-103513255D01*
X198933923Y-103305176D01*
X198406691Y-103086250D01*
X197835813Y-103085752D01*
X197308200Y-103303757D01*
X196913165Y-103698103D01*
X196520923Y-103305176D01*
X195993691Y-103086250D01*
X195422813Y-103085752D01*
X194895200Y-103303757D01*
X194491176Y-103707077D01*
X194272250Y-104234309D01*
X194271752Y-104805187D01*
X194489757Y-105332800D01*
X194820000Y-105663619D01*
X194820000Y-106492333D01*
X194537189Y-106681302D01*
X194308000Y-107024307D01*
X194308000Y-105156000D01*
X194250148Y-104865161D01*
X194085401Y-104618599D01*
X193450401Y-103983599D01*
X193203839Y-103818852D01*
X192913000Y-103761000D01*
X186759995Y-103761000D01*
X186589811Y-103506302D01*
X186124264Y-103195233D01*
X185575113Y-103086000D01*
X185518887Y-103086000D01*
X184969736Y-103195233D01*
X184504189Y-103506302D01*
X184193120Y-103971849D01*
X184083887Y-104521000D01*
X184193120Y-105070151D01*
X184504189Y-105535698D01*
X184787000Y-105724667D01*
X184787000Y-106277878D01*
X184608200Y-106351757D01*
X184204176Y-106755077D01*
X184176577Y-106821544D01*
X184173864Y-106814995D01*
X183927745Y-106740861D01*
X183099605Y-107569000D01*
X183113748Y-107583142D01*
X182934142Y-107762748D01*
X182920000Y-107748605D01*
X182905858Y-107762748D01*
X182726252Y-107583142D01*
X182740395Y-107569000D01*
X181912255Y-106740861D01*
X181666136Y-106814995D01*
X181473035Y-107352223D01*
X181500222Y-107922454D01*
X181666136Y-108323005D01*
X181912253Y-108397139D01*
X181849392Y-108460000D01*
X171891802Y-108460000D01*
X170717401Y-107285599D01*
X170470839Y-107120852D01*
X170180000Y-107063000D01*
X162433000Y-107063000D01*
X162142160Y-107120852D01*
X161895599Y-107285599D01*
X161408638Y-107772560D01*
X160236000Y-107772560D01*
X160000683Y-107816838D01*
X159784559Y-107955910D01*
X159639569Y-108168110D01*
X159588560Y-108420000D01*
X159588560Y-110020000D01*
X159632838Y-110255317D01*
X159771910Y-110471441D01*
X159984110Y-110616431D01*
X160236000Y-110667440D01*
X161408638Y-110667440D01*
X161546000Y-110804802D01*
X161546000Y-113042790D01*
X161395027Y-112972032D01*
X161163000Y-113092531D01*
X161163000Y-114300000D01*
X161183000Y-114300000D01*
X161183000Y-114554000D01*
X161163000Y-114554000D01*
X161163000Y-114574000D01*
X160909000Y-114574000D01*
X160909000Y-114554000D01*
X159702183Y-114554000D01*
X159581042Y-114786026D01*
X159753312Y-115201947D01*
X160147510Y-115633821D01*
X160270228Y-115691336D01*
X159946971Y-115907330D01*
X159622115Y-116393511D01*
X159508041Y-116967000D01*
X159622115Y-117540489D01*
X159946971Y-118026670D01*
X160433152Y-118351526D01*
X161006641Y-118465600D01*
X161065359Y-118465600D01*
X161638848Y-118351526D01*
X162125029Y-118026670D01*
X162306000Y-117755828D01*
X162486971Y-118026670D01*
X162816000Y-118246520D01*
X162816000Y-120834005D01*
X162561302Y-121004189D01*
X162250233Y-121469736D01*
X162141000Y-122018887D01*
X162141000Y-122075113D01*
X162250233Y-122624264D01*
X162561302Y-123089811D01*
X163026849Y-123400880D01*
X163576000Y-123510113D01*
X164125151Y-123400880D01*
X164590698Y-123089811D01*
X164901767Y-122624264D01*
X165011000Y-122075113D01*
X165011000Y-122018887D01*
X164901767Y-121469736D01*
X164590698Y-121004189D01*
X164336000Y-120834005D01*
X164336000Y-120579802D01*
X165464744Y-121708546D01*
X165443250Y-121760309D01*
X165442752Y-122331187D01*
X165660757Y-122858800D01*
X166064077Y-123262824D01*
X166591309Y-123481750D01*
X167162187Y-123482248D01*
X167689800Y-123264243D01*
X168093824Y-122860923D01*
X168312750Y-122333691D01*
X168313026Y-122016828D01*
X168880599Y-122584401D01*
X169014282Y-122673725D01*
X169292302Y-123089811D01*
X169757849Y-123400880D01*
X170307000Y-123510113D01*
X170856151Y-123400880D01*
X171321698Y-123089811D01*
X171632767Y-122624264D01*
X171742000Y-122075113D01*
X171742000Y-122018887D01*
X171632767Y-121469736D01*
X171423135Y-121156000D01*
X171770198Y-121156000D01*
X172195744Y-121581546D01*
X172174250Y-121633309D01*
X172173752Y-122204187D01*
X172391757Y-122731800D01*
X172795077Y-123135824D01*
X173322309Y-123354750D01*
X173512282Y-123354916D01*
X173071599Y-123795599D01*
X172906852Y-124042161D01*
X172849000Y-124333000D01*
X172849000Y-130867005D01*
X172594302Y-131037189D01*
X172405333Y-131320000D01*
X171449174Y-131320000D01*
X171120923Y-130991176D01*
X170593691Y-130772250D01*
X170022813Y-130771752D01*
X169495200Y-130989757D01*
X169091176Y-131393077D01*
X169068785Y-131447000D01*
X168081667Y-131447000D01*
X167892698Y-131164189D01*
X167427151Y-130853120D01*
X166878000Y-130743887D01*
X166328849Y-130853120D01*
X165863302Y-131164189D01*
X165674333Y-131447000D01*
X164814646Y-131447000D01*
X164793243Y-131395200D01*
X164389923Y-130991176D01*
X163862691Y-130772250D01*
X163291813Y-130771752D01*
X162764200Y-130989757D01*
X162360176Y-131393077D01*
X162141250Y-131920309D01*
X162140752Y-132491187D01*
X162358757Y-133018800D01*
X162639467Y-133300000D01*
X154990000Y-133300000D01*
X154990000Y-114067974D01*
X159581042Y-114067974D01*
X159702183Y-114300000D01*
X160909000Y-114300000D01*
X160909000Y-113092531D01*
X160676973Y-112972032D01*
X160147510Y-113220179D01*
X159753312Y-113652053D01*
X159581042Y-114067974D01*
X154990000Y-114067974D01*
X154990000Y-106561255D01*
X182091861Y-106561255D01*
X182920000Y-107389395D01*
X183748139Y-106561255D01*
X183674005Y-106315136D01*
X183136777Y-106122035D01*
X182566546Y-106149222D01*
X182165995Y-106315136D01*
X182091861Y-106561255D01*
X154990000Y-106561255D01*
X154990000Y-104980745D01*
X157286861Y-104980745D01*
X157360995Y-105226864D01*
X157898223Y-105419965D01*
X158468454Y-105392778D01*
X158869005Y-105226864D01*
X158943139Y-104980745D01*
X158115000Y-104152605D01*
X157286861Y-104980745D01*
X154990000Y-104980745D01*
X154990000Y-103756223D01*
X156668035Y-103756223D01*
X156695222Y-104326454D01*
X156861136Y-104727005D01*
X157107255Y-104801139D01*
X157935395Y-103973000D01*
X158294605Y-103973000D01*
X159122745Y-104801139D01*
X159368864Y-104727005D01*
X159561965Y-104189777D01*
X159534778Y-103619546D01*
X159368864Y-103218995D01*
X159122745Y-103144861D01*
X158294605Y-103973000D01*
X157935395Y-103973000D01*
X157107255Y-103144861D01*
X156861136Y-103218995D01*
X156668035Y-103756223D01*
X154990000Y-103756223D01*
X154990000Y-101757187D01*
X156679752Y-101757187D01*
X156897757Y-102284800D01*
X157301077Y-102688824D01*
X157367544Y-102716423D01*
X157360995Y-102719136D01*
X157286861Y-102965255D01*
X158115000Y-103793395D01*
X158943139Y-102965255D01*
X158869005Y-102719136D01*
X158862517Y-102716804D01*
X158926800Y-102690243D01*
X159257619Y-102360000D01*
X159832333Y-102360000D01*
X160021302Y-102642811D01*
X160486849Y-102953880D01*
X161036000Y-103063113D01*
X161585151Y-102953880D01*
X162050698Y-102642811D01*
X162306000Y-102260725D01*
X162561302Y-102642811D01*
X163026849Y-102953880D01*
X163576000Y-103063113D01*
X164125151Y-102953880D01*
X164590698Y-102642811D01*
X164846000Y-102260725D01*
X165101302Y-102642811D01*
X165566849Y-102953880D01*
X166116000Y-103063113D01*
X166665151Y-102953880D01*
X167130698Y-102642811D01*
X167400986Y-102238297D01*
X167503611Y-102455134D01*
X167918577Y-102831041D01*
X168306961Y-102991904D01*
X168529000Y-102869915D01*
X168529000Y-101727000D01*
X168783000Y-101727000D01*
X168783000Y-102869915D01*
X169005039Y-102991904D01*
X169393423Y-102831041D01*
X169808389Y-102455134D01*
X170047914Y-101949041D01*
X169926629Y-101727000D01*
X168783000Y-101727000D01*
X168529000Y-101727000D01*
X168509000Y-101727000D01*
X168509000Y-101473000D01*
X168529000Y-101473000D01*
X168529000Y-100330085D01*
X168783000Y-100330085D01*
X168783000Y-101473000D01*
X169926629Y-101473000D01*
X170047914Y-101250959D01*
X169808389Y-100744866D01*
X169393423Y-100368959D01*
X169005039Y-100208096D01*
X168783000Y-100330085D01*
X168529000Y-100330085D01*
X168306961Y-100208096D01*
X167918577Y-100368959D01*
X167503611Y-100744866D01*
X167400986Y-100961703D01*
X167130698Y-100557189D01*
X166876000Y-100387005D01*
X166876000Y-98258369D01*
X166958514Y-98224275D01*
X167183926Y-97999256D01*
X167657349Y-97999256D01*
X167746821Y-98258332D01*
X168329368Y-98472325D01*
X168949461Y-98447097D01*
X169405179Y-98258332D01*
X169494651Y-97999256D01*
X168576000Y-97080605D01*
X167657349Y-97999256D01*
X167183926Y-97999256D01*
X167393121Y-97790426D01*
X167477744Y-97819651D01*
X168396395Y-96901000D01*
X168755605Y-96901000D01*
X169674256Y-97819651D01*
X169933332Y-97730179D01*
X170147325Y-97147632D01*
X170122097Y-96527539D01*
X169933332Y-96071821D01*
X169674256Y-95982349D01*
X168755605Y-96901000D01*
X168396395Y-96901000D01*
X167477744Y-95982349D01*
X167392566Y-96011765D01*
X167183910Y-95802744D01*
X167657349Y-95802744D01*
X168576000Y-96721395D01*
X169494651Y-95802744D01*
X169405179Y-95543668D01*
X168822632Y-95329675D01*
X168202539Y-95354903D01*
X167746821Y-95543668D01*
X167657349Y-95802744D01*
X167183910Y-95802744D01*
X166960823Y-95579268D01*
X166387664Y-95341272D01*
X165767058Y-95340730D01*
X165193486Y-95577725D01*
X165075251Y-95695754D01*
X164965090Y-95524559D01*
X164752890Y-95379569D01*
X164501000Y-95328560D01*
X162651000Y-95328560D01*
X162415683Y-95372838D01*
X162199559Y-95511910D01*
X162054569Y-95724110D01*
X162003560Y-95976000D01*
X162003560Y-97826000D01*
X162047838Y-98061317D01*
X162186910Y-98277441D01*
X162399110Y-98422431D01*
X162651000Y-98473440D01*
X162816000Y-98473440D01*
X162816000Y-100387005D01*
X162561302Y-100557189D01*
X162306000Y-100939275D01*
X162050698Y-100557189D01*
X161585151Y-100246120D01*
X161036000Y-100136887D01*
X160486849Y-100246120D01*
X160021302Y-100557189D01*
X159832333Y-100840000D01*
X159406122Y-100840000D01*
X159332243Y-100661200D01*
X158928923Y-100257176D01*
X158401691Y-100038250D01*
X157830813Y-100037752D01*
X157303200Y-100255757D01*
X156899176Y-100659077D01*
X156680250Y-101186309D01*
X156679752Y-101757187D01*
X154990000Y-101757187D01*
X154990000Y-92687532D01*
X186309217Y-92687532D01*
X186407880Y-92954387D01*
X187017605Y-93180908D01*
X187667604Y-93156856D01*
X188156408Y-92954387D01*
X188255071Y-92687532D01*
X187282144Y-91714605D01*
X186309217Y-92687532D01*
X154990000Y-92687532D01*
X154990000Y-91270461D01*
X185636236Y-91270461D01*
X185660288Y-91920460D01*
X185862757Y-92409264D01*
X186129612Y-92507927D01*
X187102539Y-91535000D01*
X187461749Y-91535000D01*
X188434676Y-92507927D01*
X188701531Y-92409264D01*
X188928052Y-91799539D01*
X188904000Y-91149540D01*
X188701531Y-90660736D01*
X188434676Y-90562073D01*
X187461749Y-91535000D01*
X187102539Y-91535000D01*
X187088397Y-91520858D01*
X187268002Y-91341253D01*
X187282144Y-91355395D01*
X188255071Y-90382468D01*
X188156408Y-90115613D01*
X188140656Y-90109761D01*
X188255908Y-89799539D01*
X188231856Y-89149540D01*
X188029387Y-88660736D01*
X187762532Y-88562073D01*
X186789605Y-89535000D01*
X186803748Y-89549143D01*
X186624143Y-89728748D01*
X186610000Y-89714605D01*
X185637073Y-90687532D01*
X185735736Y-90954387D01*
X185751488Y-90960239D01*
X185636236Y-91270461D01*
X154990000Y-91270461D01*
X154990000Y-71120000D01*
X167782999Y-71120000D01*
X167783000Y-71120005D01*
X167783000Y-73152000D01*
X167845560Y-73466510D01*
X167845560Y-74077000D01*
X167889838Y-74312317D01*
X168028910Y-74528441D01*
X168241110Y-74673431D01*
X168493000Y-74724440D01*
X169103490Y-74724440D01*
X169418000Y-74787000D01*
X169732510Y-74724440D01*
X170343000Y-74724440D01*
X170578317Y-74680162D01*
X170794441Y-74541090D01*
X170893522Y-74396080D01*
X171292313Y-74662543D01*
X171918000Y-74787000D01*
X173693760Y-74787000D01*
X176897878Y-77991117D01*
X176897880Y-77991120D01*
X177380878Y-78313848D01*
X177428313Y-78345543D01*
X178054000Y-78470001D01*
X178054005Y-78470000D01*
X179334040Y-78470000D01*
X179327560Y-78502000D01*
X179327560Y-80502000D01*
X179340000Y-80568113D01*
X179340000Y-86290147D01*
X179290416Y-86535000D01*
X179290416Y-88535000D01*
X179334694Y-88770317D01*
X179473766Y-88986441D01*
X179685966Y-89131431D01*
X179937856Y-89182440D01*
X179962560Y-89182440D01*
X179962560Y-90535000D01*
X180006838Y-90770317D01*
X180145910Y-90986441D01*
X180358110Y-91131431D01*
X180610000Y-91182440D01*
X182610000Y-91182440D01*
X182845317Y-91138162D01*
X183061441Y-90999090D01*
X183206431Y-90786890D01*
X183257440Y-90535000D01*
X183257440Y-89270461D01*
X184964092Y-89270461D01*
X184988144Y-89920460D01*
X185190613Y-90409264D01*
X185457468Y-90507927D01*
X186430395Y-89535000D01*
X185457468Y-88562073D01*
X185190613Y-88660736D01*
X184964092Y-89270461D01*
X183257440Y-89270461D01*
X183257440Y-88535000D01*
X183228740Y-88382468D01*
X185637073Y-88382468D01*
X186610000Y-89355395D01*
X187582927Y-88382468D01*
X187484264Y-88115613D01*
X186874539Y-87889092D01*
X186224540Y-87913144D01*
X185735736Y-88115613D01*
X185637073Y-88382468D01*
X183228740Y-88382468D01*
X183213162Y-88299683D01*
X183074090Y-88083559D01*
X182861890Y-87938569D01*
X182610000Y-87887560D01*
X182585296Y-87887560D01*
X182585296Y-87622055D01*
X182610001Y-87497856D01*
X182610000Y-87497851D01*
X182610000Y-86937658D01*
X182808658Y-86739000D01*
X193270560Y-86739000D01*
X193270560Y-86879000D01*
X193314838Y-87114317D01*
X193453910Y-87330441D01*
X193666110Y-87475431D01*
X193918000Y-87526440D01*
X193931000Y-87526440D01*
X193931000Y-89738560D01*
X193891000Y-89738560D01*
X193655683Y-89782838D01*
X193439559Y-89921910D01*
X193294569Y-90134110D01*
X193243560Y-90386000D01*
X193243560Y-90465872D01*
X193180457Y-90560313D01*
X193056000Y-91186000D01*
X193056000Y-96392995D01*
X193055999Y-96393000D01*
X193180457Y-97018688D01*
X193534880Y-97549120D01*
X196455878Y-100470117D01*
X196455880Y-100470120D01*
X196721096Y-100647331D01*
X196986312Y-100824543D01*
X197612000Y-100949001D01*
X197612005Y-100949000D01*
X205105000Y-100949000D01*
X205419510Y-100886440D01*
X206030000Y-100886440D01*
X206265317Y-100842162D01*
X206481441Y-100703090D01*
X206626431Y-100490890D01*
X206677440Y-100239000D01*
X206677440Y-99628510D01*
X206740000Y-99314000D01*
X206677440Y-98999490D01*
X206677440Y-98389000D01*
X206633162Y-98153683D01*
X206494090Y-97937559D01*
X206312126Y-97813229D01*
X206426732Y-97698823D01*
X206664728Y-97125664D01*
X206665270Y-96505058D01*
X206428275Y-95931486D01*
X206061174Y-95563744D01*
X206426732Y-95198823D01*
X206664728Y-94625664D01*
X206665270Y-94005058D01*
X206428275Y-93431486D01*
X206061174Y-93063744D01*
X206426732Y-92698823D01*
X206664728Y-92125664D01*
X206665000Y-91814000D01*
X210200999Y-91814000D01*
X210325457Y-92439688D01*
X210679880Y-92970120D01*
X210820381Y-93064000D01*
X210679880Y-93157880D01*
X210325457Y-93688312D01*
X210200999Y-94314000D01*
X210325457Y-94939688D01*
X210679880Y-95470120D01*
X210726880Y-95517120D01*
X210808711Y-95571798D01*
X210679880Y-95657880D01*
X210325457Y-96188313D01*
X210201000Y-96814000D01*
X210325457Y-97439687D01*
X210592509Y-97839359D01*
X210459559Y-97924910D01*
X210314569Y-98137110D01*
X210263560Y-98389000D01*
X210263560Y-100239000D01*
X210307838Y-100474317D01*
X210446910Y-100690441D01*
X210659110Y-100835431D01*
X210911000Y-100886440D01*
X212761000Y-100886440D01*
X212996317Y-100842162D01*
X213212441Y-100703090D01*
X213357431Y-100490890D01*
X213408440Y-100239000D01*
X213408440Y-98449000D01*
X213992760Y-98449000D01*
X214997880Y-99454120D01*
X215528312Y-99808543D01*
X216154000Y-99933001D01*
X216154005Y-99933000D01*
X217805000Y-99933000D01*
X218430687Y-99808543D01*
X218961120Y-99454120D01*
X219118943Y-99217920D01*
X219229519Y-99383409D01*
X219585000Y-99620934D01*
X219585000Y-102936198D01*
X216244957Y-106276241D01*
X216027000Y-106232887D01*
X215477849Y-106342120D01*
X215012302Y-106653189D01*
X214701233Y-107118736D01*
X214592000Y-107667887D01*
X214592000Y-107724113D01*
X214687853Y-108206000D01*
X214436802Y-108206000D01*
X214125974Y-107895172D01*
X214160000Y-107724113D01*
X214160000Y-107667887D01*
X214050767Y-107118736D01*
X213739698Y-106653189D01*
X213274151Y-106342120D01*
X212725000Y-106232887D01*
X212175849Y-106342120D01*
X211710302Y-106653189D01*
X211399233Y-107118736D01*
X211290000Y-107667887D01*
X211290000Y-107724113D01*
X211399233Y-108273264D01*
X211710302Y-108738811D01*
X212175849Y-109049880D01*
X212725000Y-109159113D01*
X213154815Y-109073617D01*
X213584599Y-109503401D01*
X213831160Y-109668148D01*
X214122000Y-109726000D01*
X217678000Y-109726000D01*
X217968839Y-109668148D01*
X218215401Y-109503401D01*
X222152401Y-105566401D01*
X222317148Y-105319839D01*
X222375000Y-105029000D01*
X222375000Y-99833000D01*
X222599250Y-99833000D01*
X222758000Y-99674250D01*
X222758000Y-98425000D01*
X223012000Y-98425000D01*
X223012000Y-99674250D01*
X223170750Y-99833000D01*
X223911309Y-99833000D01*
X224144698Y-99736327D01*
X224323327Y-99557699D01*
X224420000Y-99324310D01*
X224420000Y-98583750D01*
X224261250Y-98425000D01*
X223012000Y-98425000D01*
X222758000Y-98425000D01*
X222738000Y-98425000D01*
X222738000Y-98171000D01*
X222758000Y-98171000D01*
X222758000Y-96921750D01*
X223012000Y-96921750D01*
X223012000Y-98171000D01*
X224261250Y-98171000D01*
X224420000Y-98012250D01*
X224420000Y-97271690D01*
X224323327Y-97038301D01*
X224144698Y-96859673D01*
X223911309Y-96763000D01*
X223170750Y-96763000D01*
X223012000Y-96921750D01*
X222758000Y-96921750D01*
X222599250Y-96763000D01*
X222375000Y-96763000D01*
X222375000Y-95896000D01*
X222599250Y-95896000D01*
X222758000Y-95737250D01*
X222758000Y-94488000D01*
X223012000Y-94488000D01*
X223012000Y-95737250D01*
X223170750Y-95896000D01*
X223911309Y-95896000D01*
X224144698Y-95799327D01*
X224323327Y-95620699D01*
X224420000Y-95387310D01*
X224420000Y-94646750D01*
X224261250Y-94488000D01*
X223012000Y-94488000D01*
X222758000Y-94488000D01*
X222738000Y-94488000D01*
X222738000Y-94234000D01*
X222758000Y-94234000D01*
X222758000Y-92984750D01*
X223012000Y-92984750D01*
X223012000Y-94234000D01*
X224261250Y-94234000D01*
X224420000Y-94075250D01*
X224420000Y-93334690D01*
X224323327Y-93101301D01*
X224144698Y-92922673D01*
X223911309Y-92826000D01*
X223170750Y-92826000D01*
X223012000Y-92984750D01*
X222758000Y-92984750D01*
X222599250Y-92826000D01*
X221858691Y-92826000D01*
X221625302Y-92922673D01*
X221446673Y-93101301D01*
X221393122Y-93230583D01*
X220962491Y-92942845D01*
X220375072Y-92826000D01*
X220314928Y-92826000D01*
X219727509Y-92942845D01*
X219229519Y-93275591D01*
X219118943Y-93441080D01*
X218961120Y-93204880D01*
X218430687Y-92850457D01*
X217805000Y-92726000D01*
X213236240Y-92726000D01*
X213776239Y-92186000D01*
X217932000Y-92186000D01*
X218557687Y-92061543D01*
X219088120Y-91707120D01*
X219245943Y-91470920D01*
X219356519Y-91636409D01*
X219854509Y-91969155D01*
X220441928Y-92086000D01*
X220502072Y-92086000D01*
X221089491Y-91969155D01*
X221520122Y-91681417D01*
X221573673Y-91810699D01*
X221752302Y-91989327D01*
X221985691Y-92086000D01*
X222726250Y-92086000D01*
X222885000Y-91927250D01*
X222885000Y-90678000D01*
X223139000Y-90678000D01*
X223139000Y-91927250D01*
X223297750Y-92086000D01*
X224038309Y-92086000D01*
X224271698Y-91989327D01*
X224450327Y-91810699D01*
X224547000Y-91577310D01*
X224547000Y-90836750D01*
X224388250Y-90678000D01*
X223139000Y-90678000D01*
X222885000Y-90678000D01*
X222865000Y-90678000D01*
X222865000Y-90424000D01*
X222885000Y-90424000D01*
X222885000Y-89174750D01*
X223139000Y-89174750D01*
X223139000Y-90424000D01*
X224388250Y-90424000D01*
X224547000Y-90265250D01*
X224547000Y-89524690D01*
X224450327Y-89291301D01*
X224271698Y-89112673D01*
X224038309Y-89016000D01*
X223297750Y-89016000D01*
X223139000Y-89174750D01*
X222885000Y-89174750D01*
X222726250Y-89016000D01*
X221985691Y-89016000D01*
X221752302Y-89112673D01*
X221573673Y-89291301D01*
X221520122Y-89420583D01*
X221089491Y-89132845D01*
X220502072Y-89016000D01*
X220441928Y-89016000D01*
X219854509Y-89132845D01*
X219356519Y-89465591D01*
X219245943Y-89631080D01*
X219088120Y-89394880D01*
X218557687Y-89040457D01*
X217932000Y-88916000D01*
X213099005Y-88916000D01*
X213099000Y-88915999D01*
X212473313Y-89040457D01*
X211942880Y-89394880D01*
X211942878Y-89394883D01*
X210679880Y-90657880D01*
X210325457Y-91188312D01*
X210200999Y-91814000D01*
X206665000Y-91814000D01*
X206665270Y-91505058D01*
X206428275Y-90931486D01*
X205989823Y-90492268D01*
X205416664Y-90254272D01*
X204796058Y-90253730D01*
X204222486Y-90490725D01*
X203783268Y-90929177D01*
X203545272Y-91502336D01*
X203544730Y-92122942D01*
X203781725Y-92696514D01*
X204148826Y-93064256D01*
X203783268Y-93429177D01*
X203545272Y-94002336D01*
X203544730Y-94622942D01*
X203781725Y-95196514D01*
X204148826Y-95564256D01*
X203783268Y-95929177D01*
X203545272Y-96502336D01*
X203544730Y-97122942D01*
X203774488Y-97679000D01*
X198289239Y-97679000D01*
X196326000Y-95715760D01*
X196326000Y-92230608D01*
X196362861Y-92193747D01*
X196436995Y-92439864D01*
X196974223Y-92632965D01*
X197544454Y-92605778D01*
X197715942Y-92534745D01*
X199323861Y-92534745D01*
X199397995Y-92780864D01*
X199935223Y-92973965D01*
X200505454Y-92946778D01*
X200906005Y-92780864D01*
X200980139Y-92534745D01*
X200152000Y-91706605D01*
X199323861Y-92534745D01*
X197715942Y-92534745D01*
X197945005Y-92439864D01*
X198019139Y-92193745D01*
X197191000Y-91365605D01*
X197176858Y-91379748D01*
X196997252Y-91200142D01*
X197011395Y-91186000D01*
X197370605Y-91186000D01*
X198198745Y-92014139D01*
X198444864Y-91940005D01*
X198637965Y-91402777D01*
X198633553Y-91310223D01*
X198705035Y-91310223D01*
X198732222Y-91880454D01*
X198898136Y-92281005D01*
X199144255Y-92355139D01*
X199972395Y-91527000D01*
X200331605Y-91527000D01*
X201159745Y-92355139D01*
X201405864Y-92281005D01*
X201598965Y-91743777D01*
X201571778Y-91173546D01*
X201405864Y-90772995D01*
X201159745Y-90698861D01*
X200331605Y-91527000D01*
X199972395Y-91527000D01*
X199144255Y-90698861D01*
X198898136Y-90772995D01*
X198705035Y-91310223D01*
X198633553Y-91310223D01*
X198610778Y-90832546D01*
X198444864Y-90431995D01*
X198198745Y-90357861D01*
X197370605Y-91186000D01*
X197011395Y-91186000D01*
X196183255Y-90357861D01*
X196135833Y-90372145D01*
X196099351Y-90178255D01*
X196362861Y-90178255D01*
X197191000Y-91006395D01*
X198019139Y-90178255D01*
X197945005Y-89932136D01*
X197407777Y-89739035D01*
X196837546Y-89766222D01*
X196436995Y-89932136D01*
X196362861Y-90178255D01*
X196099351Y-90178255D01*
X196094162Y-90150683D01*
X195955090Y-89934559D01*
X195742890Y-89789569D01*
X195491000Y-89738560D01*
X195451000Y-89738560D01*
X195451000Y-87526440D01*
X195718000Y-87526440D01*
X195953317Y-87482162D01*
X196169441Y-87343090D01*
X196314431Y-87130890D01*
X196324766Y-87079854D01*
X196450424Y-87216966D01*
X196993258Y-87470046D01*
X197231000Y-87349997D01*
X197231000Y-86106000D01*
X197211000Y-86106000D01*
X197211000Y-85852000D01*
X197231000Y-85852000D01*
X197231000Y-84608003D01*
X197485000Y-84608003D01*
X197485000Y-85852000D01*
X197505000Y-85852000D01*
X197505000Y-86106000D01*
X197485000Y-86106000D01*
X197485000Y-87349997D01*
X197722742Y-87470046D01*
X198265576Y-87216966D01*
X198623499Y-86826418D01*
X198782519Y-87064409D01*
X199138000Y-87301934D01*
X199138000Y-88011605D01*
X198936176Y-88213077D01*
X198717250Y-88740309D01*
X198716752Y-89311187D01*
X198934757Y-89838800D01*
X199338077Y-90242824D01*
X199404544Y-90270423D01*
X199397995Y-90273136D01*
X199323861Y-90519255D01*
X200152000Y-91347395D01*
X200980139Y-90519255D01*
X200906005Y-90273136D01*
X200899517Y-90270804D01*
X200963800Y-90244243D01*
X201367824Y-89840923D01*
X201586750Y-89313691D01*
X201587248Y-88742813D01*
X201369243Y-88215200D01*
X200965923Y-87811176D01*
X200658000Y-87683315D01*
X200658000Y-87301934D01*
X201013481Y-87064409D01*
X201346227Y-86566419D01*
X201463072Y-85979000D01*
X201346227Y-85391581D01*
X201013481Y-84893591D01*
X200515491Y-84560845D01*
X199928072Y-84444000D01*
X199867928Y-84444000D01*
X199280509Y-84560845D01*
X198782519Y-84893591D01*
X198623499Y-85131582D01*
X198265576Y-84741034D01*
X197722742Y-84487954D01*
X197485000Y-84608003D01*
X197231000Y-84608003D01*
X196993258Y-84487954D01*
X196450424Y-84741034D01*
X196327156Y-84875538D01*
X196321162Y-84843683D01*
X196182090Y-84627559D01*
X195969890Y-84482569D01*
X195718000Y-84431560D01*
X193918000Y-84431560D01*
X193682683Y-84475838D01*
X193466559Y-84614910D01*
X193321569Y-84827110D01*
X193270560Y-85079000D01*
X193270560Y-85219000D01*
X182610000Y-85219000D01*
X182610000Y-80563431D01*
X182622440Y-80502000D01*
X182622440Y-78502000D01*
X182616419Y-78470000D01*
X182710760Y-78470000D01*
X184834377Y-80593616D01*
X184898880Y-80690152D01*
X185429313Y-81044575D01*
X186055000Y-81169032D01*
X186680687Y-81044575D01*
X187211120Y-80690152D01*
X187565543Y-80159719D01*
X187690000Y-79534032D01*
X187690000Y-79502005D01*
X187690001Y-79502000D01*
X187690000Y-79501995D01*
X187690000Y-79469968D01*
X187565543Y-78844281D01*
X187211120Y-78313848D01*
X187114584Y-78249345D01*
X184544120Y-75678880D01*
X184013688Y-75324457D01*
X183388000Y-75199999D01*
X183387995Y-75200000D01*
X182405174Y-75200000D01*
X182485543Y-75079719D01*
X182540698Y-74802435D01*
X184464867Y-74802435D01*
X184731495Y-75381994D01*
X185199615Y-75815402D01*
X185674566Y-76012124D01*
X185928000Y-75892777D01*
X185928000Y-74549000D01*
X186182000Y-74549000D01*
X186182000Y-75892777D01*
X186435434Y-76012124D01*
X186910385Y-75815402D01*
X187378505Y-75381994D01*
X187645133Y-74802435D01*
X187526319Y-74549000D01*
X186182000Y-74549000D01*
X185928000Y-74549000D01*
X184583681Y-74549000D01*
X184464867Y-74802435D01*
X182540698Y-74802435D01*
X182610000Y-74454032D01*
X182610000Y-74422005D01*
X182610001Y-74422000D01*
X182610000Y-74421995D01*
X182610000Y-74389968D01*
X182540699Y-74041565D01*
X184464867Y-74041565D01*
X184583681Y-74295000D01*
X185928000Y-74295000D01*
X185928000Y-72951223D01*
X186182000Y-72951223D01*
X186182000Y-74295000D01*
X187526319Y-74295000D01*
X187645133Y-74041565D01*
X187378505Y-73462006D01*
X186910385Y-73028598D01*
X186435434Y-72831876D01*
X186182000Y-72951223D01*
X185928000Y-72951223D01*
X185674566Y-72831876D01*
X185199615Y-73028598D01*
X184731495Y-73462006D01*
X184464867Y-74041565D01*
X182540699Y-74041565D01*
X182485543Y-73764281D01*
X182131120Y-73233848D01*
X182034584Y-73169345D01*
X178194120Y-69328880D01*
X178179334Y-69319000D01*
X194926275Y-69319000D01*
X195107822Y-70231700D01*
X195624825Y-71005450D01*
X196398575Y-71522453D01*
X197311275Y-71704000D01*
X197404725Y-71704000D01*
X198317425Y-71522453D01*
X199091175Y-71005450D01*
X199608178Y-70231700D01*
X199789725Y-69319000D01*
X199608178Y-68406300D01*
X199091175Y-67632550D01*
X198317425Y-67115547D01*
X197404725Y-66934000D01*
X197311275Y-66934000D01*
X196398575Y-67115547D01*
X195624825Y-67632550D01*
X195107822Y-68406300D01*
X194926275Y-69319000D01*
X178179334Y-69319000D01*
X177663688Y-68974457D01*
X177038000Y-68849999D01*
X177037995Y-68850000D01*
X170053005Y-68850000D01*
X170053000Y-68849999D01*
X169427313Y-68974457D01*
X168896880Y-69328880D01*
X168896878Y-69328883D01*
X168261880Y-69963880D01*
X167907457Y-70494312D01*
X167782999Y-71120000D01*
X154990000Y-71120000D01*
X154990000Y-64947000D01*
X226391000Y-64947000D01*
X226391000Y-133300000D01*
X226391000Y-133300000D01*
G37*
X226391000Y-133300000D02*
X174358516Y-133300000D01*
X174623698Y-133122811D01*
X174934767Y-132657264D01*
X175044000Y-132108113D01*
X175044000Y-132051887D01*
X174934767Y-131502736D01*
X174623698Y-131037189D01*
X174425922Y-130905039D01*
X186568096Y-130905039D01*
X186728959Y-131293423D01*
X187104866Y-131708389D01*
X187610959Y-131947914D01*
X187833000Y-131826629D01*
X187833000Y-130683000D01*
X188087000Y-130683000D01*
X188087000Y-131826629D01*
X188309041Y-131947914D01*
X188815134Y-131708389D01*
X189191041Y-131293423D01*
X189351904Y-130905039D01*
X189229915Y-130683000D01*
X188087000Y-130683000D01*
X187833000Y-130683000D01*
X186690085Y-130683000D01*
X186568096Y-130905039D01*
X174425922Y-130905039D01*
X174369000Y-130867005D01*
X174369000Y-124647802D01*
X175543401Y-123473401D01*
X175708148Y-123226840D01*
X175766000Y-122936000D01*
X175766000Y-119879745D01*
X176249861Y-119879745D01*
X176323995Y-120125864D01*
X176861223Y-120318965D01*
X177431454Y-120291778D01*
X177832005Y-120125864D01*
X177906139Y-119879745D01*
X177078000Y-119051605D01*
X176249861Y-119879745D01*
X175766000Y-119879745D01*
X175766000Y-119485653D01*
X175824136Y-119626005D01*
X176070255Y-119700139D01*
X176898395Y-118872000D01*
X176070255Y-118043861D01*
X175824136Y-118117995D01*
X175766000Y-118279736D01*
X175766000Y-117864255D01*
X176249861Y-117864255D01*
X177078000Y-118692395D01*
X177906139Y-117864255D01*
X177832005Y-117618136D01*
X177294777Y-117425035D01*
X176724546Y-117452222D01*
X176323995Y-117618136D01*
X176249861Y-117864255D01*
X175766000Y-117864255D01*
X175766000Y-117856000D01*
X175708148Y-117565161D01*
X175543401Y-117318599D01*
X174654401Y-116429599D01*
X174407839Y-116264852D01*
X174117000Y-116207000D01*
X169945262Y-116207000D01*
X169745029Y-115907330D01*
X169731358Y-115898195D01*
X169754917Y-115893762D01*
X169971041Y-115754690D01*
X170116031Y-115542490D01*
X170167040Y-115290600D01*
X170167040Y-114926745D01*
X176249861Y-114926745D01*
X176323995Y-115172864D01*
X176861223Y-115365965D01*
X177431454Y-115338778D01*
X177832005Y-115172864D01*
X177906139Y-114926745D01*
X177078000Y-114098605D01*
X176249861Y-114926745D01*
X170167040Y-114926745D01*
X170167040Y-113702223D01*
X175631035Y-113702223D01*
X175658222Y-114272454D01*
X175824136Y-114673005D01*
X176070255Y-114747139D01*
X176898395Y-113919000D01*
X176070255Y-113090861D01*
X175824136Y-113164995D01*
X175631035Y-113702223D01*
X170167040Y-113702223D01*
X170167040Y-113563400D01*
X170122762Y-113328083D01*
X169983690Y-113111959D01*
X169771490Y-112966969D01*
X169519600Y-112915960D01*
X169416000Y-112915960D01*
X169416000Y-112911255D01*
X176249861Y-112911255D01*
X177078000Y-113739395D01*
X177906139Y-112911255D01*
X177832005Y-112665136D01*
X177294777Y-112472035D01*
X176724546Y-112499222D01*
X176323995Y-112665136D01*
X176249861Y-112911255D01*
X169416000Y-112911255D01*
X169416000Y-111003568D01*
X169508161Y-111065148D01*
X169799000Y-111123000D01*
X184724198Y-111123000D01*
X186526606Y-112925408D01*
X186606120Y-113325151D01*
X186917189Y-113790698D01*
X187299275Y-114046000D01*
X186917189Y-114301302D01*
X186747005Y-114556000D01*
X185226802Y-114556000D01*
X184890002Y-114219200D01*
X184899759Y-114195702D01*
X184900240Y-113644715D01*
X184689831Y-113135485D01*
X184300564Y-112745539D01*
X183791702Y-112534241D01*
X183240715Y-112533760D01*
X182731485Y-112744169D01*
X182341539Y-113133436D01*
X182330924Y-113159000D01*
X180816646Y-113159000D01*
X180795243Y-113107200D01*
X180391923Y-112703176D01*
X179864691Y-112484250D01*
X179293813Y-112483752D01*
X178766200Y-112701757D01*
X178362176Y-113105077D01*
X178334577Y-113171544D01*
X178331864Y-113164995D01*
X178085745Y-113090861D01*
X177257605Y-113919000D01*
X178085745Y-114747139D01*
X178331864Y-114673005D01*
X178334196Y-114666517D01*
X178360757Y-114730800D01*
X178764077Y-115134824D01*
X179291309Y-115353750D01*
X179862187Y-115354248D01*
X180389800Y-115136243D01*
X180793824Y-114732923D01*
X180816215Y-114679000D01*
X182330453Y-114679000D01*
X182340169Y-114702515D01*
X182729436Y-115092461D01*
X183238298Y-115303759D01*
X183789285Y-115304240D01*
X183814868Y-115293670D01*
X184374599Y-115853401D01*
X184621160Y-116018148D01*
X184912000Y-116076000D01*
X186747005Y-116076000D01*
X186917189Y-116330698D01*
X187299275Y-116586000D01*
X186917189Y-116841302D01*
X186747005Y-117096000D01*
X184912000Y-117096000D01*
X184621160Y-117153852D01*
X184374599Y-117318599D01*
X184135994Y-117557204D01*
X183791702Y-117414241D01*
X183240715Y-117413760D01*
X182731485Y-117624169D01*
X182341539Y-118013436D01*
X182300612Y-118112000D01*
X180816646Y-118112000D01*
X180795243Y-118060200D01*
X180391923Y-117656176D01*
X179864691Y-117437250D01*
X179293813Y-117436752D01*
X178766200Y-117654757D01*
X178362176Y-118058077D01*
X178334577Y-118124544D01*
X178331864Y-118117995D01*
X178085745Y-118043861D01*
X177257605Y-118872000D01*
X178085745Y-119700139D01*
X178331864Y-119626005D01*
X178334196Y-119619517D01*
X178360757Y-119683800D01*
X178764077Y-120087824D01*
X179291309Y-120306750D01*
X179862187Y-120307248D01*
X180389800Y-120089243D01*
X180793824Y-119685923D01*
X180816215Y-119632000D01*
X182389568Y-119632000D01*
X182729436Y-119972461D01*
X183238298Y-120183759D01*
X183789285Y-120184240D01*
X184298515Y-119973831D01*
X184688461Y-119584564D01*
X184899759Y-119075702D01*
X184899875Y-118942927D01*
X185226802Y-118616000D01*
X186747005Y-118616000D01*
X186917189Y-118870698D01*
X187299275Y-119126000D01*
X186917189Y-119381302D01*
X186606120Y-119846849D01*
X186496887Y-120396000D01*
X186606120Y-120945151D01*
X186917189Y-121410698D01*
X187299275Y-121666000D01*
X186917189Y-121921302D01*
X186606120Y-122386849D01*
X186496887Y-122936000D01*
X186606120Y-123485151D01*
X186917189Y-123950698D01*
X187299275Y-124206000D01*
X186917189Y-124461302D01*
X186606120Y-124926849D01*
X186496887Y-125476000D01*
X186606120Y-126025151D01*
X186917189Y-126490698D01*
X187299275Y-126746000D01*
X186917189Y-127001302D01*
X186606120Y-127466849D01*
X186496887Y-128016000D01*
X186606120Y-128565151D01*
X186917189Y-129030698D01*
X187321703Y-129300986D01*
X187104866Y-129403611D01*
X186728959Y-129818577D01*
X186568096Y-130206961D01*
X186690085Y-130429000D01*
X187833000Y-130429000D01*
X187833000Y-130409000D01*
X188087000Y-130409000D01*
X188087000Y-130429000D01*
X189229915Y-130429000D01*
X189351904Y-130206961D01*
X189191041Y-129818577D01*
X188815134Y-129403611D01*
X188598297Y-129300986D01*
X189002811Y-129030698D01*
X189313880Y-128565151D01*
X189423113Y-128016000D01*
X189313880Y-127466849D01*
X189002811Y-127001302D01*
X188620725Y-126746000D01*
X189002811Y-126490698D01*
X189313880Y-126025151D01*
X189423113Y-125476000D01*
X189313880Y-124926849D01*
X189002811Y-124461302D01*
X188620725Y-124206000D01*
X189002811Y-123950698D01*
X189313880Y-123485151D01*
X189423113Y-122936000D01*
X189313880Y-122386849D01*
X189002811Y-121921302D01*
X188620725Y-121666000D01*
X189002811Y-121410698D01*
X189313880Y-120945151D01*
X189423113Y-120396000D01*
X189313880Y-119846849D01*
X189002811Y-119381302D01*
X188620725Y-119126000D01*
X189002811Y-118870698D01*
X189313880Y-118405151D01*
X189423113Y-117856000D01*
X189313880Y-117306849D01*
X189002811Y-116841302D01*
X188620725Y-116586000D01*
X189002811Y-116330698D01*
X189313880Y-115865151D01*
X189423113Y-115316000D01*
X189313880Y-114766849D01*
X189002811Y-114301302D01*
X188620725Y-114046000D01*
X189002811Y-113790698D01*
X189313880Y-113325151D01*
X189423113Y-112776000D01*
X189313880Y-112226849D01*
X189002811Y-111761302D01*
X188620725Y-111506000D01*
X189002811Y-111250698D01*
X189313880Y-110785151D01*
X189423113Y-110236000D01*
X189313880Y-109686849D01*
X189002811Y-109221302D01*
X188858535Y-109124899D01*
X188995317Y-109099162D01*
X189211441Y-108960090D01*
X189356431Y-108747890D01*
X189407440Y-108496000D01*
X189407440Y-106896000D01*
X189363162Y-106660683D01*
X189224090Y-106444559D01*
X189011890Y-106299569D01*
X188760000Y-106248560D01*
X187160000Y-106248560D01*
X186924683Y-106292838D01*
X186708559Y-106431910D01*
X186563569Y-106644110D01*
X186556955Y-106676772D01*
X186307000Y-106426381D01*
X186307000Y-105724667D01*
X186589811Y-105535698D01*
X186759995Y-105281000D01*
X192598198Y-105281000D01*
X192788000Y-105470802D01*
X192788000Y-117983000D01*
X192845852Y-118273839D01*
X193010599Y-118520401D01*
X194153599Y-119663401D01*
X194288478Y-119753524D01*
X194226120Y-119846849D01*
X194116887Y-120396000D01*
X194226120Y-120945151D01*
X194537189Y-121410698D01*
X194919275Y-121666000D01*
X194537189Y-121921302D01*
X194226120Y-122386849D01*
X194116887Y-122936000D01*
X194226120Y-123485151D01*
X194537189Y-123950698D01*
X194919275Y-124206000D01*
X194537189Y-124461302D01*
X194226120Y-124926849D01*
X194116887Y-125476000D01*
X194226120Y-126025151D01*
X194537189Y-126490698D01*
X194919275Y-126746000D01*
X194537189Y-127001302D01*
X194226120Y-127466849D01*
X194116887Y-128016000D01*
X194226120Y-128565151D01*
X194537189Y-129030698D01*
X194919275Y-129286000D01*
X194537189Y-129541302D01*
X194226120Y-130006849D01*
X194116887Y-130556000D01*
X194226120Y-131105151D01*
X194537189Y-131570698D01*
X195002736Y-131881767D01*
X195551887Y-131991000D01*
X195608113Y-131991000D01*
X196157264Y-131881767D01*
X196622811Y-131570698D01*
X196933880Y-131105151D01*
X197043113Y-130556000D01*
X196933880Y-130006849D01*
X196622811Y-129541302D01*
X196240725Y-129286000D01*
X196622811Y-129030698D01*
X196933880Y-128565151D01*
X197043113Y-128016000D01*
X196933880Y-127466849D01*
X196622811Y-127001302D01*
X196240725Y-126746000D01*
X196622811Y-126490698D01*
X196933880Y-126025151D01*
X197043113Y-125476000D01*
X196933880Y-124926849D01*
X196622811Y-124461302D01*
X196240725Y-124206000D01*
X196622811Y-123950698D01*
X196792995Y-123696000D01*
X210947000Y-123696000D01*
X211237839Y-123638148D01*
X211484401Y-123473401D01*
X215688546Y-119269256D01*
X215740309Y-119290750D01*
X216311187Y-119291248D01*
X216838800Y-119073243D01*
X217242824Y-118669923D01*
X217461750Y-118142691D01*
X217462248Y-117571813D01*
X217244243Y-117044200D01*
X216840923Y-116640176D01*
X216313691Y-116421250D01*
X215742813Y-116420752D01*
X215215200Y-116638757D01*
X214811176Y-117042077D01*
X214592250Y-117569309D01*
X214591752Y-118140187D01*
X214614049Y-118194149D01*
X210632198Y-122176000D01*
X196792995Y-122176000D01*
X196622811Y-121921302D01*
X196240725Y-121666000D01*
X196622811Y-121410698D01*
X196792995Y-121156000D01*
X210185000Y-121156000D01*
X210475839Y-121098148D01*
X210722401Y-120933401D01*
X212386546Y-119269256D01*
X212438309Y-119290750D01*
X213009187Y-119291248D01*
X213536800Y-119073243D01*
X213940824Y-118669923D01*
X214159750Y-118142691D01*
X214160248Y-117571813D01*
X213942243Y-117044200D01*
X213538923Y-116640176D01*
X213011691Y-116421250D01*
X212440813Y-116420752D01*
X211913200Y-116638757D01*
X211509176Y-117042077D01*
X211290250Y-117569309D01*
X211289752Y-118140187D01*
X211312049Y-118194149D01*
X209870198Y-119636000D01*
X198557802Y-119636000D01*
X199577802Y-118616000D01*
X200269480Y-118616000D01*
X200489330Y-118945029D01*
X200975511Y-119269885D01*
X201549000Y-119383959D01*
X202122489Y-119269885D01*
X202608670Y-118945029D01*
X202824664Y-118621772D01*
X202882179Y-118744490D01*
X203314053Y-119138688D01*
X203729974Y-119310958D01*
X203962000Y-119189817D01*
X203962000Y-117983000D01*
X204216000Y-117983000D01*
X204216000Y-119189817D01*
X204448026Y-119310958D01*
X204863947Y-119138688D01*
X205295821Y-118744490D01*
X205543968Y-118215027D01*
X205505102Y-118140187D01*
X207987752Y-118140187D01*
X208205757Y-118667800D01*
X208609077Y-119071824D01*
X209136309Y-119290750D01*
X209707187Y-119291248D01*
X210234800Y-119073243D01*
X210638824Y-118669923D01*
X210857750Y-118142691D01*
X210858248Y-117571813D01*
X210640243Y-117044200D01*
X210236923Y-116640176D01*
X209709691Y-116421250D01*
X209138813Y-116420752D01*
X208611200Y-116638757D01*
X208207176Y-117042077D01*
X207988250Y-117569309D01*
X207987752Y-118140187D01*
X205505102Y-118140187D01*
X205423469Y-117983000D01*
X204216000Y-117983000D01*
X203962000Y-117983000D01*
X203942000Y-117983000D01*
X203942000Y-117729000D01*
X203962000Y-117729000D01*
X203962000Y-117709000D01*
X204216000Y-117709000D01*
X204216000Y-117729000D01*
X205423469Y-117729000D01*
X205543968Y-117496973D01*
X205295821Y-116967510D01*
X204877839Y-116585992D01*
X205148670Y-116405029D01*
X205473526Y-115918848D01*
X205587600Y-115345359D01*
X205587600Y-115286641D01*
X205473526Y-114713152D01*
X205148670Y-114226971D01*
X204877828Y-114046000D01*
X205148670Y-113865029D01*
X205473526Y-113378848D01*
X205587600Y-112805359D01*
X205587600Y-112746641D01*
X205473526Y-112173152D01*
X205148670Y-111686971D01*
X204662489Y-111362115D01*
X204089000Y-111248041D01*
X203711027Y-111323225D01*
X202975401Y-110587599D01*
X202728839Y-110422852D01*
X202438000Y-110365000D01*
X199450802Y-110365000D01*
X196999759Y-107913957D01*
X197043113Y-107696000D01*
X197037521Y-107667887D01*
X207988000Y-107667887D01*
X207988000Y-107724113D01*
X208097233Y-108273264D01*
X208408302Y-108738811D01*
X208873849Y-109049880D01*
X209423000Y-109159113D01*
X209972151Y-109049880D01*
X210437698Y-108738811D01*
X210748767Y-108273264D01*
X210858000Y-107724113D01*
X210858000Y-107667887D01*
X210748767Y-107118736D01*
X210437698Y-106653189D01*
X209972151Y-106342120D01*
X209423000Y-106232887D01*
X208873849Y-106342120D01*
X208408302Y-106653189D01*
X208097233Y-107118736D01*
X207988000Y-107667887D01*
X197037521Y-107667887D01*
X196933880Y-107146849D01*
X196622811Y-106681302D01*
X196340000Y-106492333D01*
X196340000Y-105812122D01*
X196518800Y-105738243D01*
X196913835Y-105343897D01*
X197306077Y-105736824D01*
X197833309Y-105955750D01*
X198404187Y-105956248D01*
X198931800Y-105738243D01*
X199141663Y-105528745D01*
X199791861Y-105528745D01*
X199865995Y-105774864D01*
X200403223Y-105967965D01*
X200973454Y-105940778D01*
X201374005Y-105774864D01*
X201448139Y-105528745D01*
X200620000Y-104700605D01*
X199791861Y-105528745D01*
X199141663Y-105528745D01*
X199335824Y-105334923D01*
X199363423Y-105268456D01*
X199366136Y-105275005D01*
X199612255Y-105349139D01*
X200440395Y-104521000D01*
X200799605Y-104521000D01*
X201627745Y-105349139D01*
X201873864Y-105275005D01*
X202066965Y-104737777D01*
X202039778Y-104167546D01*
X201873864Y-103766995D01*
X201627745Y-103692861D01*
X200799605Y-104521000D01*
X200440395Y-104521000D01*
X199612255Y-103692861D01*
X199366136Y-103766995D01*
X199363804Y-103773483D01*
X199337243Y-103709200D01*
X199141640Y-103513255D01*
X199791861Y-103513255D01*
X200620000Y-104341395D01*
X201448139Y-103513255D01*
X201374005Y-103267136D01*
X200836777Y-103074035D01*
X200266546Y-103101222D01*
X199865995Y-103267136D01*
X199791861Y-103513255D01*
X199141640Y-103513255D01*
X198933923Y-103305176D01*
X198406691Y-103086250D01*
X197835813Y-103085752D01*
X197308200Y-103303757D01*
X196913165Y-103698103D01*
X196520923Y-103305176D01*
X195993691Y-103086250D01*
X195422813Y-103085752D01*
X194895200Y-103303757D01*
X194491176Y-103707077D01*
X194272250Y-104234309D01*
X194271752Y-104805187D01*
X194489757Y-105332800D01*
X194820000Y-105663619D01*
X194820000Y-106492333D01*
X194537189Y-106681302D01*
X194308000Y-107024307D01*
X194308000Y-105156000D01*
X194250148Y-104865161D01*
X194085401Y-104618599D01*
X193450401Y-103983599D01*
X193203839Y-103818852D01*
X192913000Y-103761000D01*
X186759995Y-103761000D01*
X186589811Y-103506302D01*
X186124264Y-103195233D01*
X185575113Y-103086000D01*
X185518887Y-103086000D01*
X184969736Y-103195233D01*
X184504189Y-103506302D01*
X184193120Y-103971849D01*
X184083887Y-104521000D01*
X184193120Y-105070151D01*
X184504189Y-105535698D01*
X184787000Y-105724667D01*
X184787000Y-106277878D01*
X184608200Y-106351757D01*
X184204176Y-106755077D01*
X184176577Y-106821544D01*
X184173864Y-106814995D01*
X183927745Y-106740861D01*
X183099605Y-107569000D01*
X183113748Y-107583142D01*
X182934142Y-107762748D01*
X182920000Y-107748605D01*
X182905858Y-107762748D01*
X182726252Y-107583142D01*
X182740395Y-107569000D01*
X181912255Y-106740861D01*
X181666136Y-106814995D01*
X181473035Y-107352223D01*
X181500222Y-107922454D01*
X181666136Y-108323005D01*
X181912253Y-108397139D01*
X181849392Y-108460000D01*
X171891802Y-108460000D01*
X170717401Y-107285599D01*
X170470839Y-107120852D01*
X170180000Y-107063000D01*
X162433000Y-107063000D01*
X162142160Y-107120852D01*
X161895599Y-107285599D01*
X161408638Y-107772560D01*
X160236000Y-107772560D01*
X160000683Y-107816838D01*
X159784559Y-107955910D01*
X159639569Y-108168110D01*
X159588560Y-108420000D01*
X159588560Y-110020000D01*
X159632838Y-110255317D01*
X159771910Y-110471441D01*
X159984110Y-110616431D01*
X160236000Y-110667440D01*
X161408638Y-110667440D01*
X161546000Y-110804802D01*
X161546000Y-113042790D01*
X161395027Y-112972032D01*
X161163000Y-113092531D01*
X161163000Y-114300000D01*
X161183000Y-114300000D01*
X161183000Y-114554000D01*
X161163000Y-114554000D01*
X161163000Y-114574000D01*
X160909000Y-114574000D01*
X160909000Y-114554000D01*
X159702183Y-114554000D01*
X159581042Y-114786026D01*
X159753312Y-115201947D01*
X160147510Y-115633821D01*
X160270228Y-115691336D01*
X159946971Y-115907330D01*
X159622115Y-116393511D01*
X159508041Y-116967000D01*
X159622115Y-117540489D01*
X159946971Y-118026670D01*
X160433152Y-118351526D01*
X161006641Y-118465600D01*
X161065359Y-118465600D01*
X161638848Y-118351526D01*
X162125029Y-118026670D01*
X162306000Y-117755828D01*
X162486971Y-118026670D01*
X162816000Y-118246520D01*
X162816000Y-120834005D01*
X162561302Y-121004189D01*
X162250233Y-121469736D01*
X162141000Y-122018887D01*
X162141000Y-122075113D01*
X162250233Y-122624264D01*
X162561302Y-123089811D01*
X163026849Y-123400880D01*
X163576000Y-123510113D01*
X164125151Y-123400880D01*
X164590698Y-123089811D01*
X164901767Y-122624264D01*
X165011000Y-122075113D01*
X165011000Y-122018887D01*
X164901767Y-121469736D01*
X164590698Y-121004189D01*
X164336000Y-120834005D01*
X164336000Y-120579802D01*
X165464744Y-121708546D01*
X165443250Y-121760309D01*
X165442752Y-122331187D01*
X165660757Y-122858800D01*
X166064077Y-123262824D01*
X166591309Y-123481750D01*
X167162187Y-123482248D01*
X167689800Y-123264243D01*
X168093824Y-122860923D01*
X168312750Y-122333691D01*
X168313026Y-122016828D01*
X168880599Y-122584401D01*
X169014282Y-122673725D01*
X169292302Y-123089811D01*
X169757849Y-123400880D01*
X170307000Y-123510113D01*
X170856151Y-123400880D01*
X171321698Y-123089811D01*
X171632767Y-122624264D01*
X171742000Y-122075113D01*
X171742000Y-122018887D01*
X171632767Y-121469736D01*
X171423135Y-121156000D01*
X171770198Y-121156000D01*
X172195744Y-121581546D01*
X172174250Y-121633309D01*
X172173752Y-122204187D01*
X172391757Y-122731800D01*
X172795077Y-123135824D01*
X173322309Y-123354750D01*
X173512282Y-123354916D01*
X173071599Y-123795599D01*
X172906852Y-124042161D01*
X172849000Y-124333000D01*
X172849000Y-130867005D01*
X172594302Y-131037189D01*
X172405333Y-131320000D01*
X171449174Y-131320000D01*
X171120923Y-130991176D01*
X170593691Y-130772250D01*
X170022813Y-130771752D01*
X169495200Y-130989757D01*
X169091176Y-131393077D01*
X169068785Y-131447000D01*
X168081667Y-131447000D01*
X167892698Y-131164189D01*
X167427151Y-130853120D01*
X166878000Y-130743887D01*
X166328849Y-130853120D01*
X165863302Y-131164189D01*
X165674333Y-131447000D01*
X164814646Y-131447000D01*
X164793243Y-131395200D01*
X164389923Y-130991176D01*
X163862691Y-130772250D01*
X163291813Y-130771752D01*
X162764200Y-130989757D01*
X162360176Y-131393077D01*
X162141250Y-131920309D01*
X162140752Y-132491187D01*
X162358757Y-133018800D01*
X162639467Y-133300000D01*
X154990000Y-133300000D01*
X154990000Y-114067974D01*
X159581042Y-114067974D01*
X159702183Y-114300000D01*
X160909000Y-114300000D01*
X160909000Y-113092531D01*
X160676973Y-112972032D01*
X160147510Y-113220179D01*
X159753312Y-113652053D01*
X159581042Y-114067974D01*
X154990000Y-114067974D01*
X154990000Y-106561255D01*
X182091861Y-106561255D01*
X182920000Y-107389395D01*
X183748139Y-106561255D01*
X183674005Y-106315136D01*
X183136777Y-106122035D01*
X182566546Y-106149222D01*
X182165995Y-106315136D01*
X182091861Y-106561255D01*
X154990000Y-106561255D01*
X154990000Y-104980745D01*
X157286861Y-104980745D01*
X157360995Y-105226864D01*
X157898223Y-105419965D01*
X158468454Y-105392778D01*
X158869005Y-105226864D01*
X158943139Y-104980745D01*
X158115000Y-104152605D01*
X157286861Y-104980745D01*
X154990000Y-104980745D01*
X154990000Y-103756223D01*
X156668035Y-103756223D01*
X156695222Y-104326454D01*
X156861136Y-104727005D01*
X157107255Y-104801139D01*
X157935395Y-103973000D01*
X158294605Y-103973000D01*
X159122745Y-104801139D01*
X159368864Y-104727005D01*
X159561965Y-104189777D01*
X159534778Y-103619546D01*
X159368864Y-103218995D01*
X159122745Y-103144861D01*
X158294605Y-103973000D01*
X157935395Y-103973000D01*
X157107255Y-103144861D01*
X156861136Y-103218995D01*
X156668035Y-103756223D01*
X154990000Y-103756223D01*
X154990000Y-101757187D01*
X156679752Y-101757187D01*
X156897757Y-102284800D01*
X157301077Y-102688824D01*
X157367544Y-102716423D01*
X157360995Y-102719136D01*
X157286861Y-102965255D01*
X158115000Y-103793395D01*
X158943139Y-102965255D01*
X158869005Y-102719136D01*
X158862517Y-102716804D01*
X158926800Y-102690243D01*
X159257619Y-102360000D01*
X159832333Y-102360000D01*
X160021302Y-102642811D01*
X160486849Y-102953880D01*
X161036000Y-103063113D01*
X161585151Y-102953880D01*
X162050698Y-102642811D01*
X162306000Y-102260725D01*
X162561302Y-102642811D01*
X163026849Y-102953880D01*
X163576000Y-103063113D01*
X164125151Y-102953880D01*
X164590698Y-102642811D01*
X164846000Y-102260725D01*
X165101302Y-102642811D01*
X165566849Y-102953880D01*
X166116000Y-103063113D01*
X166665151Y-102953880D01*
X167130698Y-102642811D01*
X167400986Y-102238297D01*
X167503611Y-102455134D01*
X167918577Y-102831041D01*
X168306961Y-102991904D01*
X168529000Y-102869915D01*
X168529000Y-101727000D01*
X168783000Y-101727000D01*
X168783000Y-102869915D01*
X169005039Y-102991904D01*
X169393423Y-102831041D01*
X169808389Y-102455134D01*
X170047914Y-101949041D01*
X169926629Y-101727000D01*
X168783000Y-101727000D01*
X168529000Y-101727000D01*
X168509000Y-101727000D01*
X168509000Y-101473000D01*
X168529000Y-101473000D01*
X168529000Y-100330085D01*
X168783000Y-100330085D01*
X168783000Y-101473000D01*
X169926629Y-101473000D01*
X170047914Y-101250959D01*
X169808389Y-100744866D01*
X169393423Y-100368959D01*
X169005039Y-100208096D01*
X168783000Y-100330085D01*
X168529000Y-100330085D01*
X168306961Y-100208096D01*
X167918577Y-100368959D01*
X167503611Y-100744866D01*
X167400986Y-100961703D01*
X167130698Y-100557189D01*
X166876000Y-100387005D01*
X166876000Y-98258369D01*
X166958514Y-98224275D01*
X167183926Y-97999256D01*
X167657349Y-97999256D01*
X167746821Y-98258332D01*
X168329368Y-98472325D01*
X168949461Y-98447097D01*
X169405179Y-98258332D01*
X169494651Y-97999256D01*
X168576000Y-97080605D01*
X167657349Y-97999256D01*
X167183926Y-97999256D01*
X167393121Y-97790426D01*
X167477744Y-97819651D01*
X168396395Y-96901000D01*
X168755605Y-96901000D01*
X169674256Y-97819651D01*
X169933332Y-97730179D01*
X170147325Y-97147632D01*
X170122097Y-96527539D01*
X169933332Y-96071821D01*
X169674256Y-95982349D01*
X168755605Y-96901000D01*
X168396395Y-96901000D01*
X167477744Y-95982349D01*
X167392566Y-96011765D01*
X167183910Y-95802744D01*
X167657349Y-95802744D01*
X168576000Y-96721395D01*
X169494651Y-95802744D01*
X169405179Y-95543668D01*
X168822632Y-95329675D01*
X168202539Y-95354903D01*
X167746821Y-95543668D01*
X167657349Y-95802744D01*
X167183910Y-95802744D01*
X166960823Y-95579268D01*
X166387664Y-95341272D01*
X165767058Y-95340730D01*
X165193486Y-95577725D01*
X165075251Y-95695754D01*
X164965090Y-95524559D01*
X164752890Y-95379569D01*
X164501000Y-95328560D01*
X162651000Y-95328560D01*
X162415683Y-95372838D01*
X162199559Y-95511910D01*
X162054569Y-95724110D01*
X162003560Y-95976000D01*
X162003560Y-97826000D01*
X162047838Y-98061317D01*
X162186910Y-98277441D01*
X162399110Y-98422431D01*
X162651000Y-98473440D01*
X162816000Y-98473440D01*
X162816000Y-100387005D01*
X162561302Y-100557189D01*
X162306000Y-100939275D01*
X162050698Y-100557189D01*
X161585151Y-100246120D01*
X161036000Y-100136887D01*
X160486849Y-100246120D01*
X160021302Y-100557189D01*
X159832333Y-100840000D01*
X159406122Y-100840000D01*
X159332243Y-100661200D01*
X158928923Y-100257176D01*
X158401691Y-100038250D01*
X157830813Y-100037752D01*
X157303200Y-100255757D01*
X156899176Y-100659077D01*
X156680250Y-101186309D01*
X156679752Y-101757187D01*
X154990000Y-101757187D01*
X154990000Y-92687532D01*
X186309217Y-92687532D01*
X186407880Y-92954387D01*
X187017605Y-93180908D01*
X187667604Y-93156856D01*
X188156408Y-92954387D01*
X188255071Y-92687532D01*
X187282144Y-91714605D01*
X186309217Y-92687532D01*
X154990000Y-92687532D01*
X154990000Y-91270461D01*
X185636236Y-91270461D01*
X185660288Y-91920460D01*
X185862757Y-92409264D01*
X186129612Y-92507927D01*
X187102539Y-91535000D01*
X187461749Y-91535000D01*
X188434676Y-92507927D01*
X188701531Y-92409264D01*
X188928052Y-91799539D01*
X188904000Y-91149540D01*
X188701531Y-90660736D01*
X188434676Y-90562073D01*
X187461749Y-91535000D01*
X187102539Y-91535000D01*
X187088397Y-91520858D01*
X187268002Y-91341253D01*
X187282144Y-91355395D01*
X188255071Y-90382468D01*
X188156408Y-90115613D01*
X188140656Y-90109761D01*
X188255908Y-89799539D01*
X188231856Y-89149540D01*
X188029387Y-88660736D01*
X187762532Y-88562073D01*
X186789605Y-89535000D01*
X186803748Y-89549143D01*
X186624143Y-89728748D01*
X186610000Y-89714605D01*
X185637073Y-90687532D01*
X185735736Y-90954387D01*
X185751488Y-90960239D01*
X185636236Y-91270461D01*
X154990000Y-91270461D01*
X154990000Y-71120000D01*
X167782999Y-71120000D01*
X167783000Y-71120005D01*
X167783000Y-73152000D01*
X167845560Y-73466510D01*
X167845560Y-74077000D01*
X167889838Y-74312317D01*
X168028910Y-74528441D01*
X168241110Y-74673431D01*
X168493000Y-74724440D01*
X169103490Y-74724440D01*
X169418000Y-74787000D01*
X169732510Y-74724440D01*
X170343000Y-74724440D01*
X170578317Y-74680162D01*
X170794441Y-74541090D01*
X170893522Y-74396080D01*
X171292313Y-74662543D01*
X171918000Y-74787000D01*
X173693760Y-74787000D01*
X176897878Y-77991117D01*
X176897880Y-77991120D01*
X177380878Y-78313848D01*
X177428313Y-78345543D01*
X178054000Y-78470001D01*
X178054005Y-78470000D01*
X179334040Y-78470000D01*
X179327560Y-78502000D01*
X179327560Y-80502000D01*
X179340000Y-80568113D01*
X179340000Y-86290147D01*
X179290416Y-86535000D01*
X179290416Y-88535000D01*
X179334694Y-88770317D01*
X179473766Y-88986441D01*
X179685966Y-89131431D01*
X179937856Y-89182440D01*
X179962560Y-89182440D01*
X179962560Y-90535000D01*
X180006838Y-90770317D01*
X180145910Y-90986441D01*
X180358110Y-91131431D01*
X180610000Y-91182440D01*
X182610000Y-91182440D01*
X182845317Y-91138162D01*
X183061441Y-90999090D01*
X183206431Y-90786890D01*
X183257440Y-90535000D01*
X183257440Y-89270461D01*
X184964092Y-89270461D01*
X184988144Y-89920460D01*
X185190613Y-90409264D01*
X185457468Y-90507927D01*
X186430395Y-89535000D01*
X185457468Y-88562073D01*
X185190613Y-88660736D01*
X184964092Y-89270461D01*
X183257440Y-89270461D01*
X183257440Y-88535000D01*
X183228740Y-88382468D01*
X185637073Y-88382468D01*
X186610000Y-89355395D01*
X187582927Y-88382468D01*
X187484264Y-88115613D01*
X186874539Y-87889092D01*
X186224540Y-87913144D01*
X185735736Y-88115613D01*
X185637073Y-88382468D01*
X183228740Y-88382468D01*
X183213162Y-88299683D01*
X183074090Y-88083559D01*
X182861890Y-87938569D01*
X182610000Y-87887560D01*
X182585296Y-87887560D01*
X182585296Y-87622055D01*
X182610001Y-87497856D01*
X182610000Y-87497851D01*
X182610000Y-86937658D01*
X182808658Y-86739000D01*
X193270560Y-86739000D01*
X193270560Y-86879000D01*
X193314838Y-87114317D01*
X193453910Y-87330441D01*
X193666110Y-87475431D01*
X193918000Y-87526440D01*
X193931000Y-87526440D01*
X193931000Y-89738560D01*
X193891000Y-89738560D01*
X193655683Y-89782838D01*
X193439559Y-89921910D01*
X193294569Y-90134110D01*
X193243560Y-90386000D01*
X193243560Y-90465872D01*
X193180457Y-90560313D01*
X193056000Y-91186000D01*
X193056000Y-96392995D01*
X193055999Y-96393000D01*
X193180457Y-97018688D01*
X193534880Y-97549120D01*
X196455878Y-100470117D01*
X196455880Y-100470120D01*
X196721096Y-100647331D01*
X196986312Y-100824543D01*
X197612000Y-100949001D01*
X197612005Y-100949000D01*
X205105000Y-100949000D01*
X205419510Y-100886440D01*
X206030000Y-100886440D01*
X206265317Y-100842162D01*
X206481441Y-100703090D01*
X206626431Y-100490890D01*
X206677440Y-100239000D01*
X206677440Y-99628510D01*
X206740000Y-99314000D01*
X206677440Y-98999490D01*
X206677440Y-98389000D01*
X206633162Y-98153683D01*
X206494090Y-97937559D01*
X206312126Y-97813229D01*
X206426732Y-97698823D01*
X206664728Y-97125664D01*
X206665270Y-96505058D01*
X206428275Y-95931486D01*
X206061174Y-95563744D01*
X206426732Y-95198823D01*
X206664728Y-94625664D01*
X206665270Y-94005058D01*
X206428275Y-93431486D01*
X206061174Y-93063744D01*
X206426732Y-92698823D01*
X206664728Y-92125664D01*
X206665000Y-91814000D01*
X210200999Y-91814000D01*
X210325457Y-92439688D01*
X210679880Y-92970120D01*
X210820381Y-93064000D01*
X210679880Y-93157880D01*
X210325457Y-93688312D01*
X210200999Y-94314000D01*
X210325457Y-94939688D01*
X210679880Y-95470120D01*
X210726880Y-95517120D01*
X210808711Y-95571798D01*
X210679880Y-95657880D01*
X210325457Y-96188313D01*
X210201000Y-96814000D01*
X210325457Y-97439687D01*
X210592509Y-97839359D01*
X210459559Y-97924910D01*
X210314569Y-98137110D01*
X210263560Y-98389000D01*
X210263560Y-100239000D01*
X210307838Y-100474317D01*
X210446910Y-100690441D01*
X210659110Y-100835431D01*
X210911000Y-100886440D01*
X212761000Y-100886440D01*
X212996317Y-100842162D01*
X213212441Y-100703090D01*
X213357431Y-100490890D01*
X213408440Y-100239000D01*
X213408440Y-98449000D01*
X213992760Y-98449000D01*
X214997880Y-99454120D01*
X215528312Y-99808543D01*
X216154000Y-99933001D01*
X216154005Y-99933000D01*
X217805000Y-99933000D01*
X218430687Y-99808543D01*
X218961120Y-99454120D01*
X219118943Y-99217920D01*
X219229519Y-99383409D01*
X219585000Y-99620934D01*
X219585000Y-102936198D01*
X216244957Y-106276241D01*
X216027000Y-106232887D01*
X215477849Y-106342120D01*
X215012302Y-106653189D01*
X214701233Y-107118736D01*
X214592000Y-107667887D01*
X214592000Y-107724113D01*
X214687853Y-108206000D01*
X214436802Y-108206000D01*
X214125974Y-107895172D01*
X214160000Y-107724113D01*
X214160000Y-107667887D01*
X214050767Y-107118736D01*
X213739698Y-106653189D01*
X213274151Y-106342120D01*
X212725000Y-106232887D01*
X212175849Y-106342120D01*
X211710302Y-106653189D01*
X211399233Y-107118736D01*
X211290000Y-107667887D01*
X211290000Y-107724113D01*
X211399233Y-108273264D01*
X211710302Y-108738811D01*
X212175849Y-109049880D01*
X212725000Y-109159113D01*
X213154815Y-109073617D01*
X213584599Y-109503401D01*
X213831160Y-109668148D01*
X214122000Y-109726000D01*
X217678000Y-109726000D01*
X217968839Y-109668148D01*
X218215401Y-109503401D01*
X222152401Y-105566401D01*
X222317148Y-105319839D01*
X222375000Y-105029000D01*
X222375000Y-99833000D01*
X222599250Y-99833000D01*
X222758000Y-99674250D01*
X222758000Y-98425000D01*
X223012000Y-98425000D01*
X223012000Y-99674250D01*
X223170750Y-99833000D01*
X223911309Y-99833000D01*
X224144698Y-99736327D01*
X224323327Y-99557699D01*
X224420000Y-99324310D01*
X224420000Y-98583750D01*
X224261250Y-98425000D01*
X223012000Y-98425000D01*
X222758000Y-98425000D01*
X222738000Y-98425000D01*
X222738000Y-98171000D01*
X222758000Y-98171000D01*
X222758000Y-96921750D01*
X223012000Y-96921750D01*
X223012000Y-98171000D01*
X224261250Y-98171000D01*
X224420000Y-98012250D01*
X224420000Y-97271690D01*
X224323327Y-97038301D01*
X224144698Y-96859673D01*
X223911309Y-96763000D01*
X223170750Y-96763000D01*
X223012000Y-96921750D01*
X222758000Y-96921750D01*
X222599250Y-96763000D01*
X222375000Y-96763000D01*
X222375000Y-95896000D01*
X222599250Y-95896000D01*
X222758000Y-95737250D01*
X222758000Y-94488000D01*
X223012000Y-94488000D01*
X223012000Y-95737250D01*
X223170750Y-95896000D01*
X223911309Y-95896000D01*
X224144698Y-95799327D01*
X224323327Y-95620699D01*
X224420000Y-95387310D01*
X224420000Y-94646750D01*
X224261250Y-94488000D01*
X223012000Y-94488000D01*
X222758000Y-94488000D01*
X222738000Y-94488000D01*
X222738000Y-94234000D01*
X222758000Y-94234000D01*
X222758000Y-92984750D01*
X223012000Y-92984750D01*
X223012000Y-94234000D01*
X224261250Y-94234000D01*
X224420000Y-94075250D01*
X224420000Y-93334690D01*
X224323327Y-93101301D01*
X224144698Y-92922673D01*
X223911309Y-92826000D01*
X223170750Y-92826000D01*
X223012000Y-92984750D01*
X222758000Y-92984750D01*
X222599250Y-92826000D01*
X221858691Y-92826000D01*
X221625302Y-92922673D01*
X221446673Y-93101301D01*
X221393122Y-93230583D01*
X220962491Y-92942845D01*
X220375072Y-92826000D01*
X220314928Y-92826000D01*
X219727509Y-92942845D01*
X219229519Y-93275591D01*
X219118943Y-93441080D01*
X218961120Y-93204880D01*
X218430687Y-92850457D01*
X217805000Y-92726000D01*
X213236240Y-92726000D01*
X213776239Y-92186000D01*
X217932000Y-92186000D01*
X218557687Y-92061543D01*
X219088120Y-91707120D01*
X219245943Y-91470920D01*
X219356519Y-91636409D01*
X219854509Y-91969155D01*
X220441928Y-92086000D01*
X220502072Y-92086000D01*
X221089491Y-91969155D01*
X221520122Y-91681417D01*
X221573673Y-91810699D01*
X221752302Y-91989327D01*
X221985691Y-92086000D01*
X222726250Y-92086000D01*
X222885000Y-91927250D01*
X222885000Y-90678000D01*
X223139000Y-90678000D01*
X223139000Y-91927250D01*
X223297750Y-92086000D01*
X224038309Y-92086000D01*
X224271698Y-91989327D01*
X224450327Y-91810699D01*
X224547000Y-91577310D01*
X224547000Y-90836750D01*
X224388250Y-90678000D01*
X223139000Y-90678000D01*
X222885000Y-90678000D01*
X222865000Y-90678000D01*
X222865000Y-90424000D01*
X222885000Y-90424000D01*
X222885000Y-89174750D01*
X223139000Y-89174750D01*
X223139000Y-90424000D01*
X224388250Y-90424000D01*
X224547000Y-90265250D01*
X224547000Y-89524690D01*
X224450327Y-89291301D01*
X224271698Y-89112673D01*
X224038309Y-89016000D01*
X223297750Y-89016000D01*
X223139000Y-89174750D01*
X222885000Y-89174750D01*
X222726250Y-89016000D01*
X221985691Y-89016000D01*
X221752302Y-89112673D01*
X221573673Y-89291301D01*
X221520122Y-89420583D01*
X221089491Y-89132845D01*
X220502072Y-89016000D01*
X220441928Y-89016000D01*
X219854509Y-89132845D01*
X219356519Y-89465591D01*
X219245943Y-89631080D01*
X219088120Y-89394880D01*
X218557687Y-89040457D01*
X217932000Y-88916000D01*
X213099005Y-88916000D01*
X213099000Y-88915999D01*
X212473313Y-89040457D01*
X211942880Y-89394880D01*
X211942878Y-89394883D01*
X210679880Y-90657880D01*
X210325457Y-91188312D01*
X210200999Y-91814000D01*
X206665000Y-91814000D01*
X206665270Y-91505058D01*
X206428275Y-90931486D01*
X205989823Y-90492268D01*
X205416664Y-90254272D01*
X204796058Y-90253730D01*
X204222486Y-90490725D01*
X203783268Y-90929177D01*
X203545272Y-91502336D01*
X203544730Y-92122942D01*
X203781725Y-92696514D01*
X204148826Y-93064256D01*
X203783268Y-93429177D01*
X203545272Y-94002336D01*
X203544730Y-94622942D01*
X203781725Y-95196514D01*
X204148826Y-95564256D01*
X203783268Y-95929177D01*
X203545272Y-96502336D01*
X203544730Y-97122942D01*
X203774488Y-97679000D01*
X198289239Y-97679000D01*
X196326000Y-95715760D01*
X196326000Y-92230608D01*
X196362861Y-92193747D01*
X196436995Y-92439864D01*
X196974223Y-92632965D01*
X197544454Y-92605778D01*
X197715942Y-92534745D01*
X199323861Y-92534745D01*
X199397995Y-92780864D01*
X199935223Y-92973965D01*
X200505454Y-92946778D01*
X200906005Y-92780864D01*
X200980139Y-92534745D01*
X200152000Y-91706605D01*
X199323861Y-92534745D01*
X197715942Y-92534745D01*
X197945005Y-92439864D01*
X198019139Y-92193745D01*
X197191000Y-91365605D01*
X197176858Y-91379748D01*
X196997252Y-91200142D01*
X197011395Y-91186000D01*
X197370605Y-91186000D01*
X198198745Y-92014139D01*
X198444864Y-91940005D01*
X198637965Y-91402777D01*
X198633553Y-91310223D01*
X198705035Y-91310223D01*
X198732222Y-91880454D01*
X198898136Y-92281005D01*
X199144255Y-92355139D01*
X199972395Y-91527000D01*
X200331605Y-91527000D01*
X201159745Y-92355139D01*
X201405864Y-92281005D01*
X201598965Y-91743777D01*
X201571778Y-91173546D01*
X201405864Y-90772995D01*
X201159745Y-90698861D01*
X200331605Y-91527000D01*
X199972395Y-91527000D01*
X199144255Y-90698861D01*
X198898136Y-90772995D01*
X198705035Y-91310223D01*
X198633553Y-91310223D01*
X198610778Y-90832546D01*
X198444864Y-90431995D01*
X198198745Y-90357861D01*
X197370605Y-91186000D01*
X197011395Y-91186000D01*
X196183255Y-90357861D01*
X196135833Y-90372145D01*
X196099351Y-90178255D01*
X196362861Y-90178255D01*
X197191000Y-91006395D01*
X198019139Y-90178255D01*
X197945005Y-89932136D01*
X197407777Y-89739035D01*
X196837546Y-89766222D01*
X196436995Y-89932136D01*
X196362861Y-90178255D01*
X196099351Y-90178255D01*
X196094162Y-90150683D01*
X195955090Y-89934559D01*
X195742890Y-89789569D01*
X195491000Y-89738560D01*
X195451000Y-89738560D01*
X195451000Y-87526440D01*
X195718000Y-87526440D01*
X195953317Y-87482162D01*
X196169441Y-87343090D01*
X196314431Y-87130890D01*
X196324766Y-87079854D01*
X196450424Y-87216966D01*
X196993258Y-87470046D01*
X197231000Y-87349997D01*
X197231000Y-86106000D01*
X197211000Y-86106000D01*
X197211000Y-85852000D01*
X197231000Y-85852000D01*
X197231000Y-84608003D01*
X197485000Y-84608003D01*
X197485000Y-85852000D01*
X197505000Y-85852000D01*
X197505000Y-86106000D01*
X197485000Y-86106000D01*
X197485000Y-87349997D01*
X197722742Y-87470046D01*
X198265576Y-87216966D01*
X198623499Y-86826418D01*
X198782519Y-87064409D01*
X199138000Y-87301934D01*
X199138000Y-88011605D01*
X198936176Y-88213077D01*
X198717250Y-88740309D01*
X198716752Y-89311187D01*
X198934757Y-89838800D01*
X199338077Y-90242824D01*
X199404544Y-90270423D01*
X199397995Y-90273136D01*
X199323861Y-90519255D01*
X200152000Y-91347395D01*
X200980139Y-90519255D01*
X200906005Y-90273136D01*
X200899517Y-90270804D01*
X200963800Y-90244243D01*
X201367824Y-89840923D01*
X201586750Y-89313691D01*
X201587248Y-88742813D01*
X201369243Y-88215200D01*
X200965923Y-87811176D01*
X200658000Y-87683315D01*
X200658000Y-87301934D01*
X201013481Y-87064409D01*
X201346227Y-86566419D01*
X201463072Y-85979000D01*
X201346227Y-85391581D01*
X201013481Y-84893591D01*
X200515491Y-84560845D01*
X199928072Y-84444000D01*
X199867928Y-84444000D01*
X199280509Y-84560845D01*
X198782519Y-84893591D01*
X198623499Y-85131582D01*
X198265576Y-84741034D01*
X197722742Y-84487954D01*
X197485000Y-84608003D01*
X197231000Y-84608003D01*
X196993258Y-84487954D01*
X196450424Y-84741034D01*
X196327156Y-84875538D01*
X196321162Y-84843683D01*
X196182090Y-84627559D01*
X195969890Y-84482569D01*
X195718000Y-84431560D01*
X193918000Y-84431560D01*
X193682683Y-84475838D01*
X193466559Y-84614910D01*
X193321569Y-84827110D01*
X193270560Y-85079000D01*
X193270560Y-85219000D01*
X182610000Y-85219000D01*
X182610000Y-80563431D01*
X182622440Y-80502000D01*
X182622440Y-78502000D01*
X182616419Y-78470000D01*
X182710760Y-78470000D01*
X184834377Y-80593616D01*
X184898880Y-80690152D01*
X185429313Y-81044575D01*
X186055000Y-81169032D01*
X186680687Y-81044575D01*
X187211120Y-80690152D01*
X187565543Y-80159719D01*
X187690000Y-79534032D01*
X187690000Y-79502005D01*
X187690001Y-79502000D01*
X187690000Y-79501995D01*
X187690000Y-79469968D01*
X187565543Y-78844281D01*
X187211120Y-78313848D01*
X187114584Y-78249345D01*
X184544120Y-75678880D01*
X184013688Y-75324457D01*
X183388000Y-75199999D01*
X183387995Y-75200000D01*
X182405174Y-75200000D01*
X182485543Y-75079719D01*
X182540698Y-74802435D01*
X184464867Y-74802435D01*
X184731495Y-75381994D01*
X185199615Y-75815402D01*
X185674566Y-76012124D01*
X185928000Y-75892777D01*
X185928000Y-74549000D01*
X186182000Y-74549000D01*
X186182000Y-75892777D01*
X186435434Y-76012124D01*
X186910385Y-75815402D01*
X187378505Y-75381994D01*
X187645133Y-74802435D01*
X187526319Y-74549000D01*
X186182000Y-74549000D01*
X185928000Y-74549000D01*
X184583681Y-74549000D01*
X184464867Y-74802435D01*
X182540698Y-74802435D01*
X182610000Y-74454032D01*
X182610000Y-74422005D01*
X182610001Y-74422000D01*
X182610000Y-74421995D01*
X182610000Y-74389968D01*
X182540699Y-74041565D01*
X184464867Y-74041565D01*
X184583681Y-74295000D01*
X185928000Y-74295000D01*
X185928000Y-72951223D01*
X186182000Y-72951223D01*
X186182000Y-74295000D01*
X187526319Y-74295000D01*
X187645133Y-74041565D01*
X187378505Y-73462006D01*
X186910385Y-73028598D01*
X186435434Y-72831876D01*
X186182000Y-72951223D01*
X185928000Y-72951223D01*
X185674566Y-72831876D01*
X185199615Y-73028598D01*
X184731495Y-73462006D01*
X184464867Y-74041565D01*
X182540699Y-74041565D01*
X182485543Y-73764281D01*
X182131120Y-73233848D01*
X182034584Y-73169345D01*
X178194120Y-69328880D01*
X178179334Y-69319000D01*
X194926275Y-69319000D01*
X195107822Y-70231700D01*
X195624825Y-71005450D01*
X196398575Y-71522453D01*
X197311275Y-71704000D01*
X197404725Y-71704000D01*
X198317425Y-71522453D01*
X199091175Y-71005450D01*
X199608178Y-70231700D01*
X199789725Y-69319000D01*
X199608178Y-68406300D01*
X199091175Y-67632550D01*
X198317425Y-67115547D01*
X197404725Y-66934000D01*
X197311275Y-66934000D01*
X196398575Y-67115547D01*
X195624825Y-67632550D01*
X195107822Y-68406300D01*
X194926275Y-69319000D01*
X178179334Y-69319000D01*
X177663688Y-68974457D01*
X177038000Y-68849999D01*
X177037995Y-68850000D01*
X170053005Y-68850000D01*
X170053000Y-68849999D01*
X169427313Y-68974457D01*
X168896880Y-69328880D01*
X168896878Y-69328883D01*
X168261880Y-69963880D01*
X167907457Y-70494312D01*
X167782999Y-71120000D01*
X154990000Y-71120000D01*
X154990000Y-64947000D01*
X226391000Y-64947000D01*
X226391000Y-133300000D01*
M02*
