M48
;DRILL file {KiCad 4.0.7} date 03/17/18 14:29:53
;FORMAT={-:-/ absolute / inch / decimal}
FMAT,2
INCH,TZ
T1C0.031
T2C0.035
T3C0.039
T4C0.040
T5C0.138
%
G90
G05
M72
T1
X6.225Y-3.995
X6.225Y-4.0934
X6.34Y-4.
X6.34Y-4.3
X6.44Y-4.
X6.44Y-4.3
X6.44Y-4.805
X6.44Y-5.205
X6.54Y-4.
X6.54Y-4.3
X6.57Y-4.805
X6.57Y-5.205
X6.64Y-4.
X6.64Y-4.3
X6.705Y-4.805
X6.705Y-5.205
X6.835Y-4.8
X6.835Y-5.2
X6.9716Y-4.485
X6.9716Y-4.68
X7.07Y-4.485
X7.07Y-4.68
X7.2016Y-4.235
X7.225Y-4.485
X7.225Y-4.6771
X7.3Y-4.235
X7.305Y-4.115
X7.4Y-4.24
X7.4Y-4.34
X7.4Y-4.44
X7.4Y-4.54
X7.4Y-4.64
X7.4Y-4.74
X7.4Y-4.84
X7.4Y-4.94
X7.4Y-5.04
X7.4Y-5.14
X7.665Y-3.59
X7.7Y-4.24
X7.7Y-4.34
X7.7Y-4.44
X7.7Y-4.54
X7.7Y-4.64
X7.7Y-4.74
X7.7Y-4.84
X7.7Y-4.94
X7.7Y-5.04
X7.7Y-5.14
X7.705Y-4.115
X7.7634Y-3.59
X7.8Y-4.115
X7.88Y-3.505
X7.88Y-3.6034
X7.8984Y-4.115
X8.245Y-4.24
X8.245Y-4.64
X8.375Y-4.24
X8.375Y-4.64
X8.505Y-4.24
X8.505Y-4.64
T2
X6.44Y-3.815
X6.5384Y-3.815
X6.6369Y-3.815
X6.67Y-2.88
X6.7684Y-2.88
X8.075Y-3.6147
X8.075Y-3.7131
X8.075Y-3.8116
X8.075Y-3.91
X8.34Y-3.6147
X8.34Y-3.7131
X8.34Y-3.8116
X8.34Y-3.91
T3
X7.1235Y-3.4463
X7.125Y-2.93
X7.125Y-3.13
X7.15Y-3.525
X7.325Y-2.93
X7.325Y-3.13
X7.3469Y-3.525
X7.3733Y-3.6037
X7.67Y-3.385
X7.77Y-3.385
X7.87Y-3.385
X8.575Y-3.715
X8.575Y-3.87
X8.58Y-3.565
X8.675Y-3.715
X8.675Y-3.87
X8.68Y-3.565
X8.775Y-3.715
X8.775Y-3.87
X8.78Y-3.565
T4
X6.34Y-4.505
X6.34Y-4.605
X6.44Y-4.505
X6.44Y-4.605
X6.54Y-4.505
X6.54Y-4.605
X6.64Y-4.505
X6.64Y-4.605
X7.935Y-4.44
X7.935Y-4.54
X7.935Y-4.64
X8.035Y-4.44
X8.035Y-4.54
X8.035Y-4.64
T5
X7.77Y-2.7291
T0
M30
