G04 #@! TF.FileFunction,Legend,Top*
%FSLAX46Y46*%
G04 Gerber Fmt 4.6, Leading zero omitted, Abs format (unit mm)*
G04 Created by KiCad (PCBNEW 4.0.7) date 01/29/18 16:59:17*
%MOMM*%
%LPD*%
G01*
G04 APERTURE LIST*
%ADD10C,0.100000*%
%ADD11C,0.120000*%
%ADD12C,0.150000*%
G04 APERTURE END LIST*
D10*
D11*
X150227264Y-57690437D02*
G75*
G03X150224000Y-47892643I-1383264J4898437D01*
G01*
X147460736Y-57690437D02*
G75*
G02X147464000Y-47892643I1383264J4898437D01*
G01*
X147460736Y-57690437D02*
G75*
G03X150224000Y-57691357I1383264J4898437D01*
G01*
X153894000Y-52792000D02*
X143794000Y-52792000D01*
X153894000Y-52832000D02*
X143794000Y-52832000D01*
X153894000Y-52872000D02*
X143794000Y-52872000D01*
X153893000Y-52912000D02*
X143795000Y-52912000D01*
X153892000Y-52952000D02*
X143796000Y-52952000D01*
X153891000Y-52992000D02*
X143797000Y-52992000D01*
X153889000Y-53032000D02*
X143799000Y-53032000D01*
X153887000Y-53072000D02*
X143801000Y-53072000D01*
X153884000Y-53112000D02*
X143804000Y-53112000D01*
X153882000Y-53152000D02*
X143806000Y-53152000D01*
X153879000Y-53192000D02*
X143809000Y-53192000D01*
X153875000Y-53232000D02*
X143813000Y-53232000D01*
X153872000Y-53272000D02*
X143816000Y-53272000D01*
X153868000Y-53312000D02*
X143820000Y-53312000D01*
X153864000Y-53352000D02*
X143824000Y-53352000D01*
X153859000Y-53392000D02*
X143829000Y-53392000D01*
X153854000Y-53432000D02*
X143834000Y-53432000D01*
X153849000Y-53472000D02*
X143839000Y-53472000D01*
X153843000Y-53513000D02*
X143845000Y-53513000D01*
X153837000Y-53553000D02*
X143851000Y-53553000D01*
X153831000Y-53593000D02*
X143857000Y-53593000D01*
X153825000Y-53633000D02*
X143863000Y-53633000D01*
X153818000Y-53673000D02*
X143870000Y-53673000D01*
X153811000Y-53713000D02*
X143877000Y-53713000D01*
X153803000Y-53753000D02*
X143885000Y-53753000D01*
X153795000Y-53793000D02*
X143893000Y-53793000D01*
X153787000Y-53833000D02*
X143901000Y-53833000D01*
X153779000Y-53873000D02*
X143909000Y-53873000D01*
X153770000Y-53913000D02*
X143918000Y-53913000D01*
X153761000Y-53953000D02*
X143927000Y-53953000D01*
X153751000Y-53993000D02*
X143937000Y-53993000D01*
X153741000Y-54033000D02*
X143947000Y-54033000D01*
X153731000Y-54073000D02*
X143957000Y-54073000D01*
X153720000Y-54113000D02*
X150025000Y-54113000D01*
X147663000Y-54113000D02*
X143968000Y-54113000D01*
X153709000Y-54153000D02*
X150025000Y-54153000D01*
X147663000Y-54153000D02*
X143979000Y-54153000D01*
X153698000Y-54193000D02*
X150025000Y-54193000D01*
X147663000Y-54193000D02*
X143990000Y-54193000D01*
X153687000Y-54233000D02*
X150025000Y-54233000D01*
X147663000Y-54233000D02*
X144001000Y-54233000D01*
X153675000Y-54273000D02*
X150025000Y-54273000D01*
X147663000Y-54273000D02*
X144013000Y-54273000D01*
X153662000Y-54313000D02*
X150025000Y-54313000D01*
X147663000Y-54313000D02*
X144026000Y-54313000D01*
X153650000Y-54353000D02*
X150025000Y-54353000D01*
X147663000Y-54353000D02*
X144038000Y-54353000D01*
X153636000Y-54393000D02*
X150025000Y-54393000D01*
X147663000Y-54393000D02*
X144052000Y-54393000D01*
X153623000Y-54433000D02*
X150025000Y-54433000D01*
X147663000Y-54433000D02*
X144065000Y-54433000D01*
X153609000Y-54473000D02*
X150025000Y-54473000D01*
X147663000Y-54473000D02*
X144079000Y-54473000D01*
X153595000Y-54513000D02*
X150025000Y-54513000D01*
X147663000Y-54513000D02*
X144093000Y-54513000D01*
X153581000Y-54553000D02*
X150025000Y-54553000D01*
X147663000Y-54553000D02*
X144107000Y-54553000D01*
X153566000Y-54593000D02*
X150025000Y-54593000D01*
X147663000Y-54593000D02*
X144122000Y-54593000D01*
X153550000Y-54633000D02*
X150025000Y-54633000D01*
X147663000Y-54633000D02*
X144138000Y-54633000D01*
X153535000Y-54673000D02*
X150025000Y-54673000D01*
X147663000Y-54673000D02*
X144153000Y-54673000D01*
X153518000Y-54713000D02*
X150025000Y-54713000D01*
X147663000Y-54713000D02*
X144170000Y-54713000D01*
X153502000Y-54753000D02*
X150025000Y-54753000D01*
X147663000Y-54753000D02*
X144186000Y-54753000D01*
X153485000Y-54793000D02*
X150025000Y-54793000D01*
X145664000Y-54793000D02*
X144203000Y-54793000D01*
X153468000Y-54833000D02*
X150025000Y-54833000D01*
X145664000Y-54833000D02*
X144220000Y-54833000D01*
X153450000Y-54873000D02*
X150025000Y-54873000D01*
X145664000Y-54873000D02*
X144238000Y-54873000D01*
X153432000Y-54913000D02*
X150025000Y-54913000D01*
X145664000Y-54913000D02*
X144256000Y-54913000D01*
X153413000Y-54953000D02*
X150025000Y-54953000D01*
X145664000Y-54953000D02*
X144275000Y-54953000D01*
X153394000Y-54993000D02*
X150025000Y-54993000D01*
X145664000Y-54993000D02*
X144294000Y-54993000D01*
X153375000Y-55033000D02*
X150025000Y-55033000D01*
X145664000Y-55033000D02*
X144313000Y-55033000D01*
X153355000Y-55073000D02*
X150025000Y-55073000D01*
X145664000Y-55073000D02*
X144333000Y-55073000D01*
X153335000Y-55113000D02*
X150025000Y-55113000D01*
X145664000Y-55113000D02*
X144353000Y-55113000D01*
X153314000Y-55153000D02*
X150025000Y-55153000D01*
X145664000Y-55153000D02*
X144374000Y-55153000D01*
X153293000Y-55193000D02*
X150025000Y-55193000D01*
X145664000Y-55193000D02*
X144395000Y-55193000D01*
X153272000Y-55233000D02*
X150025000Y-55233000D01*
X145664000Y-55233000D02*
X144416000Y-55233000D01*
X153249000Y-55273000D02*
X150025000Y-55273000D01*
X145664000Y-55273000D02*
X144439000Y-55273000D01*
X153227000Y-55313000D02*
X150025000Y-55313000D01*
X145664000Y-55313000D02*
X144461000Y-55313000D01*
X153204000Y-55353000D02*
X150025000Y-55353000D01*
X145664000Y-55353000D02*
X144484000Y-55353000D01*
X153180000Y-55393000D02*
X150025000Y-55393000D01*
X145664000Y-55393000D02*
X144508000Y-55393000D01*
X153156000Y-55433000D02*
X150025000Y-55433000D01*
X145664000Y-55433000D02*
X144532000Y-55433000D01*
X153132000Y-55473000D02*
X150025000Y-55473000D01*
X145664000Y-55473000D02*
X144556000Y-55473000D01*
X153107000Y-55513000D02*
X150025000Y-55513000D01*
X145664000Y-55513000D02*
X144581000Y-55513000D01*
X153081000Y-55553000D02*
X150025000Y-55553000D01*
X145664000Y-55553000D02*
X144607000Y-55553000D01*
X153055000Y-55593000D02*
X150025000Y-55593000D01*
X145664000Y-55593000D02*
X144633000Y-55593000D01*
X153029000Y-55633000D02*
X150025000Y-55633000D01*
X145664000Y-55633000D02*
X144659000Y-55633000D01*
X153001000Y-55673000D02*
X150025000Y-55673000D01*
X145664000Y-55673000D02*
X144687000Y-55673000D01*
X152974000Y-55713000D02*
X150025000Y-55713000D01*
X145664000Y-55713000D02*
X144714000Y-55713000D01*
X152945000Y-55753000D02*
X150025000Y-55753000D01*
X145664000Y-55753000D02*
X144743000Y-55753000D01*
X152916000Y-55793000D02*
X150025000Y-55793000D01*
X145664000Y-55793000D02*
X144772000Y-55793000D01*
X152887000Y-55833000D02*
X150025000Y-55833000D01*
X145664000Y-55833000D02*
X144801000Y-55833000D01*
X152857000Y-55873000D02*
X150025000Y-55873000D01*
X145664000Y-55873000D02*
X144831000Y-55873000D01*
X152826000Y-55913000D02*
X150025000Y-55913000D01*
X145664000Y-55913000D02*
X144862000Y-55913000D01*
X152795000Y-55953000D02*
X150025000Y-55953000D01*
X145664000Y-55953000D02*
X144893000Y-55953000D01*
X152763000Y-55993000D02*
X150025000Y-55993000D01*
X145664000Y-55993000D02*
X144925000Y-55993000D01*
X152730000Y-56033000D02*
X150025000Y-56033000D01*
X145664000Y-56033000D02*
X144958000Y-56033000D01*
X152697000Y-56073000D02*
X150025000Y-56073000D01*
X145664000Y-56073000D02*
X144991000Y-56073000D01*
X152663000Y-56113000D02*
X150025000Y-56113000D01*
X145664000Y-56113000D02*
X145025000Y-56113000D01*
X152628000Y-56153000D02*
X150025000Y-56153000D01*
X145664000Y-56153000D02*
X145060000Y-56153000D01*
X152592000Y-56193000D02*
X150025000Y-56193000D01*
X145664000Y-56193000D02*
X145096000Y-56193000D01*
X152556000Y-56233000D02*
X150025000Y-56233000D01*
X145664000Y-56233000D02*
X145132000Y-56233000D01*
X152519000Y-56273000D02*
X150025000Y-56273000D01*
X145664000Y-56273000D02*
X145169000Y-56273000D01*
X152481000Y-56313000D02*
X150025000Y-56313000D01*
X145664000Y-56313000D02*
X145207000Y-56313000D01*
X152442000Y-56353000D02*
X150025000Y-56353000D01*
X145664000Y-56353000D02*
X145246000Y-56353000D01*
X152403000Y-56393000D02*
X150025000Y-56393000D01*
X145664000Y-56393000D02*
X145285000Y-56393000D01*
X152362000Y-56433000D02*
X150025000Y-56433000D01*
X145664000Y-56433000D02*
X145326000Y-56433000D01*
X152321000Y-56473000D02*
X148024000Y-56473000D01*
X145664000Y-56473000D02*
X145367000Y-56473000D01*
X152279000Y-56513000D02*
X148024000Y-56513000D01*
X145664000Y-56513000D02*
X145409000Y-56513000D01*
X152235000Y-56553000D02*
X148024000Y-56553000D01*
X145664000Y-56553000D02*
X145453000Y-56553000D01*
X152191000Y-56593000D02*
X148024000Y-56593000D01*
X145664000Y-56593000D02*
X145497000Y-56593000D01*
X152146000Y-56633000D02*
X148024000Y-56633000D01*
X145664000Y-56633000D02*
X145542000Y-56633000D01*
X152099000Y-56673000D02*
X148024000Y-56673000D01*
X145664000Y-56673000D02*
X145589000Y-56673000D01*
X152051000Y-56713000D02*
X148024000Y-56713000D01*
X145664000Y-56713000D02*
X145637000Y-56713000D01*
X152002000Y-56753000D02*
X148024000Y-56753000D01*
X151952000Y-56793000D02*
X148024000Y-56793000D01*
X151901000Y-56833000D02*
X148024000Y-56833000D01*
X151848000Y-56873000D02*
X148024000Y-56873000D01*
X151793000Y-56913000D02*
X148024000Y-56913000D01*
X151738000Y-56953000D02*
X148024000Y-56953000D01*
X151680000Y-56993000D02*
X148024000Y-56993000D01*
X151621000Y-57033000D02*
X148024000Y-57033000D01*
X151559000Y-57073000D02*
X148024000Y-57073000D01*
X151496000Y-57113000D02*
X148024000Y-57113000D01*
X151431000Y-57153000D02*
X146257000Y-57153000D01*
X151363000Y-57193000D02*
X146325000Y-57193000D01*
X151293000Y-57233000D02*
X146395000Y-57233000D01*
X151221000Y-57273000D02*
X146467000Y-57273000D01*
X151145000Y-57313000D02*
X146543000Y-57313000D01*
X151066000Y-57353000D02*
X146622000Y-57353000D01*
X150984000Y-57393000D02*
X146704000Y-57393000D01*
X150897000Y-57433000D02*
X146791000Y-57433000D01*
X150806000Y-57473000D02*
X146882000Y-57473000D01*
X150710000Y-57513000D02*
X146978000Y-57513000D01*
X150607000Y-57553000D02*
X147081000Y-57553000D01*
X150498000Y-57593000D02*
X147190000Y-57593000D01*
X150380000Y-57633000D02*
X147308000Y-57633000D01*
X150251000Y-57673000D02*
X147437000Y-57673000D01*
X150109000Y-57713000D02*
X147579000Y-57713000D01*
X149948000Y-57753000D02*
X147740000Y-57753000D01*
X149757000Y-57793000D02*
X147931000Y-57793000D01*
X149516000Y-57833000D02*
X148172000Y-57833000D01*
X149123000Y-57873000D02*
X148565000Y-57873000D01*
X148844000Y-47592000D02*
X148844000Y-49092000D01*
X149594000Y-48342000D02*
X148094000Y-48342000D01*
X156173277Y-42291278D02*
G75*
G03X156173000Y-46902580I1179723J-2305722D01*
G01*
X158532723Y-42291278D02*
G75*
G02X158533000Y-46902580I-1179723J-2305722D01*
G01*
X158532723Y-42291278D02*
G75*
G03X156173000Y-42291420I-1179723J-2305722D01*
G01*
X154803000Y-44597000D02*
X159903000Y-44597000D01*
X154803000Y-44557000D02*
X159903000Y-44557000D01*
X154804000Y-44517000D02*
X159902000Y-44517000D01*
X154805000Y-44477000D02*
X159901000Y-44477000D01*
X154807000Y-44437000D02*
X159899000Y-44437000D01*
X154810000Y-44397000D02*
X159896000Y-44397000D01*
X154814000Y-44357000D02*
X159892000Y-44357000D01*
X154818000Y-44317000D02*
X156373000Y-44317000D01*
X158333000Y-44317000D02*
X159888000Y-44317000D01*
X154822000Y-44277000D02*
X156373000Y-44277000D01*
X158333000Y-44277000D02*
X159884000Y-44277000D01*
X154828000Y-44237000D02*
X156373000Y-44237000D01*
X158333000Y-44237000D02*
X159878000Y-44237000D01*
X154834000Y-44197000D02*
X156373000Y-44197000D01*
X158333000Y-44197000D02*
X159872000Y-44197000D01*
X154840000Y-44157000D02*
X156373000Y-44157000D01*
X158333000Y-44157000D02*
X159866000Y-44157000D01*
X154847000Y-44117000D02*
X156373000Y-44117000D01*
X158333000Y-44117000D02*
X159859000Y-44117000D01*
X154855000Y-44077000D02*
X156373000Y-44077000D01*
X158333000Y-44077000D02*
X159851000Y-44077000D01*
X154864000Y-44037000D02*
X156373000Y-44037000D01*
X158333000Y-44037000D02*
X159842000Y-44037000D01*
X154873000Y-43997000D02*
X156373000Y-43997000D01*
X158333000Y-43997000D02*
X159833000Y-43997000D01*
X154883000Y-43957000D02*
X156373000Y-43957000D01*
X158333000Y-43957000D02*
X159823000Y-43957000D01*
X154893000Y-43917000D02*
X156373000Y-43917000D01*
X158333000Y-43917000D02*
X159813000Y-43917000D01*
X154905000Y-43876000D02*
X156373000Y-43876000D01*
X158333000Y-43876000D02*
X159801000Y-43876000D01*
X154917000Y-43836000D02*
X156373000Y-43836000D01*
X158333000Y-43836000D02*
X159789000Y-43836000D01*
X154929000Y-43796000D02*
X156373000Y-43796000D01*
X158333000Y-43796000D02*
X159777000Y-43796000D01*
X154943000Y-43756000D02*
X156373000Y-43756000D01*
X158333000Y-43756000D02*
X159763000Y-43756000D01*
X154957000Y-43716000D02*
X156373000Y-43716000D01*
X158333000Y-43716000D02*
X159749000Y-43716000D01*
X154971000Y-43676000D02*
X156373000Y-43676000D01*
X158333000Y-43676000D02*
X159735000Y-43676000D01*
X154987000Y-43636000D02*
X156373000Y-43636000D01*
X158333000Y-43636000D02*
X159719000Y-43636000D01*
X155003000Y-43596000D02*
X156373000Y-43596000D01*
X158333000Y-43596000D02*
X159703000Y-43596000D01*
X155020000Y-43556000D02*
X156373000Y-43556000D01*
X158333000Y-43556000D02*
X159686000Y-43556000D01*
X155038000Y-43516000D02*
X156373000Y-43516000D01*
X158333000Y-43516000D02*
X159668000Y-43516000D01*
X155057000Y-43476000D02*
X156373000Y-43476000D01*
X158333000Y-43476000D02*
X159649000Y-43476000D01*
X155077000Y-43436000D02*
X156373000Y-43436000D01*
X158333000Y-43436000D02*
X159629000Y-43436000D01*
X155097000Y-43396000D02*
X156373000Y-43396000D01*
X158333000Y-43396000D02*
X159609000Y-43396000D01*
X155119000Y-43356000D02*
X156373000Y-43356000D01*
X158333000Y-43356000D02*
X159587000Y-43356000D01*
X155141000Y-43316000D02*
X156373000Y-43316000D01*
X158333000Y-43316000D02*
X159565000Y-43316000D01*
X155164000Y-43276000D02*
X156373000Y-43276000D01*
X158333000Y-43276000D02*
X159542000Y-43276000D01*
X155188000Y-43236000D02*
X156373000Y-43236000D01*
X158333000Y-43236000D02*
X159518000Y-43236000D01*
X155213000Y-43196000D02*
X156373000Y-43196000D01*
X158333000Y-43196000D02*
X159493000Y-43196000D01*
X155240000Y-43156000D02*
X156373000Y-43156000D01*
X158333000Y-43156000D02*
X159466000Y-43156000D01*
X155267000Y-43116000D02*
X156373000Y-43116000D01*
X158333000Y-43116000D02*
X159439000Y-43116000D01*
X155295000Y-43076000D02*
X156373000Y-43076000D01*
X158333000Y-43076000D02*
X159411000Y-43076000D01*
X155325000Y-43036000D02*
X156373000Y-43036000D01*
X158333000Y-43036000D02*
X159381000Y-43036000D01*
X155356000Y-42996000D02*
X156373000Y-42996000D01*
X158333000Y-42996000D02*
X159350000Y-42996000D01*
X155388000Y-42956000D02*
X156373000Y-42956000D01*
X158333000Y-42956000D02*
X159318000Y-42956000D01*
X155421000Y-42916000D02*
X156373000Y-42916000D01*
X158333000Y-42916000D02*
X159285000Y-42916000D01*
X155456000Y-42876000D02*
X156373000Y-42876000D01*
X158333000Y-42876000D02*
X159250000Y-42876000D01*
X155492000Y-42836000D02*
X156373000Y-42836000D01*
X158333000Y-42836000D02*
X159214000Y-42836000D01*
X155530000Y-42796000D02*
X156373000Y-42796000D01*
X158333000Y-42796000D02*
X159176000Y-42796000D01*
X155570000Y-42756000D02*
X156373000Y-42756000D01*
X158333000Y-42756000D02*
X159136000Y-42756000D01*
X155611000Y-42716000D02*
X156373000Y-42716000D01*
X158333000Y-42716000D02*
X159095000Y-42716000D01*
X155654000Y-42676000D02*
X156373000Y-42676000D01*
X158333000Y-42676000D02*
X159052000Y-42676000D01*
X155699000Y-42636000D02*
X156373000Y-42636000D01*
X158333000Y-42636000D02*
X159007000Y-42636000D01*
X155747000Y-42596000D02*
X156373000Y-42596000D01*
X158333000Y-42596000D02*
X158959000Y-42596000D01*
X155797000Y-42556000D02*
X156373000Y-42556000D01*
X158333000Y-42556000D02*
X158909000Y-42556000D01*
X155849000Y-42516000D02*
X156373000Y-42516000D01*
X158333000Y-42516000D02*
X158857000Y-42516000D01*
X155905000Y-42476000D02*
X156373000Y-42476000D01*
X158333000Y-42476000D02*
X158801000Y-42476000D01*
X155963000Y-42436000D02*
X156373000Y-42436000D01*
X158333000Y-42436000D02*
X158743000Y-42436000D01*
X156026000Y-42396000D02*
X156373000Y-42396000D01*
X158333000Y-42396000D02*
X158680000Y-42396000D01*
X156092000Y-42356000D02*
X158614000Y-42356000D01*
X156164000Y-42316000D02*
X158542000Y-42316000D01*
X156241000Y-42276000D02*
X158465000Y-42276000D01*
X156325000Y-42236000D02*
X158381000Y-42236000D01*
X156419000Y-42196000D02*
X158287000Y-42196000D01*
X156524000Y-42156000D02*
X158182000Y-42156000D01*
X156646000Y-42116000D02*
X158060000Y-42116000D01*
X156794000Y-42076000D02*
X157912000Y-42076000D01*
X156999000Y-42036000D02*
X157707000Y-42036000D01*
X157353000Y-48047000D02*
X157353000Y-46847000D01*
X156703000Y-47447000D02*
X158003000Y-47447000D01*
X154702000Y-50857000D02*
X154702000Y-54057000D01*
X155649843Y-55843479D02*
G75*
G03X160782000Y-55880000I2592157J3646479D01*
G01*
X162049105Y-54487818D02*
G75*
G03X162052000Y-49911000I-3807105J2290818D01*
G01*
X160834157Y-48550521D02*
G75*
G03X155702000Y-48514000I-2592157J-3646479D01*
G01*
X165904000Y-49523000D02*
X163704000Y-49523000D01*
X163704000Y-49523000D02*
X163704000Y-48023000D01*
X163704000Y-48023000D02*
X172204000Y-48023000D01*
X172204000Y-48023000D02*
X172204000Y-55823000D01*
X172204000Y-55823000D02*
X163704000Y-55823000D01*
X163704000Y-55823000D02*
X163704000Y-54323000D01*
X163704000Y-54323000D02*
X165904000Y-54323000D01*
X170704000Y-48023000D02*
X170704000Y-49523000D01*
X170704000Y-49523000D02*
X165904000Y-49523000D01*
X165904000Y-49523000D02*
X165904000Y-48023000D01*
X170704000Y-55823000D02*
X170704000Y-54323000D01*
X170704000Y-54323000D02*
X165904000Y-54323000D01*
X165904000Y-54323000D02*
X165904000Y-55823000D01*
X167854000Y-49523000D02*
X167854000Y-54323000D01*
X166854000Y-49523000D02*
X166854000Y-54323000D01*
X167854000Y-50673000D02*
X167854000Y-50353000D01*
X167854000Y-50353000D02*
X171274000Y-50353000D01*
X171274000Y-50353000D02*
X171354000Y-50673000D01*
X171354000Y-50673000D02*
X171274000Y-50993000D01*
X171274000Y-50993000D02*
X167854000Y-50993000D01*
X167854000Y-50993000D02*
X167854000Y-50673000D01*
X167854000Y-53173000D02*
X167854000Y-52853000D01*
X167854000Y-52853000D02*
X171274000Y-52853000D01*
X171274000Y-52853000D02*
X171354000Y-53173000D01*
X171354000Y-53173000D02*
X171274000Y-53493000D01*
X171274000Y-53493000D02*
X167854000Y-53493000D01*
X167854000Y-53493000D02*
X167854000Y-53173000D01*
X163854000Y-50673000D02*
X163254000Y-50373000D01*
X163254000Y-50373000D02*
X163254000Y-50973000D01*
X163254000Y-50973000D02*
X163854000Y-50673000D01*
X121946000Y-46859000D02*
X121946000Y-28579000D01*
X121946000Y-28579000D02*
X131546000Y-28579000D01*
X131546000Y-28579000D02*
X131546000Y-46859000D01*
X131546000Y-46859000D02*
X121946000Y-46859000D01*
X156976000Y-17044000D02*
X172716000Y-17044000D01*
X172716000Y-17044000D02*
X172716000Y-26644000D01*
X172716000Y-26644000D02*
X156976000Y-26644000D01*
X156976000Y-26644000D02*
X156976000Y-17044000D01*
X129441000Y-58657000D02*
X133541000Y-58657000D01*
X133541000Y-58657000D02*
X133541000Y-48357000D01*
X133541000Y-48357000D02*
X129441000Y-48357000D01*
X129441000Y-48357000D02*
X129441000Y-58657000D01*
X131191000Y-58657000D02*
X131191000Y-58157000D01*
X131191000Y-58157000D02*
X129941000Y-58157000D01*
X129941000Y-58157000D02*
X129941000Y-48857000D01*
X129941000Y-48857000D02*
X131191000Y-48857000D01*
X131191000Y-48857000D02*
X131191000Y-48357000D01*
X132041000Y-58657000D02*
X132041000Y-57657000D01*
X132041000Y-57657000D02*
X133541000Y-57657000D01*
X132041000Y-48357000D02*
X132041000Y-49357000D01*
X132041000Y-49357000D02*
X133541000Y-49357000D01*
X131341000Y-58957000D02*
X133841000Y-58957000D01*
X133841000Y-58957000D02*
X133841000Y-56457000D01*
X163096000Y-40623000D02*
X167196000Y-40623000D01*
X167196000Y-40623000D02*
X167196000Y-27823000D01*
X167196000Y-27823000D02*
X163096000Y-27823000D01*
X163096000Y-27823000D02*
X163096000Y-40623000D01*
X164846000Y-40623000D02*
X164846000Y-40123000D01*
X164846000Y-40123000D02*
X163596000Y-40123000D01*
X163596000Y-40123000D02*
X163596000Y-28323000D01*
X163596000Y-28323000D02*
X164846000Y-28323000D01*
X164846000Y-28323000D02*
X164846000Y-27823000D01*
X165696000Y-40623000D02*
X165696000Y-39623000D01*
X165696000Y-39623000D02*
X167196000Y-39623000D01*
X165696000Y-27823000D02*
X165696000Y-28823000D01*
X165696000Y-28823000D02*
X167196000Y-28823000D01*
X164996000Y-40923000D02*
X167496000Y-40923000D01*
X167496000Y-40923000D02*
X167496000Y-38423000D01*
X168303000Y-40623000D02*
X172403000Y-40623000D01*
X172403000Y-40623000D02*
X172403000Y-27823000D01*
X172403000Y-27823000D02*
X168303000Y-27823000D01*
X168303000Y-27823000D02*
X168303000Y-40623000D01*
X170053000Y-40623000D02*
X170053000Y-40123000D01*
X170053000Y-40123000D02*
X168803000Y-40123000D01*
X168803000Y-40123000D02*
X168803000Y-28323000D01*
X168803000Y-28323000D02*
X170053000Y-28323000D01*
X170053000Y-28323000D02*
X170053000Y-27823000D01*
X170903000Y-40623000D02*
X170903000Y-39623000D01*
X170903000Y-39623000D02*
X172403000Y-39623000D01*
X170903000Y-27823000D02*
X170903000Y-28823000D01*
X170903000Y-28823000D02*
X172403000Y-28823000D01*
X170203000Y-40923000D02*
X172703000Y-40923000D01*
X172703000Y-40923000D02*
X172703000Y-38423000D01*
X161542000Y-39172000D02*
X161542000Y-38242000D01*
X161542000Y-36012000D02*
X161542000Y-36942000D01*
X161542000Y-36012000D02*
X159382000Y-36012000D01*
X161542000Y-39172000D02*
X160082000Y-39172000D01*
X161542000Y-35616000D02*
X161542000Y-34686000D01*
X161542000Y-32456000D02*
X161542000Y-33386000D01*
X161542000Y-32456000D02*
X159382000Y-32456000D01*
X161542000Y-35616000D02*
X160082000Y-35616000D01*
X161542000Y-32060000D02*
X161542000Y-31130000D01*
X161542000Y-28900000D02*
X161542000Y-29830000D01*
X161542000Y-28900000D02*
X159382000Y-28900000D01*
X161542000Y-32060000D02*
X160082000Y-32060000D01*
D12*
X143572000Y-20730000D02*
X143572000Y-20980000D01*
X151322000Y-20730000D02*
X151322000Y-21065000D01*
X151322000Y-33880000D02*
X151322000Y-33545000D01*
X143572000Y-33880000D02*
X143572000Y-33545000D01*
X143572000Y-20730000D02*
X151322000Y-20730000D01*
X143572000Y-33880000D02*
X151322000Y-33880000D01*
X143572000Y-20980000D02*
X141772000Y-20980000D01*
X134590000Y-56090000D02*
X135245000Y-56090000D01*
X134590000Y-50590000D02*
X135340000Y-50590000D01*
X141000000Y-50590000D02*
X140250000Y-50590000D01*
X141000000Y-56090000D02*
X140250000Y-56090000D01*
X134590000Y-56090000D02*
X134590000Y-50590000D01*
X141000000Y-56090000D02*
X141000000Y-50590000D01*
X135245000Y-56090000D02*
X135245000Y-57840000D01*
D11*
X134708000Y-25138000D02*
X134708000Y-24138000D01*
X133008000Y-24138000D02*
X133008000Y-25138000D01*
X133008000Y-30234000D02*
X133008000Y-31234000D01*
X134708000Y-31234000D02*
X134708000Y-30234000D01*
X145153000Y-18835000D02*
X144153000Y-18835000D01*
X144153000Y-20535000D02*
X145153000Y-20535000D01*
X149741000Y-20408000D02*
X150741000Y-20408000D01*
X150741000Y-18708000D02*
X149741000Y-18708000D01*
X137550000Y-43272000D02*
X137550000Y-42072000D01*
X139310000Y-42072000D02*
X139310000Y-43272000D01*
X135010000Y-43272000D02*
X135010000Y-42072000D01*
X136770000Y-42072000D02*
X136770000Y-43272000D01*
X144053000Y-16900000D02*
X145253000Y-16900000D01*
X145253000Y-18660000D02*
X144053000Y-18660000D01*
X134865000Y-42072000D02*
X134865000Y-43272000D01*
X133105000Y-43272000D02*
X133105000Y-42072000D01*
X141215000Y-42072000D02*
X141215000Y-43272000D01*
X139455000Y-43272000D02*
X139455000Y-42072000D01*
X157191000Y-37583000D02*
X155991000Y-37583000D01*
X155991000Y-35823000D02*
X157191000Y-35823000D01*
X157445000Y-41520000D02*
X156245000Y-41520000D01*
X156245000Y-39760000D02*
X157445000Y-39760000D01*
X137887000Y-48378000D02*
X136687000Y-48378000D01*
X136687000Y-46618000D02*
X137887000Y-46618000D01*
X157191000Y-34027000D02*
X155991000Y-34027000D01*
X155991000Y-32267000D02*
X157191000Y-32267000D01*
X157191000Y-30471000D02*
X155991000Y-30471000D01*
X155991000Y-28711000D02*
X157191000Y-28711000D01*
X140662000Y-24386000D02*
X140662000Y-30986000D01*
X135182000Y-24386000D02*
X135182000Y-30986000D01*
X140722000Y-16811000D02*
X135122000Y-16811000D01*
D12*
X155511143Y-52958666D02*
X155558762Y-53006285D01*
X155606381Y-53149142D01*
X155606381Y-53244380D01*
X155558762Y-53387238D01*
X155463524Y-53482476D01*
X155368286Y-53530095D01*
X155177810Y-53577714D01*
X155034952Y-53577714D01*
X154844476Y-53530095D01*
X154749238Y-53482476D01*
X154654000Y-53387238D01*
X154606381Y-53244380D01*
X154606381Y-53149142D01*
X154654000Y-53006285D01*
X154701619Y-52958666D01*
X154606381Y-52053904D02*
X154606381Y-52530095D01*
X155082571Y-52577714D01*
X155034952Y-52530095D01*
X154987333Y-52434857D01*
X154987333Y-52196761D01*
X155034952Y-52101523D01*
X155082571Y-52053904D01*
X155177810Y-52006285D01*
X155415905Y-52006285D01*
X155511143Y-52053904D01*
X155558762Y-52101523D01*
X155606381Y-52196761D01*
X155606381Y-52434857D01*
X155558762Y-52530095D01*
X155511143Y-52577714D01*
X153900143Y-44763666D02*
X153947762Y-44811285D01*
X153995381Y-44954142D01*
X153995381Y-45049380D01*
X153947762Y-45192238D01*
X153852524Y-45287476D01*
X153757286Y-45335095D01*
X153566810Y-45382714D01*
X153423952Y-45382714D01*
X153233476Y-45335095D01*
X153138238Y-45287476D01*
X153043000Y-45192238D01*
X152995381Y-45049380D01*
X152995381Y-44954142D01*
X153043000Y-44811285D01*
X153090619Y-44763666D01*
X152995381Y-43906523D02*
X152995381Y-44097000D01*
X153043000Y-44192238D01*
X153090619Y-44239857D01*
X153233476Y-44335095D01*
X153423952Y-44382714D01*
X153804905Y-44382714D01*
X153900143Y-44335095D01*
X153947762Y-44287476D01*
X153995381Y-44192238D01*
X153995381Y-44001761D01*
X153947762Y-43906523D01*
X153900143Y-43858904D01*
X153804905Y-43811285D01*
X153566810Y-43811285D01*
X153471571Y-43858904D01*
X153423952Y-43906523D01*
X153376333Y-44001761D01*
X153376333Y-44192238D01*
X153423952Y-44287476D01*
X153471571Y-44335095D01*
X153566810Y-44382714D01*
X157503905Y-47315381D02*
X157503905Y-46315381D01*
X157742000Y-46315381D01*
X157884858Y-46363000D01*
X157980096Y-46458238D01*
X158027715Y-46553476D01*
X158075334Y-46743952D01*
X158075334Y-46886810D01*
X158027715Y-47077286D01*
X157980096Y-47172524D01*
X157884858Y-47267762D01*
X157742000Y-47315381D01*
X157503905Y-47315381D01*
X159027715Y-47315381D02*
X158456286Y-47315381D01*
X158742000Y-47315381D02*
X158742000Y-46315381D01*
X158646762Y-46458238D01*
X158551524Y-46553476D01*
X158456286Y-46601095D01*
X161806381Y-52256333D02*
X162520667Y-52256333D01*
X162663524Y-52303953D01*
X162758762Y-52399191D01*
X162806381Y-52542048D01*
X162806381Y-52637286D01*
X162806381Y-51256333D02*
X162806381Y-51827762D01*
X162806381Y-51542048D02*
X161806381Y-51542048D01*
X161949238Y-51637286D01*
X162044476Y-51732524D01*
X162092095Y-51827762D01*
X119968381Y-37862333D02*
X120682667Y-37862333D01*
X120825524Y-37909953D01*
X120920762Y-38005191D01*
X120968381Y-38148048D01*
X120968381Y-38243286D01*
X120063619Y-37433762D02*
X120016000Y-37386143D01*
X119968381Y-37290905D01*
X119968381Y-37052809D01*
X120016000Y-36957571D01*
X120063619Y-36909952D01*
X120158857Y-36862333D01*
X120254095Y-36862333D01*
X120396952Y-36909952D01*
X120968381Y-37481381D01*
X120968381Y-36862333D01*
D11*
X130188381Y-41223285D02*
X130188381Y-41794714D01*
X130188381Y-41509000D02*
X129188381Y-41509000D01*
X129331238Y-41604238D01*
X129426476Y-41699476D01*
X129474095Y-41794714D01*
D12*
X164972667Y-15066381D02*
X164972667Y-15780667D01*
X164925047Y-15923524D01*
X164829809Y-16018762D01*
X164686952Y-16066381D01*
X164591714Y-16066381D01*
X165353619Y-15066381D02*
X165972667Y-15066381D01*
X165639333Y-15447333D01*
X165782191Y-15447333D01*
X165877429Y-15494952D01*
X165925048Y-15542571D01*
X165972667Y-15637810D01*
X165972667Y-15875905D01*
X165925048Y-15971143D01*
X165877429Y-16018762D01*
X165782191Y-16066381D01*
X165496476Y-16066381D01*
X165401238Y-16018762D01*
X165353619Y-15971143D01*
D11*
X162611715Y-25286381D02*
X162040286Y-25286381D01*
X162326000Y-25286381D02*
X162326000Y-24286381D01*
X162230762Y-24429238D01*
X162135524Y-24524476D01*
X162040286Y-24572095D01*
D12*
X127643381Y-53840333D02*
X128357667Y-53840333D01*
X128500524Y-53887953D01*
X128595762Y-53983191D01*
X128643381Y-54126048D01*
X128643381Y-54221286D01*
X127976714Y-52935571D02*
X128643381Y-52935571D01*
X127595762Y-53173667D02*
X128310048Y-53411762D01*
X128310048Y-52792714D01*
X161298381Y-34556333D02*
X162012667Y-34556333D01*
X162155524Y-34603953D01*
X162250762Y-34699191D01*
X162298381Y-34842048D01*
X162298381Y-34937286D01*
X161298381Y-33603952D02*
X161298381Y-34080143D01*
X161774571Y-34127762D01*
X161726952Y-34080143D01*
X161679333Y-33984905D01*
X161679333Y-33746809D01*
X161726952Y-33651571D01*
X161774571Y-33603952D01*
X161869810Y-33556333D01*
X162107905Y-33556333D01*
X162203143Y-33603952D01*
X162250762Y-33651571D01*
X162298381Y-33746809D01*
X162298381Y-33984905D01*
X162250762Y-34080143D01*
X162203143Y-34127762D01*
X166505381Y-34556333D02*
X167219667Y-34556333D01*
X167362524Y-34603953D01*
X167457762Y-34699191D01*
X167505381Y-34842048D01*
X167505381Y-34937286D01*
X166505381Y-33651571D02*
X166505381Y-33842048D01*
X166553000Y-33937286D01*
X166600619Y-33984905D01*
X166743476Y-34080143D01*
X166933952Y-34127762D01*
X167314905Y-34127762D01*
X167410143Y-34080143D01*
X167457762Y-34032524D01*
X167505381Y-33937286D01*
X167505381Y-33746809D01*
X167457762Y-33651571D01*
X167410143Y-33603952D01*
X167314905Y-33556333D01*
X167076810Y-33556333D01*
X166981571Y-33603952D01*
X166933952Y-33651571D01*
X166886333Y-33746809D01*
X166886333Y-33937286D01*
X166933952Y-34032524D01*
X166981571Y-34080143D01*
X167076810Y-34127762D01*
X160686762Y-35639619D02*
X160591524Y-35592000D01*
X160496286Y-35496762D01*
X160353429Y-35353905D01*
X160258190Y-35306286D01*
X160162952Y-35306286D01*
X160210571Y-35544381D02*
X160115333Y-35496762D01*
X160020095Y-35401524D01*
X159972476Y-35211048D01*
X159972476Y-34877714D01*
X160020095Y-34687238D01*
X160115333Y-34592000D01*
X160210571Y-34544381D01*
X160401048Y-34544381D01*
X160496286Y-34592000D01*
X160591524Y-34687238D01*
X160639143Y-34877714D01*
X160639143Y-35211048D01*
X160591524Y-35401524D01*
X160496286Y-35496762D01*
X160401048Y-35544381D01*
X160210571Y-35544381D01*
X161591524Y-35544381D02*
X161020095Y-35544381D01*
X161305809Y-35544381D02*
X161305809Y-34544381D01*
X161210571Y-34687238D01*
X161115333Y-34782476D01*
X161020095Y-34830095D01*
X160686762Y-32083619D02*
X160591524Y-32036000D01*
X160496286Y-31940762D01*
X160353429Y-31797905D01*
X160258190Y-31750286D01*
X160162952Y-31750286D01*
X160210571Y-31988381D02*
X160115333Y-31940762D01*
X160020095Y-31845524D01*
X159972476Y-31655048D01*
X159972476Y-31321714D01*
X160020095Y-31131238D01*
X160115333Y-31036000D01*
X160210571Y-30988381D01*
X160401048Y-30988381D01*
X160496286Y-31036000D01*
X160591524Y-31131238D01*
X160639143Y-31321714D01*
X160639143Y-31655048D01*
X160591524Y-31845524D01*
X160496286Y-31940762D01*
X160401048Y-31988381D01*
X160210571Y-31988381D01*
X161020095Y-31083619D02*
X161067714Y-31036000D01*
X161162952Y-30988381D01*
X161401048Y-30988381D01*
X161496286Y-31036000D01*
X161543905Y-31083619D01*
X161591524Y-31178857D01*
X161591524Y-31274095D01*
X161543905Y-31416952D01*
X160972476Y-31988381D01*
X161591524Y-31988381D01*
X160686762Y-28527619D02*
X160591524Y-28480000D01*
X160496286Y-28384762D01*
X160353429Y-28241905D01*
X160258190Y-28194286D01*
X160162952Y-28194286D01*
X160210571Y-28432381D02*
X160115333Y-28384762D01*
X160020095Y-28289524D01*
X159972476Y-28099048D01*
X159972476Y-27765714D01*
X160020095Y-27575238D01*
X160115333Y-27480000D01*
X160210571Y-27432381D01*
X160401048Y-27432381D01*
X160496286Y-27480000D01*
X160591524Y-27575238D01*
X160639143Y-27765714D01*
X160639143Y-28099048D01*
X160591524Y-28289524D01*
X160496286Y-28384762D01*
X160401048Y-28432381D01*
X160210571Y-28432381D01*
X160972476Y-27432381D02*
X161591524Y-27432381D01*
X161258190Y-27813333D01*
X161401048Y-27813333D01*
X161496286Y-27860952D01*
X161543905Y-27908571D01*
X161591524Y-28003810D01*
X161591524Y-28241905D01*
X161543905Y-28337143D01*
X161496286Y-28384762D01*
X161401048Y-28432381D01*
X161115333Y-28432381D01*
X161020095Y-28384762D01*
X160972476Y-28337143D01*
X146685095Y-19257381D02*
X146685095Y-20066905D01*
X146732714Y-20162143D01*
X146780333Y-20209762D01*
X146875571Y-20257381D01*
X147066048Y-20257381D01*
X147161286Y-20209762D01*
X147208905Y-20162143D01*
X147256524Y-20066905D01*
X147256524Y-19257381D01*
X148256524Y-20257381D02*
X147685095Y-20257381D01*
X147970809Y-20257381D02*
X147970809Y-19257381D01*
X147875571Y-19400238D01*
X147780333Y-19495476D01*
X147685095Y-19543095D01*
X133117381Y-54101905D02*
X133926905Y-54101905D01*
X134022143Y-54054286D01*
X134069762Y-54006667D01*
X134117381Y-53911429D01*
X134117381Y-53720952D01*
X134069762Y-53625714D01*
X134022143Y-53578095D01*
X133926905Y-53530476D01*
X133117381Y-53530476D01*
X133117381Y-53149524D02*
X133117381Y-52530476D01*
X133498333Y-52863810D01*
X133498333Y-52720952D01*
X133545952Y-52625714D01*
X133593571Y-52578095D01*
X133688810Y-52530476D01*
X133926905Y-52530476D01*
X134022143Y-52578095D01*
X134069762Y-52625714D01*
X134117381Y-52720952D01*
X134117381Y-53006667D01*
X134069762Y-53101905D01*
X134022143Y-53149524D01*
X135965143Y-24804666D02*
X136012762Y-24852285D01*
X136060381Y-24995142D01*
X136060381Y-25090380D01*
X136012762Y-25233238D01*
X135917524Y-25328476D01*
X135822286Y-25376095D01*
X135631810Y-25423714D01*
X135488952Y-25423714D01*
X135298476Y-25376095D01*
X135203238Y-25328476D01*
X135108000Y-25233238D01*
X135060381Y-25090380D01*
X135060381Y-24995142D01*
X135108000Y-24852285D01*
X135155619Y-24804666D01*
X136060381Y-23852285D02*
X136060381Y-24423714D01*
X136060381Y-24138000D02*
X135060381Y-24138000D01*
X135203238Y-24233238D01*
X135298476Y-24328476D01*
X135346095Y-24423714D01*
X132465143Y-30900666D02*
X132512762Y-30948285D01*
X132560381Y-31091142D01*
X132560381Y-31186380D01*
X132512762Y-31329238D01*
X132417524Y-31424476D01*
X132322286Y-31472095D01*
X132131810Y-31519714D01*
X131988952Y-31519714D01*
X131798476Y-31472095D01*
X131703238Y-31424476D01*
X131608000Y-31329238D01*
X131560381Y-31186380D01*
X131560381Y-31091142D01*
X131608000Y-30948285D01*
X131655619Y-30900666D01*
X131655619Y-30519714D02*
X131608000Y-30472095D01*
X131560381Y-30376857D01*
X131560381Y-30138761D01*
X131608000Y-30043523D01*
X131655619Y-29995904D01*
X131750857Y-29948285D01*
X131846095Y-29948285D01*
X131988952Y-29995904D01*
X132560381Y-30567333D01*
X132560381Y-29948285D01*
X144486334Y-18292143D02*
X144438715Y-18339762D01*
X144295858Y-18387381D01*
X144200620Y-18387381D01*
X144057762Y-18339762D01*
X143962524Y-18244524D01*
X143914905Y-18149286D01*
X143867286Y-17958810D01*
X143867286Y-17815952D01*
X143914905Y-17625476D01*
X143962524Y-17530238D01*
X144057762Y-17435000D01*
X144200620Y-17387381D01*
X144295858Y-17387381D01*
X144438715Y-17435000D01*
X144486334Y-17482619D01*
X144819667Y-17387381D02*
X145438715Y-17387381D01*
X145105381Y-17768333D01*
X145248239Y-17768333D01*
X145343477Y-17815952D01*
X145391096Y-17863571D01*
X145438715Y-17958810D01*
X145438715Y-18196905D01*
X145391096Y-18292143D01*
X145343477Y-18339762D01*
X145248239Y-18387381D01*
X144962524Y-18387381D01*
X144867286Y-18339762D01*
X144819667Y-18292143D01*
X150074334Y-21665143D02*
X150026715Y-21712762D01*
X149883858Y-21760381D01*
X149788620Y-21760381D01*
X149645762Y-21712762D01*
X149550524Y-21617524D01*
X149502905Y-21522286D01*
X149455286Y-21331810D01*
X149455286Y-21188952D01*
X149502905Y-20998476D01*
X149550524Y-20903238D01*
X149645762Y-20808000D01*
X149788620Y-20760381D01*
X149883858Y-20760381D01*
X150026715Y-20808000D01*
X150074334Y-20855619D01*
X150931477Y-21093714D02*
X150931477Y-21760381D01*
X150693381Y-20712762D02*
X150455286Y-21427048D01*
X151074334Y-21427048D01*
X140582381Y-42838666D02*
X140106190Y-43172000D01*
X140582381Y-43410095D02*
X139582381Y-43410095D01*
X139582381Y-43029142D01*
X139630000Y-42933904D01*
X139677619Y-42886285D01*
X139772857Y-42838666D01*
X139915714Y-42838666D01*
X140010952Y-42886285D01*
X140058571Y-42933904D01*
X140106190Y-43029142D01*
X140106190Y-43410095D01*
X140582381Y-41886285D02*
X140582381Y-42457714D01*
X140582381Y-42172000D02*
X139582381Y-42172000D01*
X139725238Y-42267238D01*
X139820476Y-42362476D01*
X139868095Y-42457714D01*
X138042381Y-42838666D02*
X137566190Y-43172000D01*
X138042381Y-43410095D02*
X137042381Y-43410095D01*
X137042381Y-43029142D01*
X137090000Y-42933904D01*
X137137619Y-42886285D01*
X137232857Y-42838666D01*
X137375714Y-42838666D01*
X137470952Y-42886285D01*
X137518571Y-42933904D01*
X137566190Y-43029142D01*
X137566190Y-43410095D01*
X137137619Y-42457714D02*
X137090000Y-42410095D01*
X137042381Y-42314857D01*
X137042381Y-42076761D01*
X137090000Y-41981523D01*
X137137619Y-41933904D01*
X137232857Y-41886285D01*
X137328095Y-41886285D01*
X137470952Y-41933904D01*
X138042381Y-42505333D01*
X138042381Y-41886285D01*
X144486334Y-19932381D02*
X144153000Y-19456190D01*
X143914905Y-19932381D02*
X143914905Y-18932381D01*
X144295858Y-18932381D01*
X144391096Y-18980000D01*
X144438715Y-19027619D01*
X144486334Y-19122857D01*
X144486334Y-19265714D01*
X144438715Y-19360952D01*
X144391096Y-19408571D01*
X144295858Y-19456190D01*
X143914905Y-19456190D01*
X144819667Y-18932381D02*
X145438715Y-18932381D01*
X145105381Y-19313333D01*
X145248239Y-19313333D01*
X145343477Y-19360952D01*
X145391096Y-19408571D01*
X145438715Y-19503810D01*
X145438715Y-19741905D01*
X145391096Y-19837143D01*
X145343477Y-19884762D01*
X145248239Y-19932381D01*
X144962524Y-19932381D01*
X144867286Y-19884762D01*
X144819667Y-19837143D01*
X132737381Y-42838666D02*
X132261190Y-43172000D01*
X132737381Y-43410095D02*
X131737381Y-43410095D01*
X131737381Y-43029142D01*
X131785000Y-42933904D01*
X131832619Y-42886285D01*
X131927857Y-42838666D01*
X132070714Y-42838666D01*
X132165952Y-42886285D01*
X132213571Y-42933904D01*
X132261190Y-43029142D01*
X132261190Y-43410095D01*
X132070714Y-41981523D02*
X132737381Y-41981523D01*
X131689762Y-42219619D02*
X132404048Y-42457714D01*
X132404048Y-41838666D01*
X139087381Y-42838666D02*
X138611190Y-43172000D01*
X139087381Y-43410095D02*
X138087381Y-43410095D01*
X138087381Y-43029142D01*
X138135000Y-42933904D01*
X138182619Y-42886285D01*
X138277857Y-42838666D01*
X138420714Y-42838666D01*
X138515952Y-42886285D01*
X138563571Y-42933904D01*
X138611190Y-43029142D01*
X138611190Y-43410095D01*
X138087381Y-41933904D02*
X138087381Y-42410095D01*
X138563571Y-42457714D01*
X138515952Y-42410095D01*
X138468333Y-42314857D01*
X138468333Y-42076761D01*
X138515952Y-41981523D01*
X138563571Y-41933904D01*
X138658810Y-41886285D01*
X138896905Y-41886285D01*
X138992143Y-41933904D01*
X139039762Y-41981523D01*
X139087381Y-42076761D01*
X139087381Y-42314857D01*
X139039762Y-42410095D01*
X138992143Y-42457714D01*
X156424334Y-35455381D02*
X156091000Y-34979190D01*
X155852905Y-35455381D02*
X155852905Y-34455381D01*
X156233858Y-34455381D01*
X156329096Y-34503000D01*
X156376715Y-34550619D01*
X156424334Y-34645857D01*
X156424334Y-34788714D01*
X156376715Y-34883952D01*
X156329096Y-34931571D01*
X156233858Y-34979190D01*
X155852905Y-34979190D01*
X157281477Y-34455381D02*
X157091000Y-34455381D01*
X156995762Y-34503000D01*
X156948143Y-34550619D01*
X156852905Y-34693476D01*
X156805286Y-34883952D01*
X156805286Y-35264905D01*
X156852905Y-35360143D01*
X156900524Y-35407762D01*
X156995762Y-35455381D01*
X157186239Y-35455381D01*
X157281477Y-35407762D01*
X157329096Y-35360143D01*
X157376715Y-35264905D01*
X157376715Y-35026810D01*
X157329096Y-34931571D01*
X157281477Y-34883952D01*
X157186239Y-34836333D01*
X156995762Y-34836333D01*
X156900524Y-34883952D01*
X156852905Y-34931571D01*
X156805286Y-35026810D01*
X150522381Y-44505905D02*
X151331905Y-44505905D01*
X151427143Y-44458286D01*
X151474762Y-44410667D01*
X151522381Y-44315429D01*
X151522381Y-44124952D01*
X151474762Y-44029714D01*
X151427143Y-43982095D01*
X151331905Y-43934476D01*
X150522381Y-43934476D01*
X150617619Y-43505905D02*
X150570000Y-43458286D01*
X150522381Y-43363048D01*
X150522381Y-43124952D01*
X150570000Y-43029714D01*
X150617619Y-42982095D01*
X150712857Y-42934476D01*
X150808095Y-42934476D01*
X150950952Y-42982095D01*
X151522381Y-43553524D01*
X151522381Y-42934476D01*
X156678334Y-39297143D02*
X156630715Y-39344762D01*
X156487858Y-39392381D01*
X156392620Y-39392381D01*
X156249762Y-39344762D01*
X156154524Y-39249524D01*
X156106905Y-39154286D01*
X156059286Y-38963810D01*
X156059286Y-38820952D01*
X156106905Y-38630476D01*
X156154524Y-38535238D01*
X156249762Y-38440000D01*
X156392620Y-38392381D01*
X156487858Y-38392381D01*
X156630715Y-38440000D01*
X156678334Y-38487619D01*
X157011667Y-38392381D02*
X157678334Y-38392381D01*
X157249762Y-39392381D01*
X137120334Y-46155143D02*
X137072715Y-46202762D01*
X136929858Y-46250381D01*
X136834620Y-46250381D01*
X136691762Y-46202762D01*
X136596524Y-46107524D01*
X136548905Y-46012286D01*
X136501286Y-45821810D01*
X136501286Y-45678952D01*
X136548905Y-45488476D01*
X136596524Y-45393238D01*
X136691762Y-45298000D01*
X136834620Y-45250381D01*
X136929858Y-45250381D01*
X137072715Y-45298000D01*
X137120334Y-45345619D01*
X137691762Y-45678952D02*
X137596524Y-45631333D01*
X137548905Y-45583714D01*
X137501286Y-45488476D01*
X137501286Y-45440857D01*
X137548905Y-45345619D01*
X137596524Y-45298000D01*
X137691762Y-45250381D01*
X137882239Y-45250381D01*
X137977477Y-45298000D01*
X138025096Y-45345619D01*
X138072715Y-45440857D01*
X138072715Y-45488476D01*
X138025096Y-45583714D01*
X137977477Y-45631333D01*
X137882239Y-45678952D01*
X137691762Y-45678952D01*
X137596524Y-45726571D01*
X137548905Y-45774190D01*
X137501286Y-45869429D01*
X137501286Y-46059905D01*
X137548905Y-46155143D01*
X137596524Y-46202762D01*
X137691762Y-46250381D01*
X137882239Y-46250381D01*
X137977477Y-46202762D01*
X138025096Y-46155143D01*
X138072715Y-46059905D01*
X138072715Y-45869429D01*
X138025096Y-45774190D01*
X137977477Y-45726571D01*
X137882239Y-45678952D01*
X156424334Y-31899381D02*
X156091000Y-31423190D01*
X155852905Y-31899381D02*
X155852905Y-30899381D01*
X156233858Y-30899381D01*
X156329096Y-30947000D01*
X156376715Y-30994619D01*
X156424334Y-31089857D01*
X156424334Y-31232714D01*
X156376715Y-31327952D01*
X156329096Y-31375571D01*
X156233858Y-31423190D01*
X155852905Y-31423190D01*
X156757667Y-30899381D02*
X157424334Y-30899381D01*
X156995762Y-31899381D01*
X156424334Y-28343381D02*
X156091000Y-27867190D01*
X155852905Y-28343381D02*
X155852905Y-27343381D01*
X156233858Y-27343381D01*
X156329096Y-27391000D01*
X156376715Y-27438619D01*
X156424334Y-27533857D01*
X156424334Y-27676714D01*
X156376715Y-27771952D01*
X156329096Y-27819571D01*
X156233858Y-27867190D01*
X155852905Y-27867190D01*
X156995762Y-27771952D02*
X156900524Y-27724333D01*
X156852905Y-27676714D01*
X156805286Y-27581476D01*
X156805286Y-27533857D01*
X156852905Y-27438619D01*
X156900524Y-27391000D01*
X156995762Y-27343381D01*
X157186239Y-27343381D01*
X157281477Y-27391000D01*
X157329096Y-27438619D01*
X157376715Y-27533857D01*
X157376715Y-27581476D01*
X157329096Y-27676714D01*
X157281477Y-27724333D01*
X157186239Y-27771952D01*
X156995762Y-27771952D01*
X156900524Y-27819571D01*
X156852905Y-27867190D01*
X156805286Y-27962429D01*
X156805286Y-28152905D01*
X156852905Y-28248143D01*
X156900524Y-28295762D01*
X156995762Y-28343381D01*
X157186239Y-28343381D01*
X157281477Y-28295762D01*
X157329096Y-28248143D01*
X157376715Y-28152905D01*
X157376715Y-27962429D01*
X157329096Y-27867190D01*
X157281477Y-27819571D01*
X157186239Y-27771952D01*
X141698190Y-28162191D02*
X142174381Y-28162191D01*
X141174381Y-28495524D02*
X141698190Y-28162191D01*
X141174381Y-27828857D01*
X142174381Y-26971714D02*
X142174381Y-27543143D01*
X142174381Y-27257429D02*
X141174381Y-27257429D01*
X141317238Y-27352667D01*
X141412476Y-27447905D01*
X141460095Y-27543143D01*
M02*
