G04 #@! TF.GenerationSoftware,KiCad,Pcbnew,(5.0.0)*
G04 #@! TF.CreationDate,2018-08-24T12:12:44+02:00*
G04 #@! TF.ProjectId,dmx_rgb,646D785F7267622E6B696361645F7063,rev?*
G04 #@! TF.SameCoordinates,Original*
G04 #@! TF.FileFunction,Copper,L1,Top,Signal*
G04 #@! TF.FilePolarity,Positive*
%FSLAX46Y46*%
G04 Gerber Fmt 4.6, Leading zero omitted, Abs format (unit mm)*
G04 Created by KiCad (PCBNEW (5.0.0)) date 08/24/18 12:12:44*
%MOMM*%
%LPD*%
G01*
G04 APERTURE LIST*
G04 #@! TA.AperFunction,ComponentPad*
%ADD10R,2.000000X2.000000*%
G04 #@! TD*
G04 #@! TA.AperFunction,ComponentPad*
%ADD11C,2.000000*%
G04 #@! TD*
G04 #@! TA.AperFunction,ComponentPad*
%ADD12O,2.000000X2.000000*%
G04 #@! TD*
G04 #@! TA.AperFunction,ComponentPad*
%ADD13R,1.850000X1.850000*%
G04 #@! TD*
G04 #@! TA.AperFunction,ComponentPad*
%ADD14C,1.850000*%
G04 #@! TD*
G04 #@! TA.AperFunction,ComponentPad*
%ADD15R,1.727200X1.727200*%
G04 #@! TD*
G04 #@! TA.AperFunction,ComponentPad*
%ADD16O,1.727200X1.727200*%
G04 #@! TD*
G04 #@! TA.AperFunction,SMDPad,CuDef*
%ADD17R,0.900000X0.800000*%
G04 #@! TD*
G04 #@! TA.AperFunction,SMDPad,CuDef*
%ADD18R,1.950000X0.600000*%
G04 #@! TD*
G04 #@! TA.AperFunction,SMDPad,CuDef*
%ADD19R,0.550000X1.750000*%
G04 #@! TD*
G04 #@! TA.AperFunction,SMDPad,CuDef*
%ADD20R,1.500000X1.250000*%
G04 #@! TD*
G04 #@! TA.AperFunction,SMDPad,CuDef*
%ADD21R,1.300000X1.500000*%
G04 #@! TD*
G04 #@! TA.AperFunction,SMDPad,CuDef*
%ADD22R,1.500000X1.300000*%
G04 #@! TD*
G04 #@! TA.AperFunction,SMDPad,CuDef*
%ADD23R,2.600000X1.600000*%
G04 #@! TD*
G04 #@! TA.AperFunction,SMDPad,CuDef*
%ADD24R,3.800000X2.000000*%
G04 #@! TD*
G04 #@! TA.AperFunction,SMDPad,CuDef*
%ADD25R,1.500000X2.000000*%
G04 #@! TD*
G04 #@! TA.AperFunction,SMDPad,CuDef*
%ADD26R,1.400000X2.200000*%
G04 #@! TD*
G04 #@! TA.AperFunction,ViaPad*
%ADD27C,0.600000*%
G04 #@! TD*
G04 #@! TA.AperFunction,Conductor*
%ADD28C,0.250000*%
G04 #@! TD*
G04 #@! TA.AperFunction,Conductor*
%ADD29C,1.000000*%
G04 #@! TD*
G04 #@! TA.AperFunction,Conductor*
%ADD30C,0.254000*%
G04 #@! TD*
G04 APERTURE END LIST*
D10*
G04 #@! TO.P,C5,1*
G04 #@! TO.N,+12V*
X148844000Y-50292000D03*
D11*
G04 #@! TO.P,C5,2*
G04 #@! TO.N,GND*
X148844000Y-55292000D03*
D10*
G04 #@! TO.P,C5,1*
G04 #@! TO.N,+12V*
X150844000Y-49619856D03*
D11*
G04 #@! TO.P,C5,2*
G04 #@! TO.N,GND*
X146844000Y-55964144D03*
G04 #@! TD*
D12*
G04 #@! TO.P,D1,4*
G04 #@! TO.N,Net-(D1-Pad4)*
X160782000Y-49657000D03*
G04 #@! TO.P,D1,2*
G04 #@! TO.N,Net-(D1-Pad2)*
X155702000Y-54737000D03*
G04 #@! TO.P,D1,3*
G04 #@! TO.N,GND*
X160782000Y-54737000D03*
D10*
G04 #@! TO.P,D1,1*
G04 #@! TO.N,+12V*
X155702000Y-49657000D03*
G04 #@! TD*
D13*
G04 #@! TO.P,J1,1*
G04 #@! TO.N,Net-(D1-Pad4)*
X165354000Y-50673000D03*
D14*
G04 #@! TO.P,J1,2*
G04 #@! TO.N,Net-(D1-Pad2)*
X165354000Y-53173000D03*
G04 #@! TD*
D15*
G04 #@! TO.P,J2,1*
G04 #@! TO.N,/TXD*
X128016000Y-41529000D03*
D16*
G04 #@! TO.P,J2,2*
G04 #@! TO.N,VCC*
X125476000Y-41529000D03*
G04 #@! TO.P,J2,3*
G04 #@! TO.N,Net-(J2-Pad3)*
X128016000Y-38989000D03*
G04 #@! TO.P,J2,4*
G04 #@! TO.N,Net-(J2-Pad4)*
X125476000Y-38989000D03*
G04 #@! TO.P,J2,5*
G04 #@! TO.N,Net-(J2-Pad5)*
X128016000Y-36449000D03*
G04 #@! TO.P,J2,6*
G04 #@! TO.N,Net-(J2-Pad6)*
X125476000Y-36449000D03*
G04 #@! TO.P,J2,7*
G04 #@! TO.N,GND*
X128016000Y-33909000D03*
G04 #@! TO.P,J2,8*
G04 #@! TO.N,/RXD*
X125476000Y-33909000D03*
G04 #@! TD*
D15*
G04 #@! TO.P,J3,1*
G04 #@! TO.N,/MISO*
X162306000Y-23114000D03*
D16*
G04 #@! TO.P,J3,2*
G04 #@! TO.N,VCC*
X162306000Y-20574000D03*
G04 #@! TO.P,J3,3*
G04 #@! TO.N,/SCL/SCK*
X164846000Y-23114000D03*
G04 #@! TO.P,J3,4*
G04 #@! TO.N,/MOSI/SDA*
X164846000Y-20574000D03*
G04 #@! TO.P,J3,5*
G04 #@! TO.N,/RESET*
X167386000Y-23114000D03*
G04 #@! TO.P,J3,6*
G04 #@! TO.N,GND*
X167386000Y-20574000D03*
G04 #@! TD*
D13*
G04 #@! TO.P,J4,1*
G04 #@! TO.N,Net-(J4-Pad1)*
X131191000Y-56007000D03*
D14*
G04 #@! TO.P,J4,2*
G04 #@! TO.N,Net-(J4-Pad2)*
X131191000Y-53507000D03*
G04 #@! TO.P,J4,3*
G04 #@! TO.N,GND*
X131191000Y-51007000D03*
G04 #@! TD*
D13*
G04 #@! TO.P,J5,1*
G04 #@! TO.N,+12V*
X164846000Y-37973000D03*
D14*
G04 #@! TO.P,J5,2*
G04 #@! TO.N,Net-(J5-Pad2)*
X164846000Y-35473000D03*
G04 #@! TO.P,J5,3*
G04 #@! TO.N,Net-(J5-Pad3)*
X164846000Y-32973000D03*
G04 #@! TO.P,J5,4*
G04 #@! TO.N,Net-(J5-Pad4)*
X164846000Y-30473000D03*
G04 #@! TD*
D13*
G04 #@! TO.P,J6,1*
G04 #@! TO.N,+12V*
X170053000Y-37973000D03*
D14*
G04 #@! TO.P,J6,2*
G04 #@! TO.N,Net-(J5-Pad2)*
X170053000Y-35473000D03*
G04 #@! TO.P,J6,3*
G04 #@! TO.N,Net-(J5-Pad3)*
X170053000Y-32973000D03*
G04 #@! TO.P,J6,4*
G04 #@! TO.N,Net-(J5-Pad4)*
X170053000Y-30473000D03*
G04 #@! TD*
D17*
G04 #@! TO.P,Q1,1*
G04 #@! TO.N,/PWM1*
X159782000Y-36642000D03*
G04 #@! TO.P,Q1,2*
G04 #@! TO.N,GND*
X159782000Y-38542000D03*
G04 #@! TO.P,Q1,3*
G04 #@! TO.N,Net-(J5-Pad2)*
X161782000Y-37592000D03*
G04 #@! TD*
G04 #@! TO.P,Q2,1*
G04 #@! TO.N,/PWM2*
X159782000Y-33086000D03*
G04 #@! TO.P,Q2,2*
G04 #@! TO.N,GND*
X159782000Y-34986000D03*
G04 #@! TO.P,Q2,3*
G04 #@! TO.N,Net-(J5-Pad3)*
X161782000Y-34036000D03*
G04 #@! TD*
G04 #@! TO.P,Q3,1*
G04 #@! TO.N,/PWM3*
X159782000Y-29530000D03*
G04 #@! TO.P,Q3,2*
G04 #@! TO.N,GND*
X159782000Y-31430000D03*
G04 #@! TO.P,Q3,3*
G04 #@! TO.N,Net-(J5-Pad4)*
X161782000Y-30480000D03*
G04 #@! TD*
D18*
G04 #@! TO.P,U1,1*
G04 #@! TO.N,/RESET*
X142747000Y-21590000D03*
G04 #@! TO.P,U1,2*
G04 #@! TO.N,/RXD*
X142747000Y-22860000D03*
G04 #@! TO.P,U1,3*
G04 #@! TO.N,/TXD*
X142747000Y-24130000D03*
G04 #@! TO.P,U1,4*
G04 #@! TO.N,Net-(C1-Pad1)*
X142747000Y-25400000D03*
G04 #@! TO.P,U1,5*
G04 #@! TO.N,Net-(C2-Pad1)*
X142747000Y-26670000D03*
G04 #@! TO.P,U1,6*
G04 #@! TO.N,/DIR*
X142747000Y-27940000D03*
G04 #@! TO.P,U1,7*
G04 #@! TO.N,Net-(U1-Pad7)*
X142747000Y-29210000D03*
G04 #@! TO.P,U1,8*
G04 #@! TO.N,Net-(U1-Pad8)*
X142747000Y-30480000D03*
G04 #@! TO.P,U1,9*
G04 #@! TO.N,Net-(U1-Pad9)*
X142747000Y-31750000D03*
G04 #@! TO.P,U1,10*
G04 #@! TO.N,GND*
X142747000Y-33020000D03*
G04 #@! TO.P,U1,11*
G04 #@! TO.N,Net-(U1-Pad11)*
X152147000Y-33020000D03*
G04 #@! TO.P,U1,12*
G04 #@! TO.N,Net-(U1-Pad12)*
X152147000Y-31750000D03*
G04 #@! TO.P,U1,13*
G04 #@! TO.N,Net-(U1-Pad13)*
X152147000Y-30480000D03*
G04 #@! TO.P,U1,14*
G04 #@! TO.N,/PWM1*
X152147000Y-29210000D03*
G04 #@! TO.P,U1,15*
G04 #@! TO.N,/PWM2*
X152147000Y-27940000D03*
G04 #@! TO.P,U1,16*
G04 #@! TO.N,/PWM3*
X152147000Y-26670000D03*
G04 #@! TO.P,U1,17*
G04 #@! TO.N,/MOSI/SDA*
X152147000Y-25400000D03*
G04 #@! TO.P,U1,18*
G04 #@! TO.N,/MISO*
X152147000Y-24130000D03*
G04 #@! TO.P,U1,19*
G04 #@! TO.N,/SCL/SCK*
X152147000Y-22860000D03*
G04 #@! TO.P,U1,20*
G04 #@! TO.N,VCC*
X152147000Y-21590000D03*
G04 #@! TD*
D19*
G04 #@! TO.P,U3,1*
G04 #@! TO.N,/RXD*
X135890000Y-57040000D03*
G04 #@! TO.P,U3,2*
G04 #@! TO.N,/DIR*
X137160000Y-57040000D03*
G04 #@! TO.P,U3,3*
X138430000Y-57040000D03*
G04 #@! TO.P,U3,4*
G04 #@! TO.N,/TXD*
X139700000Y-57040000D03*
G04 #@! TO.P,U3,5*
G04 #@! TO.N,GND*
X139700000Y-49640000D03*
G04 #@! TO.P,U3,6*
G04 #@! TO.N,Net-(J4-Pad2)*
X138430000Y-49640000D03*
G04 #@! TO.P,U3,7*
G04 #@! TO.N,Net-(J4-Pad1)*
X137160000Y-49640000D03*
G04 #@! TO.P,U3,8*
G04 #@! TO.N,VCC*
X135890000Y-49640000D03*
G04 #@! TD*
D20*
G04 #@! TO.P,C1,1*
G04 #@! TO.N,Net-(C1-Pad1)*
X137180000Y-20320000D03*
G04 #@! TO.P,C1,2*
G04 #@! TO.N,GND*
X139680000Y-20320000D03*
G04 #@! TD*
G04 #@! TO.P,C2,1*
G04 #@! TO.N,Net-(C2-Pad1)*
X139700000Y-31496000D03*
G04 #@! TO.P,C2,2*
G04 #@! TO.N,GND*
X137200000Y-31496000D03*
G04 #@! TD*
G04 #@! TO.P,C3,1*
G04 #@! TO.N,/RESET*
X143403000Y-19685000D03*
G04 #@! TO.P,C3,2*
G04 #@! TO.N,GND*
X145903000Y-19685000D03*
G04 #@! TD*
G04 #@! TO.P,C4,1*
G04 #@! TO.N,VCC*
X151491000Y-19558000D03*
G04 #@! TO.P,C4,2*
G04 #@! TO.N,GND*
X148991000Y-19558000D03*
G04 #@! TD*
D21*
G04 #@! TO.P,R1,1*
G04 #@! TO.N,Net-(J2-Pad5)*
X138430000Y-41322000D03*
G04 #@! TO.P,R1,2*
G04 #@! TO.N,VCC*
X138430000Y-44022000D03*
G04 #@! TD*
G04 #@! TO.P,R2,1*
G04 #@! TO.N,Net-(J2-Pad3)*
X135890000Y-41322000D03*
G04 #@! TO.P,R2,2*
G04 #@! TO.N,VCC*
X135890000Y-44022000D03*
G04 #@! TD*
D22*
G04 #@! TO.P,R3,1*
G04 #@! TO.N,VCC*
X146003000Y-17780000D03*
G04 #@! TO.P,R3,2*
G04 #@! TO.N,/RESET*
X143303000Y-17780000D03*
G04 #@! TD*
D21*
G04 #@! TO.P,R4,1*
G04 #@! TO.N,VCC*
X133985000Y-44022000D03*
G04 #@! TO.P,R4,2*
G04 #@! TO.N,Net-(J2-Pad4)*
X133985000Y-41322000D03*
G04 #@! TD*
G04 #@! TO.P,R5,1*
G04 #@! TO.N,VCC*
X140335000Y-44022000D03*
G04 #@! TO.P,R5,2*
G04 #@! TO.N,Net-(J2-Pad6)*
X140335000Y-41322000D03*
G04 #@! TD*
D22*
G04 #@! TO.P,R6,1*
G04 #@! TO.N,GND*
X155241000Y-36703000D03*
G04 #@! TO.P,R6,2*
G04 #@! TO.N,/PWM1*
X157941000Y-36703000D03*
G04 #@! TD*
G04 #@! TO.P,C7,1*
G04 #@! TO.N,VCC*
X155495000Y-40640000D03*
G04 #@! TO.P,C7,2*
G04 #@! TO.N,GND*
X158195000Y-40640000D03*
G04 #@! TD*
G04 #@! TO.P,C8,1*
G04 #@! TO.N,VCC*
X135937000Y-47498000D03*
G04 #@! TO.P,C8,2*
G04 #@! TO.N,GND*
X138637000Y-47498000D03*
G04 #@! TD*
G04 #@! TO.P,R7,1*
G04 #@! TO.N,GND*
X155241000Y-33147000D03*
G04 #@! TO.P,R7,2*
G04 #@! TO.N,/PWM2*
X157941000Y-33147000D03*
G04 #@! TD*
G04 #@! TO.P,R8,1*
G04 #@! TO.N,GND*
X155241000Y-29591000D03*
G04 #@! TO.P,R8,2*
G04 #@! TO.N,/PWM3*
X157941000Y-29591000D03*
G04 #@! TD*
D23*
G04 #@! TO.P,C6,1*
G04 #@! TO.N,+12V*
X153394000Y-44704000D03*
G04 #@! TO.P,C6,2*
G04 #@! TO.N,GND*
X156994000Y-44704000D03*
G04 #@! TD*
D24*
G04 #@! TO.P,U2,2*
G04 #@! TO.N,VCC*
X148082000Y-39776000D03*
D25*
X148082000Y-46076000D03*
G04 #@! TO.P,U2,3*
G04 #@! TO.N,+12V*
X150382000Y-46076000D03*
G04 #@! TO.P,U2,1*
G04 #@! TO.N,GND*
X145782000Y-46076000D03*
G04 #@! TD*
D26*
G04 #@! TO.P,Y1,1*
G04 #@! TO.N,Net-(C1-Pad1)*
X137180000Y-22758000D03*
G04 #@! TO.P,Y1,2*
G04 #@! TO.N,GND*
X137180000Y-29058000D03*
G04 #@! TO.P,Y1,3*
G04 #@! TO.N,Net-(C2-Pad1)*
X139680000Y-29058000D03*
G04 #@! TO.P,Y1,4*
G04 #@! TO.N,GND*
X139680000Y-22758000D03*
G04 #@! TD*
D27*
G04 #@! TO.N,GND*
X147447000Y-19558000D03*
X142748000Y-34290000D03*
X158369000Y-34798000D03*
X158623000Y-31115000D03*
X156083000Y-31242000D03*
G04 #@! TO.N,/RESET*
X141732000Y-17780000D03*
G04 #@! TO.N,/TXD*
X139700000Y-53721000D03*
X144653000Y-24257000D03*
G04 #@! TO.N,/RXD*
X135890000Y-55118000D03*
X144653000Y-22860000D03*
G04 #@! TO.N,/DIR*
X138430000Y-54864000D03*
X141859000Y-43053000D03*
G04 #@! TD*
D28*
G04 #@! TO.N,Net-(C1-Pad1)*
X137180000Y-20320000D02*
X137180000Y-22758000D01*
X137180000Y-23158000D02*
X137180000Y-22758000D01*
X139422000Y-25400000D02*
X137180000Y-23158000D01*
X142747000Y-25400000D02*
X139422000Y-25400000D01*
G04 #@! TO.N,GND*
X142747000Y-33020000D02*
X142747000Y-34289000D01*
X142747000Y-34289000D02*
X142748000Y-34290000D01*
X159782000Y-34986000D02*
X158557000Y-34986000D01*
X158557000Y-34986000D02*
X158369000Y-34798000D01*
X159782000Y-31430000D02*
X158938000Y-31430000D01*
X158938000Y-31430000D02*
X158623000Y-31115000D01*
X156083000Y-31115000D02*
X156083000Y-31242000D01*
X155241000Y-32084000D02*
X156083000Y-31242000D01*
X156083000Y-31242000D02*
X156083000Y-31115000D01*
X155241000Y-33147000D02*
X155241000Y-32084000D01*
X155241000Y-33147000D02*
X155241000Y-29591000D01*
X137200000Y-29078000D02*
X137180000Y-29058000D01*
X137180000Y-28658000D02*
X137180000Y-29058000D01*
G04 #@! TO.N,Net-(C2-Pad1)*
X139700000Y-29078000D02*
X139680000Y-29058000D01*
X139700000Y-31496000D02*
X139700000Y-29078000D01*
X140718000Y-26670000D02*
X141224000Y-26670000D01*
X139680000Y-27708000D02*
X140718000Y-26670000D01*
X139680000Y-29058000D02*
X139680000Y-27708000D01*
X142747000Y-26670000D02*
X141224000Y-26670000D01*
X141224000Y-26670000D02*
X140970000Y-26670000D01*
G04 #@! TO.N,/RESET*
X143303000Y-17780000D02*
X141732000Y-17780000D01*
X142747000Y-21590000D02*
X142747000Y-20341000D01*
X142747000Y-20341000D02*
X143403000Y-19685000D01*
X143303000Y-17780000D02*
X143303000Y-19585000D01*
X143303000Y-19585000D02*
X143403000Y-19685000D01*
G04 #@! TO.N,VCC*
X140335000Y-44022000D02*
X142160000Y-44022000D01*
X151431000Y-40005000D02*
X153070000Y-41644000D01*
X143256000Y-40005000D02*
X151431000Y-40005000D01*
X142875000Y-40386000D02*
X143256000Y-40005000D01*
X142875000Y-43307000D02*
X142875000Y-40386000D01*
X142160000Y-44022000D02*
X142875000Y-43307000D01*
X155495000Y-40640000D02*
X155321000Y-40640000D01*
X155321000Y-40640000D02*
X150368000Y-35687000D01*
X150622000Y-21590000D02*
X152147000Y-21590000D01*
X150368000Y-21844000D02*
X150622000Y-21590000D01*
X150368000Y-35687000D02*
X150368000Y-21844000D01*
X125476000Y-41529000D02*
X125476000Y-42164000D01*
X125476000Y-42164000D02*
X127334000Y-44022000D01*
X127334000Y-44022000D02*
X133985000Y-44022000D01*
X138430000Y-44022000D02*
X135890000Y-44022000D01*
X135890000Y-44022000D02*
X140335000Y-44022000D01*
X133985000Y-44022000D02*
X135890000Y-44022000D01*
X135937000Y-47498000D02*
X135937000Y-44069000D01*
X135937000Y-44069000D02*
X135890000Y-44022000D01*
X135937000Y-47498000D02*
X135937000Y-49593000D01*
X135937000Y-49593000D02*
X135890000Y-49640000D01*
X153070000Y-41644000D02*
X154491000Y-41644000D01*
X154491000Y-41644000D02*
X155495000Y-40640000D01*
X152147000Y-21590000D02*
X158877000Y-21590000D01*
X159893000Y-20574000D02*
X162306000Y-20574000D01*
X158877000Y-21590000D02*
X159893000Y-20574000D01*
X151491000Y-19558000D02*
X151491000Y-20934000D01*
X151491000Y-20934000D02*
X152147000Y-21590000D01*
X146003000Y-17780000D02*
X149713000Y-17780000D01*
X149713000Y-17780000D02*
X151491000Y-19558000D01*
X148082000Y-44826000D02*
X148082000Y-39776000D01*
X148082000Y-46076000D02*
X148082000Y-44826000D01*
X151202000Y-39776000D02*
X148082000Y-39776000D01*
X151431000Y-40005000D02*
X151202000Y-39776000D01*
D29*
G04 #@! TO.N,+12V*
X170053000Y-37973000D02*
X164846000Y-37973000D01*
X150844000Y-49619856D02*
X155664856Y-49619856D01*
D28*
X155664856Y-49619856D02*
X155702000Y-49657000D01*
D29*
X150844000Y-46538000D02*
X150382000Y-46076000D01*
X150382000Y-49157856D02*
X150844000Y-49619856D01*
X150382000Y-46076000D02*
X150382000Y-49157856D01*
X150171856Y-50292000D02*
X150844000Y-49619856D01*
X148844000Y-50292000D02*
X150171856Y-50292000D01*
X152022000Y-46076000D02*
X153394000Y-44704000D01*
X150382000Y-46076000D02*
X152022000Y-46076000D01*
X157702000Y-49657000D02*
X155702000Y-49657000D01*
X164846000Y-42513000D02*
X157702000Y-49657000D01*
X164846000Y-37973000D02*
X164846000Y-42513000D01*
G04 #@! TO.N,Net-(D1-Pad4)*
X160782000Y-49657000D02*
X164338000Y-49657000D01*
X164338000Y-49657000D02*
X165354000Y-50673000D01*
D28*
G04 #@! TO.N,Net-(D1-Pad2)*
X155702000Y-54737000D02*
X156083000Y-54737000D01*
D29*
X156083000Y-54737000D02*
X158369000Y-52451000D01*
X158369000Y-52451000D02*
X164632000Y-52451000D01*
X164632000Y-52451000D02*
X165354000Y-53173000D01*
D28*
G04 #@! TO.N,/TXD*
X139700000Y-53721000D02*
X139700000Y-57040000D01*
X142747000Y-24130000D02*
X144526000Y-24130000D01*
X144526000Y-24130000D02*
X144653000Y-24257000D01*
G04 #@! TO.N,Net-(J2-Pad3)*
X135890000Y-41322000D02*
X135890000Y-40767000D01*
X135890000Y-40767000D02*
X134931998Y-39808998D01*
X134931998Y-39808998D02*
X128835998Y-39808998D01*
X128835998Y-39808998D02*
X128016000Y-38989000D01*
G04 #@! TO.N,Net-(J2-Pad4)*
X133985000Y-41322000D02*
X133985000Y-40894000D01*
X133985000Y-40894000D02*
X133350000Y-40259000D01*
X133350000Y-40259000D02*
X126746000Y-40259000D01*
X126746000Y-40259000D02*
X125476000Y-38989000D01*
G04 #@! TO.N,Net-(J2-Pad5)*
X138430000Y-41322000D02*
X138430000Y-41021000D01*
X138430000Y-41021000D02*
X136767996Y-39358996D01*
X136767996Y-39358996D02*
X130290996Y-39358996D01*
X130290996Y-39358996D02*
X128016000Y-37084000D01*
X128016000Y-37084000D02*
X128016000Y-36449000D01*
G04 #@! TO.N,Net-(J2-Pad6)*
X140335000Y-41322000D02*
X140335000Y-41148000D01*
X140335000Y-41148000D02*
X138095994Y-38908994D01*
X138095994Y-38908994D02*
X132888994Y-38908994D01*
X132888994Y-38908994D02*
X129159000Y-35179000D01*
X129159000Y-35179000D02*
X126746000Y-35179000D01*
X126746000Y-35179000D02*
X125476000Y-36449000D01*
G04 #@! TO.N,/RXD*
X135890000Y-55118000D02*
X135890000Y-57040000D01*
X142747000Y-22860000D02*
X144653000Y-22860000D01*
G04 #@! TO.N,/MISO*
X152147000Y-24130000D02*
X161290000Y-24130000D01*
X161290000Y-24130000D02*
X162306000Y-23114000D01*
G04 #@! TO.N,/SCL/SCK*
X152147000Y-22860000D02*
X159385000Y-22860000D01*
X163576000Y-21844000D02*
X164846000Y-23114000D01*
X160401000Y-21844000D02*
X163576000Y-21844000D01*
X159385000Y-22860000D02*
X160401000Y-21844000D01*
G04 #@! TO.N,/MOSI/SDA*
X152147000Y-25400000D02*
X165608000Y-25400000D01*
X166116000Y-21844000D02*
X164846000Y-20574000D01*
X166116000Y-24892000D02*
X166116000Y-21844000D01*
X165608000Y-25400000D02*
X166116000Y-24892000D01*
G04 #@! TO.N,Net-(J4-Pad1)*
X131191000Y-56007000D02*
X129540000Y-54356000D01*
X137160000Y-50673000D02*
X137160000Y-49640000D01*
X136652000Y-51181000D02*
X137160000Y-50673000D01*
X133477000Y-51181000D02*
X136652000Y-51181000D01*
X131699000Y-49403000D02*
X133477000Y-51181000D01*
X130302000Y-49403000D02*
X131699000Y-49403000D01*
X130048000Y-49657000D02*
X130302000Y-49403000D01*
X129540000Y-50165000D02*
X130048000Y-49657000D01*
X129540000Y-52959000D02*
X129540000Y-50165000D01*
X129540000Y-54356000D02*
X129540000Y-52959000D01*
G04 #@! TO.N,Net-(J4-Pad2)*
X131191000Y-53507000D02*
X132421000Y-53507000D01*
X138430000Y-51562000D02*
X138430000Y-49640000D01*
X138303000Y-51689000D02*
X138430000Y-51562000D01*
X134239000Y-51689000D02*
X138303000Y-51689000D01*
X132421000Y-53507000D02*
X134239000Y-51689000D01*
D29*
G04 #@! TO.N,Net-(J5-Pad2)*
X170053000Y-35473000D02*
X164846000Y-35473000D01*
X164846000Y-35473000D02*
X163997000Y-36322000D01*
X163997000Y-36322000D02*
X163052000Y-36322000D01*
X163052000Y-36322000D02*
X161782000Y-37592000D01*
G04 #@! TO.N,Net-(J5-Pad3)*
X170053000Y-32973000D02*
X164846000Y-32973000D01*
D28*
X161782000Y-34036000D02*
X162560000Y-34036000D01*
D29*
X163623000Y-32973000D02*
X164846000Y-32973000D01*
X162560000Y-34036000D02*
X163623000Y-32973000D01*
G04 #@! TO.N,Net-(J5-Pad4)*
X161782000Y-30480000D02*
X164839000Y-30480000D01*
D28*
X164839000Y-30480000D02*
X164846000Y-30473000D01*
D29*
X164846000Y-30473000D02*
X170053000Y-30473000D01*
D28*
G04 #@! TO.N,/PWM1*
X152147000Y-29210000D02*
X153543000Y-29210000D01*
X157941000Y-35513000D02*
X157941000Y-36703000D01*
X157734000Y-35306000D02*
X157941000Y-35513000D01*
X154432000Y-35306000D02*
X157734000Y-35306000D01*
X153924000Y-34798000D02*
X154432000Y-35306000D01*
X153924000Y-29591000D02*
X153924000Y-34798000D01*
X153543000Y-29210000D02*
X153924000Y-29591000D01*
X157941000Y-36703000D02*
X159721000Y-36703000D01*
X159721000Y-36703000D02*
X159782000Y-36642000D01*
X159467000Y-36957000D02*
X159782000Y-36642000D01*
G04 #@! TO.N,/PWM2*
X152147000Y-27940000D02*
X156210000Y-27940000D01*
X157941000Y-31703000D02*
X157941000Y-33147000D01*
X156591000Y-30353000D02*
X157941000Y-31703000D01*
X156591000Y-28321000D02*
X156591000Y-30353000D01*
X156210000Y-27940000D02*
X156591000Y-28321000D01*
X157941000Y-33147000D02*
X159721000Y-33147000D01*
X159721000Y-33147000D02*
X159782000Y-33086000D01*
X159467000Y-33401000D02*
X159782000Y-33086000D01*
G04 #@! TO.N,/PWM3*
X159782000Y-29530000D02*
X158002000Y-29530000D01*
X158002000Y-29530000D02*
X157941000Y-29591000D01*
X152147000Y-26670000D02*
X156464000Y-26670000D01*
X157941000Y-28147000D02*
X157941000Y-29591000D01*
X156464000Y-26670000D02*
X157941000Y-28147000D01*
X159467000Y-29845000D02*
X159782000Y-29530000D01*
G04 #@! TO.N,/DIR*
X142747000Y-27940000D02*
X144399000Y-27940000D01*
X138430000Y-54864000D02*
X138430000Y-57040000D01*
X141859000Y-36195000D02*
X141859000Y-43053000D01*
X142621000Y-35433000D02*
X141859000Y-36195000D01*
X143637000Y-35433000D02*
X142621000Y-35433000D01*
X144780000Y-34290000D02*
X143637000Y-35433000D01*
X144780000Y-28321000D02*
X144780000Y-34290000D01*
X144399000Y-27940000D02*
X144780000Y-28321000D01*
X137160000Y-57040000D02*
X138430000Y-57040000D01*
G04 #@! TD*
D30*
G04 #@! TO.N,GND*
G36*
X140939345Y-17250365D02*
X140797000Y-17594017D01*
X140797000Y-17965983D01*
X140939345Y-18309635D01*
X141202365Y-18572655D01*
X141546017Y-18715000D01*
X141917983Y-18715000D01*
X141966339Y-18694970D01*
X142052515Y-18823940D01*
X142005560Y-19060000D01*
X142005560Y-20172846D01*
X141972112Y-20341000D01*
X141987001Y-20415851D01*
X141987001Y-20642560D01*
X141772000Y-20642560D01*
X141524235Y-20691843D01*
X141314191Y-20832191D01*
X141173843Y-21042235D01*
X141124560Y-21290000D01*
X141124560Y-21890000D01*
X141173843Y-22137765D01*
X141232132Y-22225000D01*
X141173843Y-22312235D01*
X141124560Y-22560000D01*
X141124560Y-23160000D01*
X141173843Y-23407765D01*
X141232132Y-23495000D01*
X141173843Y-23582235D01*
X141124560Y-23830000D01*
X141124560Y-24430000D01*
X141166331Y-24640000D01*
X139736802Y-24640000D01*
X139492026Y-24395224D01*
X139553000Y-24334250D01*
X139553000Y-22885000D01*
X139807000Y-22885000D01*
X139807000Y-24334250D01*
X139965750Y-24493000D01*
X140506310Y-24493000D01*
X140739699Y-24396327D01*
X140918327Y-24217698D01*
X141015000Y-23984309D01*
X141015000Y-23043750D01*
X140856250Y-22885000D01*
X139807000Y-22885000D01*
X139553000Y-22885000D01*
X139533000Y-22885000D01*
X139533000Y-22631000D01*
X139553000Y-22631000D01*
X139553000Y-20447000D01*
X139807000Y-20447000D01*
X139807000Y-22631000D01*
X140856250Y-22631000D01*
X141015000Y-22472250D01*
X141015000Y-21531691D01*
X140934845Y-21338181D01*
X140968327Y-21304699D01*
X141065000Y-21071310D01*
X141065000Y-20605750D01*
X140906250Y-20447000D01*
X139807000Y-20447000D01*
X139553000Y-20447000D01*
X139533000Y-20447000D01*
X139533000Y-20193000D01*
X139553000Y-20193000D01*
X139553000Y-19218750D01*
X139807000Y-19218750D01*
X139807000Y-20193000D01*
X140906250Y-20193000D01*
X141065000Y-20034250D01*
X141065000Y-19568690D01*
X140968327Y-19335301D01*
X140789698Y-19156673D01*
X140556309Y-19060000D01*
X139965750Y-19060000D01*
X139807000Y-19218750D01*
X139553000Y-19218750D01*
X139394250Y-19060000D01*
X138803691Y-19060000D01*
X138570302Y-19156673D01*
X138428654Y-19298320D01*
X138387809Y-19237191D01*
X138177765Y-19096843D01*
X137930000Y-19047560D01*
X136430000Y-19047560D01*
X136182235Y-19096843D01*
X135972191Y-19237191D01*
X135831843Y-19447235D01*
X135782560Y-19695000D01*
X135782560Y-20945000D01*
X135831843Y-21192765D01*
X135929498Y-21338915D01*
X135881843Y-21410235D01*
X135832560Y-21658000D01*
X135832560Y-23858000D01*
X135881843Y-24105765D01*
X136022191Y-24315809D01*
X136232235Y-24456157D01*
X136480000Y-24505440D01*
X137452639Y-24505440D01*
X138831671Y-25884473D01*
X138874071Y-25947929D01*
X138937527Y-25990329D01*
X139125462Y-26115904D01*
X139157291Y-26122235D01*
X139347148Y-26160000D01*
X139347152Y-26160000D01*
X139422000Y-26174888D01*
X139496848Y-26160000D01*
X140144728Y-26160000D01*
X140127671Y-26185527D01*
X139195528Y-27117671D01*
X139132072Y-27160071D01*
X139089672Y-27223527D01*
X139089671Y-27223528D01*
X139031518Y-27310560D01*
X138980000Y-27310560D01*
X138732235Y-27359843D01*
X138522191Y-27500191D01*
X138432987Y-27633694D01*
X138418327Y-27598302D01*
X138239699Y-27419673D01*
X138006310Y-27323000D01*
X137465750Y-27323000D01*
X137307000Y-27481750D01*
X137307000Y-28931000D01*
X137327000Y-28931000D01*
X137327000Y-29185000D01*
X137307000Y-29185000D01*
X137307000Y-30634250D01*
X137327000Y-30654250D01*
X137327000Y-31369000D01*
X137347000Y-31369000D01*
X137347000Y-31623000D01*
X137327000Y-31623000D01*
X137327000Y-32597250D01*
X137485750Y-32756000D01*
X138076309Y-32756000D01*
X138309698Y-32659327D01*
X138451346Y-32517680D01*
X138492191Y-32578809D01*
X138702235Y-32719157D01*
X138950000Y-32768440D01*
X140450000Y-32768440D01*
X140697765Y-32719157D01*
X140907809Y-32578809D01*
X141048157Y-32368765D01*
X141097440Y-32121000D01*
X141097440Y-30871000D01*
X141048157Y-30623235D01*
X140940502Y-30462119D01*
X140978157Y-30405765D01*
X141027440Y-30158000D01*
X141027440Y-27958000D01*
X140978157Y-27710235D01*
X140887798Y-27575004D01*
X141032802Y-27430000D01*
X141166331Y-27430000D01*
X141124560Y-27640000D01*
X141124560Y-28240000D01*
X141173843Y-28487765D01*
X141232132Y-28575000D01*
X141173843Y-28662235D01*
X141124560Y-28910000D01*
X141124560Y-29510000D01*
X141173843Y-29757765D01*
X141232132Y-29845000D01*
X141173843Y-29932235D01*
X141124560Y-30180000D01*
X141124560Y-30780000D01*
X141173843Y-31027765D01*
X141232132Y-31115000D01*
X141173843Y-31202235D01*
X141124560Y-31450000D01*
X141124560Y-32050000D01*
X141173843Y-32297765D01*
X141226768Y-32376972D01*
X141137000Y-32593690D01*
X141137000Y-32734250D01*
X141295750Y-32893000D01*
X142620000Y-32893000D01*
X142620000Y-32873000D01*
X142874000Y-32873000D01*
X142874000Y-32893000D01*
X142894000Y-32893000D01*
X142894000Y-33147000D01*
X142874000Y-33147000D01*
X142874000Y-33796250D01*
X143032750Y-33955000D01*
X143848309Y-33955000D01*
X144020001Y-33883883D01*
X144020001Y-33975197D01*
X143322199Y-34673000D01*
X142695848Y-34673000D01*
X142621000Y-34658112D01*
X142546152Y-34673000D01*
X142546148Y-34673000D01*
X142372605Y-34707520D01*
X142324462Y-34717096D01*
X142168173Y-34821526D01*
X142073071Y-34885071D01*
X142030671Y-34948527D01*
X141374530Y-35604669D01*
X141311071Y-35647071D01*
X141143096Y-35898464D01*
X141099000Y-36120149D01*
X141099000Y-36120153D01*
X141084112Y-36195000D01*
X141099000Y-36269847D01*
X141099001Y-39947236D01*
X140985000Y-39924560D01*
X140186362Y-39924560D01*
X138686325Y-38424524D01*
X138643923Y-38361065D01*
X138392531Y-38193090D01*
X138170846Y-38148994D01*
X138170841Y-38148994D01*
X138095994Y-38134106D01*
X138021147Y-38148994D01*
X133203796Y-38148994D01*
X129749331Y-34694530D01*
X129706929Y-34631071D01*
X129455537Y-34463096D01*
X129386024Y-34449269D01*
X129470968Y-34268027D01*
X129350469Y-34036000D01*
X128143000Y-34036000D01*
X128143000Y-34056000D01*
X127889000Y-34056000D01*
X127889000Y-34036000D01*
X127869000Y-34036000D01*
X127869000Y-33782000D01*
X127889000Y-33782000D01*
X127889000Y-32575183D01*
X128143000Y-32575183D01*
X128143000Y-33782000D01*
X129350469Y-33782000D01*
X129470968Y-33549973D01*
X129356507Y-33305750D01*
X141137000Y-33305750D01*
X141137000Y-33446310D01*
X141233673Y-33679699D01*
X141412302Y-33858327D01*
X141645691Y-33955000D01*
X142461250Y-33955000D01*
X142620000Y-33796250D01*
X142620000Y-33147000D01*
X141295750Y-33147000D01*
X141137000Y-33305750D01*
X129356507Y-33305750D01*
X129222821Y-33020510D01*
X128790947Y-32626312D01*
X128375026Y-32454042D01*
X128143000Y-32575183D01*
X127889000Y-32575183D01*
X127656974Y-32454042D01*
X127241053Y-32626312D01*
X126809179Y-33020510D01*
X126757854Y-33130021D01*
X126556430Y-32828570D01*
X126060725Y-32497350D01*
X125623598Y-32410400D01*
X125328402Y-32410400D01*
X124891275Y-32497350D01*
X124395570Y-32828570D01*
X124064350Y-33324275D01*
X123948041Y-33909000D01*
X124064350Y-34493725D01*
X124395570Y-34989430D01*
X124679281Y-35179000D01*
X124395570Y-35368570D01*
X124064350Y-35864275D01*
X123948041Y-36449000D01*
X124064350Y-37033725D01*
X124395570Y-37529430D01*
X124679281Y-37719000D01*
X124395570Y-37908570D01*
X124064350Y-38404275D01*
X123948041Y-38989000D01*
X124064350Y-39573725D01*
X124395570Y-40069430D01*
X124679281Y-40259000D01*
X124395570Y-40448570D01*
X124064350Y-40944275D01*
X123948041Y-41529000D01*
X124064350Y-42113725D01*
X124395570Y-42609430D01*
X124891275Y-42940650D01*
X125249006Y-43011807D01*
X126743670Y-44506472D01*
X126786071Y-44569929D01*
X126849527Y-44612329D01*
X127037462Y-44737904D01*
X127085605Y-44747480D01*
X127259148Y-44782000D01*
X127259152Y-44782000D01*
X127334000Y-44796888D01*
X127408848Y-44782000D01*
X132689549Y-44782000D01*
X132736843Y-45019765D01*
X132877191Y-45229809D01*
X133087235Y-45370157D01*
X133335000Y-45419440D01*
X134635000Y-45419440D01*
X134882765Y-45370157D01*
X134937500Y-45333584D01*
X134992235Y-45370157D01*
X135177001Y-45406909D01*
X135177000Y-46202549D01*
X134939235Y-46249843D01*
X134729191Y-46390191D01*
X134588843Y-46600235D01*
X134539560Y-46848000D01*
X134539560Y-48148000D01*
X134588843Y-48395765D01*
X134729191Y-48605809D01*
X134939235Y-48746157D01*
X134970087Y-48752294D01*
X134967560Y-48765000D01*
X134967560Y-50421000D01*
X133791802Y-50421000D01*
X132289331Y-48918530D01*
X132246929Y-48855071D01*
X131995537Y-48687096D01*
X131773852Y-48643000D01*
X131773847Y-48643000D01*
X131699000Y-48628112D01*
X131624153Y-48643000D01*
X130376846Y-48643000D01*
X130301999Y-48628112D01*
X130227152Y-48643000D01*
X130227148Y-48643000D01*
X130005463Y-48687096D01*
X129754071Y-48855071D01*
X129711669Y-48918530D01*
X129563532Y-49066667D01*
X129563526Y-49066671D01*
X129055527Y-49574672D01*
X128992072Y-49617071D01*
X128949672Y-49680527D01*
X128949671Y-49680528D01*
X128824097Y-49868463D01*
X128765112Y-50165000D01*
X128780001Y-50239852D01*
X128780000Y-53033851D01*
X128780001Y-53033856D01*
X128780000Y-54281153D01*
X128765112Y-54356000D01*
X128780000Y-54430847D01*
X128780000Y-54430851D01*
X128824096Y-54652536D01*
X128992071Y-54903929D01*
X129055530Y-54946331D01*
X129618560Y-55509361D01*
X129618560Y-56932000D01*
X129667843Y-57179765D01*
X129808191Y-57389809D01*
X130018235Y-57530157D01*
X130266000Y-57579440D01*
X132116000Y-57579440D01*
X132363765Y-57530157D01*
X132573809Y-57389809D01*
X132714157Y-57179765D01*
X132763440Y-56932000D01*
X132763440Y-55082000D01*
X132733607Y-54932017D01*
X134955000Y-54932017D01*
X134955000Y-55303983D01*
X135097345Y-55647635D01*
X135130000Y-55680290D01*
X135130000Y-55747884D01*
X135016843Y-55917235D01*
X134967560Y-56165000D01*
X134967560Y-57915000D01*
X135016843Y-58162765D01*
X135157191Y-58372809D01*
X135367235Y-58513157D01*
X135615000Y-58562440D01*
X136165000Y-58562440D01*
X136412765Y-58513157D01*
X136525000Y-58438163D01*
X136637235Y-58513157D01*
X136885000Y-58562440D01*
X137435000Y-58562440D01*
X137682765Y-58513157D01*
X137795000Y-58438163D01*
X137907235Y-58513157D01*
X138155000Y-58562440D01*
X138705000Y-58562440D01*
X138952765Y-58513157D01*
X139065000Y-58438163D01*
X139177235Y-58513157D01*
X139425000Y-58562440D01*
X139975000Y-58562440D01*
X140222765Y-58513157D01*
X140432809Y-58372809D01*
X140573157Y-58162765D01*
X140622440Y-57915000D01*
X140622440Y-57116676D01*
X145871073Y-57116676D01*
X145969736Y-57383531D01*
X146579461Y-57610052D01*
X147229460Y-57586000D01*
X147718264Y-57383531D01*
X147816927Y-57116676D01*
X146844000Y-56143749D01*
X145871073Y-57116676D01*
X140622440Y-57116676D01*
X140622440Y-56165000D01*
X140573157Y-55917235D01*
X140460000Y-55747885D01*
X140460000Y-55699605D01*
X145198092Y-55699605D01*
X145222144Y-56349604D01*
X145424613Y-56838408D01*
X145691468Y-56937071D01*
X146664395Y-55964144D01*
X145691468Y-54991217D01*
X145424613Y-55089880D01*
X145198092Y-55699605D01*
X140460000Y-55699605D01*
X140460000Y-54811612D01*
X145871073Y-54811612D01*
X146844000Y-55784539D01*
X146858143Y-55770397D01*
X147037748Y-55950002D01*
X147023605Y-55964144D01*
X147996532Y-56937071D01*
X148263387Y-56838408D01*
X148269239Y-56822656D01*
X148579461Y-56937908D01*
X149229460Y-56913856D01*
X149718264Y-56711387D01*
X149816927Y-56444532D01*
X148844000Y-55471605D01*
X148829858Y-55485748D01*
X148650253Y-55306143D01*
X148664395Y-55292000D01*
X149023605Y-55292000D01*
X149996532Y-56264927D01*
X150263387Y-56166264D01*
X150489908Y-55556539D01*
X150465856Y-54906540D01*
X150263387Y-54417736D01*
X149996532Y-54319073D01*
X149023605Y-55292000D01*
X148664395Y-55292000D01*
X147691468Y-54319073D01*
X147424613Y-54417736D01*
X147418761Y-54433488D01*
X147108539Y-54318236D01*
X146458540Y-54342288D01*
X145969736Y-54544757D01*
X145871073Y-54811612D01*
X140460000Y-54811612D01*
X140460000Y-54283290D01*
X140492655Y-54250635D01*
X140538701Y-54139468D01*
X147871073Y-54139468D01*
X148844000Y-55112395D01*
X149816927Y-54139468D01*
X149718264Y-53872613D01*
X149108539Y-53646092D01*
X148458540Y-53670144D01*
X147969736Y-53872613D01*
X147871073Y-54139468D01*
X140538701Y-54139468D01*
X140635000Y-53906983D01*
X140635000Y-53535017D01*
X140492655Y-53191365D01*
X140229635Y-52928345D01*
X139885983Y-52786000D01*
X139514017Y-52786000D01*
X139170365Y-52928345D01*
X138907345Y-53191365D01*
X138765000Y-53535017D01*
X138765000Y-53906983D01*
X138806871Y-54008068D01*
X138615983Y-53929000D01*
X138244017Y-53929000D01*
X137900365Y-54071345D01*
X137637345Y-54334365D01*
X137495000Y-54678017D01*
X137495000Y-55049983D01*
X137637345Y-55393635D01*
X137670000Y-55426290D01*
X137670000Y-55564304D01*
X137435000Y-55517560D01*
X136885000Y-55517560D01*
X136723203Y-55549743D01*
X136825000Y-55303983D01*
X136825000Y-54932017D01*
X136682655Y-54588365D01*
X136419635Y-54325345D01*
X136075983Y-54183000D01*
X135704017Y-54183000D01*
X135360365Y-54325345D01*
X135097345Y-54588365D01*
X134955000Y-54932017D01*
X132733607Y-54932017D01*
X132714157Y-54834235D01*
X132573809Y-54624191D01*
X132397673Y-54506500D01*
X132513504Y-54390669D01*
X132570914Y-54252069D01*
X132717537Y-54222904D01*
X132968929Y-54054929D01*
X133011331Y-53991470D01*
X134553802Y-52449000D01*
X138228153Y-52449000D01*
X138303000Y-52463888D01*
X138377847Y-52449000D01*
X138377852Y-52449000D01*
X138599537Y-52404904D01*
X138850929Y-52236929D01*
X138893331Y-52173470D01*
X138914470Y-52152331D01*
X138977929Y-52109929D01*
X139145904Y-51858537D01*
X139190000Y-51636852D01*
X139190000Y-51636848D01*
X139204888Y-51562001D01*
X139190000Y-51487154D01*
X139190000Y-51104979D01*
X139298690Y-51150000D01*
X139414250Y-51150000D01*
X139573000Y-50991250D01*
X139573000Y-49767000D01*
X139827000Y-49767000D01*
X139827000Y-50991250D01*
X139985750Y-51150000D01*
X140101310Y-51150000D01*
X140334699Y-51053327D01*
X140513327Y-50874698D01*
X140610000Y-50641309D01*
X140610000Y-49925750D01*
X140451250Y-49767000D01*
X139827000Y-49767000D01*
X139573000Y-49767000D01*
X139553000Y-49767000D01*
X139553000Y-49513000D01*
X139573000Y-49513000D01*
X139573000Y-49493000D01*
X139827000Y-49493000D01*
X139827000Y-49513000D01*
X140451250Y-49513000D01*
X140610000Y-49354250D01*
X140610000Y-48638691D01*
X140513327Y-48405302D01*
X140334699Y-48226673D01*
X140101310Y-48130000D01*
X140022000Y-48130000D01*
X140022000Y-47783750D01*
X139863250Y-47625000D01*
X138764000Y-47625000D01*
X138764000Y-47645000D01*
X138510000Y-47645000D01*
X138510000Y-47625000D01*
X138490000Y-47625000D01*
X138490000Y-47371000D01*
X138510000Y-47371000D01*
X138510000Y-46371750D01*
X138764000Y-46371750D01*
X138764000Y-47371000D01*
X139863250Y-47371000D01*
X140022000Y-47212250D01*
X140022000Y-46721690D01*
X139925327Y-46488301D01*
X139798776Y-46361750D01*
X144397000Y-46361750D01*
X144397000Y-47202309D01*
X144493673Y-47435698D01*
X144672301Y-47614327D01*
X144905690Y-47711000D01*
X145496250Y-47711000D01*
X145655000Y-47552250D01*
X145655000Y-46203000D01*
X144555750Y-46203000D01*
X144397000Y-46361750D01*
X139798776Y-46361750D01*
X139746698Y-46309673D01*
X139513309Y-46213000D01*
X138922750Y-46213000D01*
X138764000Y-46371750D01*
X138510000Y-46371750D01*
X138351250Y-46213000D01*
X137760691Y-46213000D01*
X137527302Y-46309673D01*
X137348673Y-46488301D01*
X137290721Y-46628209D01*
X137285157Y-46600235D01*
X137144809Y-46390191D01*
X136934765Y-46249843D01*
X136697000Y-46202549D01*
X136697000Y-45388211D01*
X136787765Y-45370157D01*
X136997809Y-45229809D01*
X137138157Y-45019765D01*
X137160000Y-44909952D01*
X137181843Y-45019765D01*
X137322191Y-45229809D01*
X137532235Y-45370157D01*
X137780000Y-45419440D01*
X139080000Y-45419440D01*
X139327765Y-45370157D01*
X139382500Y-45333584D01*
X139437235Y-45370157D01*
X139685000Y-45419440D01*
X140985000Y-45419440D01*
X141232765Y-45370157D01*
X141442809Y-45229809D01*
X141583157Y-45019765D01*
X141597095Y-44949691D01*
X144397000Y-44949691D01*
X144397000Y-45790250D01*
X144555750Y-45949000D01*
X145655000Y-45949000D01*
X145655000Y-44599750D01*
X145496250Y-44441000D01*
X144905690Y-44441000D01*
X144672301Y-44537673D01*
X144493673Y-44716302D01*
X144397000Y-44949691D01*
X141597095Y-44949691D01*
X141630451Y-44782000D01*
X142085153Y-44782000D01*
X142160000Y-44796888D01*
X142234847Y-44782000D01*
X142234852Y-44782000D01*
X142456537Y-44737904D01*
X142707929Y-44569929D01*
X142750331Y-44506470D01*
X143359473Y-43897329D01*
X143422929Y-43854929D01*
X143546338Y-43670235D01*
X143590904Y-43603538D01*
X143604034Y-43537527D01*
X143635000Y-43381852D01*
X143635000Y-43381848D01*
X143649888Y-43307000D01*
X143635000Y-43232152D01*
X143635000Y-40765000D01*
X145534560Y-40765000D01*
X145534560Y-40776000D01*
X145583843Y-41023765D01*
X145724191Y-41233809D01*
X145934235Y-41374157D01*
X146182000Y-41423440D01*
X147322001Y-41423440D01*
X147322000Y-44430549D01*
X147084235Y-44477843D01*
X146932953Y-44578927D01*
X146891699Y-44537673D01*
X146658310Y-44441000D01*
X146067750Y-44441000D01*
X145909000Y-44599750D01*
X145909000Y-45949000D01*
X145929000Y-45949000D01*
X145929000Y-46203000D01*
X145909000Y-46203000D01*
X145909000Y-47552250D01*
X146067750Y-47711000D01*
X146658310Y-47711000D01*
X146891699Y-47614327D01*
X146932953Y-47573073D01*
X147084235Y-47674157D01*
X147332000Y-47723440D01*
X148832000Y-47723440D01*
X149079765Y-47674157D01*
X149232000Y-47572436D01*
X149247000Y-47582459D01*
X149247001Y-48370358D01*
X149245843Y-48372091D01*
X149196560Y-48619856D01*
X149196560Y-48644560D01*
X147844000Y-48644560D01*
X147596235Y-48693843D01*
X147386191Y-48834191D01*
X147245843Y-49044235D01*
X147196560Y-49292000D01*
X147196560Y-51292000D01*
X147245843Y-51539765D01*
X147386191Y-51749809D01*
X147596235Y-51890157D01*
X147844000Y-51939440D01*
X149844000Y-51939440D01*
X150091765Y-51890157D01*
X150301809Y-51749809D01*
X150442157Y-51539765D01*
X150472041Y-51389525D01*
X150614711Y-51361146D01*
X150755167Y-51267296D01*
X151844000Y-51267296D01*
X152091765Y-51218013D01*
X152301809Y-51077665D01*
X152442157Y-50867621D01*
X152464587Y-50754856D01*
X154074025Y-50754856D01*
X154103843Y-50904765D01*
X154244191Y-51114809D01*
X154454235Y-51255157D01*
X154702000Y-51304440D01*
X156702000Y-51304440D01*
X156949765Y-51255157D01*
X157159809Y-51114809D01*
X157300157Y-50904765D01*
X157322587Y-50792000D01*
X157590217Y-50792000D01*
X157702000Y-50814235D01*
X157813783Y-50792000D01*
X158144855Y-50726146D01*
X158520289Y-50475289D01*
X158583613Y-50380518D01*
X159146851Y-49817280D01*
X159241864Y-50294945D01*
X159603231Y-50835769D01*
X160144055Y-51197136D01*
X160620969Y-51292000D01*
X160943031Y-51292000D01*
X161419945Y-51197136D01*
X161960769Y-50835769D01*
X161990015Y-50792000D01*
X163781560Y-50792000D01*
X163781560Y-51316000D01*
X158480782Y-51316000D01*
X158368999Y-51293765D01*
X157933148Y-51380461D01*
X157926145Y-51381854D01*
X157550711Y-51632711D01*
X157487389Y-51727479D01*
X156071418Y-53143451D01*
X155863031Y-53102000D01*
X155540969Y-53102000D01*
X155064055Y-53196864D01*
X154523231Y-53558231D01*
X154161864Y-54099055D01*
X154034969Y-54737000D01*
X154161864Y-55374945D01*
X154523231Y-55915769D01*
X155064055Y-56277136D01*
X155540969Y-56372000D01*
X155863031Y-56372000D01*
X156339945Y-56277136D01*
X156880769Y-55915769D01*
X157242136Y-55374945D01*
X157289798Y-55135334D01*
X157307698Y-55117434D01*
X159191876Y-55117434D01*
X159388598Y-55592385D01*
X159822006Y-56060505D01*
X160401565Y-56327133D01*
X160655000Y-56208319D01*
X160655000Y-54864000D01*
X160909000Y-54864000D01*
X160909000Y-56208319D01*
X161162435Y-56327133D01*
X161741994Y-56060505D01*
X162175402Y-55592385D01*
X162372124Y-55117434D01*
X162252777Y-54864000D01*
X160909000Y-54864000D01*
X160655000Y-54864000D01*
X159311223Y-54864000D01*
X159191876Y-55117434D01*
X157307698Y-55117434D01*
X158839132Y-53586000D01*
X159662293Y-53586000D01*
X159388598Y-53881615D01*
X159191876Y-54356566D01*
X159311223Y-54610000D01*
X160655000Y-54610000D01*
X160655000Y-54590000D01*
X160909000Y-54590000D01*
X160909000Y-54610000D01*
X162252777Y-54610000D01*
X162372124Y-54356566D01*
X162175402Y-53881615D01*
X161901707Y-53586000D01*
X163836538Y-53586000D01*
X164031496Y-54056669D01*
X164470331Y-54495504D01*
X165043697Y-54733000D01*
X165664303Y-54733000D01*
X166237669Y-54495504D01*
X166676504Y-54056669D01*
X166914000Y-53483303D01*
X166914000Y-52862697D01*
X166676504Y-52289331D01*
X166560673Y-52173500D01*
X166736809Y-52055809D01*
X166877157Y-51845765D01*
X166926440Y-51598000D01*
X166926440Y-49748000D01*
X166877157Y-49500235D01*
X166736809Y-49290191D01*
X166526765Y-49149843D01*
X166279000Y-49100560D01*
X165386691Y-49100560D01*
X165219613Y-48933481D01*
X165156289Y-48838711D01*
X164780855Y-48587854D01*
X164449783Y-48522000D01*
X164338000Y-48499765D01*
X164226217Y-48522000D01*
X161990015Y-48522000D01*
X161960769Y-48478231D01*
X161419945Y-48116864D01*
X160943031Y-48022000D01*
X160942131Y-48022000D01*
X164859244Y-44104887D01*
X168699000Y-44104887D01*
X168699000Y-44795113D01*
X168963138Y-45432799D01*
X169451201Y-45920862D01*
X170088887Y-46185000D01*
X170779113Y-46185000D01*
X171416799Y-45920862D01*
X171904862Y-45432799D01*
X172169000Y-44795113D01*
X172169000Y-44104887D01*
X171904862Y-43467201D01*
X171416799Y-42979138D01*
X170779113Y-42715000D01*
X170088887Y-42715000D01*
X169451201Y-42979138D01*
X168963138Y-43467201D01*
X168699000Y-44104887D01*
X164859244Y-44104887D01*
X165569521Y-43394611D01*
X165664289Y-43331289D01*
X165915146Y-42955855D01*
X165981000Y-42624783D01*
X166003235Y-42513000D01*
X165981000Y-42401217D01*
X165981000Y-39503669D01*
X166018765Y-39496157D01*
X166228809Y-39355809D01*
X166369157Y-39145765D01*
X166376669Y-39108000D01*
X168522331Y-39108000D01*
X168529843Y-39145765D01*
X168670191Y-39355809D01*
X168880235Y-39496157D01*
X169128000Y-39545440D01*
X170978000Y-39545440D01*
X171225765Y-39496157D01*
X171435809Y-39355809D01*
X171576157Y-39145765D01*
X171625440Y-38898000D01*
X171625440Y-37048000D01*
X171576157Y-36800235D01*
X171435809Y-36590191D01*
X171259673Y-36472500D01*
X171375504Y-36356669D01*
X171613000Y-35783303D01*
X171613000Y-35162697D01*
X171375504Y-34589331D01*
X171009173Y-34223000D01*
X171375504Y-33856669D01*
X171613000Y-33283303D01*
X171613000Y-32662697D01*
X171375504Y-32089331D01*
X171009173Y-31723000D01*
X171375504Y-31356669D01*
X171613000Y-30783303D01*
X171613000Y-30162697D01*
X171375504Y-29589331D01*
X170936669Y-29150496D01*
X170363303Y-28913000D01*
X169742697Y-28913000D01*
X169169331Y-29150496D01*
X168981827Y-29338000D01*
X165917173Y-29338000D01*
X165729669Y-29150496D01*
X165156303Y-28913000D01*
X164535697Y-28913000D01*
X163962331Y-29150496D01*
X163767827Y-29345000D01*
X161670217Y-29345000D01*
X161339145Y-29410854D01*
X161295919Y-29439737D01*
X161084235Y-29481843D01*
X160879440Y-29618684D01*
X160879440Y-29130000D01*
X160830157Y-28882235D01*
X160689809Y-28672191D01*
X160479765Y-28531843D01*
X160232000Y-28482560D01*
X159332000Y-28482560D01*
X159169928Y-28514798D01*
X159148809Y-28483191D01*
X158938765Y-28342843D01*
X158701000Y-28295549D01*
X158701000Y-28221846D01*
X158715888Y-28146999D01*
X158701000Y-28072152D01*
X158701000Y-28072148D01*
X158656904Y-27850463D01*
X158563207Y-27710235D01*
X158531329Y-27662526D01*
X158531327Y-27662524D01*
X158488929Y-27599071D01*
X158425476Y-27556673D01*
X157054331Y-26185530D01*
X157037272Y-26160000D01*
X165533153Y-26160000D01*
X165608000Y-26174888D01*
X165682847Y-26160000D01*
X165682852Y-26160000D01*
X165904537Y-26115904D01*
X166155929Y-25947929D01*
X166198330Y-25884471D01*
X166600475Y-25482327D01*
X166663929Y-25439929D01*
X166706327Y-25376476D01*
X166706329Y-25376474D01*
X166831903Y-25188538D01*
X166831904Y-25188537D01*
X166876000Y-24966852D01*
X166876000Y-24966848D01*
X166890888Y-24892001D01*
X166876000Y-24817154D01*
X166876000Y-24540514D01*
X167238402Y-24612600D01*
X167533598Y-24612600D01*
X167970725Y-24525650D01*
X168466430Y-24194430D01*
X168797650Y-23698725D01*
X168913959Y-23114000D01*
X168797650Y-22529275D01*
X168466430Y-22033570D01*
X168164979Y-21832146D01*
X168274490Y-21780821D01*
X168668688Y-21348947D01*
X168840958Y-20933026D01*
X168719817Y-20701000D01*
X167513000Y-20701000D01*
X167513000Y-20721000D01*
X167259000Y-20721000D01*
X167259000Y-20701000D01*
X167239000Y-20701000D01*
X167239000Y-20447000D01*
X167259000Y-20447000D01*
X167259000Y-19239531D01*
X167513000Y-19239531D01*
X167513000Y-20447000D01*
X168719817Y-20447000D01*
X168840958Y-20214974D01*
X168668688Y-19799053D01*
X168274490Y-19367179D01*
X167745027Y-19119032D01*
X167513000Y-19239531D01*
X167259000Y-19239531D01*
X167026973Y-19119032D01*
X166497510Y-19367179D01*
X166119037Y-19781826D01*
X165926430Y-19493570D01*
X165430725Y-19162350D01*
X164993598Y-19075400D01*
X164698402Y-19075400D01*
X164261275Y-19162350D01*
X163765570Y-19493570D01*
X163576000Y-19777281D01*
X163386430Y-19493570D01*
X162890725Y-19162350D01*
X162453598Y-19075400D01*
X162158402Y-19075400D01*
X161721275Y-19162350D01*
X161225570Y-19493570D01*
X161011465Y-19814000D01*
X159967847Y-19814000D01*
X159893000Y-19799112D01*
X159818153Y-19814000D01*
X159818148Y-19814000D01*
X159596463Y-19858096D01*
X159345071Y-20026071D01*
X159302671Y-20089527D01*
X158562199Y-20830000D01*
X153576530Y-20830000D01*
X153369765Y-20691843D01*
X153122000Y-20642560D01*
X152696188Y-20642560D01*
X152698809Y-20640809D01*
X152839157Y-20430765D01*
X152888440Y-20183000D01*
X152888440Y-18933000D01*
X152839157Y-18685235D01*
X152698809Y-18475191D01*
X152488765Y-18334843D01*
X152241000Y-18285560D01*
X151293362Y-18285560D01*
X150303331Y-17295530D01*
X150260929Y-17232071D01*
X150205448Y-17195000D01*
X172543000Y-17195000D01*
X172543001Y-58751000D01*
X121843000Y-58751000D01*
X121843000Y-56296887D01*
X122217000Y-56296887D01*
X122217000Y-56987113D01*
X122481138Y-57624799D01*
X122969201Y-58112862D01*
X123606887Y-58377000D01*
X124297113Y-58377000D01*
X124934799Y-58112862D01*
X125422862Y-57624799D01*
X125687000Y-56987113D01*
X125687000Y-56296887D01*
X125422862Y-55659201D01*
X124934799Y-55171138D01*
X124297113Y-54907000D01*
X123606887Y-54907000D01*
X122969201Y-55171138D01*
X122481138Y-55659201D01*
X122217000Y-56296887D01*
X121843000Y-56296887D01*
X121843000Y-31781750D01*
X135815000Y-31781750D01*
X135815000Y-32247310D01*
X135911673Y-32480699D01*
X136090302Y-32659327D01*
X136323691Y-32756000D01*
X136914250Y-32756000D01*
X137073000Y-32597250D01*
X137073000Y-31623000D01*
X135973750Y-31623000D01*
X135815000Y-31781750D01*
X121843000Y-31781750D01*
X121843000Y-30744690D01*
X135815000Y-30744690D01*
X135815000Y-31210250D01*
X135973750Y-31369000D01*
X137073000Y-31369000D01*
X137073000Y-30394750D01*
X137053000Y-30374750D01*
X137053000Y-29185000D01*
X136003750Y-29185000D01*
X135845000Y-29343750D01*
X135845000Y-30284309D01*
X135931013Y-30491962D01*
X135911673Y-30511301D01*
X135815000Y-30744690D01*
X121843000Y-30744690D01*
X121843000Y-27831691D01*
X135845000Y-27831691D01*
X135845000Y-28772250D01*
X136003750Y-28931000D01*
X137053000Y-28931000D01*
X137053000Y-27481750D01*
X136894250Y-27323000D01*
X136353690Y-27323000D01*
X136120301Y-27419673D01*
X135941673Y-27598302D01*
X135845000Y-27831691D01*
X121843000Y-27831691D01*
X121843000Y-18958887D01*
X122217000Y-18958887D01*
X122217000Y-19649113D01*
X122481138Y-20286799D01*
X122969201Y-20774862D01*
X123606887Y-21039000D01*
X124297113Y-21039000D01*
X124934799Y-20774862D01*
X125422862Y-20286799D01*
X125687000Y-19649113D01*
X125687000Y-18958887D01*
X125422862Y-18321201D01*
X124934799Y-17833138D01*
X124297113Y-17569000D01*
X123606887Y-17569000D01*
X122969201Y-17833138D01*
X122481138Y-18321201D01*
X122217000Y-18958887D01*
X121843000Y-18958887D01*
X121843000Y-17195000D01*
X140994710Y-17195000D01*
X140939345Y-17250365D01*
X140939345Y-17250365D01*
G37*
X140939345Y-17250365D02*
X140797000Y-17594017D01*
X140797000Y-17965983D01*
X140939345Y-18309635D01*
X141202365Y-18572655D01*
X141546017Y-18715000D01*
X141917983Y-18715000D01*
X141966339Y-18694970D01*
X142052515Y-18823940D01*
X142005560Y-19060000D01*
X142005560Y-20172846D01*
X141972112Y-20341000D01*
X141987001Y-20415851D01*
X141987001Y-20642560D01*
X141772000Y-20642560D01*
X141524235Y-20691843D01*
X141314191Y-20832191D01*
X141173843Y-21042235D01*
X141124560Y-21290000D01*
X141124560Y-21890000D01*
X141173843Y-22137765D01*
X141232132Y-22225000D01*
X141173843Y-22312235D01*
X141124560Y-22560000D01*
X141124560Y-23160000D01*
X141173843Y-23407765D01*
X141232132Y-23495000D01*
X141173843Y-23582235D01*
X141124560Y-23830000D01*
X141124560Y-24430000D01*
X141166331Y-24640000D01*
X139736802Y-24640000D01*
X139492026Y-24395224D01*
X139553000Y-24334250D01*
X139553000Y-22885000D01*
X139807000Y-22885000D01*
X139807000Y-24334250D01*
X139965750Y-24493000D01*
X140506310Y-24493000D01*
X140739699Y-24396327D01*
X140918327Y-24217698D01*
X141015000Y-23984309D01*
X141015000Y-23043750D01*
X140856250Y-22885000D01*
X139807000Y-22885000D01*
X139553000Y-22885000D01*
X139533000Y-22885000D01*
X139533000Y-22631000D01*
X139553000Y-22631000D01*
X139553000Y-20447000D01*
X139807000Y-20447000D01*
X139807000Y-22631000D01*
X140856250Y-22631000D01*
X141015000Y-22472250D01*
X141015000Y-21531691D01*
X140934845Y-21338181D01*
X140968327Y-21304699D01*
X141065000Y-21071310D01*
X141065000Y-20605750D01*
X140906250Y-20447000D01*
X139807000Y-20447000D01*
X139553000Y-20447000D01*
X139533000Y-20447000D01*
X139533000Y-20193000D01*
X139553000Y-20193000D01*
X139553000Y-19218750D01*
X139807000Y-19218750D01*
X139807000Y-20193000D01*
X140906250Y-20193000D01*
X141065000Y-20034250D01*
X141065000Y-19568690D01*
X140968327Y-19335301D01*
X140789698Y-19156673D01*
X140556309Y-19060000D01*
X139965750Y-19060000D01*
X139807000Y-19218750D01*
X139553000Y-19218750D01*
X139394250Y-19060000D01*
X138803691Y-19060000D01*
X138570302Y-19156673D01*
X138428654Y-19298320D01*
X138387809Y-19237191D01*
X138177765Y-19096843D01*
X137930000Y-19047560D01*
X136430000Y-19047560D01*
X136182235Y-19096843D01*
X135972191Y-19237191D01*
X135831843Y-19447235D01*
X135782560Y-19695000D01*
X135782560Y-20945000D01*
X135831843Y-21192765D01*
X135929498Y-21338915D01*
X135881843Y-21410235D01*
X135832560Y-21658000D01*
X135832560Y-23858000D01*
X135881843Y-24105765D01*
X136022191Y-24315809D01*
X136232235Y-24456157D01*
X136480000Y-24505440D01*
X137452639Y-24505440D01*
X138831671Y-25884473D01*
X138874071Y-25947929D01*
X138937527Y-25990329D01*
X139125462Y-26115904D01*
X139157291Y-26122235D01*
X139347148Y-26160000D01*
X139347152Y-26160000D01*
X139422000Y-26174888D01*
X139496848Y-26160000D01*
X140144728Y-26160000D01*
X140127671Y-26185527D01*
X139195528Y-27117671D01*
X139132072Y-27160071D01*
X139089672Y-27223527D01*
X139089671Y-27223528D01*
X139031518Y-27310560D01*
X138980000Y-27310560D01*
X138732235Y-27359843D01*
X138522191Y-27500191D01*
X138432987Y-27633694D01*
X138418327Y-27598302D01*
X138239699Y-27419673D01*
X138006310Y-27323000D01*
X137465750Y-27323000D01*
X137307000Y-27481750D01*
X137307000Y-28931000D01*
X137327000Y-28931000D01*
X137327000Y-29185000D01*
X137307000Y-29185000D01*
X137307000Y-30634250D01*
X137327000Y-30654250D01*
X137327000Y-31369000D01*
X137347000Y-31369000D01*
X137347000Y-31623000D01*
X137327000Y-31623000D01*
X137327000Y-32597250D01*
X137485750Y-32756000D01*
X138076309Y-32756000D01*
X138309698Y-32659327D01*
X138451346Y-32517680D01*
X138492191Y-32578809D01*
X138702235Y-32719157D01*
X138950000Y-32768440D01*
X140450000Y-32768440D01*
X140697765Y-32719157D01*
X140907809Y-32578809D01*
X141048157Y-32368765D01*
X141097440Y-32121000D01*
X141097440Y-30871000D01*
X141048157Y-30623235D01*
X140940502Y-30462119D01*
X140978157Y-30405765D01*
X141027440Y-30158000D01*
X141027440Y-27958000D01*
X140978157Y-27710235D01*
X140887798Y-27575004D01*
X141032802Y-27430000D01*
X141166331Y-27430000D01*
X141124560Y-27640000D01*
X141124560Y-28240000D01*
X141173843Y-28487765D01*
X141232132Y-28575000D01*
X141173843Y-28662235D01*
X141124560Y-28910000D01*
X141124560Y-29510000D01*
X141173843Y-29757765D01*
X141232132Y-29845000D01*
X141173843Y-29932235D01*
X141124560Y-30180000D01*
X141124560Y-30780000D01*
X141173843Y-31027765D01*
X141232132Y-31115000D01*
X141173843Y-31202235D01*
X141124560Y-31450000D01*
X141124560Y-32050000D01*
X141173843Y-32297765D01*
X141226768Y-32376972D01*
X141137000Y-32593690D01*
X141137000Y-32734250D01*
X141295750Y-32893000D01*
X142620000Y-32893000D01*
X142620000Y-32873000D01*
X142874000Y-32873000D01*
X142874000Y-32893000D01*
X142894000Y-32893000D01*
X142894000Y-33147000D01*
X142874000Y-33147000D01*
X142874000Y-33796250D01*
X143032750Y-33955000D01*
X143848309Y-33955000D01*
X144020001Y-33883883D01*
X144020001Y-33975197D01*
X143322199Y-34673000D01*
X142695848Y-34673000D01*
X142621000Y-34658112D01*
X142546152Y-34673000D01*
X142546148Y-34673000D01*
X142372605Y-34707520D01*
X142324462Y-34717096D01*
X142168173Y-34821526D01*
X142073071Y-34885071D01*
X142030671Y-34948527D01*
X141374530Y-35604669D01*
X141311071Y-35647071D01*
X141143096Y-35898464D01*
X141099000Y-36120149D01*
X141099000Y-36120153D01*
X141084112Y-36195000D01*
X141099000Y-36269847D01*
X141099001Y-39947236D01*
X140985000Y-39924560D01*
X140186362Y-39924560D01*
X138686325Y-38424524D01*
X138643923Y-38361065D01*
X138392531Y-38193090D01*
X138170846Y-38148994D01*
X138170841Y-38148994D01*
X138095994Y-38134106D01*
X138021147Y-38148994D01*
X133203796Y-38148994D01*
X129749331Y-34694530D01*
X129706929Y-34631071D01*
X129455537Y-34463096D01*
X129386024Y-34449269D01*
X129470968Y-34268027D01*
X129350469Y-34036000D01*
X128143000Y-34036000D01*
X128143000Y-34056000D01*
X127889000Y-34056000D01*
X127889000Y-34036000D01*
X127869000Y-34036000D01*
X127869000Y-33782000D01*
X127889000Y-33782000D01*
X127889000Y-32575183D01*
X128143000Y-32575183D01*
X128143000Y-33782000D01*
X129350469Y-33782000D01*
X129470968Y-33549973D01*
X129356507Y-33305750D01*
X141137000Y-33305750D01*
X141137000Y-33446310D01*
X141233673Y-33679699D01*
X141412302Y-33858327D01*
X141645691Y-33955000D01*
X142461250Y-33955000D01*
X142620000Y-33796250D01*
X142620000Y-33147000D01*
X141295750Y-33147000D01*
X141137000Y-33305750D01*
X129356507Y-33305750D01*
X129222821Y-33020510D01*
X128790947Y-32626312D01*
X128375026Y-32454042D01*
X128143000Y-32575183D01*
X127889000Y-32575183D01*
X127656974Y-32454042D01*
X127241053Y-32626312D01*
X126809179Y-33020510D01*
X126757854Y-33130021D01*
X126556430Y-32828570D01*
X126060725Y-32497350D01*
X125623598Y-32410400D01*
X125328402Y-32410400D01*
X124891275Y-32497350D01*
X124395570Y-32828570D01*
X124064350Y-33324275D01*
X123948041Y-33909000D01*
X124064350Y-34493725D01*
X124395570Y-34989430D01*
X124679281Y-35179000D01*
X124395570Y-35368570D01*
X124064350Y-35864275D01*
X123948041Y-36449000D01*
X124064350Y-37033725D01*
X124395570Y-37529430D01*
X124679281Y-37719000D01*
X124395570Y-37908570D01*
X124064350Y-38404275D01*
X123948041Y-38989000D01*
X124064350Y-39573725D01*
X124395570Y-40069430D01*
X124679281Y-40259000D01*
X124395570Y-40448570D01*
X124064350Y-40944275D01*
X123948041Y-41529000D01*
X124064350Y-42113725D01*
X124395570Y-42609430D01*
X124891275Y-42940650D01*
X125249006Y-43011807D01*
X126743670Y-44506472D01*
X126786071Y-44569929D01*
X126849527Y-44612329D01*
X127037462Y-44737904D01*
X127085605Y-44747480D01*
X127259148Y-44782000D01*
X127259152Y-44782000D01*
X127334000Y-44796888D01*
X127408848Y-44782000D01*
X132689549Y-44782000D01*
X132736843Y-45019765D01*
X132877191Y-45229809D01*
X133087235Y-45370157D01*
X133335000Y-45419440D01*
X134635000Y-45419440D01*
X134882765Y-45370157D01*
X134937500Y-45333584D01*
X134992235Y-45370157D01*
X135177001Y-45406909D01*
X135177000Y-46202549D01*
X134939235Y-46249843D01*
X134729191Y-46390191D01*
X134588843Y-46600235D01*
X134539560Y-46848000D01*
X134539560Y-48148000D01*
X134588843Y-48395765D01*
X134729191Y-48605809D01*
X134939235Y-48746157D01*
X134970087Y-48752294D01*
X134967560Y-48765000D01*
X134967560Y-50421000D01*
X133791802Y-50421000D01*
X132289331Y-48918530D01*
X132246929Y-48855071D01*
X131995537Y-48687096D01*
X131773852Y-48643000D01*
X131773847Y-48643000D01*
X131699000Y-48628112D01*
X131624153Y-48643000D01*
X130376846Y-48643000D01*
X130301999Y-48628112D01*
X130227152Y-48643000D01*
X130227148Y-48643000D01*
X130005463Y-48687096D01*
X129754071Y-48855071D01*
X129711669Y-48918530D01*
X129563532Y-49066667D01*
X129563526Y-49066671D01*
X129055527Y-49574672D01*
X128992072Y-49617071D01*
X128949672Y-49680527D01*
X128949671Y-49680528D01*
X128824097Y-49868463D01*
X128765112Y-50165000D01*
X128780001Y-50239852D01*
X128780000Y-53033851D01*
X128780001Y-53033856D01*
X128780000Y-54281153D01*
X128765112Y-54356000D01*
X128780000Y-54430847D01*
X128780000Y-54430851D01*
X128824096Y-54652536D01*
X128992071Y-54903929D01*
X129055530Y-54946331D01*
X129618560Y-55509361D01*
X129618560Y-56932000D01*
X129667843Y-57179765D01*
X129808191Y-57389809D01*
X130018235Y-57530157D01*
X130266000Y-57579440D01*
X132116000Y-57579440D01*
X132363765Y-57530157D01*
X132573809Y-57389809D01*
X132714157Y-57179765D01*
X132763440Y-56932000D01*
X132763440Y-55082000D01*
X132733607Y-54932017D01*
X134955000Y-54932017D01*
X134955000Y-55303983D01*
X135097345Y-55647635D01*
X135130000Y-55680290D01*
X135130000Y-55747884D01*
X135016843Y-55917235D01*
X134967560Y-56165000D01*
X134967560Y-57915000D01*
X135016843Y-58162765D01*
X135157191Y-58372809D01*
X135367235Y-58513157D01*
X135615000Y-58562440D01*
X136165000Y-58562440D01*
X136412765Y-58513157D01*
X136525000Y-58438163D01*
X136637235Y-58513157D01*
X136885000Y-58562440D01*
X137435000Y-58562440D01*
X137682765Y-58513157D01*
X137795000Y-58438163D01*
X137907235Y-58513157D01*
X138155000Y-58562440D01*
X138705000Y-58562440D01*
X138952765Y-58513157D01*
X139065000Y-58438163D01*
X139177235Y-58513157D01*
X139425000Y-58562440D01*
X139975000Y-58562440D01*
X140222765Y-58513157D01*
X140432809Y-58372809D01*
X140573157Y-58162765D01*
X140622440Y-57915000D01*
X140622440Y-57116676D01*
X145871073Y-57116676D01*
X145969736Y-57383531D01*
X146579461Y-57610052D01*
X147229460Y-57586000D01*
X147718264Y-57383531D01*
X147816927Y-57116676D01*
X146844000Y-56143749D01*
X145871073Y-57116676D01*
X140622440Y-57116676D01*
X140622440Y-56165000D01*
X140573157Y-55917235D01*
X140460000Y-55747885D01*
X140460000Y-55699605D01*
X145198092Y-55699605D01*
X145222144Y-56349604D01*
X145424613Y-56838408D01*
X145691468Y-56937071D01*
X146664395Y-55964144D01*
X145691468Y-54991217D01*
X145424613Y-55089880D01*
X145198092Y-55699605D01*
X140460000Y-55699605D01*
X140460000Y-54811612D01*
X145871073Y-54811612D01*
X146844000Y-55784539D01*
X146858143Y-55770397D01*
X147037748Y-55950002D01*
X147023605Y-55964144D01*
X147996532Y-56937071D01*
X148263387Y-56838408D01*
X148269239Y-56822656D01*
X148579461Y-56937908D01*
X149229460Y-56913856D01*
X149718264Y-56711387D01*
X149816927Y-56444532D01*
X148844000Y-55471605D01*
X148829858Y-55485748D01*
X148650253Y-55306143D01*
X148664395Y-55292000D01*
X149023605Y-55292000D01*
X149996532Y-56264927D01*
X150263387Y-56166264D01*
X150489908Y-55556539D01*
X150465856Y-54906540D01*
X150263387Y-54417736D01*
X149996532Y-54319073D01*
X149023605Y-55292000D01*
X148664395Y-55292000D01*
X147691468Y-54319073D01*
X147424613Y-54417736D01*
X147418761Y-54433488D01*
X147108539Y-54318236D01*
X146458540Y-54342288D01*
X145969736Y-54544757D01*
X145871073Y-54811612D01*
X140460000Y-54811612D01*
X140460000Y-54283290D01*
X140492655Y-54250635D01*
X140538701Y-54139468D01*
X147871073Y-54139468D01*
X148844000Y-55112395D01*
X149816927Y-54139468D01*
X149718264Y-53872613D01*
X149108539Y-53646092D01*
X148458540Y-53670144D01*
X147969736Y-53872613D01*
X147871073Y-54139468D01*
X140538701Y-54139468D01*
X140635000Y-53906983D01*
X140635000Y-53535017D01*
X140492655Y-53191365D01*
X140229635Y-52928345D01*
X139885983Y-52786000D01*
X139514017Y-52786000D01*
X139170365Y-52928345D01*
X138907345Y-53191365D01*
X138765000Y-53535017D01*
X138765000Y-53906983D01*
X138806871Y-54008068D01*
X138615983Y-53929000D01*
X138244017Y-53929000D01*
X137900365Y-54071345D01*
X137637345Y-54334365D01*
X137495000Y-54678017D01*
X137495000Y-55049983D01*
X137637345Y-55393635D01*
X137670000Y-55426290D01*
X137670000Y-55564304D01*
X137435000Y-55517560D01*
X136885000Y-55517560D01*
X136723203Y-55549743D01*
X136825000Y-55303983D01*
X136825000Y-54932017D01*
X136682655Y-54588365D01*
X136419635Y-54325345D01*
X136075983Y-54183000D01*
X135704017Y-54183000D01*
X135360365Y-54325345D01*
X135097345Y-54588365D01*
X134955000Y-54932017D01*
X132733607Y-54932017D01*
X132714157Y-54834235D01*
X132573809Y-54624191D01*
X132397673Y-54506500D01*
X132513504Y-54390669D01*
X132570914Y-54252069D01*
X132717537Y-54222904D01*
X132968929Y-54054929D01*
X133011331Y-53991470D01*
X134553802Y-52449000D01*
X138228153Y-52449000D01*
X138303000Y-52463888D01*
X138377847Y-52449000D01*
X138377852Y-52449000D01*
X138599537Y-52404904D01*
X138850929Y-52236929D01*
X138893331Y-52173470D01*
X138914470Y-52152331D01*
X138977929Y-52109929D01*
X139145904Y-51858537D01*
X139190000Y-51636852D01*
X139190000Y-51636848D01*
X139204888Y-51562001D01*
X139190000Y-51487154D01*
X139190000Y-51104979D01*
X139298690Y-51150000D01*
X139414250Y-51150000D01*
X139573000Y-50991250D01*
X139573000Y-49767000D01*
X139827000Y-49767000D01*
X139827000Y-50991250D01*
X139985750Y-51150000D01*
X140101310Y-51150000D01*
X140334699Y-51053327D01*
X140513327Y-50874698D01*
X140610000Y-50641309D01*
X140610000Y-49925750D01*
X140451250Y-49767000D01*
X139827000Y-49767000D01*
X139573000Y-49767000D01*
X139553000Y-49767000D01*
X139553000Y-49513000D01*
X139573000Y-49513000D01*
X139573000Y-49493000D01*
X139827000Y-49493000D01*
X139827000Y-49513000D01*
X140451250Y-49513000D01*
X140610000Y-49354250D01*
X140610000Y-48638691D01*
X140513327Y-48405302D01*
X140334699Y-48226673D01*
X140101310Y-48130000D01*
X140022000Y-48130000D01*
X140022000Y-47783750D01*
X139863250Y-47625000D01*
X138764000Y-47625000D01*
X138764000Y-47645000D01*
X138510000Y-47645000D01*
X138510000Y-47625000D01*
X138490000Y-47625000D01*
X138490000Y-47371000D01*
X138510000Y-47371000D01*
X138510000Y-46371750D01*
X138764000Y-46371750D01*
X138764000Y-47371000D01*
X139863250Y-47371000D01*
X140022000Y-47212250D01*
X140022000Y-46721690D01*
X139925327Y-46488301D01*
X139798776Y-46361750D01*
X144397000Y-46361750D01*
X144397000Y-47202309D01*
X144493673Y-47435698D01*
X144672301Y-47614327D01*
X144905690Y-47711000D01*
X145496250Y-47711000D01*
X145655000Y-47552250D01*
X145655000Y-46203000D01*
X144555750Y-46203000D01*
X144397000Y-46361750D01*
X139798776Y-46361750D01*
X139746698Y-46309673D01*
X139513309Y-46213000D01*
X138922750Y-46213000D01*
X138764000Y-46371750D01*
X138510000Y-46371750D01*
X138351250Y-46213000D01*
X137760691Y-46213000D01*
X137527302Y-46309673D01*
X137348673Y-46488301D01*
X137290721Y-46628209D01*
X137285157Y-46600235D01*
X137144809Y-46390191D01*
X136934765Y-46249843D01*
X136697000Y-46202549D01*
X136697000Y-45388211D01*
X136787765Y-45370157D01*
X136997809Y-45229809D01*
X137138157Y-45019765D01*
X137160000Y-44909952D01*
X137181843Y-45019765D01*
X137322191Y-45229809D01*
X137532235Y-45370157D01*
X137780000Y-45419440D01*
X139080000Y-45419440D01*
X139327765Y-45370157D01*
X139382500Y-45333584D01*
X139437235Y-45370157D01*
X139685000Y-45419440D01*
X140985000Y-45419440D01*
X141232765Y-45370157D01*
X141442809Y-45229809D01*
X141583157Y-45019765D01*
X141597095Y-44949691D01*
X144397000Y-44949691D01*
X144397000Y-45790250D01*
X144555750Y-45949000D01*
X145655000Y-45949000D01*
X145655000Y-44599750D01*
X145496250Y-44441000D01*
X144905690Y-44441000D01*
X144672301Y-44537673D01*
X144493673Y-44716302D01*
X144397000Y-44949691D01*
X141597095Y-44949691D01*
X141630451Y-44782000D01*
X142085153Y-44782000D01*
X142160000Y-44796888D01*
X142234847Y-44782000D01*
X142234852Y-44782000D01*
X142456537Y-44737904D01*
X142707929Y-44569929D01*
X142750331Y-44506470D01*
X143359473Y-43897329D01*
X143422929Y-43854929D01*
X143546338Y-43670235D01*
X143590904Y-43603538D01*
X143604034Y-43537527D01*
X143635000Y-43381852D01*
X143635000Y-43381848D01*
X143649888Y-43307000D01*
X143635000Y-43232152D01*
X143635000Y-40765000D01*
X145534560Y-40765000D01*
X145534560Y-40776000D01*
X145583843Y-41023765D01*
X145724191Y-41233809D01*
X145934235Y-41374157D01*
X146182000Y-41423440D01*
X147322001Y-41423440D01*
X147322000Y-44430549D01*
X147084235Y-44477843D01*
X146932953Y-44578927D01*
X146891699Y-44537673D01*
X146658310Y-44441000D01*
X146067750Y-44441000D01*
X145909000Y-44599750D01*
X145909000Y-45949000D01*
X145929000Y-45949000D01*
X145929000Y-46203000D01*
X145909000Y-46203000D01*
X145909000Y-47552250D01*
X146067750Y-47711000D01*
X146658310Y-47711000D01*
X146891699Y-47614327D01*
X146932953Y-47573073D01*
X147084235Y-47674157D01*
X147332000Y-47723440D01*
X148832000Y-47723440D01*
X149079765Y-47674157D01*
X149232000Y-47572436D01*
X149247000Y-47582459D01*
X149247001Y-48370358D01*
X149245843Y-48372091D01*
X149196560Y-48619856D01*
X149196560Y-48644560D01*
X147844000Y-48644560D01*
X147596235Y-48693843D01*
X147386191Y-48834191D01*
X147245843Y-49044235D01*
X147196560Y-49292000D01*
X147196560Y-51292000D01*
X147245843Y-51539765D01*
X147386191Y-51749809D01*
X147596235Y-51890157D01*
X147844000Y-51939440D01*
X149844000Y-51939440D01*
X150091765Y-51890157D01*
X150301809Y-51749809D01*
X150442157Y-51539765D01*
X150472041Y-51389525D01*
X150614711Y-51361146D01*
X150755167Y-51267296D01*
X151844000Y-51267296D01*
X152091765Y-51218013D01*
X152301809Y-51077665D01*
X152442157Y-50867621D01*
X152464587Y-50754856D01*
X154074025Y-50754856D01*
X154103843Y-50904765D01*
X154244191Y-51114809D01*
X154454235Y-51255157D01*
X154702000Y-51304440D01*
X156702000Y-51304440D01*
X156949765Y-51255157D01*
X157159809Y-51114809D01*
X157300157Y-50904765D01*
X157322587Y-50792000D01*
X157590217Y-50792000D01*
X157702000Y-50814235D01*
X157813783Y-50792000D01*
X158144855Y-50726146D01*
X158520289Y-50475289D01*
X158583613Y-50380518D01*
X159146851Y-49817280D01*
X159241864Y-50294945D01*
X159603231Y-50835769D01*
X160144055Y-51197136D01*
X160620969Y-51292000D01*
X160943031Y-51292000D01*
X161419945Y-51197136D01*
X161960769Y-50835769D01*
X161990015Y-50792000D01*
X163781560Y-50792000D01*
X163781560Y-51316000D01*
X158480782Y-51316000D01*
X158368999Y-51293765D01*
X157933148Y-51380461D01*
X157926145Y-51381854D01*
X157550711Y-51632711D01*
X157487389Y-51727479D01*
X156071418Y-53143451D01*
X155863031Y-53102000D01*
X155540969Y-53102000D01*
X155064055Y-53196864D01*
X154523231Y-53558231D01*
X154161864Y-54099055D01*
X154034969Y-54737000D01*
X154161864Y-55374945D01*
X154523231Y-55915769D01*
X155064055Y-56277136D01*
X155540969Y-56372000D01*
X155863031Y-56372000D01*
X156339945Y-56277136D01*
X156880769Y-55915769D01*
X157242136Y-55374945D01*
X157289798Y-55135334D01*
X157307698Y-55117434D01*
X159191876Y-55117434D01*
X159388598Y-55592385D01*
X159822006Y-56060505D01*
X160401565Y-56327133D01*
X160655000Y-56208319D01*
X160655000Y-54864000D01*
X160909000Y-54864000D01*
X160909000Y-56208319D01*
X161162435Y-56327133D01*
X161741994Y-56060505D01*
X162175402Y-55592385D01*
X162372124Y-55117434D01*
X162252777Y-54864000D01*
X160909000Y-54864000D01*
X160655000Y-54864000D01*
X159311223Y-54864000D01*
X159191876Y-55117434D01*
X157307698Y-55117434D01*
X158839132Y-53586000D01*
X159662293Y-53586000D01*
X159388598Y-53881615D01*
X159191876Y-54356566D01*
X159311223Y-54610000D01*
X160655000Y-54610000D01*
X160655000Y-54590000D01*
X160909000Y-54590000D01*
X160909000Y-54610000D01*
X162252777Y-54610000D01*
X162372124Y-54356566D01*
X162175402Y-53881615D01*
X161901707Y-53586000D01*
X163836538Y-53586000D01*
X164031496Y-54056669D01*
X164470331Y-54495504D01*
X165043697Y-54733000D01*
X165664303Y-54733000D01*
X166237669Y-54495504D01*
X166676504Y-54056669D01*
X166914000Y-53483303D01*
X166914000Y-52862697D01*
X166676504Y-52289331D01*
X166560673Y-52173500D01*
X166736809Y-52055809D01*
X166877157Y-51845765D01*
X166926440Y-51598000D01*
X166926440Y-49748000D01*
X166877157Y-49500235D01*
X166736809Y-49290191D01*
X166526765Y-49149843D01*
X166279000Y-49100560D01*
X165386691Y-49100560D01*
X165219613Y-48933481D01*
X165156289Y-48838711D01*
X164780855Y-48587854D01*
X164449783Y-48522000D01*
X164338000Y-48499765D01*
X164226217Y-48522000D01*
X161990015Y-48522000D01*
X161960769Y-48478231D01*
X161419945Y-48116864D01*
X160943031Y-48022000D01*
X160942131Y-48022000D01*
X164859244Y-44104887D01*
X168699000Y-44104887D01*
X168699000Y-44795113D01*
X168963138Y-45432799D01*
X169451201Y-45920862D01*
X170088887Y-46185000D01*
X170779113Y-46185000D01*
X171416799Y-45920862D01*
X171904862Y-45432799D01*
X172169000Y-44795113D01*
X172169000Y-44104887D01*
X171904862Y-43467201D01*
X171416799Y-42979138D01*
X170779113Y-42715000D01*
X170088887Y-42715000D01*
X169451201Y-42979138D01*
X168963138Y-43467201D01*
X168699000Y-44104887D01*
X164859244Y-44104887D01*
X165569521Y-43394611D01*
X165664289Y-43331289D01*
X165915146Y-42955855D01*
X165981000Y-42624783D01*
X166003235Y-42513000D01*
X165981000Y-42401217D01*
X165981000Y-39503669D01*
X166018765Y-39496157D01*
X166228809Y-39355809D01*
X166369157Y-39145765D01*
X166376669Y-39108000D01*
X168522331Y-39108000D01*
X168529843Y-39145765D01*
X168670191Y-39355809D01*
X168880235Y-39496157D01*
X169128000Y-39545440D01*
X170978000Y-39545440D01*
X171225765Y-39496157D01*
X171435809Y-39355809D01*
X171576157Y-39145765D01*
X171625440Y-38898000D01*
X171625440Y-37048000D01*
X171576157Y-36800235D01*
X171435809Y-36590191D01*
X171259673Y-36472500D01*
X171375504Y-36356669D01*
X171613000Y-35783303D01*
X171613000Y-35162697D01*
X171375504Y-34589331D01*
X171009173Y-34223000D01*
X171375504Y-33856669D01*
X171613000Y-33283303D01*
X171613000Y-32662697D01*
X171375504Y-32089331D01*
X171009173Y-31723000D01*
X171375504Y-31356669D01*
X171613000Y-30783303D01*
X171613000Y-30162697D01*
X171375504Y-29589331D01*
X170936669Y-29150496D01*
X170363303Y-28913000D01*
X169742697Y-28913000D01*
X169169331Y-29150496D01*
X168981827Y-29338000D01*
X165917173Y-29338000D01*
X165729669Y-29150496D01*
X165156303Y-28913000D01*
X164535697Y-28913000D01*
X163962331Y-29150496D01*
X163767827Y-29345000D01*
X161670217Y-29345000D01*
X161339145Y-29410854D01*
X161295919Y-29439737D01*
X161084235Y-29481843D01*
X160879440Y-29618684D01*
X160879440Y-29130000D01*
X160830157Y-28882235D01*
X160689809Y-28672191D01*
X160479765Y-28531843D01*
X160232000Y-28482560D01*
X159332000Y-28482560D01*
X159169928Y-28514798D01*
X159148809Y-28483191D01*
X158938765Y-28342843D01*
X158701000Y-28295549D01*
X158701000Y-28221846D01*
X158715888Y-28146999D01*
X158701000Y-28072152D01*
X158701000Y-28072148D01*
X158656904Y-27850463D01*
X158563207Y-27710235D01*
X158531329Y-27662526D01*
X158531327Y-27662524D01*
X158488929Y-27599071D01*
X158425476Y-27556673D01*
X157054331Y-26185530D01*
X157037272Y-26160000D01*
X165533153Y-26160000D01*
X165608000Y-26174888D01*
X165682847Y-26160000D01*
X165682852Y-26160000D01*
X165904537Y-26115904D01*
X166155929Y-25947929D01*
X166198330Y-25884471D01*
X166600475Y-25482327D01*
X166663929Y-25439929D01*
X166706327Y-25376476D01*
X166706329Y-25376474D01*
X166831903Y-25188538D01*
X166831904Y-25188537D01*
X166876000Y-24966852D01*
X166876000Y-24966848D01*
X166890888Y-24892001D01*
X166876000Y-24817154D01*
X166876000Y-24540514D01*
X167238402Y-24612600D01*
X167533598Y-24612600D01*
X167970725Y-24525650D01*
X168466430Y-24194430D01*
X168797650Y-23698725D01*
X168913959Y-23114000D01*
X168797650Y-22529275D01*
X168466430Y-22033570D01*
X168164979Y-21832146D01*
X168274490Y-21780821D01*
X168668688Y-21348947D01*
X168840958Y-20933026D01*
X168719817Y-20701000D01*
X167513000Y-20701000D01*
X167513000Y-20721000D01*
X167259000Y-20721000D01*
X167259000Y-20701000D01*
X167239000Y-20701000D01*
X167239000Y-20447000D01*
X167259000Y-20447000D01*
X167259000Y-19239531D01*
X167513000Y-19239531D01*
X167513000Y-20447000D01*
X168719817Y-20447000D01*
X168840958Y-20214974D01*
X168668688Y-19799053D01*
X168274490Y-19367179D01*
X167745027Y-19119032D01*
X167513000Y-19239531D01*
X167259000Y-19239531D01*
X167026973Y-19119032D01*
X166497510Y-19367179D01*
X166119037Y-19781826D01*
X165926430Y-19493570D01*
X165430725Y-19162350D01*
X164993598Y-19075400D01*
X164698402Y-19075400D01*
X164261275Y-19162350D01*
X163765570Y-19493570D01*
X163576000Y-19777281D01*
X163386430Y-19493570D01*
X162890725Y-19162350D01*
X162453598Y-19075400D01*
X162158402Y-19075400D01*
X161721275Y-19162350D01*
X161225570Y-19493570D01*
X161011465Y-19814000D01*
X159967847Y-19814000D01*
X159893000Y-19799112D01*
X159818153Y-19814000D01*
X159818148Y-19814000D01*
X159596463Y-19858096D01*
X159345071Y-20026071D01*
X159302671Y-20089527D01*
X158562199Y-20830000D01*
X153576530Y-20830000D01*
X153369765Y-20691843D01*
X153122000Y-20642560D01*
X152696188Y-20642560D01*
X152698809Y-20640809D01*
X152839157Y-20430765D01*
X152888440Y-20183000D01*
X152888440Y-18933000D01*
X152839157Y-18685235D01*
X152698809Y-18475191D01*
X152488765Y-18334843D01*
X152241000Y-18285560D01*
X151293362Y-18285560D01*
X150303331Y-17295530D01*
X150260929Y-17232071D01*
X150205448Y-17195000D01*
X172543000Y-17195000D01*
X172543001Y-58751000D01*
X121843000Y-58751000D01*
X121843000Y-56296887D01*
X122217000Y-56296887D01*
X122217000Y-56987113D01*
X122481138Y-57624799D01*
X122969201Y-58112862D01*
X123606887Y-58377000D01*
X124297113Y-58377000D01*
X124934799Y-58112862D01*
X125422862Y-57624799D01*
X125687000Y-56987113D01*
X125687000Y-56296887D01*
X125422862Y-55659201D01*
X124934799Y-55171138D01*
X124297113Y-54907000D01*
X123606887Y-54907000D01*
X122969201Y-55171138D01*
X122481138Y-55659201D01*
X122217000Y-56296887D01*
X121843000Y-56296887D01*
X121843000Y-31781750D01*
X135815000Y-31781750D01*
X135815000Y-32247310D01*
X135911673Y-32480699D01*
X136090302Y-32659327D01*
X136323691Y-32756000D01*
X136914250Y-32756000D01*
X137073000Y-32597250D01*
X137073000Y-31623000D01*
X135973750Y-31623000D01*
X135815000Y-31781750D01*
X121843000Y-31781750D01*
X121843000Y-30744690D01*
X135815000Y-30744690D01*
X135815000Y-31210250D01*
X135973750Y-31369000D01*
X137073000Y-31369000D01*
X137073000Y-30394750D01*
X137053000Y-30374750D01*
X137053000Y-29185000D01*
X136003750Y-29185000D01*
X135845000Y-29343750D01*
X135845000Y-30284309D01*
X135931013Y-30491962D01*
X135911673Y-30511301D01*
X135815000Y-30744690D01*
X121843000Y-30744690D01*
X121843000Y-27831691D01*
X135845000Y-27831691D01*
X135845000Y-28772250D01*
X136003750Y-28931000D01*
X137053000Y-28931000D01*
X137053000Y-27481750D01*
X136894250Y-27323000D01*
X136353690Y-27323000D01*
X136120301Y-27419673D01*
X135941673Y-27598302D01*
X135845000Y-27831691D01*
X121843000Y-27831691D01*
X121843000Y-18958887D01*
X122217000Y-18958887D01*
X122217000Y-19649113D01*
X122481138Y-20286799D01*
X122969201Y-20774862D01*
X123606887Y-21039000D01*
X124297113Y-21039000D01*
X124934799Y-20774862D01*
X125422862Y-20286799D01*
X125687000Y-19649113D01*
X125687000Y-18958887D01*
X125422862Y-18321201D01*
X124934799Y-17833138D01*
X124297113Y-17569000D01*
X123606887Y-17569000D01*
X122969201Y-17833138D01*
X122481138Y-18321201D01*
X122217000Y-18958887D01*
X121843000Y-18958887D01*
X121843000Y-17195000D01*
X140994710Y-17195000D01*
X140939345Y-17250365D01*
G36*
X131384748Y-50992858D02*
X131370605Y-51007000D01*
X132289256Y-51925651D01*
X132548332Y-51836179D01*
X132685089Y-51463890D01*
X132886671Y-51665473D01*
X132929071Y-51728929D01*
X132992527Y-51771329D01*
X133046084Y-51807115D01*
X132371686Y-52481513D01*
X132080330Y-52190157D01*
X132109651Y-52105256D01*
X131191000Y-51186605D01*
X131176858Y-51200748D01*
X130997253Y-51021143D01*
X131011395Y-51007000D01*
X130997253Y-50992858D01*
X131176858Y-50813253D01*
X131191000Y-50827395D01*
X131205143Y-50813253D01*
X131384748Y-50992858D01*
X131384748Y-50992858D01*
G37*
X131384748Y-50992858D02*
X131370605Y-51007000D01*
X132289256Y-51925651D01*
X132548332Y-51836179D01*
X132685089Y-51463890D01*
X132886671Y-51665473D01*
X132929071Y-51728929D01*
X132992527Y-51771329D01*
X133046084Y-51807115D01*
X132371686Y-52481513D01*
X132080330Y-52190157D01*
X132109651Y-52105256D01*
X131191000Y-51186605D01*
X131176858Y-51200748D01*
X130997253Y-51021143D01*
X131011395Y-51007000D01*
X130997253Y-50992858D01*
X131176858Y-50813253D01*
X131191000Y-50827395D01*
X131205143Y-50813253D01*
X131384748Y-50992858D01*
G36*
X151172000Y-33967440D02*
X153122000Y-33967440D01*
X153164001Y-33959086D01*
X153164001Y-34723148D01*
X153149112Y-34798000D01*
X153208097Y-35094537D01*
X153307175Y-35242817D01*
X153376072Y-35345929D01*
X153439527Y-35388328D01*
X153841672Y-35790475D01*
X153884071Y-35853929D01*
X153885690Y-35855011D01*
X153856000Y-35926690D01*
X153856000Y-36417250D01*
X154014750Y-36576000D01*
X155114000Y-36576000D01*
X155114000Y-36556000D01*
X155368000Y-36556000D01*
X155368000Y-36576000D01*
X155388000Y-36576000D01*
X155388000Y-36830000D01*
X155368000Y-36830000D01*
X155368000Y-37829250D01*
X155526750Y-37988000D01*
X156117309Y-37988000D01*
X156350698Y-37891327D01*
X156529327Y-37712699D01*
X156587279Y-37572791D01*
X156592843Y-37600765D01*
X156733191Y-37810809D01*
X156943235Y-37951157D01*
X157191000Y-38000440D01*
X158691000Y-38000440D01*
X158704423Y-37997770D01*
X158697000Y-38015690D01*
X158697000Y-38256250D01*
X158855750Y-38415000D01*
X159655000Y-38415000D01*
X159655000Y-38395000D01*
X159909000Y-38395000D01*
X159909000Y-38415000D01*
X160708250Y-38415000D01*
X160793781Y-38329469D01*
X160874191Y-38449809D01*
X161084235Y-38590157D01*
X161295920Y-38632263D01*
X161339146Y-38661146D01*
X161782000Y-38749235D01*
X162224854Y-38661146D01*
X162268080Y-38632263D01*
X162479765Y-38590157D01*
X162689809Y-38449809D01*
X162830157Y-38239765D01*
X162852700Y-38126431D01*
X163273560Y-37705572D01*
X163273560Y-38898000D01*
X163322843Y-39145765D01*
X163463191Y-39355809D01*
X163673235Y-39496157D01*
X163711000Y-39503669D01*
X163711001Y-42042867D01*
X157307536Y-48446333D01*
X157300157Y-48409235D01*
X157159809Y-48199191D01*
X156949765Y-48058843D01*
X156702000Y-48009560D01*
X154702000Y-48009560D01*
X154454235Y-48058843D01*
X154244191Y-48199191D01*
X154103843Y-48409235D01*
X154088801Y-48484856D01*
X152464587Y-48484856D01*
X152442157Y-48372091D01*
X152301809Y-48162047D01*
X152091765Y-48021699D01*
X151844000Y-47972416D01*
X151517000Y-47972416D01*
X151517000Y-47582459D01*
X151589809Y-47533809D01*
X151730157Y-47323765D01*
X151749713Y-47225447D01*
X151759367Y-47211000D01*
X151910217Y-47211000D01*
X152022000Y-47233235D01*
X152133783Y-47211000D01*
X152464855Y-47145146D01*
X152840289Y-46894289D01*
X152903613Y-46799518D01*
X153551692Y-46151440D01*
X154694000Y-46151440D01*
X154941765Y-46102157D01*
X155151809Y-45961809D01*
X155192654Y-45900680D01*
X155334302Y-46042327D01*
X155567691Y-46139000D01*
X156708250Y-46139000D01*
X156867000Y-45980250D01*
X156867000Y-44831000D01*
X157121000Y-44831000D01*
X157121000Y-45980250D01*
X157279750Y-46139000D01*
X158420309Y-46139000D01*
X158653698Y-46042327D01*
X158832327Y-45863699D01*
X158929000Y-45630310D01*
X158929000Y-44989750D01*
X158770250Y-44831000D01*
X157121000Y-44831000D01*
X156867000Y-44831000D01*
X156847000Y-44831000D01*
X156847000Y-44577000D01*
X156867000Y-44577000D01*
X156867000Y-43427750D01*
X157121000Y-43427750D01*
X157121000Y-44577000D01*
X158770250Y-44577000D01*
X158929000Y-44418250D01*
X158929000Y-43777690D01*
X158832327Y-43544301D01*
X158653698Y-43365673D01*
X158420309Y-43269000D01*
X157279750Y-43269000D01*
X157121000Y-43427750D01*
X156867000Y-43427750D01*
X156708250Y-43269000D01*
X155567691Y-43269000D01*
X155334302Y-43365673D01*
X155192654Y-43507320D01*
X155151809Y-43446191D01*
X154941765Y-43305843D01*
X154694000Y-43256560D01*
X152094000Y-43256560D01*
X151846235Y-43305843D01*
X151636191Y-43446191D01*
X151495843Y-43656235D01*
X151446560Y-43904000D01*
X151446560Y-44522474D01*
X151379765Y-44477843D01*
X151132000Y-44428560D01*
X149632000Y-44428560D01*
X149384235Y-44477843D01*
X149232000Y-44579564D01*
X149079765Y-44477843D01*
X148842000Y-44430549D01*
X148842000Y-41423440D01*
X149982000Y-41423440D01*
X150229765Y-41374157D01*
X150439809Y-41233809D01*
X150580157Y-41023765D01*
X150629440Y-40776000D01*
X150629440Y-40765000D01*
X151116199Y-40765000D01*
X152479671Y-42128473D01*
X152522071Y-42191929D01*
X152773463Y-42359904D01*
X152995148Y-42404000D01*
X152995152Y-42404000D01*
X153069999Y-42418888D01*
X153144846Y-42404000D01*
X154416153Y-42404000D01*
X154491000Y-42418888D01*
X154565847Y-42404000D01*
X154565852Y-42404000D01*
X154787537Y-42359904D01*
X155038929Y-42191929D01*
X155081331Y-42128471D01*
X155272362Y-41937440D01*
X156245000Y-41937440D01*
X156492765Y-41888157D01*
X156702809Y-41747809D01*
X156843157Y-41537765D01*
X156848721Y-41509791D01*
X156906673Y-41649699D01*
X157085302Y-41828327D01*
X157318691Y-41925000D01*
X157909250Y-41925000D01*
X158068000Y-41766250D01*
X158068000Y-40767000D01*
X158322000Y-40767000D01*
X158322000Y-41766250D01*
X158480750Y-41925000D01*
X159071309Y-41925000D01*
X159304698Y-41828327D01*
X159483327Y-41649699D01*
X159580000Y-41416310D01*
X159580000Y-40925750D01*
X159421250Y-40767000D01*
X158322000Y-40767000D01*
X158068000Y-40767000D01*
X158048000Y-40767000D01*
X158048000Y-40513000D01*
X158068000Y-40513000D01*
X158068000Y-39513750D01*
X158322000Y-39513750D01*
X158322000Y-40513000D01*
X159421250Y-40513000D01*
X159580000Y-40354250D01*
X159580000Y-39863690D01*
X159483327Y-39630301D01*
X159430026Y-39577000D01*
X159496250Y-39577000D01*
X159655000Y-39418250D01*
X159655000Y-38669000D01*
X159909000Y-38669000D01*
X159909000Y-39418250D01*
X160067750Y-39577000D01*
X160358309Y-39577000D01*
X160591698Y-39480327D01*
X160770327Y-39301699D01*
X160867000Y-39068310D01*
X160867000Y-38827750D01*
X160708250Y-38669000D01*
X159909000Y-38669000D01*
X159655000Y-38669000D01*
X158855750Y-38669000D01*
X158697000Y-38827750D01*
X158697000Y-39068310D01*
X158793673Y-39301699D01*
X158846974Y-39355000D01*
X158480750Y-39355000D01*
X158322000Y-39513750D01*
X158068000Y-39513750D01*
X157909250Y-39355000D01*
X157318691Y-39355000D01*
X157085302Y-39451673D01*
X156906673Y-39630301D01*
X156848721Y-39770209D01*
X156843157Y-39742235D01*
X156702809Y-39532191D01*
X156492765Y-39391843D01*
X156245000Y-39342560D01*
X155098362Y-39342560D01*
X152744552Y-36988750D01*
X153856000Y-36988750D01*
X153856000Y-37479310D01*
X153952673Y-37712699D01*
X154131302Y-37891327D01*
X154364691Y-37988000D01*
X154955250Y-37988000D01*
X155114000Y-37829250D01*
X155114000Y-36830000D01*
X154014750Y-36830000D01*
X153856000Y-36988750D01*
X152744552Y-36988750D01*
X151128000Y-35372199D01*
X151128000Y-33958688D01*
X151172000Y-33967440D01*
X151172000Y-33967440D01*
G37*
X151172000Y-33967440D02*
X153122000Y-33967440D01*
X153164001Y-33959086D01*
X153164001Y-34723148D01*
X153149112Y-34798000D01*
X153208097Y-35094537D01*
X153307175Y-35242817D01*
X153376072Y-35345929D01*
X153439527Y-35388328D01*
X153841672Y-35790475D01*
X153884071Y-35853929D01*
X153885690Y-35855011D01*
X153856000Y-35926690D01*
X153856000Y-36417250D01*
X154014750Y-36576000D01*
X155114000Y-36576000D01*
X155114000Y-36556000D01*
X155368000Y-36556000D01*
X155368000Y-36576000D01*
X155388000Y-36576000D01*
X155388000Y-36830000D01*
X155368000Y-36830000D01*
X155368000Y-37829250D01*
X155526750Y-37988000D01*
X156117309Y-37988000D01*
X156350698Y-37891327D01*
X156529327Y-37712699D01*
X156587279Y-37572791D01*
X156592843Y-37600765D01*
X156733191Y-37810809D01*
X156943235Y-37951157D01*
X157191000Y-38000440D01*
X158691000Y-38000440D01*
X158704423Y-37997770D01*
X158697000Y-38015690D01*
X158697000Y-38256250D01*
X158855750Y-38415000D01*
X159655000Y-38415000D01*
X159655000Y-38395000D01*
X159909000Y-38395000D01*
X159909000Y-38415000D01*
X160708250Y-38415000D01*
X160793781Y-38329469D01*
X160874191Y-38449809D01*
X161084235Y-38590157D01*
X161295920Y-38632263D01*
X161339146Y-38661146D01*
X161782000Y-38749235D01*
X162224854Y-38661146D01*
X162268080Y-38632263D01*
X162479765Y-38590157D01*
X162689809Y-38449809D01*
X162830157Y-38239765D01*
X162852700Y-38126431D01*
X163273560Y-37705572D01*
X163273560Y-38898000D01*
X163322843Y-39145765D01*
X163463191Y-39355809D01*
X163673235Y-39496157D01*
X163711000Y-39503669D01*
X163711001Y-42042867D01*
X157307536Y-48446333D01*
X157300157Y-48409235D01*
X157159809Y-48199191D01*
X156949765Y-48058843D01*
X156702000Y-48009560D01*
X154702000Y-48009560D01*
X154454235Y-48058843D01*
X154244191Y-48199191D01*
X154103843Y-48409235D01*
X154088801Y-48484856D01*
X152464587Y-48484856D01*
X152442157Y-48372091D01*
X152301809Y-48162047D01*
X152091765Y-48021699D01*
X151844000Y-47972416D01*
X151517000Y-47972416D01*
X151517000Y-47582459D01*
X151589809Y-47533809D01*
X151730157Y-47323765D01*
X151749713Y-47225447D01*
X151759367Y-47211000D01*
X151910217Y-47211000D01*
X152022000Y-47233235D01*
X152133783Y-47211000D01*
X152464855Y-47145146D01*
X152840289Y-46894289D01*
X152903613Y-46799518D01*
X153551692Y-46151440D01*
X154694000Y-46151440D01*
X154941765Y-46102157D01*
X155151809Y-45961809D01*
X155192654Y-45900680D01*
X155334302Y-46042327D01*
X155567691Y-46139000D01*
X156708250Y-46139000D01*
X156867000Y-45980250D01*
X156867000Y-44831000D01*
X157121000Y-44831000D01*
X157121000Y-45980250D01*
X157279750Y-46139000D01*
X158420309Y-46139000D01*
X158653698Y-46042327D01*
X158832327Y-45863699D01*
X158929000Y-45630310D01*
X158929000Y-44989750D01*
X158770250Y-44831000D01*
X157121000Y-44831000D01*
X156867000Y-44831000D01*
X156847000Y-44831000D01*
X156847000Y-44577000D01*
X156867000Y-44577000D01*
X156867000Y-43427750D01*
X157121000Y-43427750D01*
X157121000Y-44577000D01*
X158770250Y-44577000D01*
X158929000Y-44418250D01*
X158929000Y-43777690D01*
X158832327Y-43544301D01*
X158653698Y-43365673D01*
X158420309Y-43269000D01*
X157279750Y-43269000D01*
X157121000Y-43427750D01*
X156867000Y-43427750D01*
X156708250Y-43269000D01*
X155567691Y-43269000D01*
X155334302Y-43365673D01*
X155192654Y-43507320D01*
X155151809Y-43446191D01*
X154941765Y-43305843D01*
X154694000Y-43256560D01*
X152094000Y-43256560D01*
X151846235Y-43305843D01*
X151636191Y-43446191D01*
X151495843Y-43656235D01*
X151446560Y-43904000D01*
X151446560Y-44522474D01*
X151379765Y-44477843D01*
X151132000Y-44428560D01*
X149632000Y-44428560D01*
X149384235Y-44477843D01*
X149232000Y-44579564D01*
X149079765Y-44477843D01*
X148842000Y-44430549D01*
X148842000Y-41423440D01*
X149982000Y-41423440D01*
X150229765Y-41374157D01*
X150439809Y-41233809D01*
X150580157Y-41023765D01*
X150629440Y-40776000D01*
X150629440Y-40765000D01*
X151116199Y-40765000D01*
X152479671Y-42128473D01*
X152522071Y-42191929D01*
X152773463Y-42359904D01*
X152995148Y-42404000D01*
X152995152Y-42404000D01*
X153069999Y-42418888D01*
X153144846Y-42404000D01*
X154416153Y-42404000D01*
X154491000Y-42418888D01*
X154565847Y-42404000D01*
X154565852Y-42404000D01*
X154787537Y-42359904D01*
X155038929Y-42191929D01*
X155081331Y-42128471D01*
X155272362Y-41937440D01*
X156245000Y-41937440D01*
X156492765Y-41888157D01*
X156702809Y-41747809D01*
X156843157Y-41537765D01*
X156848721Y-41509791D01*
X156906673Y-41649699D01*
X157085302Y-41828327D01*
X157318691Y-41925000D01*
X157909250Y-41925000D01*
X158068000Y-41766250D01*
X158068000Y-40767000D01*
X158322000Y-40767000D01*
X158322000Y-41766250D01*
X158480750Y-41925000D01*
X159071309Y-41925000D01*
X159304698Y-41828327D01*
X159483327Y-41649699D01*
X159580000Y-41416310D01*
X159580000Y-40925750D01*
X159421250Y-40767000D01*
X158322000Y-40767000D01*
X158068000Y-40767000D01*
X158048000Y-40767000D01*
X158048000Y-40513000D01*
X158068000Y-40513000D01*
X158068000Y-39513750D01*
X158322000Y-39513750D01*
X158322000Y-40513000D01*
X159421250Y-40513000D01*
X159580000Y-40354250D01*
X159580000Y-39863690D01*
X159483327Y-39630301D01*
X159430026Y-39577000D01*
X159496250Y-39577000D01*
X159655000Y-39418250D01*
X159655000Y-38669000D01*
X159909000Y-38669000D01*
X159909000Y-39418250D01*
X160067750Y-39577000D01*
X160358309Y-39577000D01*
X160591698Y-39480327D01*
X160770327Y-39301699D01*
X160867000Y-39068310D01*
X160867000Y-38827750D01*
X160708250Y-38669000D01*
X159909000Y-38669000D01*
X159655000Y-38669000D01*
X158855750Y-38669000D01*
X158697000Y-38827750D01*
X158697000Y-39068310D01*
X158793673Y-39301699D01*
X158846974Y-39355000D01*
X158480750Y-39355000D01*
X158322000Y-39513750D01*
X158068000Y-39513750D01*
X157909250Y-39355000D01*
X157318691Y-39355000D01*
X157085302Y-39451673D01*
X156906673Y-39630301D01*
X156848721Y-39770209D01*
X156843157Y-39742235D01*
X156702809Y-39532191D01*
X156492765Y-39391843D01*
X156245000Y-39342560D01*
X155098362Y-39342560D01*
X152744552Y-36988750D01*
X153856000Y-36988750D01*
X153856000Y-37479310D01*
X153952673Y-37712699D01*
X154131302Y-37891327D01*
X154364691Y-37988000D01*
X154955250Y-37988000D01*
X155114000Y-37829250D01*
X155114000Y-36830000D01*
X154014750Y-36830000D01*
X153856000Y-36988750D01*
X152744552Y-36988750D01*
X151128000Y-35372199D01*
X151128000Y-33958688D01*
X151172000Y-33967440D01*
G36*
X147702673Y-18573301D02*
X147606000Y-18806690D01*
X147606000Y-19272250D01*
X147764750Y-19431000D01*
X148864000Y-19431000D01*
X148864000Y-19411000D01*
X149118000Y-19411000D01*
X149118000Y-19431000D01*
X149138000Y-19431000D01*
X149138000Y-19685000D01*
X149118000Y-19685000D01*
X149118000Y-20659250D01*
X149276750Y-20818000D01*
X149867309Y-20818000D01*
X150100698Y-20721327D01*
X150242346Y-20579680D01*
X150283191Y-20640809D01*
X150493235Y-20781157D01*
X150722360Y-20826732D01*
X150717470Y-20830000D01*
X150696846Y-20830000D01*
X150621999Y-20815112D01*
X150547152Y-20830000D01*
X150547148Y-20830000D01*
X150325463Y-20874096D01*
X150074071Y-21042071D01*
X150031669Y-21105530D01*
X149883528Y-21253671D01*
X149820072Y-21296071D01*
X149777672Y-21359527D01*
X149777671Y-21359528D01*
X149652097Y-21547463D01*
X149593112Y-21844000D01*
X149608001Y-21918852D01*
X149608000Y-35612153D01*
X149593112Y-35687000D01*
X149608000Y-35761847D01*
X149608000Y-35761851D01*
X149652096Y-35983536D01*
X149820071Y-36234929D01*
X149883530Y-36277331D01*
X154097560Y-40491362D01*
X154097560Y-40884000D01*
X153384802Y-40884000D01*
X152021331Y-39520530D01*
X151978929Y-39457071D01*
X151915470Y-39414669D01*
X151792331Y-39291530D01*
X151749929Y-39228071D01*
X151498537Y-39060096D01*
X151276852Y-39016000D01*
X151276847Y-39016000D01*
X151202000Y-39001112D01*
X151127153Y-39016000D01*
X150629440Y-39016000D01*
X150629440Y-38776000D01*
X150580157Y-38528235D01*
X150439809Y-38318191D01*
X150229765Y-38177843D01*
X149982000Y-38128560D01*
X146182000Y-38128560D01*
X145934235Y-38177843D01*
X145724191Y-38318191D01*
X145583843Y-38528235D01*
X145534560Y-38776000D01*
X145534560Y-39245000D01*
X143330846Y-39245000D01*
X143255999Y-39230112D01*
X143181152Y-39245000D01*
X143181148Y-39245000D01*
X142959463Y-39289096D01*
X142708071Y-39457071D01*
X142665671Y-39520528D01*
X142619000Y-39567198D01*
X142619000Y-36509801D01*
X142935802Y-36193000D01*
X143562153Y-36193000D01*
X143637000Y-36207888D01*
X143711847Y-36193000D01*
X143711852Y-36193000D01*
X143933537Y-36148904D01*
X144184929Y-35980929D01*
X144227331Y-35917470D01*
X145264473Y-34880329D01*
X145327929Y-34837929D01*
X145495904Y-34586537D01*
X145540000Y-34364852D01*
X145540000Y-34364848D01*
X145554888Y-34290001D01*
X145540000Y-34215154D01*
X145540000Y-28395846D01*
X145554888Y-28320999D01*
X145540000Y-28246152D01*
X145540000Y-28246148D01*
X145495904Y-28024463D01*
X145327929Y-27773071D01*
X145264473Y-27730671D01*
X144989331Y-27455529D01*
X144946929Y-27392071D01*
X144695537Y-27224096D01*
X144473852Y-27180000D01*
X144473847Y-27180000D01*
X144399000Y-27165112D01*
X144327814Y-27179272D01*
X144369440Y-26970000D01*
X144369440Y-26370000D01*
X144320157Y-26122235D01*
X144261868Y-26035000D01*
X144320157Y-25947765D01*
X144369440Y-25700000D01*
X144369440Y-25151582D01*
X144467017Y-25192000D01*
X144838983Y-25192000D01*
X145182635Y-25049655D01*
X145445655Y-24786635D01*
X145588000Y-24442983D01*
X145588000Y-24071017D01*
X145445655Y-23727365D01*
X145276790Y-23558500D01*
X145445655Y-23389635D01*
X145588000Y-23045983D01*
X145588000Y-22674017D01*
X145445655Y-22330365D01*
X145182635Y-22067345D01*
X144838983Y-21925000D01*
X144467017Y-21925000D01*
X144353092Y-21972189D01*
X144369440Y-21890000D01*
X144369440Y-21290000D01*
X144320157Y-21042235D01*
X144250535Y-20938039D01*
X144400765Y-20908157D01*
X144610809Y-20767809D01*
X144651654Y-20706680D01*
X144793302Y-20848327D01*
X145026691Y-20945000D01*
X145617250Y-20945000D01*
X145776000Y-20786250D01*
X145776000Y-19812000D01*
X146030000Y-19812000D01*
X146030000Y-20786250D01*
X146188750Y-20945000D01*
X146779309Y-20945000D01*
X147012698Y-20848327D01*
X147191327Y-20669699D01*
X147288000Y-20436310D01*
X147288000Y-19970750D01*
X147161000Y-19843750D01*
X147606000Y-19843750D01*
X147606000Y-20309310D01*
X147702673Y-20542699D01*
X147881302Y-20721327D01*
X148114691Y-20818000D01*
X148705250Y-20818000D01*
X148864000Y-20659250D01*
X148864000Y-19685000D01*
X147764750Y-19685000D01*
X147606000Y-19843750D01*
X147161000Y-19843750D01*
X147129250Y-19812000D01*
X146030000Y-19812000D01*
X145776000Y-19812000D01*
X145756000Y-19812000D01*
X145756000Y-19558000D01*
X145776000Y-19558000D01*
X145776000Y-19538000D01*
X146030000Y-19538000D01*
X146030000Y-19558000D01*
X147129250Y-19558000D01*
X147288000Y-19399250D01*
X147288000Y-18933690D01*
X147246729Y-18834052D01*
X147351157Y-18677765D01*
X147378560Y-18540000D01*
X147735974Y-18540000D01*
X147702673Y-18573301D01*
X147702673Y-18573301D01*
G37*
X147702673Y-18573301D02*
X147606000Y-18806690D01*
X147606000Y-19272250D01*
X147764750Y-19431000D01*
X148864000Y-19431000D01*
X148864000Y-19411000D01*
X149118000Y-19411000D01*
X149118000Y-19431000D01*
X149138000Y-19431000D01*
X149138000Y-19685000D01*
X149118000Y-19685000D01*
X149118000Y-20659250D01*
X149276750Y-20818000D01*
X149867309Y-20818000D01*
X150100698Y-20721327D01*
X150242346Y-20579680D01*
X150283191Y-20640809D01*
X150493235Y-20781157D01*
X150722360Y-20826732D01*
X150717470Y-20830000D01*
X150696846Y-20830000D01*
X150621999Y-20815112D01*
X150547152Y-20830000D01*
X150547148Y-20830000D01*
X150325463Y-20874096D01*
X150074071Y-21042071D01*
X150031669Y-21105530D01*
X149883528Y-21253671D01*
X149820072Y-21296071D01*
X149777672Y-21359527D01*
X149777671Y-21359528D01*
X149652097Y-21547463D01*
X149593112Y-21844000D01*
X149608001Y-21918852D01*
X149608000Y-35612153D01*
X149593112Y-35687000D01*
X149608000Y-35761847D01*
X149608000Y-35761851D01*
X149652096Y-35983536D01*
X149820071Y-36234929D01*
X149883530Y-36277331D01*
X154097560Y-40491362D01*
X154097560Y-40884000D01*
X153384802Y-40884000D01*
X152021331Y-39520530D01*
X151978929Y-39457071D01*
X151915470Y-39414669D01*
X151792331Y-39291530D01*
X151749929Y-39228071D01*
X151498537Y-39060096D01*
X151276852Y-39016000D01*
X151276847Y-39016000D01*
X151202000Y-39001112D01*
X151127153Y-39016000D01*
X150629440Y-39016000D01*
X150629440Y-38776000D01*
X150580157Y-38528235D01*
X150439809Y-38318191D01*
X150229765Y-38177843D01*
X149982000Y-38128560D01*
X146182000Y-38128560D01*
X145934235Y-38177843D01*
X145724191Y-38318191D01*
X145583843Y-38528235D01*
X145534560Y-38776000D01*
X145534560Y-39245000D01*
X143330846Y-39245000D01*
X143255999Y-39230112D01*
X143181152Y-39245000D01*
X143181148Y-39245000D01*
X142959463Y-39289096D01*
X142708071Y-39457071D01*
X142665671Y-39520528D01*
X142619000Y-39567198D01*
X142619000Y-36509801D01*
X142935802Y-36193000D01*
X143562153Y-36193000D01*
X143637000Y-36207888D01*
X143711847Y-36193000D01*
X143711852Y-36193000D01*
X143933537Y-36148904D01*
X144184929Y-35980929D01*
X144227331Y-35917470D01*
X145264473Y-34880329D01*
X145327929Y-34837929D01*
X145495904Y-34586537D01*
X145540000Y-34364852D01*
X145540000Y-34364848D01*
X145554888Y-34290001D01*
X145540000Y-34215154D01*
X145540000Y-28395846D01*
X145554888Y-28320999D01*
X145540000Y-28246152D01*
X145540000Y-28246148D01*
X145495904Y-28024463D01*
X145327929Y-27773071D01*
X145264473Y-27730671D01*
X144989331Y-27455529D01*
X144946929Y-27392071D01*
X144695537Y-27224096D01*
X144473852Y-27180000D01*
X144473847Y-27180000D01*
X144399000Y-27165112D01*
X144327814Y-27179272D01*
X144369440Y-26970000D01*
X144369440Y-26370000D01*
X144320157Y-26122235D01*
X144261868Y-26035000D01*
X144320157Y-25947765D01*
X144369440Y-25700000D01*
X144369440Y-25151582D01*
X144467017Y-25192000D01*
X144838983Y-25192000D01*
X145182635Y-25049655D01*
X145445655Y-24786635D01*
X145588000Y-24442983D01*
X145588000Y-24071017D01*
X145445655Y-23727365D01*
X145276790Y-23558500D01*
X145445655Y-23389635D01*
X145588000Y-23045983D01*
X145588000Y-22674017D01*
X145445655Y-22330365D01*
X145182635Y-22067345D01*
X144838983Y-21925000D01*
X144467017Y-21925000D01*
X144353092Y-21972189D01*
X144369440Y-21890000D01*
X144369440Y-21290000D01*
X144320157Y-21042235D01*
X144250535Y-20938039D01*
X144400765Y-20908157D01*
X144610809Y-20767809D01*
X144651654Y-20706680D01*
X144793302Y-20848327D01*
X145026691Y-20945000D01*
X145617250Y-20945000D01*
X145776000Y-20786250D01*
X145776000Y-19812000D01*
X146030000Y-19812000D01*
X146030000Y-20786250D01*
X146188750Y-20945000D01*
X146779309Y-20945000D01*
X147012698Y-20848327D01*
X147191327Y-20669699D01*
X147288000Y-20436310D01*
X147288000Y-19970750D01*
X147161000Y-19843750D01*
X147606000Y-19843750D01*
X147606000Y-20309310D01*
X147702673Y-20542699D01*
X147881302Y-20721327D01*
X148114691Y-20818000D01*
X148705250Y-20818000D01*
X148864000Y-20659250D01*
X148864000Y-19685000D01*
X147764750Y-19685000D01*
X147606000Y-19843750D01*
X147161000Y-19843750D01*
X147129250Y-19812000D01*
X146030000Y-19812000D01*
X145776000Y-19812000D01*
X145756000Y-19812000D01*
X145756000Y-19558000D01*
X145776000Y-19558000D01*
X145776000Y-19538000D01*
X146030000Y-19538000D01*
X146030000Y-19558000D01*
X147129250Y-19558000D01*
X147288000Y-19399250D01*
X147288000Y-18933690D01*
X147246729Y-18834052D01*
X147351157Y-18677765D01*
X147378560Y-18540000D01*
X147735974Y-18540000D01*
X147702673Y-18573301D01*
G36*
X155368000Y-29464000D02*
X155388000Y-29464000D01*
X155388000Y-29718000D01*
X155368000Y-29718000D01*
X155368000Y-30717250D01*
X155526750Y-30876000D01*
X156026415Y-30876000D01*
X156043072Y-30900929D01*
X156106528Y-30943329D01*
X157042330Y-31879132D01*
X156943235Y-31898843D01*
X156733191Y-32039191D01*
X156592843Y-32249235D01*
X156587279Y-32277209D01*
X156529327Y-32137301D01*
X156350698Y-31958673D01*
X156117309Y-31862000D01*
X155526750Y-31862000D01*
X155368000Y-32020750D01*
X155368000Y-33020000D01*
X155388000Y-33020000D01*
X155388000Y-33274000D01*
X155368000Y-33274000D01*
X155368000Y-34273250D01*
X155526750Y-34432000D01*
X156117309Y-34432000D01*
X156350698Y-34335327D01*
X156529327Y-34156699D01*
X156587279Y-34016791D01*
X156592843Y-34044765D01*
X156733191Y-34254809D01*
X156943235Y-34395157D01*
X157191000Y-34444440D01*
X158691000Y-34444440D01*
X158704423Y-34441770D01*
X158697000Y-34459690D01*
X158697000Y-34700250D01*
X158855750Y-34859000D01*
X159655000Y-34859000D01*
X159655000Y-34839000D01*
X159909000Y-34839000D01*
X159909000Y-34859000D01*
X160708250Y-34859000D01*
X160793781Y-34773469D01*
X160874191Y-34893809D01*
X161084235Y-35034157D01*
X161332000Y-35083440D01*
X162084661Y-35083440D01*
X162117146Y-35105146D01*
X162560000Y-35193235D01*
X163002854Y-35105146D01*
X163283523Y-34917608D01*
X163461056Y-34740076D01*
X163286000Y-35162697D01*
X163286000Y-35187000D01*
X163163782Y-35187000D01*
X163051999Y-35164765D01*
X162609145Y-35252854D01*
X162233711Y-35503711D01*
X162170389Y-35598479D01*
X161197569Y-36571300D01*
X161084235Y-36593843D01*
X160879440Y-36730684D01*
X160879440Y-36242000D01*
X160830157Y-35994235D01*
X160706642Y-35809383D01*
X160770327Y-35745699D01*
X160867000Y-35512310D01*
X160867000Y-35271750D01*
X160708250Y-35113000D01*
X159909000Y-35113000D01*
X159909000Y-35133000D01*
X159655000Y-35133000D01*
X159655000Y-35113000D01*
X158855750Y-35113000D01*
X158697000Y-35271750D01*
X158697000Y-35406753D01*
X158694663Y-35406289D01*
X158656904Y-35216463D01*
X158488929Y-34965071D01*
X158425470Y-34922669D01*
X158324331Y-34821530D01*
X158281929Y-34758071D01*
X158030537Y-34590096D01*
X157808852Y-34546000D01*
X157808847Y-34546000D01*
X157734000Y-34531112D01*
X157659153Y-34546000D01*
X154746802Y-34546000D01*
X154684000Y-34483198D01*
X154684000Y-34432000D01*
X154955250Y-34432000D01*
X155114000Y-34273250D01*
X155114000Y-33274000D01*
X155094000Y-33274000D01*
X155094000Y-33020000D01*
X155114000Y-33020000D01*
X155114000Y-32020750D01*
X154955250Y-31862000D01*
X154684000Y-31862000D01*
X154684000Y-30876000D01*
X154955250Y-30876000D01*
X155114000Y-30717250D01*
X155114000Y-29718000D01*
X155094000Y-29718000D01*
X155094000Y-29464000D01*
X155114000Y-29464000D01*
X155114000Y-29444000D01*
X155368000Y-29444000D01*
X155368000Y-29464000D01*
X155368000Y-29464000D01*
G37*
X155368000Y-29464000D02*
X155388000Y-29464000D01*
X155388000Y-29718000D01*
X155368000Y-29718000D01*
X155368000Y-30717250D01*
X155526750Y-30876000D01*
X156026415Y-30876000D01*
X156043072Y-30900929D01*
X156106528Y-30943329D01*
X157042330Y-31879132D01*
X156943235Y-31898843D01*
X156733191Y-32039191D01*
X156592843Y-32249235D01*
X156587279Y-32277209D01*
X156529327Y-32137301D01*
X156350698Y-31958673D01*
X156117309Y-31862000D01*
X155526750Y-31862000D01*
X155368000Y-32020750D01*
X155368000Y-33020000D01*
X155388000Y-33020000D01*
X155388000Y-33274000D01*
X155368000Y-33274000D01*
X155368000Y-34273250D01*
X155526750Y-34432000D01*
X156117309Y-34432000D01*
X156350698Y-34335327D01*
X156529327Y-34156699D01*
X156587279Y-34016791D01*
X156592843Y-34044765D01*
X156733191Y-34254809D01*
X156943235Y-34395157D01*
X157191000Y-34444440D01*
X158691000Y-34444440D01*
X158704423Y-34441770D01*
X158697000Y-34459690D01*
X158697000Y-34700250D01*
X158855750Y-34859000D01*
X159655000Y-34859000D01*
X159655000Y-34839000D01*
X159909000Y-34839000D01*
X159909000Y-34859000D01*
X160708250Y-34859000D01*
X160793781Y-34773469D01*
X160874191Y-34893809D01*
X161084235Y-35034157D01*
X161332000Y-35083440D01*
X162084661Y-35083440D01*
X162117146Y-35105146D01*
X162560000Y-35193235D01*
X163002854Y-35105146D01*
X163283523Y-34917608D01*
X163461056Y-34740076D01*
X163286000Y-35162697D01*
X163286000Y-35187000D01*
X163163782Y-35187000D01*
X163051999Y-35164765D01*
X162609145Y-35252854D01*
X162233711Y-35503711D01*
X162170389Y-35598479D01*
X161197569Y-36571300D01*
X161084235Y-36593843D01*
X160879440Y-36730684D01*
X160879440Y-36242000D01*
X160830157Y-35994235D01*
X160706642Y-35809383D01*
X160770327Y-35745699D01*
X160867000Y-35512310D01*
X160867000Y-35271750D01*
X160708250Y-35113000D01*
X159909000Y-35113000D01*
X159909000Y-35133000D01*
X159655000Y-35133000D01*
X159655000Y-35113000D01*
X158855750Y-35113000D01*
X158697000Y-35271750D01*
X158697000Y-35406753D01*
X158694663Y-35406289D01*
X158656904Y-35216463D01*
X158488929Y-34965071D01*
X158425470Y-34922669D01*
X158324331Y-34821530D01*
X158281929Y-34758071D01*
X158030537Y-34590096D01*
X157808852Y-34546000D01*
X157808847Y-34546000D01*
X157734000Y-34531112D01*
X157659153Y-34546000D01*
X154746802Y-34546000D01*
X154684000Y-34483198D01*
X154684000Y-34432000D01*
X154955250Y-34432000D01*
X155114000Y-34273250D01*
X155114000Y-33274000D01*
X155094000Y-33274000D01*
X155094000Y-33020000D01*
X155114000Y-33020000D01*
X155114000Y-32020750D01*
X154955250Y-31862000D01*
X154684000Y-31862000D01*
X154684000Y-30876000D01*
X154955250Y-30876000D01*
X155114000Y-30717250D01*
X155114000Y-29718000D01*
X155094000Y-29718000D01*
X155094000Y-29464000D01*
X155114000Y-29464000D01*
X155114000Y-29444000D01*
X155368000Y-29444000D01*
X155368000Y-29464000D01*
G36*
X158697000Y-30903690D02*
X158697000Y-31144250D01*
X158855750Y-31303000D01*
X159655000Y-31303000D01*
X159655000Y-31283000D01*
X159909000Y-31283000D01*
X159909000Y-31303000D01*
X160708250Y-31303000D01*
X160793781Y-31217469D01*
X160874191Y-31337809D01*
X161084235Y-31478157D01*
X161295919Y-31520263D01*
X161339145Y-31549146D01*
X161670217Y-31615000D01*
X163781827Y-31615000D01*
X163889827Y-31723000D01*
X163774827Y-31838000D01*
X163734782Y-31838000D01*
X163622999Y-31815765D01*
X163390560Y-31862000D01*
X163180145Y-31903854D01*
X162804711Y-32154711D01*
X162741389Y-32249479D01*
X162002309Y-32988560D01*
X161332000Y-32988560D01*
X161084235Y-33037843D01*
X160879440Y-33174684D01*
X160879440Y-32686000D01*
X160830157Y-32438235D01*
X160706642Y-32253383D01*
X160770327Y-32189699D01*
X160867000Y-31956310D01*
X160867000Y-31715750D01*
X160708250Y-31557000D01*
X159909000Y-31557000D01*
X159909000Y-31577000D01*
X159655000Y-31577000D01*
X159655000Y-31557000D01*
X158855750Y-31557000D01*
X158714870Y-31697880D01*
X158701000Y-31628152D01*
X158701000Y-31628148D01*
X158656904Y-31406463D01*
X158587772Y-31303000D01*
X158531329Y-31218526D01*
X158531327Y-31218524D01*
X158488929Y-31155071D01*
X158425476Y-31112673D01*
X158201243Y-30888440D01*
X158691000Y-30888440D01*
X158704423Y-30885770D01*
X158697000Y-30903690D01*
X158697000Y-30903690D01*
G37*
X158697000Y-30903690D02*
X158697000Y-31144250D01*
X158855750Y-31303000D01*
X159655000Y-31303000D01*
X159655000Y-31283000D01*
X159909000Y-31283000D01*
X159909000Y-31303000D01*
X160708250Y-31303000D01*
X160793781Y-31217469D01*
X160874191Y-31337809D01*
X161084235Y-31478157D01*
X161295919Y-31520263D01*
X161339145Y-31549146D01*
X161670217Y-31615000D01*
X163781827Y-31615000D01*
X163889827Y-31723000D01*
X163774827Y-31838000D01*
X163734782Y-31838000D01*
X163622999Y-31815765D01*
X163390560Y-31862000D01*
X163180145Y-31903854D01*
X162804711Y-32154711D01*
X162741389Y-32249479D01*
X162002309Y-32988560D01*
X161332000Y-32988560D01*
X161084235Y-33037843D01*
X160879440Y-33174684D01*
X160879440Y-32686000D01*
X160830157Y-32438235D01*
X160706642Y-32253383D01*
X160770327Y-32189699D01*
X160867000Y-31956310D01*
X160867000Y-31715750D01*
X160708250Y-31557000D01*
X159909000Y-31557000D01*
X159909000Y-31577000D01*
X159655000Y-31577000D01*
X159655000Y-31557000D01*
X158855750Y-31557000D01*
X158714870Y-31697880D01*
X158701000Y-31628152D01*
X158701000Y-31628148D01*
X158656904Y-31406463D01*
X158587772Y-31303000D01*
X158531329Y-31218526D01*
X158531327Y-31218524D01*
X158488929Y-31155071D01*
X158425476Y-31112673D01*
X158201243Y-30888440D01*
X158691000Y-30888440D01*
X158704423Y-30885770D01*
X158697000Y-30903690D01*
G04 #@! TD*
M02*
