G04 #@! TF.FileFunction,Copper,L1,Top,Signal*
%FSLAX46Y46*%
G04 Gerber Fmt 4.6, Leading zero omitted, Abs format (unit mm)*
G04 Created by KiCad (PCBNEW 4.0.7) date 01/29/18 16:59:17*
%MOMM*%
%LPD*%
G01*
G04 APERTURE LIST*
%ADD10C,0.100000*%
%ADD11R,2.000000X2.000000*%
%ADD12C,2.000000*%
%ADD13R,1.600000X1.600000*%
%ADD14C,1.600000*%
%ADD15O,2.000000X2.000000*%
%ADD16R,1.850000X1.850000*%
%ADD17C,1.850000*%
%ADD18R,1.727200X1.727200*%
%ADD19O,1.727200X1.727200*%
%ADD20R,0.900000X0.800000*%
%ADD21R,1.950000X0.600000*%
%ADD22R,0.550000X1.750000*%
%ADD23R,1.250000X1.500000*%
%ADD24R,1.500000X1.250000*%
%ADD25R,1.300000X1.500000*%
%ADD26R,1.500000X1.300000*%
%ADD27R,5.100000X5.400000*%
%ADD28R,1.000000X0.900000*%
%ADD29R,5.600000X7.175000*%
%ADD30C,0.600000*%
%ADD31C,0.250000*%
%ADD32C,1.000000*%
%ADD33C,0.254000*%
G04 APERTURE END LIST*
D10*
D11*
X148844000Y-50292000D03*
D12*
X148844000Y-55292000D03*
D11*
X150844000Y-49619856D03*
D12*
X146844000Y-55964144D03*
D13*
X157353000Y-45847000D03*
D14*
X157353000Y-43347000D03*
D15*
X160782000Y-49657000D03*
X155702000Y-54737000D03*
X160782000Y-54737000D03*
D11*
X155702000Y-49657000D03*
D16*
X165354000Y-50673000D03*
D17*
X165354000Y-53173000D03*
D18*
X128016000Y-41529000D03*
D19*
X125476000Y-41529000D03*
X128016000Y-38989000D03*
X125476000Y-38989000D03*
X128016000Y-36449000D03*
X125476000Y-36449000D03*
X128016000Y-33909000D03*
X125476000Y-33909000D03*
D18*
X162306000Y-23114000D03*
D19*
X162306000Y-20574000D03*
X164846000Y-23114000D03*
X164846000Y-20574000D03*
X167386000Y-23114000D03*
X167386000Y-20574000D03*
D16*
X131191000Y-56007000D03*
D17*
X131191000Y-53507000D03*
X131191000Y-51007000D03*
D16*
X164846000Y-37973000D03*
D17*
X164846000Y-35473000D03*
X164846000Y-32973000D03*
X164846000Y-30473000D03*
D16*
X170053000Y-37973000D03*
D17*
X170053000Y-35473000D03*
X170053000Y-32973000D03*
X170053000Y-30473000D03*
D20*
X159782000Y-36642000D03*
X159782000Y-38542000D03*
X161782000Y-37592000D03*
X159782000Y-33086000D03*
X159782000Y-34986000D03*
X161782000Y-34036000D03*
X159782000Y-29530000D03*
X159782000Y-31430000D03*
X161782000Y-30480000D03*
D21*
X142747000Y-21590000D03*
X142747000Y-22860000D03*
X142747000Y-24130000D03*
X142747000Y-25400000D03*
X142747000Y-26670000D03*
X142747000Y-27940000D03*
X142747000Y-29210000D03*
X142747000Y-30480000D03*
X142747000Y-31750000D03*
X142747000Y-33020000D03*
X152147000Y-33020000D03*
X152147000Y-31750000D03*
X152147000Y-30480000D03*
X152147000Y-29210000D03*
X152147000Y-27940000D03*
X152147000Y-26670000D03*
X152147000Y-25400000D03*
X152147000Y-24130000D03*
X152147000Y-22860000D03*
X152147000Y-21590000D03*
D22*
X135890000Y-57040000D03*
X137160000Y-57040000D03*
X138430000Y-57040000D03*
X139700000Y-57040000D03*
X139700000Y-49640000D03*
X138430000Y-49640000D03*
X137160000Y-49640000D03*
X135890000Y-49640000D03*
D23*
X133858000Y-23388000D03*
X133858000Y-25888000D03*
X133858000Y-31984000D03*
X133858000Y-29484000D03*
D24*
X143403000Y-19685000D03*
X145903000Y-19685000D03*
X151491000Y-19558000D03*
X148991000Y-19558000D03*
D25*
X138430000Y-41322000D03*
X138430000Y-44022000D03*
X135890000Y-41322000D03*
X135890000Y-44022000D03*
D26*
X146003000Y-17780000D03*
X143303000Y-17780000D03*
D25*
X133985000Y-44022000D03*
X133985000Y-41322000D03*
X140335000Y-44022000D03*
X140335000Y-41322000D03*
D26*
X155241000Y-36703000D03*
X157941000Y-36703000D03*
D27*
X146170000Y-43944000D03*
D28*
X153070000Y-46244000D03*
X153070000Y-41644000D03*
D26*
X155495000Y-40640000D03*
X158195000Y-40640000D03*
X135937000Y-47498000D03*
X138637000Y-47498000D03*
X155241000Y-33147000D03*
X157941000Y-33147000D03*
X155241000Y-29591000D03*
X157941000Y-29591000D03*
D29*
X137922000Y-20598500D03*
X137922000Y-34773500D03*
D30*
X147447000Y-19558000D03*
X142748000Y-34290000D03*
X158369000Y-34798000D03*
X158623000Y-31115000D03*
X156083000Y-31242000D03*
X141732000Y-17780000D03*
X139700000Y-53721000D03*
X144653000Y-24257000D03*
X135890000Y-55118000D03*
X144653000Y-22860000D03*
X138430000Y-54864000D03*
X141859000Y-43053000D03*
D31*
X142747000Y-25400000D02*
X140843000Y-25400000D01*
X140843000Y-25400000D02*
X137922000Y-22479000D01*
X137922000Y-22479000D02*
X137922000Y-20598500D01*
X133858000Y-23388000D02*
X135132500Y-23388000D01*
X135132500Y-23388000D02*
X137922000Y-20598500D01*
X142747000Y-33020000D02*
X142747000Y-34289000D01*
X142747000Y-34289000D02*
X142748000Y-34290000D01*
X159782000Y-34986000D02*
X158557000Y-34986000D01*
X158557000Y-34986000D02*
X158369000Y-34798000D01*
X159782000Y-31430000D02*
X158938000Y-31430000D01*
X158938000Y-31430000D02*
X158623000Y-31115000D01*
X156083000Y-31115000D02*
X156083000Y-31242000D01*
X155241000Y-32084000D02*
X156083000Y-31242000D01*
X156083000Y-31242000D02*
X156083000Y-31115000D01*
X155241000Y-33147000D02*
X155241000Y-32084000D01*
X155241000Y-33147000D02*
X155241000Y-29591000D01*
X142747000Y-26670000D02*
X140716000Y-26670000D01*
X137922000Y-29464000D02*
X137922000Y-34773500D01*
X140716000Y-26670000D02*
X137922000Y-29464000D01*
X133858000Y-31984000D02*
X135132500Y-31984000D01*
X135132500Y-31984000D02*
X137922000Y-34773500D01*
X143303000Y-17780000D02*
X141732000Y-17780000D01*
X142747000Y-21590000D02*
X142747000Y-20341000D01*
X142747000Y-20341000D02*
X143403000Y-19685000D01*
X143303000Y-17780000D02*
X143303000Y-19585000D01*
X143303000Y-19585000D02*
X143403000Y-19685000D01*
X140335000Y-44022000D02*
X142160000Y-44022000D01*
X151431000Y-40005000D02*
X153070000Y-41644000D01*
X143256000Y-40005000D02*
X151431000Y-40005000D01*
X142875000Y-40386000D02*
X143256000Y-40005000D01*
X142875000Y-43307000D02*
X142875000Y-40386000D01*
X142160000Y-44022000D02*
X142875000Y-43307000D01*
X155495000Y-40640000D02*
X155321000Y-40640000D01*
X155321000Y-40640000D02*
X150368000Y-35687000D01*
X150622000Y-21590000D02*
X152147000Y-21590000D01*
X150368000Y-21844000D02*
X150622000Y-21590000D01*
X150368000Y-35687000D02*
X150368000Y-21844000D01*
X125476000Y-41529000D02*
X125476000Y-42164000D01*
X125476000Y-42164000D02*
X127334000Y-44022000D01*
X127334000Y-44022000D02*
X133985000Y-44022000D01*
X138430000Y-44022000D02*
X135890000Y-44022000D01*
X135890000Y-44022000D02*
X140335000Y-44022000D01*
X133985000Y-44022000D02*
X135890000Y-44022000D01*
X135937000Y-47498000D02*
X135937000Y-44069000D01*
X135937000Y-44069000D02*
X135890000Y-44022000D01*
X135937000Y-47498000D02*
X135937000Y-49593000D01*
X135937000Y-49593000D02*
X135890000Y-49640000D01*
X153070000Y-41644000D02*
X154491000Y-41644000D01*
X154491000Y-41644000D02*
X155495000Y-40640000D01*
X152147000Y-21590000D02*
X158877000Y-21590000D01*
X159893000Y-20574000D02*
X162306000Y-20574000D01*
X158877000Y-21590000D02*
X159893000Y-20574000D01*
X151491000Y-19558000D02*
X151491000Y-20934000D01*
X151491000Y-20934000D02*
X152147000Y-21590000D01*
X146003000Y-17780000D02*
X149713000Y-17780000D01*
X149713000Y-17780000D02*
X151491000Y-19558000D01*
X153070000Y-46244000D02*
X156956000Y-46244000D01*
X156956000Y-46244000D02*
X157353000Y-45847000D01*
D32*
X157353000Y-45847000D02*
X163068000Y-45847000D01*
X164846000Y-44069000D02*
X164846000Y-37973000D01*
X163068000Y-45847000D02*
X164846000Y-44069000D01*
X170053000Y-37973000D02*
X164846000Y-37973000D01*
X150844000Y-49619856D02*
X155664856Y-49619856D01*
D31*
X155664856Y-49619856D02*
X155702000Y-49657000D01*
D32*
X155702000Y-49657000D02*
X155702000Y-47498000D01*
X155702000Y-47498000D02*
X157353000Y-45847000D01*
X160782000Y-49657000D02*
X164338000Y-49657000D01*
X164338000Y-49657000D02*
X165354000Y-50673000D01*
D31*
X155702000Y-54737000D02*
X156083000Y-54737000D01*
D32*
X156083000Y-54737000D02*
X158369000Y-52451000D01*
X158369000Y-52451000D02*
X164632000Y-52451000D01*
X164632000Y-52451000D02*
X165354000Y-53173000D01*
D31*
X139700000Y-53721000D02*
X139700000Y-57040000D01*
X142747000Y-24130000D02*
X144526000Y-24130000D01*
X144526000Y-24130000D02*
X144653000Y-24257000D01*
X135890000Y-41322000D02*
X135890000Y-40767000D01*
X135890000Y-40767000D02*
X134931998Y-39808998D01*
X134931998Y-39808998D02*
X128835998Y-39808998D01*
X128835998Y-39808998D02*
X128016000Y-38989000D01*
X133985000Y-41322000D02*
X133985000Y-40894000D01*
X133985000Y-40894000D02*
X133350000Y-40259000D01*
X133350000Y-40259000D02*
X126746000Y-40259000D01*
X126746000Y-40259000D02*
X125476000Y-38989000D01*
X138430000Y-41322000D02*
X138430000Y-41021000D01*
X138430000Y-41021000D02*
X136767996Y-39358996D01*
X136767996Y-39358996D02*
X130290996Y-39358996D01*
X130290996Y-39358996D02*
X128016000Y-37084000D01*
X128016000Y-37084000D02*
X128016000Y-36449000D01*
X140335000Y-41322000D02*
X140335000Y-41148000D01*
X140335000Y-41148000D02*
X138095994Y-38908994D01*
X138095994Y-38908994D02*
X132888994Y-38908994D01*
X132888994Y-38908994D02*
X129159000Y-35179000D01*
X129159000Y-35179000D02*
X126746000Y-35179000D01*
X126746000Y-35179000D02*
X125476000Y-36449000D01*
X135890000Y-55118000D02*
X135890000Y-57040000D01*
X142747000Y-22860000D02*
X144653000Y-22860000D01*
X152147000Y-24130000D02*
X161290000Y-24130000D01*
X161290000Y-24130000D02*
X162306000Y-23114000D01*
X152147000Y-22860000D02*
X159385000Y-22860000D01*
X163576000Y-21844000D02*
X164846000Y-23114000D01*
X160401000Y-21844000D02*
X163576000Y-21844000D01*
X159385000Y-22860000D02*
X160401000Y-21844000D01*
X152147000Y-25400000D02*
X165608000Y-25400000D01*
X166116000Y-21844000D02*
X164846000Y-20574000D01*
X166116000Y-24892000D02*
X166116000Y-21844000D01*
X165608000Y-25400000D02*
X166116000Y-24892000D01*
X131191000Y-56007000D02*
X129540000Y-54356000D01*
X137160000Y-50673000D02*
X137160000Y-49640000D01*
X136652000Y-51181000D02*
X137160000Y-50673000D01*
X133477000Y-51181000D02*
X136652000Y-51181000D01*
X131699000Y-49403000D02*
X133477000Y-51181000D01*
X130302000Y-49403000D02*
X131699000Y-49403000D01*
X130048000Y-49657000D02*
X130302000Y-49403000D01*
X129540000Y-50165000D02*
X130048000Y-49657000D01*
X129540000Y-52959000D02*
X129540000Y-50165000D01*
X129540000Y-54356000D02*
X129540000Y-52959000D01*
X131191000Y-53507000D02*
X132421000Y-53507000D01*
X138430000Y-51562000D02*
X138430000Y-49640000D01*
X138303000Y-51689000D02*
X138430000Y-51562000D01*
X134239000Y-51689000D02*
X138303000Y-51689000D01*
X132421000Y-53507000D02*
X134239000Y-51689000D01*
D32*
X170053000Y-35473000D02*
X164846000Y-35473000D01*
X164846000Y-35473000D02*
X163997000Y-36322000D01*
X163997000Y-36322000D02*
X163052000Y-36322000D01*
X163052000Y-36322000D02*
X161782000Y-37592000D01*
X170053000Y-32973000D02*
X164846000Y-32973000D01*
D31*
X161782000Y-34036000D02*
X162560000Y-34036000D01*
D32*
X163623000Y-32973000D02*
X164846000Y-32973000D01*
X162560000Y-34036000D02*
X163623000Y-32973000D01*
X161782000Y-30480000D02*
X164839000Y-30480000D01*
D31*
X164839000Y-30480000D02*
X164846000Y-30473000D01*
D32*
X164846000Y-30473000D02*
X170053000Y-30473000D01*
D31*
X152147000Y-29210000D02*
X153543000Y-29210000D01*
X157941000Y-35513000D02*
X157941000Y-36703000D01*
X157734000Y-35306000D02*
X157941000Y-35513000D01*
X154432000Y-35306000D02*
X157734000Y-35306000D01*
X153924000Y-34798000D02*
X154432000Y-35306000D01*
X153924000Y-29591000D02*
X153924000Y-34798000D01*
X153543000Y-29210000D02*
X153924000Y-29591000D01*
X157941000Y-36703000D02*
X159721000Y-36703000D01*
X159721000Y-36703000D02*
X159782000Y-36642000D01*
X159467000Y-36957000D02*
X159782000Y-36642000D01*
X152147000Y-27940000D02*
X156210000Y-27940000D01*
X157941000Y-31703000D02*
X157941000Y-33147000D01*
X156591000Y-30353000D02*
X157941000Y-31703000D01*
X156591000Y-28321000D02*
X156591000Y-30353000D01*
X156210000Y-27940000D02*
X156591000Y-28321000D01*
X157941000Y-33147000D02*
X159721000Y-33147000D01*
X159721000Y-33147000D02*
X159782000Y-33086000D01*
X159467000Y-33401000D02*
X159782000Y-33086000D01*
X159782000Y-29530000D02*
X158002000Y-29530000D01*
X158002000Y-29530000D02*
X157941000Y-29591000D01*
X152147000Y-26670000D02*
X156464000Y-26670000D01*
X157941000Y-28147000D02*
X157941000Y-29591000D01*
X156464000Y-26670000D02*
X157941000Y-28147000D01*
X159467000Y-29845000D02*
X159782000Y-29530000D01*
X142747000Y-27940000D02*
X144399000Y-27940000D01*
X138430000Y-54864000D02*
X138430000Y-57040000D01*
X141859000Y-36195000D02*
X141859000Y-43053000D01*
X142621000Y-35433000D02*
X141859000Y-36195000D01*
X143637000Y-35433000D02*
X142621000Y-35433000D01*
X144780000Y-34290000D02*
X143637000Y-35433000D01*
X144780000Y-28321000D02*
X144780000Y-34290000D01*
X144399000Y-27940000D02*
X144780000Y-28321000D01*
X137160000Y-57040000D02*
X138430000Y-57040000D01*
D33*
G36*
X134474560Y-21990560D02*
X133233000Y-21990560D01*
X132997683Y-22034838D01*
X132781559Y-22173910D01*
X132636569Y-22386110D01*
X132585560Y-22638000D01*
X132585560Y-24138000D01*
X132629838Y-24373317D01*
X132768910Y-24589441D01*
X132837006Y-24635969D01*
X132694673Y-24778302D01*
X132598000Y-25011691D01*
X132598000Y-25602250D01*
X132756750Y-25761000D01*
X133731000Y-25761000D01*
X133731000Y-25741000D01*
X133985000Y-25741000D01*
X133985000Y-25761000D01*
X134959250Y-25761000D01*
X135118000Y-25602250D01*
X135118000Y-25011691D01*
X135037039Y-24816235D01*
X135122000Y-24833440D01*
X139201638Y-24833440D01*
X140305599Y-25937401D01*
X140388167Y-25992571D01*
X140178599Y-26132599D01*
X137384599Y-28926599D01*
X137219852Y-29173161D01*
X137162000Y-29464000D01*
X137162000Y-30538560D01*
X135122000Y-30538560D01*
X135037587Y-30554443D01*
X135118000Y-30360309D01*
X135118000Y-29769750D01*
X134959250Y-29611000D01*
X133985000Y-29611000D01*
X133985000Y-29631000D01*
X133731000Y-29631000D01*
X133731000Y-29611000D01*
X132756750Y-29611000D01*
X132598000Y-29769750D01*
X132598000Y-30360309D01*
X132694673Y-30593698D01*
X132835910Y-30734936D01*
X132781559Y-30769910D01*
X132636569Y-30982110D01*
X132585560Y-31234000D01*
X132585560Y-32734000D01*
X132629838Y-32969317D01*
X132768910Y-33185441D01*
X132981110Y-33330431D01*
X133233000Y-33381440D01*
X134474560Y-33381440D01*
X134474560Y-38148994D01*
X133203796Y-38148994D01*
X129696401Y-34641599D01*
X129449839Y-34476852D01*
X129379641Y-34462889D01*
X129470968Y-34268027D01*
X129350469Y-34036000D01*
X128143000Y-34036000D01*
X128143000Y-34056000D01*
X127889000Y-34056000D01*
X127889000Y-34036000D01*
X127869000Y-34036000D01*
X127869000Y-33782000D01*
X127889000Y-33782000D01*
X127889000Y-32575183D01*
X128143000Y-32575183D01*
X128143000Y-33782000D01*
X129350469Y-33782000D01*
X129470968Y-33549973D01*
X129222821Y-33020510D01*
X128790947Y-32626312D01*
X128375026Y-32454042D01*
X128143000Y-32575183D01*
X127889000Y-32575183D01*
X127656974Y-32454042D01*
X127241053Y-32626312D01*
X126809179Y-33020510D01*
X126751664Y-33143228D01*
X126535670Y-32819971D01*
X126049489Y-32495115D01*
X125476000Y-32381041D01*
X124902511Y-32495115D01*
X124416330Y-32819971D01*
X124091474Y-33306152D01*
X123977400Y-33879641D01*
X123977400Y-33938359D01*
X124091474Y-34511848D01*
X124416330Y-34998029D01*
X124687172Y-35179000D01*
X124416330Y-35359971D01*
X124091474Y-35846152D01*
X123977400Y-36419641D01*
X123977400Y-36478359D01*
X124091474Y-37051848D01*
X124416330Y-37538029D01*
X124687172Y-37719000D01*
X124416330Y-37899971D01*
X124091474Y-38386152D01*
X123977400Y-38959641D01*
X123977400Y-39018359D01*
X124091474Y-39591848D01*
X124416330Y-40078029D01*
X124687172Y-40259000D01*
X124416330Y-40439971D01*
X124091474Y-40926152D01*
X123977400Y-41499641D01*
X123977400Y-41558359D01*
X124091474Y-42131848D01*
X124416330Y-42618029D01*
X124902511Y-42942885D01*
X125249005Y-43011807D01*
X126796599Y-44559401D01*
X127043161Y-44724148D01*
X127334000Y-44782000D01*
X132689442Y-44782000D01*
X132731838Y-45007317D01*
X132870910Y-45223441D01*
X133083110Y-45368431D01*
X133335000Y-45419440D01*
X134635000Y-45419440D01*
X134870317Y-45375162D01*
X134936053Y-45332862D01*
X134988110Y-45368431D01*
X135177000Y-45406682D01*
X135177000Y-46202442D01*
X134951683Y-46244838D01*
X134735559Y-46383910D01*
X134590569Y-46596110D01*
X134539560Y-46848000D01*
X134539560Y-48148000D01*
X134583838Y-48383317D01*
X134722910Y-48599441D01*
X134935110Y-48744431D01*
X134970283Y-48751554D01*
X134967560Y-48765000D01*
X134967560Y-50421000D01*
X133791802Y-50421000D01*
X132236401Y-48865599D01*
X131989839Y-48700852D01*
X131699000Y-48643000D01*
X130302000Y-48643000D01*
X130011160Y-48700852D01*
X129764599Y-48865599D01*
X129002599Y-49627599D01*
X128837852Y-49874161D01*
X128780000Y-50165000D01*
X128780000Y-54356000D01*
X128837852Y-54646839D01*
X129002599Y-54893401D01*
X129618560Y-55509362D01*
X129618560Y-56932000D01*
X129662838Y-57167317D01*
X129801910Y-57383441D01*
X130014110Y-57528431D01*
X130266000Y-57579440D01*
X132116000Y-57579440D01*
X132351317Y-57535162D01*
X132567441Y-57396090D01*
X132712431Y-57183890D01*
X132763440Y-56932000D01*
X132763440Y-55303167D01*
X134954838Y-55303167D01*
X135096883Y-55646943D01*
X135130000Y-55680118D01*
X135130000Y-55750025D01*
X135018569Y-55913110D01*
X134967560Y-56165000D01*
X134967560Y-57915000D01*
X135011838Y-58150317D01*
X135150910Y-58366441D01*
X135363110Y-58511431D01*
X135615000Y-58562440D01*
X136165000Y-58562440D01*
X136400317Y-58518162D01*
X136525277Y-58437752D01*
X136633110Y-58511431D01*
X136885000Y-58562440D01*
X137435000Y-58562440D01*
X137670317Y-58518162D01*
X137795277Y-58437752D01*
X137903110Y-58511431D01*
X138155000Y-58562440D01*
X138705000Y-58562440D01*
X138940317Y-58518162D01*
X139065277Y-58437752D01*
X139173110Y-58511431D01*
X139425000Y-58562440D01*
X139975000Y-58562440D01*
X140210317Y-58518162D01*
X140426441Y-58379090D01*
X140571431Y-58166890D01*
X140622440Y-57915000D01*
X140622440Y-57116676D01*
X145871073Y-57116676D01*
X145969736Y-57383531D01*
X146579461Y-57610052D01*
X147229460Y-57586000D01*
X147718264Y-57383531D01*
X147816927Y-57116676D01*
X146844000Y-56143749D01*
X145871073Y-57116676D01*
X140622440Y-57116676D01*
X140622440Y-56165000D01*
X140578162Y-55929683D01*
X140460000Y-55746054D01*
X140460000Y-55699605D01*
X145198092Y-55699605D01*
X145222144Y-56349604D01*
X145424613Y-56838408D01*
X145691468Y-56937071D01*
X146664395Y-55964144D01*
X145691468Y-54991217D01*
X145424613Y-55089880D01*
X145198092Y-55699605D01*
X140460000Y-55699605D01*
X140460000Y-54811612D01*
X145871073Y-54811612D01*
X146844000Y-55784539D01*
X146858143Y-55770397D01*
X147037748Y-55950002D01*
X147023605Y-55964144D01*
X147996532Y-56937071D01*
X148263387Y-56838408D01*
X148269239Y-56822656D01*
X148579461Y-56937908D01*
X149229460Y-56913856D01*
X149718264Y-56711387D01*
X149816927Y-56444532D01*
X148844000Y-55471605D01*
X148829858Y-55485748D01*
X148650253Y-55306143D01*
X148664395Y-55292000D01*
X149023605Y-55292000D01*
X149996532Y-56264927D01*
X150263387Y-56166264D01*
X150489908Y-55556539D01*
X150465856Y-54906540D01*
X150395631Y-54737000D01*
X154034968Y-54737000D01*
X154159425Y-55362687D01*
X154513848Y-55893120D01*
X155044281Y-56247543D01*
X155669968Y-56372000D01*
X155734032Y-56372000D01*
X156359719Y-56247543D01*
X156890152Y-55893120D01*
X157244575Y-55362687D01*
X157289798Y-55135334D01*
X157307698Y-55117434D01*
X159191876Y-55117434D01*
X159388598Y-55592385D01*
X159822006Y-56060505D01*
X160401565Y-56327133D01*
X160655000Y-56208319D01*
X160655000Y-54864000D01*
X160909000Y-54864000D01*
X160909000Y-56208319D01*
X161162435Y-56327133D01*
X161741994Y-56060505D01*
X162175402Y-55592385D01*
X162372124Y-55117434D01*
X162252777Y-54864000D01*
X160909000Y-54864000D01*
X160655000Y-54864000D01*
X159311223Y-54864000D01*
X159191876Y-55117434D01*
X157307698Y-55117434D01*
X158839132Y-53586000D01*
X159662293Y-53586000D01*
X159388598Y-53881615D01*
X159191876Y-54356566D01*
X159311223Y-54610000D01*
X160655000Y-54610000D01*
X160655000Y-54590000D01*
X160909000Y-54590000D01*
X160909000Y-54610000D01*
X162252777Y-54610000D01*
X162372124Y-54356566D01*
X162175402Y-53881615D01*
X161901707Y-53586000D01*
X163836726Y-53586000D01*
X164030725Y-54055514D01*
X164469177Y-54494732D01*
X165042336Y-54732728D01*
X165662942Y-54733270D01*
X166236514Y-54496275D01*
X166675732Y-54057823D01*
X166913728Y-53484664D01*
X166914270Y-52864058D01*
X166677275Y-52290486D01*
X166559246Y-52172251D01*
X166730441Y-52062090D01*
X166875431Y-51849890D01*
X166926440Y-51598000D01*
X166926440Y-49748000D01*
X166882162Y-49512683D01*
X166743090Y-49296559D01*
X166530890Y-49151569D01*
X166279000Y-49100560D01*
X165386692Y-49100560D01*
X165140566Y-48854434D01*
X165052275Y-48795440D01*
X164772346Y-48608397D01*
X164338000Y-48522000D01*
X161984264Y-48522000D01*
X161970152Y-48500880D01*
X161439719Y-48146457D01*
X160814032Y-48022000D01*
X160749968Y-48022000D01*
X160124281Y-48146457D01*
X159593848Y-48500880D01*
X159239425Y-49031313D01*
X159114968Y-49657000D01*
X159239425Y-50282687D01*
X159593848Y-50813120D01*
X160124281Y-51167543D01*
X160749968Y-51292000D01*
X160814032Y-51292000D01*
X161439719Y-51167543D01*
X161970152Y-50813120D01*
X161984264Y-50792000D01*
X163781560Y-50792000D01*
X163781560Y-51316000D01*
X158369000Y-51316000D01*
X157934654Y-51402397D01*
X157641914Y-51598000D01*
X157566434Y-51648434D01*
X156050015Y-53164853D01*
X155734032Y-53102000D01*
X155669968Y-53102000D01*
X155044281Y-53226457D01*
X154513848Y-53580880D01*
X154159425Y-54111313D01*
X154034968Y-54737000D01*
X150395631Y-54737000D01*
X150263387Y-54417736D01*
X149996532Y-54319073D01*
X149023605Y-55292000D01*
X148664395Y-55292000D01*
X147691468Y-54319073D01*
X147424613Y-54417736D01*
X147418761Y-54433488D01*
X147108539Y-54318236D01*
X146458540Y-54342288D01*
X145969736Y-54544757D01*
X145871073Y-54811612D01*
X140460000Y-54811612D01*
X140460000Y-54283463D01*
X140492192Y-54251327D01*
X140538640Y-54139468D01*
X147871073Y-54139468D01*
X148844000Y-55112395D01*
X149816927Y-54139468D01*
X149718264Y-53872613D01*
X149108539Y-53646092D01*
X148458540Y-53670144D01*
X147969736Y-53872613D01*
X147871073Y-54139468D01*
X140538640Y-54139468D01*
X140634838Y-53907799D01*
X140635162Y-53535833D01*
X140493117Y-53192057D01*
X140230327Y-52928808D01*
X139886799Y-52786162D01*
X139514833Y-52785838D01*
X139171057Y-52927883D01*
X138907808Y-53190673D01*
X138765162Y-53534201D01*
X138764838Y-53906167D01*
X138806967Y-54008127D01*
X138616799Y-53929162D01*
X138244833Y-53928838D01*
X137901057Y-54070883D01*
X137637808Y-54333673D01*
X137495162Y-54677201D01*
X137494838Y-55049167D01*
X137636883Y-55392943D01*
X137670000Y-55426118D01*
X137670000Y-55565149D01*
X137435000Y-55517560D01*
X136885000Y-55517560D01*
X136723905Y-55547872D01*
X136824838Y-55304799D01*
X136825162Y-54932833D01*
X136683117Y-54589057D01*
X136420327Y-54325808D01*
X136076799Y-54183162D01*
X135704833Y-54182838D01*
X135361057Y-54324883D01*
X135097808Y-54587673D01*
X134955162Y-54931201D01*
X134954838Y-55303167D01*
X132763440Y-55303167D01*
X132763440Y-55082000D01*
X132719162Y-54846683D01*
X132580090Y-54630559D01*
X132398126Y-54506229D01*
X132512732Y-54391823D01*
X132577488Y-54235872D01*
X132711839Y-54209148D01*
X132958401Y-54044401D01*
X134553802Y-52449000D01*
X138303000Y-52449000D01*
X138593839Y-52391148D01*
X138840401Y-52226401D01*
X138967401Y-52099401D01*
X139132148Y-51852839D01*
X139190000Y-51562000D01*
X139190000Y-51104979D01*
X139298690Y-51150000D01*
X139414250Y-51150000D01*
X139573000Y-50991250D01*
X139573000Y-49767000D01*
X139827000Y-49767000D01*
X139827000Y-50991250D01*
X139985750Y-51150000D01*
X140101310Y-51150000D01*
X140334699Y-51053327D01*
X140513327Y-50874698D01*
X140610000Y-50641309D01*
X140610000Y-49925750D01*
X140451250Y-49767000D01*
X139827000Y-49767000D01*
X139573000Y-49767000D01*
X139553000Y-49767000D01*
X139553000Y-49513000D01*
X139573000Y-49513000D01*
X139573000Y-49493000D01*
X139827000Y-49493000D01*
X139827000Y-49513000D01*
X140451250Y-49513000D01*
X140610000Y-49354250D01*
X140610000Y-48638691D01*
X140513327Y-48405302D01*
X140334699Y-48226673D01*
X140101310Y-48130000D01*
X140022000Y-48130000D01*
X140022000Y-47783750D01*
X139863250Y-47625000D01*
X138764000Y-47625000D01*
X138764000Y-47645000D01*
X138510000Y-47645000D01*
X138510000Y-47625000D01*
X138490000Y-47625000D01*
X138490000Y-47371000D01*
X138510000Y-47371000D01*
X138510000Y-46371750D01*
X138764000Y-46371750D01*
X138764000Y-47371000D01*
X139863250Y-47371000D01*
X140022000Y-47212250D01*
X140022000Y-46721690D01*
X139925327Y-46488301D01*
X139746698Y-46309673D01*
X139513309Y-46213000D01*
X138922750Y-46213000D01*
X138764000Y-46371750D01*
X138510000Y-46371750D01*
X138351250Y-46213000D01*
X137760691Y-46213000D01*
X137527302Y-46309673D01*
X137348673Y-46488301D01*
X137292346Y-46624287D01*
X137290162Y-46612683D01*
X137151090Y-46396559D01*
X136938890Y-46251569D01*
X136697000Y-46202585D01*
X136697000Y-45389898D01*
X136775317Y-45375162D01*
X136991441Y-45236090D01*
X137136431Y-45023890D01*
X137158993Y-44912477D01*
X137176838Y-45007317D01*
X137315910Y-45223441D01*
X137528110Y-45368431D01*
X137780000Y-45419440D01*
X139080000Y-45419440D01*
X139315317Y-45375162D01*
X139381053Y-45332862D01*
X139433110Y-45368431D01*
X139685000Y-45419440D01*
X140985000Y-45419440D01*
X141220317Y-45375162D01*
X141436441Y-45236090D01*
X141581431Y-45023890D01*
X141630415Y-44782000D01*
X142160000Y-44782000D01*
X142450839Y-44724148D01*
X142697401Y-44559401D01*
X142985000Y-44271802D01*
X142985000Y-46770309D01*
X143081673Y-47003698D01*
X143260301Y-47182327D01*
X143493690Y-47279000D01*
X145884250Y-47279000D01*
X146043000Y-47120250D01*
X146043000Y-44071000D01*
X146297000Y-44071000D01*
X146297000Y-47120250D01*
X146455750Y-47279000D01*
X148846310Y-47279000D01*
X149079699Y-47182327D01*
X149258327Y-47003698D01*
X149355000Y-46770309D01*
X149355000Y-44229750D01*
X149196250Y-44071000D01*
X146297000Y-44071000D01*
X146043000Y-44071000D01*
X146023000Y-44071000D01*
X146023000Y-43817000D01*
X146043000Y-43817000D01*
X146043000Y-43797000D01*
X146297000Y-43797000D01*
X146297000Y-43817000D01*
X149196250Y-43817000D01*
X149355000Y-43658250D01*
X149355000Y-43130223D01*
X155906035Y-43130223D01*
X155933222Y-43700454D01*
X156099136Y-44101005D01*
X156345255Y-44175139D01*
X157173395Y-43347000D01*
X157532605Y-43347000D01*
X158360745Y-44175139D01*
X158606864Y-44101005D01*
X158799965Y-43563777D01*
X158772778Y-42993546D01*
X158606864Y-42592995D01*
X158360745Y-42518861D01*
X157532605Y-43347000D01*
X157173395Y-43347000D01*
X156345255Y-42518861D01*
X156099136Y-42592995D01*
X155906035Y-43130223D01*
X149355000Y-43130223D01*
X149355000Y-41117691D01*
X149258327Y-40884302D01*
X149139026Y-40765000D01*
X151116198Y-40765000D01*
X151922560Y-41571362D01*
X151922560Y-42094000D01*
X151966838Y-42329317D01*
X152105910Y-42545441D01*
X152318110Y-42690431D01*
X152570000Y-42741440D01*
X153570000Y-42741440D01*
X153805317Y-42697162D01*
X154021441Y-42558090D01*
X154126726Y-42404000D01*
X154491000Y-42404000D01*
X154781839Y-42346148D01*
X155028401Y-42181401D01*
X155272362Y-41937440D01*
X156245000Y-41937440D01*
X156480317Y-41893162D01*
X156696441Y-41754090D01*
X156841431Y-41541890D01*
X156848191Y-41508510D01*
X156906673Y-41649699D01*
X157085302Y-41828327D01*
X157290559Y-41913347D01*
X156999546Y-41927222D01*
X156598995Y-42093136D01*
X156524861Y-42339255D01*
X157353000Y-43167395D01*
X158181139Y-42339255D01*
X158107005Y-42093136D01*
X157639232Y-41925000D01*
X157909250Y-41925000D01*
X158068000Y-41766250D01*
X158068000Y-40767000D01*
X158322000Y-40767000D01*
X158322000Y-41766250D01*
X158480750Y-41925000D01*
X159071309Y-41925000D01*
X159304698Y-41828327D01*
X159483327Y-41649699D01*
X159580000Y-41416310D01*
X159580000Y-40925750D01*
X159421250Y-40767000D01*
X158322000Y-40767000D01*
X158068000Y-40767000D01*
X158048000Y-40767000D01*
X158048000Y-40513000D01*
X158068000Y-40513000D01*
X158068000Y-39513750D01*
X158322000Y-39513750D01*
X158322000Y-40513000D01*
X159421250Y-40513000D01*
X159580000Y-40354250D01*
X159580000Y-39863690D01*
X159483327Y-39630301D01*
X159430026Y-39577000D01*
X159496250Y-39577000D01*
X159655000Y-39418250D01*
X159655000Y-38669000D01*
X159909000Y-38669000D01*
X159909000Y-39418250D01*
X160067750Y-39577000D01*
X160358309Y-39577000D01*
X160591698Y-39480327D01*
X160770327Y-39301699D01*
X160867000Y-39068310D01*
X160867000Y-38827750D01*
X160708250Y-38669000D01*
X159909000Y-38669000D01*
X159655000Y-38669000D01*
X158855750Y-38669000D01*
X158697000Y-38827750D01*
X158697000Y-39068310D01*
X158793673Y-39301699D01*
X158846974Y-39355000D01*
X158480750Y-39355000D01*
X158322000Y-39513750D01*
X158068000Y-39513750D01*
X157909250Y-39355000D01*
X157318691Y-39355000D01*
X157085302Y-39451673D01*
X156906673Y-39630301D01*
X156850346Y-39766287D01*
X156848162Y-39754683D01*
X156709090Y-39538559D01*
X156496890Y-39393569D01*
X156245000Y-39342560D01*
X155098362Y-39342560D01*
X152744552Y-36988750D01*
X153856000Y-36988750D01*
X153856000Y-37479310D01*
X153952673Y-37712699D01*
X154131302Y-37891327D01*
X154364691Y-37988000D01*
X154955250Y-37988000D01*
X155114000Y-37829250D01*
X155114000Y-36830000D01*
X154014750Y-36830000D01*
X153856000Y-36988750D01*
X152744552Y-36988750D01*
X151128000Y-35372198D01*
X151128000Y-33958530D01*
X151172000Y-33967440D01*
X153122000Y-33967440D01*
X153164000Y-33959537D01*
X153164000Y-34798000D01*
X153221852Y-35088839D01*
X153386599Y-35335401D01*
X153891700Y-35840502D01*
X153856000Y-35926690D01*
X153856000Y-36417250D01*
X154014750Y-36576000D01*
X155114000Y-36576000D01*
X155114000Y-36556000D01*
X155368000Y-36556000D01*
X155368000Y-36576000D01*
X155388000Y-36576000D01*
X155388000Y-36830000D01*
X155368000Y-36830000D01*
X155368000Y-37829250D01*
X155526750Y-37988000D01*
X156117309Y-37988000D01*
X156350698Y-37891327D01*
X156529327Y-37712699D01*
X156585654Y-37576713D01*
X156587838Y-37588317D01*
X156726910Y-37804441D01*
X156939110Y-37949431D01*
X157191000Y-38000440D01*
X158691000Y-38000440D01*
X158704358Y-37997927D01*
X158697000Y-38015690D01*
X158697000Y-38256250D01*
X158855750Y-38415000D01*
X159655000Y-38415000D01*
X159655000Y-38395000D01*
X159909000Y-38395000D01*
X159909000Y-38415000D01*
X160708250Y-38415000D01*
X160794262Y-38328988D01*
X160867910Y-38443441D01*
X161080110Y-38588431D01*
X161332000Y-38639440D01*
X161345914Y-38639440D01*
X161347655Y-38640603D01*
X161782000Y-38727000D01*
X162216345Y-38640603D01*
X162218086Y-38639440D01*
X162232000Y-38639440D01*
X162467317Y-38595162D01*
X162683441Y-38456090D01*
X162828431Y-38243890D01*
X162852094Y-38127038D01*
X163273560Y-37705572D01*
X163273560Y-38898000D01*
X163317838Y-39133317D01*
X163456910Y-39349441D01*
X163669110Y-39494431D01*
X163711000Y-39502914D01*
X163711000Y-43598868D01*
X162597868Y-44712000D01*
X158692018Y-44712000D01*
X158617090Y-44595559D01*
X158404890Y-44450569D01*
X158166799Y-44402354D01*
X158181139Y-44354745D01*
X157353000Y-43526605D01*
X156524861Y-44354745D01*
X156539145Y-44402167D01*
X156317683Y-44443838D01*
X156101559Y-44582910D01*
X155956569Y-44795110D01*
X155905560Y-45047000D01*
X155905560Y-45484000D01*
X154125105Y-45484000D01*
X154034090Y-45342559D01*
X153821890Y-45197569D01*
X153570000Y-45146560D01*
X152570000Y-45146560D01*
X152334683Y-45190838D01*
X152118559Y-45329910D01*
X151973569Y-45542110D01*
X151922560Y-45794000D01*
X151922560Y-46694000D01*
X151966838Y-46929317D01*
X152105910Y-47145441D01*
X152318110Y-47290431D01*
X152570000Y-47341440D01*
X153570000Y-47341440D01*
X153805317Y-47297162D01*
X154021441Y-47158090D01*
X154126726Y-47004000D01*
X154693257Y-47004000D01*
X154653397Y-47063654D01*
X154567000Y-47498000D01*
X154567000Y-48034962D01*
X154466683Y-48053838D01*
X154250559Y-48192910D01*
X154105569Y-48405110D01*
X154089420Y-48484856D01*
X152466038Y-48484856D01*
X152447162Y-48384539D01*
X152308090Y-48168415D01*
X152095890Y-48023425D01*
X151844000Y-47972416D01*
X149844000Y-47972416D01*
X149608683Y-48016694D01*
X149392559Y-48155766D01*
X149247569Y-48367966D01*
X149196560Y-48619856D01*
X149196560Y-48644560D01*
X147844000Y-48644560D01*
X147608683Y-48688838D01*
X147392559Y-48827910D01*
X147247569Y-49040110D01*
X147196560Y-49292000D01*
X147196560Y-51292000D01*
X147240838Y-51527317D01*
X147379910Y-51743441D01*
X147592110Y-51888431D01*
X147844000Y-51939440D01*
X149844000Y-51939440D01*
X150079317Y-51895162D01*
X150295441Y-51756090D01*
X150440431Y-51543890D01*
X150491440Y-51292000D01*
X150491440Y-51267296D01*
X151844000Y-51267296D01*
X152079317Y-51223018D01*
X152295441Y-51083946D01*
X152440431Y-50871746D01*
X152464102Y-50754856D01*
X154072973Y-50754856D01*
X154098838Y-50892317D01*
X154237910Y-51108441D01*
X154450110Y-51253431D01*
X154702000Y-51304440D01*
X156702000Y-51304440D01*
X156937317Y-51260162D01*
X157153441Y-51121090D01*
X157298431Y-50908890D01*
X157349440Y-50657000D01*
X157349440Y-48657000D01*
X157305162Y-48421683D01*
X157166090Y-48205559D01*
X156953890Y-48060569D01*
X156837000Y-48036898D01*
X156837000Y-47968132D01*
X157510692Y-47294440D01*
X158153000Y-47294440D01*
X158388317Y-47250162D01*
X158604441Y-47111090D01*
X158692644Y-46982000D01*
X163068000Y-46982000D01*
X163502346Y-46895603D01*
X163870566Y-46649566D01*
X165648566Y-44871566D01*
X165677008Y-44829000D01*
X165894603Y-44503346D01*
X165981000Y-44069000D01*
X165981000Y-39505926D01*
X166006317Y-39501162D01*
X166222441Y-39362090D01*
X166367431Y-39149890D01*
X166375914Y-39108000D01*
X168520074Y-39108000D01*
X168524838Y-39133317D01*
X168663910Y-39349441D01*
X168876110Y-39494431D01*
X169128000Y-39545440D01*
X170978000Y-39545440D01*
X171213317Y-39501162D01*
X171429441Y-39362090D01*
X171574431Y-39149890D01*
X171625440Y-38898000D01*
X171625440Y-37048000D01*
X171581162Y-36812683D01*
X171442090Y-36596559D01*
X171260126Y-36472229D01*
X171374732Y-36357823D01*
X171612728Y-35784664D01*
X171613270Y-35164058D01*
X171376275Y-34590486D01*
X171009174Y-34222744D01*
X171374732Y-33857823D01*
X171612728Y-33284664D01*
X171613270Y-32664058D01*
X171376275Y-32090486D01*
X171009174Y-31722744D01*
X171374732Y-31357823D01*
X171612728Y-30784664D01*
X171613270Y-30164058D01*
X171376275Y-29590486D01*
X170937823Y-29151268D01*
X170364664Y-28913272D01*
X169744058Y-28912730D01*
X169170486Y-29149725D01*
X168981882Y-29338000D01*
X165917229Y-29338000D01*
X165730823Y-29151268D01*
X165157664Y-28913272D01*
X164537058Y-28912730D01*
X163963486Y-29149725D01*
X163767870Y-29345000D01*
X161782000Y-29345000D01*
X161347654Y-29431397D01*
X161345913Y-29432560D01*
X161332000Y-29432560D01*
X161096683Y-29476838D01*
X160880559Y-29615910D01*
X160879440Y-29617548D01*
X160879440Y-29130000D01*
X160835162Y-28894683D01*
X160696090Y-28678559D01*
X160483890Y-28533569D01*
X160232000Y-28482560D01*
X159332000Y-28482560D01*
X159170179Y-28513009D01*
X159155090Y-28489559D01*
X158942890Y-28344569D01*
X158701000Y-28295585D01*
X158701000Y-28147000D01*
X158643148Y-27856161D01*
X158643148Y-27856160D01*
X158478401Y-27609599D01*
X157028802Y-26160000D01*
X165608000Y-26160000D01*
X165898839Y-26102148D01*
X166145401Y-25937401D01*
X166653401Y-25429401D01*
X166673046Y-25400000D01*
X166818148Y-25182839D01*
X166876000Y-24892000D01*
X166876000Y-24516995D01*
X167356641Y-24612600D01*
X167415359Y-24612600D01*
X167988848Y-24498526D01*
X168475029Y-24173670D01*
X168799885Y-23687489D01*
X168913959Y-23114000D01*
X168799885Y-22540511D01*
X168475029Y-22054330D01*
X168151772Y-21838336D01*
X168274490Y-21780821D01*
X168668688Y-21348947D01*
X168840958Y-20933026D01*
X168719817Y-20701000D01*
X167513000Y-20701000D01*
X167513000Y-20721000D01*
X167259000Y-20721000D01*
X167259000Y-20701000D01*
X167239000Y-20701000D01*
X167239000Y-20447000D01*
X167259000Y-20447000D01*
X167259000Y-19239531D01*
X167513000Y-19239531D01*
X167513000Y-20447000D01*
X168719817Y-20447000D01*
X168840958Y-20214974D01*
X168668688Y-19799053D01*
X168274490Y-19367179D01*
X167745027Y-19119032D01*
X167513000Y-19239531D01*
X167259000Y-19239531D01*
X167026973Y-19119032D01*
X166497510Y-19367179D01*
X166115992Y-19785161D01*
X165935029Y-19514330D01*
X165448848Y-19189474D01*
X164875359Y-19075400D01*
X164816641Y-19075400D01*
X164243152Y-19189474D01*
X163756971Y-19514330D01*
X163576000Y-19785172D01*
X163395029Y-19514330D01*
X162908848Y-19189474D01*
X162335359Y-19075400D01*
X162276641Y-19075400D01*
X161703152Y-19189474D01*
X161216971Y-19514330D01*
X161016738Y-19814000D01*
X159893000Y-19814000D01*
X159602161Y-19871852D01*
X159355599Y-20036599D01*
X158562198Y-20830000D01*
X153573563Y-20830000D01*
X153373890Y-20693569D01*
X153122000Y-20642560D01*
X152695536Y-20642560D01*
X152837431Y-20434890D01*
X152888440Y-20183000D01*
X152888440Y-18933000D01*
X152844162Y-18697683D01*
X152705090Y-18481559D01*
X152492890Y-18336569D01*
X152241000Y-18285560D01*
X151293362Y-18285560D01*
X150250401Y-17242599D01*
X150179164Y-17195000D01*
X172543000Y-17195000D01*
X172543000Y-58751000D01*
X121843000Y-58751000D01*
X121843000Y-28607691D01*
X132598000Y-28607691D01*
X132598000Y-29198250D01*
X132756750Y-29357000D01*
X133731000Y-29357000D01*
X133731000Y-28257750D01*
X133985000Y-28257750D01*
X133985000Y-29357000D01*
X134959250Y-29357000D01*
X135118000Y-29198250D01*
X135118000Y-28607691D01*
X135021327Y-28374302D01*
X134842699Y-28195673D01*
X134609310Y-28099000D01*
X134143750Y-28099000D01*
X133985000Y-28257750D01*
X133731000Y-28257750D01*
X133572250Y-28099000D01*
X133106690Y-28099000D01*
X132873301Y-28195673D01*
X132694673Y-28374302D01*
X132598000Y-28607691D01*
X121843000Y-28607691D01*
X121843000Y-26173750D01*
X132598000Y-26173750D01*
X132598000Y-26764309D01*
X132694673Y-26997698D01*
X132873301Y-27176327D01*
X133106690Y-27273000D01*
X133572250Y-27273000D01*
X133731000Y-27114250D01*
X133731000Y-26015000D01*
X133985000Y-26015000D01*
X133985000Y-27114250D01*
X134143750Y-27273000D01*
X134609310Y-27273000D01*
X134842699Y-27176327D01*
X135021327Y-26997698D01*
X135118000Y-26764309D01*
X135118000Y-26173750D01*
X134959250Y-26015000D01*
X133985000Y-26015000D01*
X133731000Y-26015000D01*
X132756750Y-26015000D01*
X132598000Y-26173750D01*
X121843000Y-26173750D01*
X121843000Y-17195000D01*
X134474560Y-17195000D01*
X134474560Y-21990560D01*
X134474560Y-21990560D01*
G37*
X134474560Y-21990560D02*
X133233000Y-21990560D01*
X132997683Y-22034838D01*
X132781559Y-22173910D01*
X132636569Y-22386110D01*
X132585560Y-22638000D01*
X132585560Y-24138000D01*
X132629838Y-24373317D01*
X132768910Y-24589441D01*
X132837006Y-24635969D01*
X132694673Y-24778302D01*
X132598000Y-25011691D01*
X132598000Y-25602250D01*
X132756750Y-25761000D01*
X133731000Y-25761000D01*
X133731000Y-25741000D01*
X133985000Y-25741000D01*
X133985000Y-25761000D01*
X134959250Y-25761000D01*
X135118000Y-25602250D01*
X135118000Y-25011691D01*
X135037039Y-24816235D01*
X135122000Y-24833440D01*
X139201638Y-24833440D01*
X140305599Y-25937401D01*
X140388167Y-25992571D01*
X140178599Y-26132599D01*
X137384599Y-28926599D01*
X137219852Y-29173161D01*
X137162000Y-29464000D01*
X137162000Y-30538560D01*
X135122000Y-30538560D01*
X135037587Y-30554443D01*
X135118000Y-30360309D01*
X135118000Y-29769750D01*
X134959250Y-29611000D01*
X133985000Y-29611000D01*
X133985000Y-29631000D01*
X133731000Y-29631000D01*
X133731000Y-29611000D01*
X132756750Y-29611000D01*
X132598000Y-29769750D01*
X132598000Y-30360309D01*
X132694673Y-30593698D01*
X132835910Y-30734936D01*
X132781559Y-30769910D01*
X132636569Y-30982110D01*
X132585560Y-31234000D01*
X132585560Y-32734000D01*
X132629838Y-32969317D01*
X132768910Y-33185441D01*
X132981110Y-33330431D01*
X133233000Y-33381440D01*
X134474560Y-33381440D01*
X134474560Y-38148994D01*
X133203796Y-38148994D01*
X129696401Y-34641599D01*
X129449839Y-34476852D01*
X129379641Y-34462889D01*
X129470968Y-34268027D01*
X129350469Y-34036000D01*
X128143000Y-34036000D01*
X128143000Y-34056000D01*
X127889000Y-34056000D01*
X127889000Y-34036000D01*
X127869000Y-34036000D01*
X127869000Y-33782000D01*
X127889000Y-33782000D01*
X127889000Y-32575183D01*
X128143000Y-32575183D01*
X128143000Y-33782000D01*
X129350469Y-33782000D01*
X129470968Y-33549973D01*
X129222821Y-33020510D01*
X128790947Y-32626312D01*
X128375026Y-32454042D01*
X128143000Y-32575183D01*
X127889000Y-32575183D01*
X127656974Y-32454042D01*
X127241053Y-32626312D01*
X126809179Y-33020510D01*
X126751664Y-33143228D01*
X126535670Y-32819971D01*
X126049489Y-32495115D01*
X125476000Y-32381041D01*
X124902511Y-32495115D01*
X124416330Y-32819971D01*
X124091474Y-33306152D01*
X123977400Y-33879641D01*
X123977400Y-33938359D01*
X124091474Y-34511848D01*
X124416330Y-34998029D01*
X124687172Y-35179000D01*
X124416330Y-35359971D01*
X124091474Y-35846152D01*
X123977400Y-36419641D01*
X123977400Y-36478359D01*
X124091474Y-37051848D01*
X124416330Y-37538029D01*
X124687172Y-37719000D01*
X124416330Y-37899971D01*
X124091474Y-38386152D01*
X123977400Y-38959641D01*
X123977400Y-39018359D01*
X124091474Y-39591848D01*
X124416330Y-40078029D01*
X124687172Y-40259000D01*
X124416330Y-40439971D01*
X124091474Y-40926152D01*
X123977400Y-41499641D01*
X123977400Y-41558359D01*
X124091474Y-42131848D01*
X124416330Y-42618029D01*
X124902511Y-42942885D01*
X125249005Y-43011807D01*
X126796599Y-44559401D01*
X127043161Y-44724148D01*
X127334000Y-44782000D01*
X132689442Y-44782000D01*
X132731838Y-45007317D01*
X132870910Y-45223441D01*
X133083110Y-45368431D01*
X133335000Y-45419440D01*
X134635000Y-45419440D01*
X134870317Y-45375162D01*
X134936053Y-45332862D01*
X134988110Y-45368431D01*
X135177000Y-45406682D01*
X135177000Y-46202442D01*
X134951683Y-46244838D01*
X134735559Y-46383910D01*
X134590569Y-46596110D01*
X134539560Y-46848000D01*
X134539560Y-48148000D01*
X134583838Y-48383317D01*
X134722910Y-48599441D01*
X134935110Y-48744431D01*
X134970283Y-48751554D01*
X134967560Y-48765000D01*
X134967560Y-50421000D01*
X133791802Y-50421000D01*
X132236401Y-48865599D01*
X131989839Y-48700852D01*
X131699000Y-48643000D01*
X130302000Y-48643000D01*
X130011160Y-48700852D01*
X129764599Y-48865599D01*
X129002599Y-49627599D01*
X128837852Y-49874161D01*
X128780000Y-50165000D01*
X128780000Y-54356000D01*
X128837852Y-54646839D01*
X129002599Y-54893401D01*
X129618560Y-55509362D01*
X129618560Y-56932000D01*
X129662838Y-57167317D01*
X129801910Y-57383441D01*
X130014110Y-57528431D01*
X130266000Y-57579440D01*
X132116000Y-57579440D01*
X132351317Y-57535162D01*
X132567441Y-57396090D01*
X132712431Y-57183890D01*
X132763440Y-56932000D01*
X132763440Y-55303167D01*
X134954838Y-55303167D01*
X135096883Y-55646943D01*
X135130000Y-55680118D01*
X135130000Y-55750025D01*
X135018569Y-55913110D01*
X134967560Y-56165000D01*
X134967560Y-57915000D01*
X135011838Y-58150317D01*
X135150910Y-58366441D01*
X135363110Y-58511431D01*
X135615000Y-58562440D01*
X136165000Y-58562440D01*
X136400317Y-58518162D01*
X136525277Y-58437752D01*
X136633110Y-58511431D01*
X136885000Y-58562440D01*
X137435000Y-58562440D01*
X137670317Y-58518162D01*
X137795277Y-58437752D01*
X137903110Y-58511431D01*
X138155000Y-58562440D01*
X138705000Y-58562440D01*
X138940317Y-58518162D01*
X139065277Y-58437752D01*
X139173110Y-58511431D01*
X139425000Y-58562440D01*
X139975000Y-58562440D01*
X140210317Y-58518162D01*
X140426441Y-58379090D01*
X140571431Y-58166890D01*
X140622440Y-57915000D01*
X140622440Y-57116676D01*
X145871073Y-57116676D01*
X145969736Y-57383531D01*
X146579461Y-57610052D01*
X147229460Y-57586000D01*
X147718264Y-57383531D01*
X147816927Y-57116676D01*
X146844000Y-56143749D01*
X145871073Y-57116676D01*
X140622440Y-57116676D01*
X140622440Y-56165000D01*
X140578162Y-55929683D01*
X140460000Y-55746054D01*
X140460000Y-55699605D01*
X145198092Y-55699605D01*
X145222144Y-56349604D01*
X145424613Y-56838408D01*
X145691468Y-56937071D01*
X146664395Y-55964144D01*
X145691468Y-54991217D01*
X145424613Y-55089880D01*
X145198092Y-55699605D01*
X140460000Y-55699605D01*
X140460000Y-54811612D01*
X145871073Y-54811612D01*
X146844000Y-55784539D01*
X146858143Y-55770397D01*
X147037748Y-55950002D01*
X147023605Y-55964144D01*
X147996532Y-56937071D01*
X148263387Y-56838408D01*
X148269239Y-56822656D01*
X148579461Y-56937908D01*
X149229460Y-56913856D01*
X149718264Y-56711387D01*
X149816927Y-56444532D01*
X148844000Y-55471605D01*
X148829858Y-55485748D01*
X148650253Y-55306143D01*
X148664395Y-55292000D01*
X149023605Y-55292000D01*
X149996532Y-56264927D01*
X150263387Y-56166264D01*
X150489908Y-55556539D01*
X150465856Y-54906540D01*
X150395631Y-54737000D01*
X154034968Y-54737000D01*
X154159425Y-55362687D01*
X154513848Y-55893120D01*
X155044281Y-56247543D01*
X155669968Y-56372000D01*
X155734032Y-56372000D01*
X156359719Y-56247543D01*
X156890152Y-55893120D01*
X157244575Y-55362687D01*
X157289798Y-55135334D01*
X157307698Y-55117434D01*
X159191876Y-55117434D01*
X159388598Y-55592385D01*
X159822006Y-56060505D01*
X160401565Y-56327133D01*
X160655000Y-56208319D01*
X160655000Y-54864000D01*
X160909000Y-54864000D01*
X160909000Y-56208319D01*
X161162435Y-56327133D01*
X161741994Y-56060505D01*
X162175402Y-55592385D01*
X162372124Y-55117434D01*
X162252777Y-54864000D01*
X160909000Y-54864000D01*
X160655000Y-54864000D01*
X159311223Y-54864000D01*
X159191876Y-55117434D01*
X157307698Y-55117434D01*
X158839132Y-53586000D01*
X159662293Y-53586000D01*
X159388598Y-53881615D01*
X159191876Y-54356566D01*
X159311223Y-54610000D01*
X160655000Y-54610000D01*
X160655000Y-54590000D01*
X160909000Y-54590000D01*
X160909000Y-54610000D01*
X162252777Y-54610000D01*
X162372124Y-54356566D01*
X162175402Y-53881615D01*
X161901707Y-53586000D01*
X163836726Y-53586000D01*
X164030725Y-54055514D01*
X164469177Y-54494732D01*
X165042336Y-54732728D01*
X165662942Y-54733270D01*
X166236514Y-54496275D01*
X166675732Y-54057823D01*
X166913728Y-53484664D01*
X166914270Y-52864058D01*
X166677275Y-52290486D01*
X166559246Y-52172251D01*
X166730441Y-52062090D01*
X166875431Y-51849890D01*
X166926440Y-51598000D01*
X166926440Y-49748000D01*
X166882162Y-49512683D01*
X166743090Y-49296559D01*
X166530890Y-49151569D01*
X166279000Y-49100560D01*
X165386692Y-49100560D01*
X165140566Y-48854434D01*
X165052275Y-48795440D01*
X164772346Y-48608397D01*
X164338000Y-48522000D01*
X161984264Y-48522000D01*
X161970152Y-48500880D01*
X161439719Y-48146457D01*
X160814032Y-48022000D01*
X160749968Y-48022000D01*
X160124281Y-48146457D01*
X159593848Y-48500880D01*
X159239425Y-49031313D01*
X159114968Y-49657000D01*
X159239425Y-50282687D01*
X159593848Y-50813120D01*
X160124281Y-51167543D01*
X160749968Y-51292000D01*
X160814032Y-51292000D01*
X161439719Y-51167543D01*
X161970152Y-50813120D01*
X161984264Y-50792000D01*
X163781560Y-50792000D01*
X163781560Y-51316000D01*
X158369000Y-51316000D01*
X157934654Y-51402397D01*
X157641914Y-51598000D01*
X157566434Y-51648434D01*
X156050015Y-53164853D01*
X155734032Y-53102000D01*
X155669968Y-53102000D01*
X155044281Y-53226457D01*
X154513848Y-53580880D01*
X154159425Y-54111313D01*
X154034968Y-54737000D01*
X150395631Y-54737000D01*
X150263387Y-54417736D01*
X149996532Y-54319073D01*
X149023605Y-55292000D01*
X148664395Y-55292000D01*
X147691468Y-54319073D01*
X147424613Y-54417736D01*
X147418761Y-54433488D01*
X147108539Y-54318236D01*
X146458540Y-54342288D01*
X145969736Y-54544757D01*
X145871073Y-54811612D01*
X140460000Y-54811612D01*
X140460000Y-54283463D01*
X140492192Y-54251327D01*
X140538640Y-54139468D01*
X147871073Y-54139468D01*
X148844000Y-55112395D01*
X149816927Y-54139468D01*
X149718264Y-53872613D01*
X149108539Y-53646092D01*
X148458540Y-53670144D01*
X147969736Y-53872613D01*
X147871073Y-54139468D01*
X140538640Y-54139468D01*
X140634838Y-53907799D01*
X140635162Y-53535833D01*
X140493117Y-53192057D01*
X140230327Y-52928808D01*
X139886799Y-52786162D01*
X139514833Y-52785838D01*
X139171057Y-52927883D01*
X138907808Y-53190673D01*
X138765162Y-53534201D01*
X138764838Y-53906167D01*
X138806967Y-54008127D01*
X138616799Y-53929162D01*
X138244833Y-53928838D01*
X137901057Y-54070883D01*
X137637808Y-54333673D01*
X137495162Y-54677201D01*
X137494838Y-55049167D01*
X137636883Y-55392943D01*
X137670000Y-55426118D01*
X137670000Y-55565149D01*
X137435000Y-55517560D01*
X136885000Y-55517560D01*
X136723905Y-55547872D01*
X136824838Y-55304799D01*
X136825162Y-54932833D01*
X136683117Y-54589057D01*
X136420327Y-54325808D01*
X136076799Y-54183162D01*
X135704833Y-54182838D01*
X135361057Y-54324883D01*
X135097808Y-54587673D01*
X134955162Y-54931201D01*
X134954838Y-55303167D01*
X132763440Y-55303167D01*
X132763440Y-55082000D01*
X132719162Y-54846683D01*
X132580090Y-54630559D01*
X132398126Y-54506229D01*
X132512732Y-54391823D01*
X132577488Y-54235872D01*
X132711839Y-54209148D01*
X132958401Y-54044401D01*
X134553802Y-52449000D01*
X138303000Y-52449000D01*
X138593839Y-52391148D01*
X138840401Y-52226401D01*
X138967401Y-52099401D01*
X139132148Y-51852839D01*
X139190000Y-51562000D01*
X139190000Y-51104979D01*
X139298690Y-51150000D01*
X139414250Y-51150000D01*
X139573000Y-50991250D01*
X139573000Y-49767000D01*
X139827000Y-49767000D01*
X139827000Y-50991250D01*
X139985750Y-51150000D01*
X140101310Y-51150000D01*
X140334699Y-51053327D01*
X140513327Y-50874698D01*
X140610000Y-50641309D01*
X140610000Y-49925750D01*
X140451250Y-49767000D01*
X139827000Y-49767000D01*
X139573000Y-49767000D01*
X139553000Y-49767000D01*
X139553000Y-49513000D01*
X139573000Y-49513000D01*
X139573000Y-49493000D01*
X139827000Y-49493000D01*
X139827000Y-49513000D01*
X140451250Y-49513000D01*
X140610000Y-49354250D01*
X140610000Y-48638691D01*
X140513327Y-48405302D01*
X140334699Y-48226673D01*
X140101310Y-48130000D01*
X140022000Y-48130000D01*
X140022000Y-47783750D01*
X139863250Y-47625000D01*
X138764000Y-47625000D01*
X138764000Y-47645000D01*
X138510000Y-47645000D01*
X138510000Y-47625000D01*
X138490000Y-47625000D01*
X138490000Y-47371000D01*
X138510000Y-47371000D01*
X138510000Y-46371750D01*
X138764000Y-46371750D01*
X138764000Y-47371000D01*
X139863250Y-47371000D01*
X140022000Y-47212250D01*
X140022000Y-46721690D01*
X139925327Y-46488301D01*
X139746698Y-46309673D01*
X139513309Y-46213000D01*
X138922750Y-46213000D01*
X138764000Y-46371750D01*
X138510000Y-46371750D01*
X138351250Y-46213000D01*
X137760691Y-46213000D01*
X137527302Y-46309673D01*
X137348673Y-46488301D01*
X137292346Y-46624287D01*
X137290162Y-46612683D01*
X137151090Y-46396559D01*
X136938890Y-46251569D01*
X136697000Y-46202585D01*
X136697000Y-45389898D01*
X136775317Y-45375162D01*
X136991441Y-45236090D01*
X137136431Y-45023890D01*
X137158993Y-44912477D01*
X137176838Y-45007317D01*
X137315910Y-45223441D01*
X137528110Y-45368431D01*
X137780000Y-45419440D01*
X139080000Y-45419440D01*
X139315317Y-45375162D01*
X139381053Y-45332862D01*
X139433110Y-45368431D01*
X139685000Y-45419440D01*
X140985000Y-45419440D01*
X141220317Y-45375162D01*
X141436441Y-45236090D01*
X141581431Y-45023890D01*
X141630415Y-44782000D01*
X142160000Y-44782000D01*
X142450839Y-44724148D01*
X142697401Y-44559401D01*
X142985000Y-44271802D01*
X142985000Y-46770309D01*
X143081673Y-47003698D01*
X143260301Y-47182327D01*
X143493690Y-47279000D01*
X145884250Y-47279000D01*
X146043000Y-47120250D01*
X146043000Y-44071000D01*
X146297000Y-44071000D01*
X146297000Y-47120250D01*
X146455750Y-47279000D01*
X148846310Y-47279000D01*
X149079699Y-47182327D01*
X149258327Y-47003698D01*
X149355000Y-46770309D01*
X149355000Y-44229750D01*
X149196250Y-44071000D01*
X146297000Y-44071000D01*
X146043000Y-44071000D01*
X146023000Y-44071000D01*
X146023000Y-43817000D01*
X146043000Y-43817000D01*
X146043000Y-43797000D01*
X146297000Y-43797000D01*
X146297000Y-43817000D01*
X149196250Y-43817000D01*
X149355000Y-43658250D01*
X149355000Y-43130223D01*
X155906035Y-43130223D01*
X155933222Y-43700454D01*
X156099136Y-44101005D01*
X156345255Y-44175139D01*
X157173395Y-43347000D01*
X157532605Y-43347000D01*
X158360745Y-44175139D01*
X158606864Y-44101005D01*
X158799965Y-43563777D01*
X158772778Y-42993546D01*
X158606864Y-42592995D01*
X158360745Y-42518861D01*
X157532605Y-43347000D01*
X157173395Y-43347000D01*
X156345255Y-42518861D01*
X156099136Y-42592995D01*
X155906035Y-43130223D01*
X149355000Y-43130223D01*
X149355000Y-41117691D01*
X149258327Y-40884302D01*
X149139026Y-40765000D01*
X151116198Y-40765000D01*
X151922560Y-41571362D01*
X151922560Y-42094000D01*
X151966838Y-42329317D01*
X152105910Y-42545441D01*
X152318110Y-42690431D01*
X152570000Y-42741440D01*
X153570000Y-42741440D01*
X153805317Y-42697162D01*
X154021441Y-42558090D01*
X154126726Y-42404000D01*
X154491000Y-42404000D01*
X154781839Y-42346148D01*
X155028401Y-42181401D01*
X155272362Y-41937440D01*
X156245000Y-41937440D01*
X156480317Y-41893162D01*
X156696441Y-41754090D01*
X156841431Y-41541890D01*
X156848191Y-41508510D01*
X156906673Y-41649699D01*
X157085302Y-41828327D01*
X157290559Y-41913347D01*
X156999546Y-41927222D01*
X156598995Y-42093136D01*
X156524861Y-42339255D01*
X157353000Y-43167395D01*
X158181139Y-42339255D01*
X158107005Y-42093136D01*
X157639232Y-41925000D01*
X157909250Y-41925000D01*
X158068000Y-41766250D01*
X158068000Y-40767000D01*
X158322000Y-40767000D01*
X158322000Y-41766250D01*
X158480750Y-41925000D01*
X159071309Y-41925000D01*
X159304698Y-41828327D01*
X159483327Y-41649699D01*
X159580000Y-41416310D01*
X159580000Y-40925750D01*
X159421250Y-40767000D01*
X158322000Y-40767000D01*
X158068000Y-40767000D01*
X158048000Y-40767000D01*
X158048000Y-40513000D01*
X158068000Y-40513000D01*
X158068000Y-39513750D01*
X158322000Y-39513750D01*
X158322000Y-40513000D01*
X159421250Y-40513000D01*
X159580000Y-40354250D01*
X159580000Y-39863690D01*
X159483327Y-39630301D01*
X159430026Y-39577000D01*
X159496250Y-39577000D01*
X159655000Y-39418250D01*
X159655000Y-38669000D01*
X159909000Y-38669000D01*
X159909000Y-39418250D01*
X160067750Y-39577000D01*
X160358309Y-39577000D01*
X160591698Y-39480327D01*
X160770327Y-39301699D01*
X160867000Y-39068310D01*
X160867000Y-38827750D01*
X160708250Y-38669000D01*
X159909000Y-38669000D01*
X159655000Y-38669000D01*
X158855750Y-38669000D01*
X158697000Y-38827750D01*
X158697000Y-39068310D01*
X158793673Y-39301699D01*
X158846974Y-39355000D01*
X158480750Y-39355000D01*
X158322000Y-39513750D01*
X158068000Y-39513750D01*
X157909250Y-39355000D01*
X157318691Y-39355000D01*
X157085302Y-39451673D01*
X156906673Y-39630301D01*
X156850346Y-39766287D01*
X156848162Y-39754683D01*
X156709090Y-39538559D01*
X156496890Y-39393569D01*
X156245000Y-39342560D01*
X155098362Y-39342560D01*
X152744552Y-36988750D01*
X153856000Y-36988750D01*
X153856000Y-37479310D01*
X153952673Y-37712699D01*
X154131302Y-37891327D01*
X154364691Y-37988000D01*
X154955250Y-37988000D01*
X155114000Y-37829250D01*
X155114000Y-36830000D01*
X154014750Y-36830000D01*
X153856000Y-36988750D01*
X152744552Y-36988750D01*
X151128000Y-35372198D01*
X151128000Y-33958530D01*
X151172000Y-33967440D01*
X153122000Y-33967440D01*
X153164000Y-33959537D01*
X153164000Y-34798000D01*
X153221852Y-35088839D01*
X153386599Y-35335401D01*
X153891700Y-35840502D01*
X153856000Y-35926690D01*
X153856000Y-36417250D01*
X154014750Y-36576000D01*
X155114000Y-36576000D01*
X155114000Y-36556000D01*
X155368000Y-36556000D01*
X155368000Y-36576000D01*
X155388000Y-36576000D01*
X155388000Y-36830000D01*
X155368000Y-36830000D01*
X155368000Y-37829250D01*
X155526750Y-37988000D01*
X156117309Y-37988000D01*
X156350698Y-37891327D01*
X156529327Y-37712699D01*
X156585654Y-37576713D01*
X156587838Y-37588317D01*
X156726910Y-37804441D01*
X156939110Y-37949431D01*
X157191000Y-38000440D01*
X158691000Y-38000440D01*
X158704358Y-37997927D01*
X158697000Y-38015690D01*
X158697000Y-38256250D01*
X158855750Y-38415000D01*
X159655000Y-38415000D01*
X159655000Y-38395000D01*
X159909000Y-38395000D01*
X159909000Y-38415000D01*
X160708250Y-38415000D01*
X160794262Y-38328988D01*
X160867910Y-38443441D01*
X161080110Y-38588431D01*
X161332000Y-38639440D01*
X161345914Y-38639440D01*
X161347655Y-38640603D01*
X161782000Y-38727000D01*
X162216345Y-38640603D01*
X162218086Y-38639440D01*
X162232000Y-38639440D01*
X162467317Y-38595162D01*
X162683441Y-38456090D01*
X162828431Y-38243890D01*
X162852094Y-38127038D01*
X163273560Y-37705572D01*
X163273560Y-38898000D01*
X163317838Y-39133317D01*
X163456910Y-39349441D01*
X163669110Y-39494431D01*
X163711000Y-39502914D01*
X163711000Y-43598868D01*
X162597868Y-44712000D01*
X158692018Y-44712000D01*
X158617090Y-44595559D01*
X158404890Y-44450569D01*
X158166799Y-44402354D01*
X158181139Y-44354745D01*
X157353000Y-43526605D01*
X156524861Y-44354745D01*
X156539145Y-44402167D01*
X156317683Y-44443838D01*
X156101559Y-44582910D01*
X155956569Y-44795110D01*
X155905560Y-45047000D01*
X155905560Y-45484000D01*
X154125105Y-45484000D01*
X154034090Y-45342559D01*
X153821890Y-45197569D01*
X153570000Y-45146560D01*
X152570000Y-45146560D01*
X152334683Y-45190838D01*
X152118559Y-45329910D01*
X151973569Y-45542110D01*
X151922560Y-45794000D01*
X151922560Y-46694000D01*
X151966838Y-46929317D01*
X152105910Y-47145441D01*
X152318110Y-47290431D01*
X152570000Y-47341440D01*
X153570000Y-47341440D01*
X153805317Y-47297162D01*
X154021441Y-47158090D01*
X154126726Y-47004000D01*
X154693257Y-47004000D01*
X154653397Y-47063654D01*
X154567000Y-47498000D01*
X154567000Y-48034962D01*
X154466683Y-48053838D01*
X154250559Y-48192910D01*
X154105569Y-48405110D01*
X154089420Y-48484856D01*
X152466038Y-48484856D01*
X152447162Y-48384539D01*
X152308090Y-48168415D01*
X152095890Y-48023425D01*
X151844000Y-47972416D01*
X149844000Y-47972416D01*
X149608683Y-48016694D01*
X149392559Y-48155766D01*
X149247569Y-48367966D01*
X149196560Y-48619856D01*
X149196560Y-48644560D01*
X147844000Y-48644560D01*
X147608683Y-48688838D01*
X147392559Y-48827910D01*
X147247569Y-49040110D01*
X147196560Y-49292000D01*
X147196560Y-51292000D01*
X147240838Y-51527317D01*
X147379910Y-51743441D01*
X147592110Y-51888431D01*
X147844000Y-51939440D01*
X149844000Y-51939440D01*
X150079317Y-51895162D01*
X150295441Y-51756090D01*
X150440431Y-51543890D01*
X150491440Y-51292000D01*
X150491440Y-51267296D01*
X151844000Y-51267296D01*
X152079317Y-51223018D01*
X152295441Y-51083946D01*
X152440431Y-50871746D01*
X152464102Y-50754856D01*
X154072973Y-50754856D01*
X154098838Y-50892317D01*
X154237910Y-51108441D01*
X154450110Y-51253431D01*
X154702000Y-51304440D01*
X156702000Y-51304440D01*
X156937317Y-51260162D01*
X157153441Y-51121090D01*
X157298431Y-50908890D01*
X157349440Y-50657000D01*
X157349440Y-48657000D01*
X157305162Y-48421683D01*
X157166090Y-48205559D01*
X156953890Y-48060569D01*
X156837000Y-48036898D01*
X156837000Y-47968132D01*
X157510692Y-47294440D01*
X158153000Y-47294440D01*
X158388317Y-47250162D01*
X158604441Y-47111090D01*
X158692644Y-46982000D01*
X163068000Y-46982000D01*
X163502346Y-46895603D01*
X163870566Y-46649566D01*
X165648566Y-44871566D01*
X165677008Y-44829000D01*
X165894603Y-44503346D01*
X165981000Y-44069000D01*
X165981000Y-39505926D01*
X166006317Y-39501162D01*
X166222441Y-39362090D01*
X166367431Y-39149890D01*
X166375914Y-39108000D01*
X168520074Y-39108000D01*
X168524838Y-39133317D01*
X168663910Y-39349441D01*
X168876110Y-39494431D01*
X169128000Y-39545440D01*
X170978000Y-39545440D01*
X171213317Y-39501162D01*
X171429441Y-39362090D01*
X171574431Y-39149890D01*
X171625440Y-38898000D01*
X171625440Y-37048000D01*
X171581162Y-36812683D01*
X171442090Y-36596559D01*
X171260126Y-36472229D01*
X171374732Y-36357823D01*
X171612728Y-35784664D01*
X171613270Y-35164058D01*
X171376275Y-34590486D01*
X171009174Y-34222744D01*
X171374732Y-33857823D01*
X171612728Y-33284664D01*
X171613270Y-32664058D01*
X171376275Y-32090486D01*
X171009174Y-31722744D01*
X171374732Y-31357823D01*
X171612728Y-30784664D01*
X171613270Y-30164058D01*
X171376275Y-29590486D01*
X170937823Y-29151268D01*
X170364664Y-28913272D01*
X169744058Y-28912730D01*
X169170486Y-29149725D01*
X168981882Y-29338000D01*
X165917229Y-29338000D01*
X165730823Y-29151268D01*
X165157664Y-28913272D01*
X164537058Y-28912730D01*
X163963486Y-29149725D01*
X163767870Y-29345000D01*
X161782000Y-29345000D01*
X161347654Y-29431397D01*
X161345913Y-29432560D01*
X161332000Y-29432560D01*
X161096683Y-29476838D01*
X160880559Y-29615910D01*
X160879440Y-29617548D01*
X160879440Y-29130000D01*
X160835162Y-28894683D01*
X160696090Y-28678559D01*
X160483890Y-28533569D01*
X160232000Y-28482560D01*
X159332000Y-28482560D01*
X159170179Y-28513009D01*
X159155090Y-28489559D01*
X158942890Y-28344569D01*
X158701000Y-28295585D01*
X158701000Y-28147000D01*
X158643148Y-27856161D01*
X158643148Y-27856160D01*
X158478401Y-27609599D01*
X157028802Y-26160000D01*
X165608000Y-26160000D01*
X165898839Y-26102148D01*
X166145401Y-25937401D01*
X166653401Y-25429401D01*
X166673046Y-25400000D01*
X166818148Y-25182839D01*
X166876000Y-24892000D01*
X166876000Y-24516995D01*
X167356641Y-24612600D01*
X167415359Y-24612600D01*
X167988848Y-24498526D01*
X168475029Y-24173670D01*
X168799885Y-23687489D01*
X168913959Y-23114000D01*
X168799885Y-22540511D01*
X168475029Y-22054330D01*
X168151772Y-21838336D01*
X168274490Y-21780821D01*
X168668688Y-21348947D01*
X168840958Y-20933026D01*
X168719817Y-20701000D01*
X167513000Y-20701000D01*
X167513000Y-20721000D01*
X167259000Y-20721000D01*
X167259000Y-20701000D01*
X167239000Y-20701000D01*
X167239000Y-20447000D01*
X167259000Y-20447000D01*
X167259000Y-19239531D01*
X167513000Y-19239531D01*
X167513000Y-20447000D01*
X168719817Y-20447000D01*
X168840958Y-20214974D01*
X168668688Y-19799053D01*
X168274490Y-19367179D01*
X167745027Y-19119032D01*
X167513000Y-19239531D01*
X167259000Y-19239531D01*
X167026973Y-19119032D01*
X166497510Y-19367179D01*
X166115992Y-19785161D01*
X165935029Y-19514330D01*
X165448848Y-19189474D01*
X164875359Y-19075400D01*
X164816641Y-19075400D01*
X164243152Y-19189474D01*
X163756971Y-19514330D01*
X163576000Y-19785172D01*
X163395029Y-19514330D01*
X162908848Y-19189474D01*
X162335359Y-19075400D01*
X162276641Y-19075400D01*
X161703152Y-19189474D01*
X161216971Y-19514330D01*
X161016738Y-19814000D01*
X159893000Y-19814000D01*
X159602161Y-19871852D01*
X159355599Y-20036599D01*
X158562198Y-20830000D01*
X153573563Y-20830000D01*
X153373890Y-20693569D01*
X153122000Y-20642560D01*
X152695536Y-20642560D01*
X152837431Y-20434890D01*
X152888440Y-20183000D01*
X152888440Y-18933000D01*
X152844162Y-18697683D01*
X152705090Y-18481559D01*
X152492890Y-18336569D01*
X152241000Y-18285560D01*
X151293362Y-18285560D01*
X150250401Y-17242599D01*
X150179164Y-17195000D01*
X172543000Y-17195000D01*
X172543000Y-58751000D01*
X121843000Y-58751000D01*
X121843000Y-28607691D01*
X132598000Y-28607691D01*
X132598000Y-29198250D01*
X132756750Y-29357000D01*
X133731000Y-29357000D01*
X133731000Y-28257750D01*
X133985000Y-28257750D01*
X133985000Y-29357000D01*
X134959250Y-29357000D01*
X135118000Y-29198250D01*
X135118000Y-28607691D01*
X135021327Y-28374302D01*
X134842699Y-28195673D01*
X134609310Y-28099000D01*
X134143750Y-28099000D01*
X133985000Y-28257750D01*
X133731000Y-28257750D01*
X133572250Y-28099000D01*
X133106690Y-28099000D01*
X132873301Y-28195673D01*
X132694673Y-28374302D01*
X132598000Y-28607691D01*
X121843000Y-28607691D01*
X121843000Y-26173750D01*
X132598000Y-26173750D01*
X132598000Y-26764309D01*
X132694673Y-26997698D01*
X132873301Y-27176327D01*
X133106690Y-27273000D01*
X133572250Y-27273000D01*
X133731000Y-27114250D01*
X133731000Y-26015000D01*
X133985000Y-26015000D01*
X133985000Y-27114250D01*
X134143750Y-27273000D01*
X134609310Y-27273000D01*
X134842699Y-27176327D01*
X135021327Y-26997698D01*
X135118000Y-26764309D01*
X135118000Y-26173750D01*
X134959250Y-26015000D01*
X133985000Y-26015000D01*
X133731000Y-26015000D01*
X132756750Y-26015000D01*
X132598000Y-26173750D01*
X121843000Y-26173750D01*
X121843000Y-17195000D01*
X134474560Y-17195000D01*
X134474560Y-21990560D01*
G36*
X131384748Y-50992858D02*
X131370605Y-51007000D01*
X132289256Y-51925651D01*
X132548332Y-51836179D01*
X132685089Y-51463891D01*
X132939599Y-51718401D01*
X133056612Y-51796586D01*
X132371618Y-52481580D01*
X132080426Y-52189879D01*
X132109651Y-52105256D01*
X131191000Y-51186605D01*
X131176858Y-51200748D01*
X130997253Y-51021143D01*
X131011395Y-51007000D01*
X130997253Y-50992858D01*
X131176858Y-50813253D01*
X131191000Y-50827395D01*
X131205143Y-50813253D01*
X131384748Y-50992858D01*
X131384748Y-50992858D01*
G37*
X131384748Y-50992858D02*
X131370605Y-51007000D01*
X132289256Y-51925651D01*
X132548332Y-51836179D01*
X132685089Y-51463891D01*
X132939599Y-51718401D01*
X133056612Y-51796586D01*
X132371618Y-52481580D01*
X132080426Y-52189879D01*
X132109651Y-52105256D01*
X131191000Y-51186605D01*
X131176858Y-51200748D01*
X130997253Y-51021143D01*
X131011395Y-51007000D01*
X130997253Y-50992858D01*
X131176858Y-50813253D01*
X131191000Y-50827395D01*
X131205143Y-50813253D01*
X131384748Y-50992858D01*
G36*
X147702673Y-18573301D02*
X147606000Y-18806690D01*
X147606000Y-19272250D01*
X147764750Y-19431000D01*
X148864000Y-19431000D01*
X148864000Y-19411000D01*
X149118000Y-19411000D01*
X149118000Y-19431000D01*
X149138000Y-19431000D01*
X149138000Y-19685000D01*
X149118000Y-19685000D01*
X149118000Y-20659250D01*
X149276750Y-20818000D01*
X149867309Y-20818000D01*
X150100698Y-20721327D01*
X150241936Y-20580090D01*
X150276910Y-20634441D01*
X150489110Y-20779431D01*
X150720325Y-20826253D01*
X150717764Y-20830000D01*
X150622000Y-20830000D01*
X150331160Y-20887852D01*
X150084599Y-21052599D01*
X149830599Y-21306599D01*
X149665852Y-21553161D01*
X149608000Y-21844000D01*
X149608000Y-35687000D01*
X149665852Y-35977839D01*
X149830599Y-36224401D01*
X154097560Y-40491362D01*
X154097560Y-40841194D01*
X154034090Y-40742559D01*
X153821890Y-40597569D01*
X153570000Y-40546560D01*
X153047362Y-40546560D01*
X151968401Y-39467599D01*
X151721839Y-39302852D01*
X151431000Y-39245000D01*
X143256000Y-39245000D01*
X142965160Y-39302852D01*
X142718599Y-39467599D01*
X142619000Y-39567198D01*
X142619000Y-36509802D01*
X142935802Y-36193000D01*
X143637000Y-36193000D01*
X143927839Y-36135148D01*
X144174401Y-35970401D01*
X145317401Y-34827401D01*
X145482148Y-34580839D01*
X145540000Y-34290000D01*
X145540000Y-28321000D01*
X145482148Y-28030161D01*
X145482148Y-28030160D01*
X145317401Y-27783599D01*
X144936401Y-27402599D01*
X144689839Y-27237852D01*
X144399000Y-27180000D01*
X144326914Y-27180000D01*
X144369440Y-26970000D01*
X144369440Y-26370000D01*
X144325162Y-26134683D01*
X144261322Y-26035472D01*
X144318431Y-25951890D01*
X144369440Y-25700000D01*
X144369440Y-25151659D01*
X144466201Y-25191838D01*
X144838167Y-25192162D01*
X145181943Y-25050117D01*
X145445192Y-24787327D01*
X145587838Y-24443799D01*
X145588162Y-24071833D01*
X145446117Y-23728057D01*
X145276791Y-23558435D01*
X145445192Y-23390327D01*
X145587838Y-23046799D01*
X145588162Y-22674833D01*
X145446117Y-22331057D01*
X145183327Y-22067808D01*
X144839799Y-21925162D01*
X144467833Y-21924838D01*
X144352756Y-21972387D01*
X144369440Y-21890000D01*
X144369440Y-21290000D01*
X144325162Y-21054683D01*
X144250752Y-20939047D01*
X144388317Y-20913162D01*
X144604441Y-20774090D01*
X144650969Y-20705994D01*
X144793302Y-20848327D01*
X145026691Y-20945000D01*
X145617250Y-20945000D01*
X145776000Y-20786250D01*
X145776000Y-19812000D01*
X146030000Y-19812000D01*
X146030000Y-20786250D01*
X146188750Y-20945000D01*
X146779309Y-20945000D01*
X147012698Y-20848327D01*
X147191327Y-20669699D01*
X147288000Y-20436310D01*
X147288000Y-19970750D01*
X147161000Y-19843750D01*
X147606000Y-19843750D01*
X147606000Y-20309310D01*
X147702673Y-20542699D01*
X147881302Y-20721327D01*
X148114691Y-20818000D01*
X148705250Y-20818000D01*
X148864000Y-20659250D01*
X148864000Y-19685000D01*
X147764750Y-19685000D01*
X147606000Y-19843750D01*
X147161000Y-19843750D01*
X147129250Y-19812000D01*
X146030000Y-19812000D01*
X145776000Y-19812000D01*
X145756000Y-19812000D01*
X145756000Y-19558000D01*
X145776000Y-19558000D01*
X145776000Y-19538000D01*
X146030000Y-19538000D01*
X146030000Y-19558000D01*
X147129250Y-19558000D01*
X147288000Y-19399250D01*
X147288000Y-18933690D01*
X147246251Y-18832899D01*
X147349431Y-18681890D01*
X147378164Y-18540000D01*
X147735974Y-18540000D01*
X147702673Y-18573301D01*
X147702673Y-18573301D01*
G37*
X147702673Y-18573301D02*
X147606000Y-18806690D01*
X147606000Y-19272250D01*
X147764750Y-19431000D01*
X148864000Y-19431000D01*
X148864000Y-19411000D01*
X149118000Y-19411000D01*
X149118000Y-19431000D01*
X149138000Y-19431000D01*
X149138000Y-19685000D01*
X149118000Y-19685000D01*
X149118000Y-20659250D01*
X149276750Y-20818000D01*
X149867309Y-20818000D01*
X150100698Y-20721327D01*
X150241936Y-20580090D01*
X150276910Y-20634441D01*
X150489110Y-20779431D01*
X150720325Y-20826253D01*
X150717764Y-20830000D01*
X150622000Y-20830000D01*
X150331160Y-20887852D01*
X150084599Y-21052599D01*
X149830599Y-21306599D01*
X149665852Y-21553161D01*
X149608000Y-21844000D01*
X149608000Y-35687000D01*
X149665852Y-35977839D01*
X149830599Y-36224401D01*
X154097560Y-40491362D01*
X154097560Y-40841194D01*
X154034090Y-40742559D01*
X153821890Y-40597569D01*
X153570000Y-40546560D01*
X153047362Y-40546560D01*
X151968401Y-39467599D01*
X151721839Y-39302852D01*
X151431000Y-39245000D01*
X143256000Y-39245000D01*
X142965160Y-39302852D01*
X142718599Y-39467599D01*
X142619000Y-39567198D01*
X142619000Y-36509802D01*
X142935802Y-36193000D01*
X143637000Y-36193000D01*
X143927839Y-36135148D01*
X144174401Y-35970401D01*
X145317401Y-34827401D01*
X145482148Y-34580839D01*
X145540000Y-34290000D01*
X145540000Y-28321000D01*
X145482148Y-28030161D01*
X145482148Y-28030160D01*
X145317401Y-27783599D01*
X144936401Y-27402599D01*
X144689839Y-27237852D01*
X144399000Y-27180000D01*
X144326914Y-27180000D01*
X144369440Y-26970000D01*
X144369440Y-26370000D01*
X144325162Y-26134683D01*
X144261322Y-26035472D01*
X144318431Y-25951890D01*
X144369440Y-25700000D01*
X144369440Y-25151659D01*
X144466201Y-25191838D01*
X144838167Y-25192162D01*
X145181943Y-25050117D01*
X145445192Y-24787327D01*
X145587838Y-24443799D01*
X145588162Y-24071833D01*
X145446117Y-23728057D01*
X145276791Y-23558435D01*
X145445192Y-23390327D01*
X145587838Y-23046799D01*
X145588162Y-22674833D01*
X145446117Y-22331057D01*
X145183327Y-22067808D01*
X144839799Y-21925162D01*
X144467833Y-21924838D01*
X144352756Y-21972387D01*
X144369440Y-21890000D01*
X144369440Y-21290000D01*
X144325162Y-21054683D01*
X144250752Y-20939047D01*
X144388317Y-20913162D01*
X144604441Y-20774090D01*
X144650969Y-20705994D01*
X144793302Y-20848327D01*
X145026691Y-20945000D01*
X145617250Y-20945000D01*
X145776000Y-20786250D01*
X145776000Y-19812000D01*
X146030000Y-19812000D01*
X146030000Y-20786250D01*
X146188750Y-20945000D01*
X146779309Y-20945000D01*
X147012698Y-20848327D01*
X147191327Y-20669699D01*
X147288000Y-20436310D01*
X147288000Y-19970750D01*
X147161000Y-19843750D01*
X147606000Y-19843750D01*
X147606000Y-20309310D01*
X147702673Y-20542699D01*
X147881302Y-20721327D01*
X148114691Y-20818000D01*
X148705250Y-20818000D01*
X148864000Y-20659250D01*
X148864000Y-19685000D01*
X147764750Y-19685000D01*
X147606000Y-19843750D01*
X147161000Y-19843750D01*
X147129250Y-19812000D01*
X146030000Y-19812000D01*
X145776000Y-19812000D01*
X145756000Y-19812000D01*
X145756000Y-19558000D01*
X145776000Y-19558000D01*
X145776000Y-19538000D01*
X146030000Y-19538000D01*
X146030000Y-19558000D01*
X147129250Y-19558000D01*
X147288000Y-19399250D01*
X147288000Y-18933690D01*
X147246251Y-18832899D01*
X147349431Y-18681890D01*
X147378164Y-18540000D01*
X147735974Y-18540000D01*
X147702673Y-18573301D01*
G36*
X155368000Y-29464000D02*
X155388000Y-29464000D01*
X155388000Y-29718000D01*
X155368000Y-29718000D01*
X155368000Y-30717250D01*
X155526750Y-30876000D01*
X156043977Y-30876000D01*
X156053599Y-30890401D01*
X157040985Y-31877787D01*
X156955683Y-31893838D01*
X156739559Y-32032910D01*
X156594569Y-32245110D01*
X156587809Y-32278490D01*
X156529327Y-32137301D01*
X156350698Y-31958673D01*
X156117309Y-31862000D01*
X155526750Y-31862000D01*
X155368000Y-32020750D01*
X155368000Y-33020000D01*
X155388000Y-33020000D01*
X155388000Y-33274000D01*
X155368000Y-33274000D01*
X155368000Y-34273250D01*
X155526750Y-34432000D01*
X156117309Y-34432000D01*
X156350698Y-34335327D01*
X156529327Y-34156699D01*
X156585654Y-34020713D01*
X156587838Y-34032317D01*
X156726910Y-34248441D01*
X156939110Y-34393431D01*
X157191000Y-34444440D01*
X158691000Y-34444440D01*
X158704358Y-34441927D01*
X158697000Y-34459690D01*
X158697000Y-34700250D01*
X158855750Y-34859000D01*
X159655000Y-34859000D01*
X159655000Y-34839000D01*
X159909000Y-34839000D01*
X159909000Y-34859000D01*
X160708250Y-34859000D01*
X160794262Y-34772988D01*
X160867910Y-34887441D01*
X161080110Y-35032431D01*
X161332000Y-35083440D01*
X162123914Y-35083440D01*
X162125655Y-35084603D01*
X162560000Y-35171000D01*
X162994345Y-35084603D01*
X163362566Y-34838566D01*
X163461292Y-34739840D01*
X163286272Y-35161336D01*
X163286250Y-35187000D01*
X163052000Y-35187000D01*
X162617654Y-35273397D01*
X162314964Y-35475648D01*
X162249434Y-35519434D01*
X161199348Y-36569520D01*
X161096683Y-36588838D01*
X160880559Y-36727910D01*
X160879440Y-36729548D01*
X160879440Y-36242000D01*
X160835162Y-36006683D01*
X160707592Y-35808434D01*
X160770327Y-35745699D01*
X160867000Y-35512310D01*
X160867000Y-35271750D01*
X160708250Y-35113000D01*
X159909000Y-35113000D01*
X159909000Y-35133000D01*
X159655000Y-35133000D01*
X159655000Y-35113000D01*
X158855750Y-35113000D01*
X158697000Y-35271750D01*
X158697000Y-35406775D01*
X158691000Y-35405560D01*
X158679629Y-35405560D01*
X158677759Y-35396161D01*
X158643148Y-35222160D01*
X158478401Y-34975599D01*
X158271401Y-34768599D01*
X158024839Y-34603852D01*
X157734000Y-34546000D01*
X154746802Y-34546000D01*
X154684000Y-34483198D01*
X154684000Y-34432000D01*
X154955250Y-34432000D01*
X155114000Y-34273250D01*
X155114000Y-33274000D01*
X155094000Y-33274000D01*
X155094000Y-33020000D01*
X155114000Y-33020000D01*
X155114000Y-32020750D01*
X154955250Y-31862000D01*
X154684000Y-31862000D01*
X154684000Y-30876000D01*
X154955250Y-30876000D01*
X155114000Y-30717250D01*
X155114000Y-29718000D01*
X155094000Y-29718000D01*
X155094000Y-29464000D01*
X155114000Y-29464000D01*
X155114000Y-29444000D01*
X155368000Y-29444000D01*
X155368000Y-29464000D01*
X155368000Y-29464000D01*
G37*
X155368000Y-29464000D02*
X155388000Y-29464000D01*
X155388000Y-29718000D01*
X155368000Y-29718000D01*
X155368000Y-30717250D01*
X155526750Y-30876000D01*
X156043977Y-30876000D01*
X156053599Y-30890401D01*
X157040985Y-31877787D01*
X156955683Y-31893838D01*
X156739559Y-32032910D01*
X156594569Y-32245110D01*
X156587809Y-32278490D01*
X156529327Y-32137301D01*
X156350698Y-31958673D01*
X156117309Y-31862000D01*
X155526750Y-31862000D01*
X155368000Y-32020750D01*
X155368000Y-33020000D01*
X155388000Y-33020000D01*
X155388000Y-33274000D01*
X155368000Y-33274000D01*
X155368000Y-34273250D01*
X155526750Y-34432000D01*
X156117309Y-34432000D01*
X156350698Y-34335327D01*
X156529327Y-34156699D01*
X156585654Y-34020713D01*
X156587838Y-34032317D01*
X156726910Y-34248441D01*
X156939110Y-34393431D01*
X157191000Y-34444440D01*
X158691000Y-34444440D01*
X158704358Y-34441927D01*
X158697000Y-34459690D01*
X158697000Y-34700250D01*
X158855750Y-34859000D01*
X159655000Y-34859000D01*
X159655000Y-34839000D01*
X159909000Y-34839000D01*
X159909000Y-34859000D01*
X160708250Y-34859000D01*
X160794262Y-34772988D01*
X160867910Y-34887441D01*
X161080110Y-35032431D01*
X161332000Y-35083440D01*
X162123914Y-35083440D01*
X162125655Y-35084603D01*
X162560000Y-35171000D01*
X162994345Y-35084603D01*
X163362566Y-34838566D01*
X163461292Y-34739840D01*
X163286272Y-35161336D01*
X163286250Y-35187000D01*
X163052000Y-35187000D01*
X162617654Y-35273397D01*
X162314964Y-35475648D01*
X162249434Y-35519434D01*
X161199348Y-36569520D01*
X161096683Y-36588838D01*
X160880559Y-36727910D01*
X160879440Y-36729548D01*
X160879440Y-36242000D01*
X160835162Y-36006683D01*
X160707592Y-35808434D01*
X160770327Y-35745699D01*
X160867000Y-35512310D01*
X160867000Y-35271750D01*
X160708250Y-35113000D01*
X159909000Y-35113000D01*
X159909000Y-35133000D01*
X159655000Y-35133000D01*
X159655000Y-35113000D01*
X158855750Y-35113000D01*
X158697000Y-35271750D01*
X158697000Y-35406775D01*
X158691000Y-35405560D01*
X158679629Y-35405560D01*
X158677759Y-35396161D01*
X158643148Y-35222160D01*
X158478401Y-34975599D01*
X158271401Y-34768599D01*
X158024839Y-34603852D01*
X157734000Y-34546000D01*
X154746802Y-34546000D01*
X154684000Y-34483198D01*
X154684000Y-34432000D01*
X154955250Y-34432000D01*
X155114000Y-34273250D01*
X155114000Y-33274000D01*
X155094000Y-33274000D01*
X155094000Y-33020000D01*
X155114000Y-33020000D01*
X155114000Y-32020750D01*
X154955250Y-31862000D01*
X154684000Y-31862000D01*
X154684000Y-30876000D01*
X154955250Y-30876000D01*
X155114000Y-30717250D01*
X155114000Y-29718000D01*
X155094000Y-29718000D01*
X155094000Y-29464000D01*
X155114000Y-29464000D01*
X155114000Y-29444000D01*
X155368000Y-29444000D01*
X155368000Y-29464000D01*
G36*
X142874000Y-32893000D02*
X142894000Y-32893000D01*
X142894000Y-33147000D01*
X142874000Y-33147000D01*
X142874000Y-33796250D01*
X143032750Y-33955000D01*
X143848309Y-33955000D01*
X144020000Y-33883883D01*
X144020000Y-33975198D01*
X143322198Y-34673000D01*
X142621000Y-34673000D01*
X142330161Y-34730852D01*
X142083599Y-34895599D01*
X141369440Y-35609758D01*
X141369440Y-33815465D01*
X141412302Y-33858327D01*
X141645691Y-33955000D01*
X142461250Y-33955000D01*
X142620000Y-33796250D01*
X142620000Y-33147000D01*
X142600000Y-33147000D01*
X142600000Y-32893000D01*
X142620000Y-32893000D01*
X142620000Y-32873000D01*
X142874000Y-32873000D01*
X142874000Y-32893000D01*
X142874000Y-32893000D01*
G37*
X142874000Y-32893000D02*
X142894000Y-32893000D01*
X142894000Y-33147000D01*
X142874000Y-33147000D01*
X142874000Y-33796250D01*
X143032750Y-33955000D01*
X143848309Y-33955000D01*
X144020000Y-33883883D01*
X144020000Y-33975198D01*
X143322198Y-34673000D01*
X142621000Y-34673000D01*
X142330161Y-34730852D01*
X142083599Y-34895599D01*
X141369440Y-35609758D01*
X141369440Y-33815465D01*
X141412302Y-33858327D01*
X141645691Y-33955000D01*
X142461250Y-33955000D01*
X142620000Y-33796250D01*
X142620000Y-33147000D01*
X142600000Y-33147000D01*
X142600000Y-32893000D01*
X142620000Y-32893000D01*
X142620000Y-32873000D01*
X142874000Y-32873000D01*
X142874000Y-32893000D01*
G36*
X158697000Y-30903690D02*
X158697000Y-31144250D01*
X158855750Y-31303000D01*
X159655000Y-31303000D01*
X159655000Y-31283000D01*
X159909000Y-31283000D01*
X159909000Y-31303000D01*
X160708250Y-31303000D01*
X160794262Y-31216988D01*
X160867910Y-31331441D01*
X161080110Y-31476431D01*
X161332000Y-31527440D01*
X161345913Y-31527440D01*
X161347654Y-31528603D01*
X161782000Y-31615000D01*
X163781758Y-31615000D01*
X163889826Y-31723256D01*
X163774882Y-31838000D01*
X163623000Y-31838000D01*
X163188654Y-31924397D01*
X162870021Y-32137301D01*
X162820434Y-32170434D01*
X162002308Y-32988560D01*
X161332000Y-32988560D01*
X161096683Y-33032838D01*
X160880559Y-33171910D01*
X160879440Y-33173548D01*
X160879440Y-32686000D01*
X160835162Y-32450683D01*
X160707592Y-32252434D01*
X160770327Y-32189699D01*
X160867000Y-31956310D01*
X160867000Y-31715750D01*
X160708250Y-31557000D01*
X159909000Y-31557000D01*
X159909000Y-31577000D01*
X159655000Y-31577000D01*
X159655000Y-31557000D01*
X158855750Y-31557000D01*
X158701000Y-31711750D01*
X158701000Y-31703000D01*
X158643148Y-31412161D01*
X158643148Y-31412160D01*
X158478401Y-31165599D01*
X158201242Y-30888440D01*
X158691000Y-30888440D01*
X158704358Y-30885927D01*
X158697000Y-30903690D01*
X158697000Y-30903690D01*
G37*
X158697000Y-30903690D02*
X158697000Y-31144250D01*
X158855750Y-31303000D01*
X159655000Y-31303000D01*
X159655000Y-31283000D01*
X159909000Y-31283000D01*
X159909000Y-31303000D01*
X160708250Y-31303000D01*
X160794262Y-31216988D01*
X160867910Y-31331441D01*
X161080110Y-31476431D01*
X161332000Y-31527440D01*
X161345913Y-31527440D01*
X161347654Y-31528603D01*
X161782000Y-31615000D01*
X163781758Y-31615000D01*
X163889826Y-31723256D01*
X163774882Y-31838000D01*
X163623000Y-31838000D01*
X163188654Y-31924397D01*
X162870021Y-32137301D01*
X162820434Y-32170434D01*
X162002308Y-32988560D01*
X161332000Y-32988560D01*
X161096683Y-33032838D01*
X160880559Y-33171910D01*
X160879440Y-33173548D01*
X160879440Y-32686000D01*
X160835162Y-32450683D01*
X160707592Y-32252434D01*
X160770327Y-32189699D01*
X160867000Y-31956310D01*
X160867000Y-31715750D01*
X160708250Y-31557000D01*
X159909000Y-31557000D01*
X159909000Y-31577000D01*
X159655000Y-31577000D01*
X159655000Y-31557000D01*
X158855750Y-31557000D01*
X158701000Y-31711750D01*
X158701000Y-31703000D01*
X158643148Y-31412161D01*
X158643148Y-31412160D01*
X158478401Y-31165599D01*
X158201242Y-30888440D01*
X158691000Y-30888440D01*
X158704358Y-30885927D01*
X158697000Y-30903690D01*
M02*
