G04 #@! TF.GenerationSoftware,KiCad,Pcbnew,(5.0.0)*
G04 #@! TF.CreationDate,2018-08-24T12:12:44+02:00*
G04 #@! TF.ProjectId,dmx_rgb,646D785F7267622E6B696361645F7063,rev?*
G04 #@! TF.SameCoordinates,Original*
G04 #@! TF.FileFunction,Legend,Top*
G04 #@! TF.FilePolarity,Positive*
%FSLAX46Y46*%
G04 Gerber Fmt 4.6, Leading zero omitted, Abs format (unit mm)*
G04 Created by KiCad (PCBNEW (5.0.0)) date 08/24/18 12:12:44*
%MOMM*%
%LPD*%
G01*
G04 APERTURE LIST*
%ADD10C,0.120000*%
%ADD11C,0.150000*%
G04 APERTURE END LIST*
D10*
G04 #@! TO.C,C5*
X150227264Y-57690437D02*
G75*
G03X150224000Y-47892643I-1383264J4898437D01*
G01*
X147460736Y-57690437D02*
G75*
G02X147464000Y-47892643I1383264J4898437D01*
G01*
X147460736Y-57690437D02*
G75*
G03X150224000Y-57691357I1383264J4898437D01*
G01*
X153894000Y-52792000D02*
X143794000Y-52792000D01*
X153894000Y-52832000D02*
X143794000Y-52832000D01*
X153894000Y-52872000D02*
X143794000Y-52872000D01*
X153893000Y-52912000D02*
X143795000Y-52912000D01*
X153892000Y-52952000D02*
X143796000Y-52952000D01*
X153891000Y-52992000D02*
X143797000Y-52992000D01*
X153889000Y-53032000D02*
X143799000Y-53032000D01*
X153887000Y-53072000D02*
X143801000Y-53072000D01*
X153884000Y-53112000D02*
X143804000Y-53112000D01*
X153882000Y-53152000D02*
X143806000Y-53152000D01*
X153879000Y-53192000D02*
X143809000Y-53192000D01*
X153875000Y-53232000D02*
X143813000Y-53232000D01*
X153872000Y-53272000D02*
X143816000Y-53272000D01*
X153868000Y-53312000D02*
X143820000Y-53312000D01*
X153864000Y-53352000D02*
X143824000Y-53352000D01*
X153859000Y-53392000D02*
X143829000Y-53392000D01*
X153854000Y-53432000D02*
X143834000Y-53432000D01*
X153849000Y-53472000D02*
X143839000Y-53472000D01*
X153843000Y-53513000D02*
X143845000Y-53513000D01*
X153837000Y-53553000D02*
X143851000Y-53553000D01*
X153831000Y-53593000D02*
X143857000Y-53593000D01*
X153825000Y-53633000D02*
X143863000Y-53633000D01*
X153818000Y-53673000D02*
X143870000Y-53673000D01*
X153811000Y-53713000D02*
X143877000Y-53713000D01*
X153803000Y-53753000D02*
X143885000Y-53753000D01*
X153795000Y-53793000D02*
X143893000Y-53793000D01*
X153787000Y-53833000D02*
X143901000Y-53833000D01*
X153779000Y-53873000D02*
X143909000Y-53873000D01*
X153770000Y-53913000D02*
X143918000Y-53913000D01*
X153761000Y-53953000D02*
X143927000Y-53953000D01*
X153751000Y-53993000D02*
X143937000Y-53993000D01*
X153741000Y-54033000D02*
X143947000Y-54033000D01*
X153731000Y-54073000D02*
X143957000Y-54073000D01*
X153720000Y-54113000D02*
X150025000Y-54113000D01*
X147663000Y-54113000D02*
X143968000Y-54113000D01*
X153709000Y-54153000D02*
X150025000Y-54153000D01*
X147663000Y-54153000D02*
X143979000Y-54153000D01*
X153698000Y-54193000D02*
X150025000Y-54193000D01*
X147663000Y-54193000D02*
X143990000Y-54193000D01*
X153687000Y-54233000D02*
X150025000Y-54233000D01*
X147663000Y-54233000D02*
X144001000Y-54233000D01*
X153675000Y-54273000D02*
X150025000Y-54273000D01*
X147663000Y-54273000D02*
X144013000Y-54273000D01*
X153662000Y-54313000D02*
X150025000Y-54313000D01*
X147663000Y-54313000D02*
X144026000Y-54313000D01*
X153650000Y-54353000D02*
X150025000Y-54353000D01*
X147663000Y-54353000D02*
X144038000Y-54353000D01*
X153636000Y-54393000D02*
X150025000Y-54393000D01*
X147663000Y-54393000D02*
X144052000Y-54393000D01*
X153623000Y-54433000D02*
X150025000Y-54433000D01*
X147663000Y-54433000D02*
X144065000Y-54433000D01*
X153609000Y-54473000D02*
X150025000Y-54473000D01*
X147663000Y-54473000D02*
X144079000Y-54473000D01*
X153595000Y-54513000D02*
X150025000Y-54513000D01*
X147663000Y-54513000D02*
X144093000Y-54513000D01*
X153581000Y-54553000D02*
X150025000Y-54553000D01*
X147663000Y-54553000D02*
X144107000Y-54553000D01*
X153566000Y-54593000D02*
X150025000Y-54593000D01*
X147663000Y-54593000D02*
X144122000Y-54593000D01*
X153550000Y-54633000D02*
X150025000Y-54633000D01*
X147663000Y-54633000D02*
X144138000Y-54633000D01*
X153535000Y-54673000D02*
X150025000Y-54673000D01*
X147663000Y-54673000D02*
X144153000Y-54673000D01*
X153518000Y-54713000D02*
X150025000Y-54713000D01*
X147663000Y-54713000D02*
X144170000Y-54713000D01*
X153502000Y-54753000D02*
X150025000Y-54753000D01*
X147663000Y-54753000D02*
X144186000Y-54753000D01*
X153485000Y-54793000D02*
X150025000Y-54793000D01*
X145664000Y-54793000D02*
X144203000Y-54793000D01*
X153468000Y-54833000D02*
X150025000Y-54833000D01*
X145664000Y-54833000D02*
X144220000Y-54833000D01*
X153450000Y-54873000D02*
X150025000Y-54873000D01*
X145664000Y-54873000D02*
X144238000Y-54873000D01*
X153432000Y-54913000D02*
X150025000Y-54913000D01*
X145664000Y-54913000D02*
X144256000Y-54913000D01*
X153413000Y-54953000D02*
X150025000Y-54953000D01*
X145664000Y-54953000D02*
X144275000Y-54953000D01*
X153394000Y-54993000D02*
X150025000Y-54993000D01*
X145664000Y-54993000D02*
X144294000Y-54993000D01*
X153375000Y-55033000D02*
X150025000Y-55033000D01*
X145664000Y-55033000D02*
X144313000Y-55033000D01*
X153355000Y-55073000D02*
X150025000Y-55073000D01*
X145664000Y-55073000D02*
X144333000Y-55073000D01*
X153335000Y-55113000D02*
X150025000Y-55113000D01*
X145664000Y-55113000D02*
X144353000Y-55113000D01*
X153314000Y-55153000D02*
X150025000Y-55153000D01*
X145664000Y-55153000D02*
X144374000Y-55153000D01*
X153293000Y-55193000D02*
X150025000Y-55193000D01*
X145664000Y-55193000D02*
X144395000Y-55193000D01*
X153272000Y-55233000D02*
X150025000Y-55233000D01*
X145664000Y-55233000D02*
X144416000Y-55233000D01*
X153249000Y-55273000D02*
X150025000Y-55273000D01*
X145664000Y-55273000D02*
X144439000Y-55273000D01*
X153227000Y-55313000D02*
X150025000Y-55313000D01*
X145664000Y-55313000D02*
X144461000Y-55313000D01*
X153204000Y-55353000D02*
X150025000Y-55353000D01*
X145664000Y-55353000D02*
X144484000Y-55353000D01*
X153180000Y-55393000D02*
X150025000Y-55393000D01*
X145664000Y-55393000D02*
X144508000Y-55393000D01*
X153156000Y-55433000D02*
X150025000Y-55433000D01*
X145664000Y-55433000D02*
X144532000Y-55433000D01*
X153132000Y-55473000D02*
X150025000Y-55473000D01*
X145664000Y-55473000D02*
X144556000Y-55473000D01*
X153107000Y-55513000D02*
X150025000Y-55513000D01*
X145664000Y-55513000D02*
X144581000Y-55513000D01*
X153081000Y-55553000D02*
X150025000Y-55553000D01*
X145664000Y-55553000D02*
X144607000Y-55553000D01*
X153055000Y-55593000D02*
X150025000Y-55593000D01*
X145664000Y-55593000D02*
X144633000Y-55593000D01*
X153029000Y-55633000D02*
X150025000Y-55633000D01*
X145664000Y-55633000D02*
X144659000Y-55633000D01*
X153001000Y-55673000D02*
X150025000Y-55673000D01*
X145664000Y-55673000D02*
X144687000Y-55673000D01*
X152974000Y-55713000D02*
X150025000Y-55713000D01*
X145664000Y-55713000D02*
X144714000Y-55713000D01*
X152945000Y-55753000D02*
X150025000Y-55753000D01*
X145664000Y-55753000D02*
X144743000Y-55753000D01*
X152916000Y-55793000D02*
X150025000Y-55793000D01*
X145664000Y-55793000D02*
X144772000Y-55793000D01*
X152887000Y-55833000D02*
X150025000Y-55833000D01*
X145664000Y-55833000D02*
X144801000Y-55833000D01*
X152857000Y-55873000D02*
X150025000Y-55873000D01*
X145664000Y-55873000D02*
X144831000Y-55873000D01*
X152826000Y-55913000D02*
X150025000Y-55913000D01*
X145664000Y-55913000D02*
X144862000Y-55913000D01*
X152795000Y-55953000D02*
X150025000Y-55953000D01*
X145664000Y-55953000D02*
X144893000Y-55953000D01*
X152763000Y-55993000D02*
X150025000Y-55993000D01*
X145664000Y-55993000D02*
X144925000Y-55993000D01*
X152730000Y-56033000D02*
X150025000Y-56033000D01*
X145664000Y-56033000D02*
X144958000Y-56033000D01*
X152697000Y-56073000D02*
X150025000Y-56073000D01*
X145664000Y-56073000D02*
X144991000Y-56073000D01*
X152663000Y-56113000D02*
X150025000Y-56113000D01*
X145664000Y-56113000D02*
X145025000Y-56113000D01*
X152628000Y-56153000D02*
X150025000Y-56153000D01*
X145664000Y-56153000D02*
X145060000Y-56153000D01*
X152592000Y-56193000D02*
X150025000Y-56193000D01*
X145664000Y-56193000D02*
X145096000Y-56193000D01*
X152556000Y-56233000D02*
X150025000Y-56233000D01*
X145664000Y-56233000D02*
X145132000Y-56233000D01*
X152519000Y-56273000D02*
X150025000Y-56273000D01*
X145664000Y-56273000D02*
X145169000Y-56273000D01*
X152481000Y-56313000D02*
X150025000Y-56313000D01*
X145664000Y-56313000D02*
X145207000Y-56313000D01*
X152442000Y-56353000D02*
X150025000Y-56353000D01*
X145664000Y-56353000D02*
X145246000Y-56353000D01*
X152403000Y-56393000D02*
X150025000Y-56393000D01*
X145664000Y-56393000D02*
X145285000Y-56393000D01*
X152362000Y-56433000D02*
X150025000Y-56433000D01*
X145664000Y-56433000D02*
X145326000Y-56433000D01*
X152321000Y-56473000D02*
X148024000Y-56473000D01*
X145664000Y-56473000D02*
X145367000Y-56473000D01*
X152279000Y-56513000D02*
X148024000Y-56513000D01*
X145664000Y-56513000D02*
X145409000Y-56513000D01*
X152235000Y-56553000D02*
X148024000Y-56553000D01*
X145664000Y-56553000D02*
X145453000Y-56553000D01*
X152191000Y-56593000D02*
X148024000Y-56593000D01*
X145664000Y-56593000D02*
X145497000Y-56593000D01*
X152146000Y-56633000D02*
X148024000Y-56633000D01*
X145664000Y-56633000D02*
X145542000Y-56633000D01*
X152099000Y-56673000D02*
X148024000Y-56673000D01*
X145664000Y-56673000D02*
X145589000Y-56673000D01*
X152051000Y-56713000D02*
X148024000Y-56713000D01*
X145664000Y-56713000D02*
X145637000Y-56713000D01*
X152002000Y-56753000D02*
X148024000Y-56753000D01*
X151952000Y-56793000D02*
X148024000Y-56793000D01*
X151901000Y-56833000D02*
X148024000Y-56833000D01*
X151848000Y-56873000D02*
X148024000Y-56873000D01*
X151793000Y-56913000D02*
X148024000Y-56913000D01*
X151738000Y-56953000D02*
X148024000Y-56953000D01*
X151680000Y-56993000D02*
X148024000Y-56993000D01*
X151621000Y-57033000D02*
X148024000Y-57033000D01*
X151559000Y-57073000D02*
X148024000Y-57073000D01*
X151496000Y-57113000D02*
X148024000Y-57113000D01*
X151431000Y-57153000D02*
X146257000Y-57153000D01*
X151363000Y-57193000D02*
X146325000Y-57193000D01*
X151293000Y-57233000D02*
X146395000Y-57233000D01*
X151221000Y-57273000D02*
X146467000Y-57273000D01*
X151145000Y-57313000D02*
X146543000Y-57313000D01*
X151066000Y-57353000D02*
X146622000Y-57353000D01*
X150984000Y-57393000D02*
X146704000Y-57393000D01*
X150897000Y-57433000D02*
X146791000Y-57433000D01*
X150806000Y-57473000D02*
X146882000Y-57473000D01*
X150710000Y-57513000D02*
X146978000Y-57513000D01*
X150607000Y-57553000D02*
X147081000Y-57553000D01*
X150498000Y-57593000D02*
X147190000Y-57593000D01*
X150380000Y-57633000D02*
X147308000Y-57633000D01*
X150251000Y-57673000D02*
X147437000Y-57673000D01*
X150109000Y-57713000D02*
X147579000Y-57713000D01*
X149948000Y-57753000D02*
X147740000Y-57753000D01*
X149757000Y-57793000D02*
X147931000Y-57793000D01*
X149516000Y-57833000D02*
X148172000Y-57833000D01*
X149123000Y-57873000D02*
X148565000Y-57873000D01*
X148844000Y-47592000D02*
X148844000Y-49092000D01*
X149594000Y-48342000D02*
X148094000Y-48342000D01*
G04 #@! TO.C,D1*
X154702000Y-50857000D02*
X154702000Y-54057000D01*
X155649843Y-55843479D02*
G75*
G03X160782000Y-55880000I2592157J3646479D01*
G01*
X162049105Y-54487818D02*
G75*
G03X162052000Y-49911000I-3807105J2290818D01*
G01*
X160834157Y-48550521D02*
G75*
G03X155702000Y-48514000I-2592157J-3646479D01*
G01*
G04 #@! TO.C,J1*
X165904000Y-49523000D02*
X163704000Y-49523000D01*
X163704000Y-49523000D02*
X163704000Y-48023000D01*
X163704000Y-48023000D02*
X172204000Y-48023000D01*
X172204000Y-48023000D02*
X172204000Y-55823000D01*
X172204000Y-55823000D02*
X163704000Y-55823000D01*
X163704000Y-55823000D02*
X163704000Y-54323000D01*
X163704000Y-54323000D02*
X165904000Y-54323000D01*
X170704000Y-48023000D02*
X170704000Y-49523000D01*
X170704000Y-49523000D02*
X165904000Y-49523000D01*
X165904000Y-49523000D02*
X165904000Y-48023000D01*
X170704000Y-55823000D02*
X170704000Y-54323000D01*
X170704000Y-54323000D02*
X165904000Y-54323000D01*
X165904000Y-54323000D02*
X165904000Y-55823000D01*
X167854000Y-49523000D02*
X167854000Y-54323000D01*
X166854000Y-49523000D02*
X166854000Y-54323000D01*
X167854000Y-50673000D02*
X167854000Y-50353000D01*
X167854000Y-50353000D02*
X171274000Y-50353000D01*
X171274000Y-50353000D02*
X171354000Y-50673000D01*
X171354000Y-50673000D02*
X171274000Y-50993000D01*
X171274000Y-50993000D02*
X167854000Y-50993000D01*
X167854000Y-50993000D02*
X167854000Y-50673000D01*
X167854000Y-53173000D02*
X167854000Y-52853000D01*
X167854000Y-52853000D02*
X171274000Y-52853000D01*
X171274000Y-52853000D02*
X171354000Y-53173000D01*
X171354000Y-53173000D02*
X171274000Y-53493000D01*
X171274000Y-53493000D02*
X167854000Y-53493000D01*
X167854000Y-53493000D02*
X167854000Y-53173000D01*
X163854000Y-50673000D02*
X163254000Y-50373000D01*
X163254000Y-50373000D02*
X163254000Y-50973000D01*
X163254000Y-50973000D02*
X163854000Y-50673000D01*
G04 #@! TO.C,J2*
X121946000Y-46859000D02*
X121946000Y-28579000D01*
X121946000Y-28579000D02*
X131546000Y-28579000D01*
X131546000Y-28579000D02*
X131546000Y-46859000D01*
X131546000Y-46859000D02*
X121946000Y-46859000D01*
G04 #@! TO.C,J3*
X156976000Y-17044000D02*
X172716000Y-17044000D01*
X172716000Y-17044000D02*
X172716000Y-26644000D01*
X172716000Y-26644000D02*
X156976000Y-26644000D01*
X156976000Y-26644000D02*
X156976000Y-17044000D01*
G04 #@! TO.C,J4*
X129441000Y-58657000D02*
X133541000Y-58657000D01*
X133541000Y-58657000D02*
X133541000Y-48357000D01*
X133541000Y-48357000D02*
X129441000Y-48357000D01*
X129441000Y-48357000D02*
X129441000Y-58657000D01*
X131191000Y-58657000D02*
X131191000Y-58157000D01*
X131191000Y-58157000D02*
X129941000Y-58157000D01*
X129941000Y-58157000D02*
X129941000Y-48857000D01*
X129941000Y-48857000D02*
X131191000Y-48857000D01*
X131191000Y-48857000D02*
X131191000Y-48357000D01*
X132041000Y-58657000D02*
X132041000Y-57657000D01*
X132041000Y-57657000D02*
X133541000Y-57657000D01*
X132041000Y-48357000D02*
X132041000Y-49357000D01*
X132041000Y-49357000D02*
X133541000Y-49357000D01*
X131341000Y-58957000D02*
X133841000Y-58957000D01*
X133841000Y-58957000D02*
X133841000Y-56457000D01*
G04 #@! TO.C,J5*
X163096000Y-40623000D02*
X167196000Y-40623000D01*
X167196000Y-40623000D02*
X167196000Y-27823000D01*
X167196000Y-27823000D02*
X163096000Y-27823000D01*
X163096000Y-27823000D02*
X163096000Y-40623000D01*
X164846000Y-40623000D02*
X164846000Y-40123000D01*
X164846000Y-40123000D02*
X163596000Y-40123000D01*
X163596000Y-40123000D02*
X163596000Y-28323000D01*
X163596000Y-28323000D02*
X164846000Y-28323000D01*
X164846000Y-28323000D02*
X164846000Y-27823000D01*
X165696000Y-40623000D02*
X165696000Y-39623000D01*
X165696000Y-39623000D02*
X167196000Y-39623000D01*
X165696000Y-27823000D02*
X165696000Y-28823000D01*
X165696000Y-28823000D02*
X167196000Y-28823000D01*
X164996000Y-40923000D02*
X167496000Y-40923000D01*
X167496000Y-40923000D02*
X167496000Y-38423000D01*
G04 #@! TO.C,J6*
X168303000Y-40623000D02*
X172403000Y-40623000D01*
X172403000Y-40623000D02*
X172403000Y-27823000D01*
X172403000Y-27823000D02*
X168303000Y-27823000D01*
X168303000Y-27823000D02*
X168303000Y-40623000D01*
X170053000Y-40623000D02*
X170053000Y-40123000D01*
X170053000Y-40123000D02*
X168803000Y-40123000D01*
X168803000Y-40123000D02*
X168803000Y-28323000D01*
X168803000Y-28323000D02*
X170053000Y-28323000D01*
X170053000Y-28323000D02*
X170053000Y-27823000D01*
X170903000Y-40623000D02*
X170903000Y-39623000D01*
X170903000Y-39623000D02*
X172403000Y-39623000D01*
X170903000Y-27823000D02*
X170903000Y-28823000D01*
X170903000Y-28823000D02*
X172403000Y-28823000D01*
X170203000Y-40923000D02*
X172703000Y-40923000D01*
X172703000Y-40923000D02*
X172703000Y-38423000D01*
G04 #@! TO.C,Q1*
X161542000Y-39172000D02*
X161542000Y-38242000D01*
X161542000Y-36012000D02*
X161542000Y-36942000D01*
X161542000Y-36012000D02*
X159382000Y-36012000D01*
X161542000Y-39172000D02*
X160082000Y-39172000D01*
G04 #@! TO.C,Q2*
X161542000Y-35616000D02*
X161542000Y-34686000D01*
X161542000Y-32456000D02*
X161542000Y-33386000D01*
X161542000Y-32456000D02*
X159382000Y-32456000D01*
X161542000Y-35616000D02*
X160082000Y-35616000D01*
G04 #@! TO.C,Q3*
X161542000Y-32060000D02*
X161542000Y-31130000D01*
X161542000Y-28900000D02*
X161542000Y-29830000D01*
X161542000Y-28900000D02*
X159382000Y-28900000D01*
X161542000Y-32060000D02*
X160082000Y-32060000D01*
D11*
G04 #@! TO.C,U1*
X143572000Y-20730000D02*
X143572000Y-20980000D01*
X151322000Y-20730000D02*
X151322000Y-21065000D01*
X151322000Y-33880000D02*
X151322000Y-33545000D01*
X143572000Y-33880000D02*
X143572000Y-33545000D01*
X143572000Y-20730000D02*
X151322000Y-20730000D01*
X143572000Y-33880000D02*
X151322000Y-33880000D01*
X143572000Y-20980000D02*
X141772000Y-20980000D01*
G04 #@! TO.C,U3*
X134590000Y-56090000D02*
X135245000Y-56090000D01*
X134590000Y-50590000D02*
X135340000Y-50590000D01*
X141000000Y-50590000D02*
X140250000Y-50590000D01*
X141000000Y-56090000D02*
X140250000Y-56090000D01*
X134590000Y-56090000D02*
X134590000Y-50590000D01*
X141000000Y-56090000D02*
X141000000Y-50590000D01*
X135245000Y-56090000D02*
X135245000Y-57840000D01*
D10*
G04 #@! TO.C,C1*
X138930000Y-19470000D02*
X137930000Y-19470000D01*
X137930000Y-21170000D02*
X138930000Y-21170000D01*
G04 #@! TO.C,C2*
X137950000Y-32346000D02*
X138950000Y-32346000D01*
X138950000Y-30646000D02*
X137950000Y-30646000D01*
G04 #@! TO.C,C3*
X145153000Y-18835000D02*
X144153000Y-18835000D01*
X144153000Y-20535000D02*
X145153000Y-20535000D01*
G04 #@! TO.C,C4*
X149741000Y-20408000D02*
X150741000Y-20408000D01*
X150741000Y-18708000D02*
X149741000Y-18708000D01*
G04 #@! TO.C,R1*
X137550000Y-43272000D02*
X137550000Y-42072000D01*
X139310000Y-42072000D02*
X139310000Y-43272000D01*
G04 #@! TO.C,R2*
X135010000Y-43272000D02*
X135010000Y-42072000D01*
X136770000Y-42072000D02*
X136770000Y-43272000D01*
G04 #@! TO.C,R3*
X144053000Y-16900000D02*
X145253000Y-16900000D01*
X145253000Y-18660000D02*
X144053000Y-18660000D01*
G04 #@! TO.C,R4*
X134865000Y-42072000D02*
X134865000Y-43272000D01*
X133105000Y-43272000D02*
X133105000Y-42072000D01*
G04 #@! TO.C,R5*
X141215000Y-42072000D02*
X141215000Y-43272000D01*
X139455000Y-43272000D02*
X139455000Y-42072000D01*
G04 #@! TO.C,R6*
X157191000Y-37583000D02*
X155991000Y-37583000D01*
X155991000Y-35823000D02*
X157191000Y-35823000D01*
G04 #@! TO.C,C7*
X157445000Y-41520000D02*
X156245000Y-41520000D01*
X156245000Y-39760000D02*
X157445000Y-39760000D01*
G04 #@! TO.C,C8*
X137887000Y-48378000D02*
X136687000Y-48378000D01*
X136687000Y-46618000D02*
X137887000Y-46618000D01*
G04 #@! TO.C,R7*
X157191000Y-34027000D02*
X155991000Y-34027000D01*
X155991000Y-32267000D02*
X157191000Y-32267000D01*
G04 #@! TO.C,R8*
X157191000Y-30471000D02*
X155991000Y-30471000D01*
X155991000Y-28711000D02*
X157191000Y-28711000D01*
G04 #@! TO.C,C6*
X152904000Y-46224000D02*
X152904000Y-45824000D01*
X157484000Y-46994000D02*
X157484000Y-45824000D01*
X157484000Y-42414000D02*
X157484000Y-43584000D01*
X152904000Y-43184000D02*
X152904000Y-43584000D01*
X153674000Y-46994000D02*
X157484000Y-46994000D01*
X153674000Y-46994000D02*
X152904000Y-46224000D01*
X153674000Y-42414000D02*
X157484000Y-42414000D01*
X153674000Y-42414000D02*
X152904000Y-43184000D01*
G04 #@! TO.C,U2*
X151492000Y-41016000D02*
X150232000Y-41016000D01*
X144672000Y-41016000D02*
X145932000Y-41016000D01*
X151492000Y-44776000D02*
X151492000Y-41016000D01*
X144672000Y-47026000D02*
X144672000Y-41016000D01*
G04 #@! TO.C,Y1*
X140580000Y-22208000D02*
X141130000Y-22208000D01*
X141130000Y-22208000D02*
X141130000Y-29608000D01*
X141130000Y-29608000D02*
X140580000Y-29608000D01*
X136280000Y-21458000D02*
X136280000Y-22208000D01*
X136280000Y-22208000D02*
X135730000Y-22208000D01*
X135730000Y-22208000D02*
X135730000Y-29608000D01*
X135730000Y-29608000D02*
X136280000Y-29608000D01*
X138080000Y-21458000D02*
X138080000Y-22208000D01*
X138080000Y-22208000D02*
X138780000Y-22208000D01*
X138780000Y-29608000D02*
X138080000Y-29608000D01*
G04 #@! TO.C,C5*
D11*
X155511142Y-52958666D02*
X155558761Y-53006285D01*
X155606380Y-53149142D01*
X155606380Y-53244380D01*
X155558761Y-53387238D01*
X155463523Y-53482476D01*
X155368285Y-53530095D01*
X155177809Y-53577714D01*
X155034952Y-53577714D01*
X154844476Y-53530095D01*
X154749238Y-53482476D01*
X154654000Y-53387238D01*
X154606380Y-53244380D01*
X154606380Y-53149142D01*
X154654000Y-53006285D01*
X154701619Y-52958666D01*
X154606380Y-52053904D02*
X154606380Y-52530095D01*
X155082571Y-52577714D01*
X155034952Y-52530095D01*
X154987333Y-52434857D01*
X154987333Y-52196761D01*
X155034952Y-52101523D01*
X155082571Y-52053904D01*
X155177809Y-52006285D01*
X155415904Y-52006285D01*
X155511142Y-52053904D01*
X155558761Y-52101523D01*
X155606380Y-52196761D01*
X155606380Y-52434857D01*
X155558761Y-52530095D01*
X155511142Y-52577714D01*
G04 #@! TO.C,D1*
X157503904Y-47315380D02*
X157503904Y-46315380D01*
X157742000Y-46315380D01*
X157884857Y-46363000D01*
X157980095Y-46458238D01*
X158027714Y-46553476D01*
X158075333Y-46743952D01*
X158075333Y-46886809D01*
X158027714Y-47077285D01*
X157980095Y-47172523D01*
X157884857Y-47267761D01*
X157742000Y-47315380D01*
X157503904Y-47315380D01*
X159027714Y-47315380D02*
X158456285Y-47315380D01*
X158742000Y-47315380D02*
X158742000Y-46315380D01*
X158646761Y-46458238D01*
X158551523Y-46553476D01*
X158456285Y-46601095D01*
G04 #@! TO.C,J1*
X161806380Y-52256333D02*
X162520666Y-52256333D01*
X162663523Y-52303952D01*
X162758761Y-52399190D01*
X162806380Y-52542047D01*
X162806380Y-52637285D01*
X162806380Y-51256333D02*
X162806380Y-51827761D01*
X162806380Y-51542047D02*
X161806380Y-51542047D01*
X161949238Y-51637285D01*
X162044476Y-51732523D01*
X162092095Y-51827761D01*
G04 #@! TO.C,J2*
X119968380Y-37862333D02*
X120682666Y-37862333D01*
X120825523Y-37909952D01*
X120920761Y-38005190D01*
X120968380Y-38148047D01*
X120968380Y-38243285D01*
X120063619Y-37433761D02*
X120016000Y-37386142D01*
X119968380Y-37290904D01*
X119968380Y-37052809D01*
X120016000Y-36957571D01*
X120063619Y-36909952D01*
X120158857Y-36862333D01*
X120254095Y-36862333D01*
X120396952Y-36909952D01*
X120968380Y-37481380D01*
X120968380Y-36862333D01*
D10*
X130188380Y-41223285D02*
X130188380Y-41794714D01*
X130188380Y-41509000D02*
X129188380Y-41509000D01*
X129331238Y-41604238D01*
X129426476Y-41699476D01*
X129474095Y-41794714D01*
G04 #@! TO.C,J3*
D11*
X164972666Y-15066380D02*
X164972666Y-15780666D01*
X164925047Y-15923523D01*
X164829809Y-16018761D01*
X164686952Y-16066380D01*
X164591714Y-16066380D01*
X165353619Y-15066380D02*
X165972666Y-15066380D01*
X165639333Y-15447333D01*
X165782190Y-15447333D01*
X165877428Y-15494952D01*
X165925047Y-15542571D01*
X165972666Y-15637809D01*
X165972666Y-15875904D01*
X165925047Y-15971142D01*
X165877428Y-16018761D01*
X165782190Y-16066380D01*
X165496476Y-16066380D01*
X165401238Y-16018761D01*
X165353619Y-15971142D01*
D10*
X162611714Y-25286380D02*
X162040285Y-25286380D01*
X162326000Y-25286380D02*
X162326000Y-24286380D01*
X162230761Y-24429238D01*
X162135523Y-24524476D01*
X162040285Y-24572095D01*
G04 #@! TO.C,J4*
D11*
X127643380Y-53840333D02*
X128357666Y-53840333D01*
X128500523Y-53887952D01*
X128595761Y-53983190D01*
X128643380Y-54126047D01*
X128643380Y-54221285D01*
X127976714Y-52935571D02*
X128643380Y-52935571D01*
X127595761Y-53173666D02*
X128310047Y-53411761D01*
X128310047Y-52792714D01*
G04 #@! TO.C,J5*
X161298380Y-34556333D02*
X162012666Y-34556333D01*
X162155523Y-34603952D01*
X162250761Y-34699190D01*
X162298380Y-34842047D01*
X162298380Y-34937285D01*
X161298380Y-33603952D02*
X161298380Y-34080142D01*
X161774571Y-34127761D01*
X161726952Y-34080142D01*
X161679333Y-33984904D01*
X161679333Y-33746809D01*
X161726952Y-33651571D01*
X161774571Y-33603952D01*
X161869809Y-33556333D01*
X162107904Y-33556333D01*
X162203142Y-33603952D01*
X162250761Y-33651571D01*
X162298380Y-33746809D01*
X162298380Y-33984904D01*
X162250761Y-34080142D01*
X162203142Y-34127761D01*
G04 #@! TO.C,J6*
X166505380Y-34556333D02*
X167219666Y-34556333D01*
X167362523Y-34603952D01*
X167457761Y-34699190D01*
X167505380Y-34842047D01*
X167505380Y-34937285D01*
X166505380Y-33651571D02*
X166505380Y-33842047D01*
X166553000Y-33937285D01*
X166600619Y-33984904D01*
X166743476Y-34080142D01*
X166933952Y-34127761D01*
X167314904Y-34127761D01*
X167410142Y-34080142D01*
X167457761Y-34032523D01*
X167505380Y-33937285D01*
X167505380Y-33746809D01*
X167457761Y-33651571D01*
X167410142Y-33603952D01*
X167314904Y-33556333D01*
X167076809Y-33556333D01*
X166981571Y-33603952D01*
X166933952Y-33651571D01*
X166886333Y-33746809D01*
X166886333Y-33937285D01*
X166933952Y-34032523D01*
X166981571Y-34080142D01*
X167076809Y-34127761D01*
G04 #@! TO.C,Q1*
X160686761Y-35639619D02*
X160591523Y-35592000D01*
X160496285Y-35496761D01*
X160353428Y-35353904D01*
X160258190Y-35306285D01*
X160162952Y-35306285D01*
X160210571Y-35544380D02*
X160115333Y-35496761D01*
X160020095Y-35401523D01*
X159972476Y-35211047D01*
X159972476Y-34877714D01*
X160020095Y-34687238D01*
X160115333Y-34592000D01*
X160210571Y-34544380D01*
X160401047Y-34544380D01*
X160496285Y-34592000D01*
X160591523Y-34687238D01*
X160639142Y-34877714D01*
X160639142Y-35211047D01*
X160591523Y-35401523D01*
X160496285Y-35496761D01*
X160401047Y-35544380D01*
X160210571Y-35544380D01*
X161591523Y-35544380D02*
X161020095Y-35544380D01*
X161305809Y-35544380D02*
X161305809Y-34544380D01*
X161210571Y-34687238D01*
X161115333Y-34782476D01*
X161020095Y-34830095D01*
G04 #@! TO.C,Q2*
X160686761Y-32083619D02*
X160591523Y-32036000D01*
X160496285Y-31940761D01*
X160353428Y-31797904D01*
X160258190Y-31750285D01*
X160162952Y-31750285D01*
X160210571Y-31988380D02*
X160115333Y-31940761D01*
X160020095Y-31845523D01*
X159972476Y-31655047D01*
X159972476Y-31321714D01*
X160020095Y-31131238D01*
X160115333Y-31036000D01*
X160210571Y-30988380D01*
X160401047Y-30988380D01*
X160496285Y-31036000D01*
X160591523Y-31131238D01*
X160639142Y-31321714D01*
X160639142Y-31655047D01*
X160591523Y-31845523D01*
X160496285Y-31940761D01*
X160401047Y-31988380D01*
X160210571Y-31988380D01*
X161020095Y-31083619D02*
X161067714Y-31036000D01*
X161162952Y-30988380D01*
X161401047Y-30988380D01*
X161496285Y-31036000D01*
X161543904Y-31083619D01*
X161591523Y-31178857D01*
X161591523Y-31274095D01*
X161543904Y-31416952D01*
X160972476Y-31988380D01*
X161591523Y-31988380D01*
G04 #@! TO.C,Q3*
X160686761Y-28527619D02*
X160591523Y-28480000D01*
X160496285Y-28384761D01*
X160353428Y-28241904D01*
X160258190Y-28194285D01*
X160162952Y-28194285D01*
X160210571Y-28432380D02*
X160115333Y-28384761D01*
X160020095Y-28289523D01*
X159972476Y-28099047D01*
X159972476Y-27765714D01*
X160020095Y-27575238D01*
X160115333Y-27480000D01*
X160210571Y-27432380D01*
X160401047Y-27432380D01*
X160496285Y-27480000D01*
X160591523Y-27575238D01*
X160639142Y-27765714D01*
X160639142Y-28099047D01*
X160591523Y-28289523D01*
X160496285Y-28384761D01*
X160401047Y-28432380D01*
X160210571Y-28432380D01*
X160972476Y-27432380D02*
X161591523Y-27432380D01*
X161258190Y-27813333D01*
X161401047Y-27813333D01*
X161496285Y-27860952D01*
X161543904Y-27908571D01*
X161591523Y-28003809D01*
X161591523Y-28241904D01*
X161543904Y-28337142D01*
X161496285Y-28384761D01*
X161401047Y-28432380D01*
X161115333Y-28432380D01*
X161020095Y-28384761D01*
X160972476Y-28337142D01*
G04 #@! TO.C,U1*
X146685095Y-19257380D02*
X146685095Y-20066904D01*
X146732714Y-20162142D01*
X146780333Y-20209761D01*
X146875571Y-20257380D01*
X147066047Y-20257380D01*
X147161285Y-20209761D01*
X147208904Y-20162142D01*
X147256523Y-20066904D01*
X147256523Y-19257380D01*
X148256523Y-20257380D02*
X147685095Y-20257380D01*
X147970809Y-20257380D02*
X147970809Y-19257380D01*
X147875571Y-19400238D01*
X147780333Y-19495476D01*
X147685095Y-19543095D01*
G04 #@! TO.C,U3*
X133117380Y-54101904D02*
X133926904Y-54101904D01*
X134022142Y-54054285D01*
X134069761Y-54006666D01*
X134117380Y-53911428D01*
X134117380Y-53720952D01*
X134069761Y-53625714D01*
X134022142Y-53578095D01*
X133926904Y-53530476D01*
X133117380Y-53530476D01*
X133117380Y-53149523D02*
X133117380Y-52530476D01*
X133498333Y-52863809D01*
X133498333Y-52720952D01*
X133545952Y-52625714D01*
X133593571Y-52578095D01*
X133688809Y-52530476D01*
X133926904Y-52530476D01*
X134022142Y-52578095D01*
X134069761Y-52625714D01*
X134117380Y-52720952D01*
X134117380Y-53006666D01*
X134069761Y-53101904D01*
X134022142Y-53149523D01*
G04 #@! TO.C,C1*
X138263333Y-18927142D02*
X138215714Y-18974761D01*
X138072857Y-19022380D01*
X137977619Y-19022380D01*
X137834761Y-18974761D01*
X137739523Y-18879523D01*
X137691904Y-18784285D01*
X137644285Y-18593809D01*
X137644285Y-18450952D01*
X137691904Y-18260476D01*
X137739523Y-18165238D01*
X137834761Y-18070000D01*
X137977619Y-18022380D01*
X138072857Y-18022380D01*
X138215714Y-18070000D01*
X138263333Y-18117619D01*
X139215714Y-19022380D02*
X138644285Y-19022380D01*
X138930000Y-19022380D02*
X138930000Y-18022380D01*
X138834761Y-18165238D01*
X138739523Y-18260476D01*
X138644285Y-18308095D01*
G04 #@! TO.C,C2*
X138283333Y-33603142D02*
X138235714Y-33650761D01*
X138092857Y-33698380D01*
X137997619Y-33698380D01*
X137854761Y-33650761D01*
X137759523Y-33555523D01*
X137711904Y-33460285D01*
X137664285Y-33269809D01*
X137664285Y-33126952D01*
X137711904Y-32936476D01*
X137759523Y-32841238D01*
X137854761Y-32746000D01*
X137997619Y-32698380D01*
X138092857Y-32698380D01*
X138235714Y-32746000D01*
X138283333Y-32793619D01*
X138664285Y-32793619D02*
X138711904Y-32746000D01*
X138807142Y-32698380D01*
X139045238Y-32698380D01*
X139140476Y-32746000D01*
X139188095Y-32793619D01*
X139235714Y-32888857D01*
X139235714Y-32984095D01*
X139188095Y-33126952D01*
X138616666Y-33698380D01*
X139235714Y-33698380D01*
G04 #@! TO.C,C3*
X144486333Y-18292142D02*
X144438714Y-18339761D01*
X144295857Y-18387380D01*
X144200619Y-18387380D01*
X144057761Y-18339761D01*
X143962523Y-18244523D01*
X143914904Y-18149285D01*
X143867285Y-17958809D01*
X143867285Y-17815952D01*
X143914904Y-17625476D01*
X143962523Y-17530238D01*
X144057761Y-17435000D01*
X144200619Y-17387380D01*
X144295857Y-17387380D01*
X144438714Y-17435000D01*
X144486333Y-17482619D01*
X144819666Y-17387380D02*
X145438714Y-17387380D01*
X145105380Y-17768333D01*
X145248238Y-17768333D01*
X145343476Y-17815952D01*
X145391095Y-17863571D01*
X145438714Y-17958809D01*
X145438714Y-18196904D01*
X145391095Y-18292142D01*
X145343476Y-18339761D01*
X145248238Y-18387380D01*
X144962523Y-18387380D01*
X144867285Y-18339761D01*
X144819666Y-18292142D01*
G04 #@! TO.C,C4*
X150074333Y-21665142D02*
X150026714Y-21712761D01*
X149883857Y-21760380D01*
X149788619Y-21760380D01*
X149645761Y-21712761D01*
X149550523Y-21617523D01*
X149502904Y-21522285D01*
X149455285Y-21331809D01*
X149455285Y-21188952D01*
X149502904Y-20998476D01*
X149550523Y-20903238D01*
X149645761Y-20808000D01*
X149788619Y-20760380D01*
X149883857Y-20760380D01*
X150026714Y-20808000D01*
X150074333Y-20855619D01*
X150931476Y-21093714D02*
X150931476Y-21760380D01*
X150693380Y-20712761D02*
X150455285Y-21427047D01*
X151074333Y-21427047D01*
G04 #@! TO.C,R1*
X140582380Y-42838666D02*
X140106190Y-43172000D01*
X140582380Y-43410095D02*
X139582380Y-43410095D01*
X139582380Y-43029142D01*
X139630000Y-42933904D01*
X139677619Y-42886285D01*
X139772857Y-42838666D01*
X139915714Y-42838666D01*
X140010952Y-42886285D01*
X140058571Y-42933904D01*
X140106190Y-43029142D01*
X140106190Y-43410095D01*
X140582380Y-41886285D02*
X140582380Y-42457714D01*
X140582380Y-42172000D02*
X139582380Y-42172000D01*
X139725238Y-42267238D01*
X139820476Y-42362476D01*
X139868095Y-42457714D01*
G04 #@! TO.C,R2*
X138042380Y-42838666D02*
X137566190Y-43172000D01*
X138042380Y-43410095D02*
X137042380Y-43410095D01*
X137042380Y-43029142D01*
X137090000Y-42933904D01*
X137137619Y-42886285D01*
X137232857Y-42838666D01*
X137375714Y-42838666D01*
X137470952Y-42886285D01*
X137518571Y-42933904D01*
X137566190Y-43029142D01*
X137566190Y-43410095D01*
X137137619Y-42457714D02*
X137090000Y-42410095D01*
X137042380Y-42314857D01*
X137042380Y-42076761D01*
X137090000Y-41981523D01*
X137137619Y-41933904D01*
X137232857Y-41886285D01*
X137328095Y-41886285D01*
X137470952Y-41933904D01*
X138042380Y-42505333D01*
X138042380Y-41886285D01*
G04 #@! TO.C,R3*
X144486333Y-19932380D02*
X144153000Y-19456190D01*
X143914904Y-19932380D02*
X143914904Y-18932380D01*
X144295857Y-18932380D01*
X144391095Y-18980000D01*
X144438714Y-19027619D01*
X144486333Y-19122857D01*
X144486333Y-19265714D01*
X144438714Y-19360952D01*
X144391095Y-19408571D01*
X144295857Y-19456190D01*
X143914904Y-19456190D01*
X144819666Y-18932380D02*
X145438714Y-18932380D01*
X145105380Y-19313333D01*
X145248238Y-19313333D01*
X145343476Y-19360952D01*
X145391095Y-19408571D01*
X145438714Y-19503809D01*
X145438714Y-19741904D01*
X145391095Y-19837142D01*
X145343476Y-19884761D01*
X145248238Y-19932380D01*
X144962523Y-19932380D01*
X144867285Y-19884761D01*
X144819666Y-19837142D01*
G04 #@! TO.C,R4*
X132737380Y-42838666D02*
X132261190Y-43172000D01*
X132737380Y-43410095D02*
X131737380Y-43410095D01*
X131737380Y-43029142D01*
X131785000Y-42933904D01*
X131832619Y-42886285D01*
X131927857Y-42838666D01*
X132070714Y-42838666D01*
X132165952Y-42886285D01*
X132213571Y-42933904D01*
X132261190Y-43029142D01*
X132261190Y-43410095D01*
X132070714Y-41981523D02*
X132737380Y-41981523D01*
X131689761Y-42219619D02*
X132404047Y-42457714D01*
X132404047Y-41838666D01*
G04 #@! TO.C,R5*
X139087380Y-42838666D02*
X138611190Y-43172000D01*
X139087380Y-43410095D02*
X138087380Y-43410095D01*
X138087380Y-43029142D01*
X138135000Y-42933904D01*
X138182619Y-42886285D01*
X138277857Y-42838666D01*
X138420714Y-42838666D01*
X138515952Y-42886285D01*
X138563571Y-42933904D01*
X138611190Y-43029142D01*
X138611190Y-43410095D01*
X138087380Y-41933904D02*
X138087380Y-42410095D01*
X138563571Y-42457714D01*
X138515952Y-42410095D01*
X138468333Y-42314857D01*
X138468333Y-42076761D01*
X138515952Y-41981523D01*
X138563571Y-41933904D01*
X138658809Y-41886285D01*
X138896904Y-41886285D01*
X138992142Y-41933904D01*
X139039761Y-41981523D01*
X139087380Y-42076761D01*
X139087380Y-42314857D01*
X139039761Y-42410095D01*
X138992142Y-42457714D01*
G04 #@! TO.C,R6*
X156424333Y-35455380D02*
X156091000Y-34979190D01*
X155852904Y-35455380D02*
X155852904Y-34455380D01*
X156233857Y-34455380D01*
X156329095Y-34503000D01*
X156376714Y-34550619D01*
X156424333Y-34645857D01*
X156424333Y-34788714D01*
X156376714Y-34883952D01*
X156329095Y-34931571D01*
X156233857Y-34979190D01*
X155852904Y-34979190D01*
X157281476Y-34455380D02*
X157091000Y-34455380D01*
X156995761Y-34503000D01*
X156948142Y-34550619D01*
X156852904Y-34693476D01*
X156805285Y-34883952D01*
X156805285Y-35264904D01*
X156852904Y-35360142D01*
X156900523Y-35407761D01*
X156995761Y-35455380D01*
X157186238Y-35455380D01*
X157281476Y-35407761D01*
X157329095Y-35360142D01*
X157376714Y-35264904D01*
X157376714Y-35026809D01*
X157329095Y-34931571D01*
X157281476Y-34883952D01*
X157186238Y-34836333D01*
X156995761Y-34836333D01*
X156900523Y-34883952D01*
X156852904Y-34931571D01*
X156805285Y-35026809D01*
G04 #@! TO.C,C7*
X156678333Y-39297142D02*
X156630714Y-39344761D01*
X156487857Y-39392380D01*
X156392619Y-39392380D01*
X156249761Y-39344761D01*
X156154523Y-39249523D01*
X156106904Y-39154285D01*
X156059285Y-38963809D01*
X156059285Y-38820952D01*
X156106904Y-38630476D01*
X156154523Y-38535238D01*
X156249761Y-38440000D01*
X156392619Y-38392380D01*
X156487857Y-38392380D01*
X156630714Y-38440000D01*
X156678333Y-38487619D01*
X157011666Y-38392380D02*
X157678333Y-38392380D01*
X157249761Y-39392380D01*
G04 #@! TO.C,C8*
X137120333Y-46155142D02*
X137072714Y-46202761D01*
X136929857Y-46250380D01*
X136834619Y-46250380D01*
X136691761Y-46202761D01*
X136596523Y-46107523D01*
X136548904Y-46012285D01*
X136501285Y-45821809D01*
X136501285Y-45678952D01*
X136548904Y-45488476D01*
X136596523Y-45393238D01*
X136691761Y-45298000D01*
X136834619Y-45250380D01*
X136929857Y-45250380D01*
X137072714Y-45298000D01*
X137120333Y-45345619D01*
X137691761Y-45678952D02*
X137596523Y-45631333D01*
X137548904Y-45583714D01*
X137501285Y-45488476D01*
X137501285Y-45440857D01*
X137548904Y-45345619D01*
X137596523Y-45298000D01*
X137691761Y-45250380D01*
X137882238Y-45250380D01*
X137977476Y-45298000D01*
X138025095Y-45345619D01*
X138072714Y-45440857D01*
X138072714Y-45488476D01*
X138025095Y-45583714D01*
X137977476Y-45631333D01*
X137882238Y-45678952D01*
X137691761Y-45678952D01*
X137596523Y-45726571D01*
X137548904Y-45774190D01*
X137501285Y-45869428D01*
X137501285Y-46059904D01*
X137548904Y-46155142D01*
X137596523Y-46202761D01*
X137691761Y-46250380D01*
X137882238Y-46250380D01*
X137977476Y-46202761D01*
X138025095Y-46155142D01*
X138072714Y-46059904D01*
X138072714Y-45869428D01*
X138025095Y-45774190D01*
X137977476Y-45726571D01*
X137882238Y-45678952D01*
G04 #@! TO.C,R7*
X156424333Y-31899380D02*
X156091000Y-31423190D01*
X155852904Y-31899380D02*
X155852904Y-30899380D01*
X156233857Y-30899380D01*
X156329095Y-30947000D01*
X156376714Y-30994619D01*
X156424333Y-31089857D01*
X156424333Y-31232714D01*
X156376714Y-31327952D01*
X156329095Y-31375571D01*
X156233857Y-31423190D01*
X155852904Y-31423190D01*
X156757666Y-30899380D02*
X157424333Y-30899380D01*
X156995761Y-31899380D01*
G04 #@! TO.C,R8*
X156424333Y-28343380D02*
X156091000Y-27867190D01*
X155852904Y-28343380D02*
X155852904Y-27343380D01*
X156233857Y-27343380D01*
X156329095Y-27391000D01*
X156376714Y-27438619D01*
X156424333Y-27533857D01*
X156424333Y-27676714D01*
X156376714Y-27771952D01*
X156329095Y-27819571D01*
X156233857Y-27867190D01*
X155852904Y-27867190D01*
X156995761Y-27771952D02*
X156900523Y-27724333D01*
X156852904Y-27676714D01*
X156805285Y-27581476D01*
X156805285Y-27533857D01*
X156852904Y-27438619D01*
X156900523Y-27391000D01*
X156995761Y-27343380D01*
X157186238Y-27343380D01*
X157281476Y-27391000D01*
X157329095Y-27438619D01*
X157376714Y-27533857D01*
X157376714Y-27581476D01*
X157329095Y-27676714D01*
X157281476Y-27724333D01*
X157186238Y-27771952D01*
X156995761Y-27771952D01*
X156900523Y-27819571D01*
X156852904Y-27867190D01*
X156805285Y-27962428D01*
X156805285Y-28152904D01*
X156852904Y-28248142D01*
X156900523Y-28295761D01*
X156995761Y-28343380D01*
X157186238Y-28343380D01*
X157281476Y-28295761D01*
X157329095Y-28248142D01*
X157376714Y-28152904D01*
X157376714Y-27962428D01*
X157329095Y-27867190D01*
X157281476Y-27819571D01*
X157186238Y-27771952D01*
G04 #@! TO.C,C6*
X155027333Y-48601142D02*
X154979714Y-48648761D01*
X154836857Y-48696380D01*
X154741619Y-48696380D01*
X154598761Y-48648761D01*
X154503523Y-48553523D01*
X154455904Y-48458285D01*
X154408285Y-48267809D01*
X154408285Y-48124952D01*
X154455904Y-47934476D01*
X154503523Y-47839238D01*
X154598761Y-47744000D01*
X154741619Y-47696380D01*
X154836857Y-47696380D01*
X154979714Y-47744000D01*
X155027333Y-47791619D01*
X155884476Y-47696380D02*
X155694000Y-47696380D01*
X155598761Y-47744000D01*
X155551142Y-47791619D01*
X155455904Y-47934476D01*
X155408285Y-48124952D01*
X155408285Y-48505904D01*
X155455904Y-48601142D01*
X155503523Y-48648761D01*
X155598761Y-48696380D01*
X155789238Y-48696380D01*
X155884476Y-48648761D01*
X155932095Y-48601142D01*
X155979714Y-48505904D01*
X155979714Y-48267809D01*
X155932095Y-48172571D01*
X155884476Y-48124952D01*
X155789238Y-48077333D01*
X155598761Y-48077333D01*
X155503523Y-48124952D01*
X155455904Y-48172571D01*
X155408285Y-48267809D01*
X152033047Y-46785428D02*
X152794952Y-46785428D01*
X152414000Y-47166380D02*
X152414000Y-46404476D01*
G04 #@! TO.C,U2*
X143034380Y-43687904D02*
X143843904Y-43687904D01*
X143939142Y-43640285D01*
X143986761Y-43592666D01*
X144034380Y-43497428D01*
X144034380Y-43306952D01*
X143986761Y-43211714D01*
X143939142Y-43164095D01*
X143843904Y-43116476D01*
X143034380Y-43116476D01*
X143129619Y-42687904D02*
X143082000Y-42640285D01*
X143034380Y-42545047D01*
X143034380Y-42306952D01*
X143082000Y-42211714D01*
X143129619Y-42164095D01*
X143224857Y-42116476D01*
X143320095Y-42116476D01*
X143462952Y-42164095D01*
X144034380Y-42735523D01*
X144034380Y-42116476D01*
G04 #@! TO.C,Y1*
X142106190Y-26384190D02*
X142582380Y-26384190D01*
X141582380Y-26717523D02*
X142106190Y-26384190D01*
X141582380Y-26050857D01*
X142582380Y-25193714D02*
X142582380Y-25765142D01*
X142582380Y-25479428D02*
X141582380Y-25479428D01*
X141725238Y-25574666D01*
X141820476Y-25669904D01*
X141868095Y-25765142D01*
G04 #@! TO.C,MH1*
X122618666Y-16556380D02*
X122618666Y-15556380D01*
X122952000Y-16270666D01*
X123285333Y-15556380D01*
X123285333Y-16556380D01*
X123761523Y-16556380D02*
X123761523Y-15556380D01*
X123761523Y-16032571D02*
X124332952Y-16032571D01*
X124332952Y-16556380D02*
X124332952Y-15556380D01*
X125332952Y-16556380D02*
X124761523Y-16556380D01*
X125047238Y-16556380D02*
X125047238Y-15556380D01*
X124952000Y-15699238D01*
X124856761Y-15794476D01*
X124761523Y-15842095D01*
G04 #@! TO.C,MH2*
X122618666Y-53894380D02*
X122618666Y-52894380D01*
X122952000Y-53608666D01*
X123285333Y-52894380D01*
X123285333Y-53894380D01*
X123761523Y-53894380D02*
X123761523Y-52894380D01*
X123761523Y-53370571D02*
X124332952Y-53370571D01*
X124332952Y-53894380D02*
X124332952Y-52894380D01*
X124761523Y-52989619D02*
X124809142Y-52942000D01*
X124904380Y-52894380D01*
X125142476Y-52894380D01*
X125237714Y-52942000D01*
X125285333Y-52989619D01*
X125332952Y-53084857D01*
X125332952Y-53180095D01*
X125285333Y-53322952D01*
X124713904Y-53894380D01*
X125332952Y-53894380D01*
G04 #@! TO.C,MH3*
X169100666Y-41702380D02*
X169100666Y-40702380D01*
X169434000Y-41416666D01*
X169767333Y-40702380D01*
X169767333Y-41702380D01*
X170243523Y-41702380D02*
X170243523Y-40702380D01*
X170243523Y-41178571D02*
X170814952Y-41178571D01*
X170814952Y-41702380D02*
X170814952Y-40702380D01*
X171195904Y-40702380D02*
X171814952Y-40702380D01*
X171481619Y-41083333D01*
X171624476Y-41083333D01*
X171719714Y-41130952D01*
X171767333Y-41178571D01*
X171814952Y-41273809D01*
X171814952Y-41511904D01*
X171767333Y-41607142D01*
X171719714Y-41654761D01*
X171624476Y-41702380D01*
X171338761Y-41702380D01*
X171243523Y-41654761D01*
X171195904Y-41607142D01*
G04 #@! TD*
M02*
