G04 #@! TF.GenerationSoftware,KiCad,Pcbnew,(5.0.0)*
G04 #@! TF.CreationDate,2018-08-24T12:12:44+02:00*
G04 #@! TF.ProjectId,dmx_rgb,646D785F7267622E6B696361645F7063,rev?*
G04 #@! TF.SameCoordinates,Original*
G04 #@! TF.FileFunction,Soldermask,Top*
G04 #@! TF.FilePolarity,Negative*
%FSLAX46Y46*%
G04 Gerber Fmt 4.6, Leading zero omitted, Abs format (unit mm)*
G04 Created by KiCad (PCBNEW (5.0.0)) date 08/24/18 12:12:44*
%MOMM*%
%LPD*%
G01*
G04 APERTURE LIST*
%ADD10R,2.000000X2.000000*%
%ADD11C,2.000000*%
%ADD12O,2.000000X2.000000*%
%ADD13R,1.850000X1.850000*%
%ADD14C,1.850000*%
%ADD15R,1.727200X1.727200*%
%ADD16O,1.727200X1.727200*%
%ADD17R,0.900000X0.800000*%
%ADD18R,1.950000X0.600000*%
%ADD19R,0.550000X1.750000*%
%ADD20R,1.500000X1.250000*%
%ADD21R,1.300000X1.500000*%
%ADD22R,1.500000X1.300000*%
%ADD23R,2.600000X1.600000*%
%ADD24R,3.800000X2.000000*%
%ADD25R,1.500000X2.000000*%
%ADD26R,1.400000X2.200000*%
%ADD27C,2.200000*%
G04 APERTURE END LIST*
D10*
G04 #@! TO.C,C5*
X148844000Y-50292000D03*
D11*
X148844000Y-55292000D03*
D10*
X150844000Y-49619856D03*
D11*
X146844000Y-55964144D03*
G04 #@! TD*
D12*
G04 #@! TO.C,D1*
X160782000Y-49657000D03*
X155702000Y-54737000D03*
X160782000Y-54737000D03*
D10*
X155702000Y-49657000D03*
G04 #@! TD*
D13*
G04 #@! TO.C,J1*
X165354000Y-50673000D03*
D14*
X165354000Y-53173000D03*
G04 #@! TD*
D15*
G04 #@! TO.C,J2*
X128016000Y-41529000D03*
D16*
X125476000Y-41529000D03*
X128016000Y-38989000D03*
X125476000Y-38989000D03*
X128016000Y-36449000D03*
X125476000Y-36449000D03*
X128016000Y-33909000D03*
X125476000Y-33909000D03*
G04 #@! TD*
D15*
G04 #@! TO.C,J3*
X162306000Y-23114000D03*
D16*
X162306000Y-20574000D03*
X164846000Y-23114000D03*
X164846000Y-20574000D03*
X167386000Y-23114000D03*
X167386000Y-20574000D03*
G04 #@! TD*
D13*
G04 #@! TO.C,J4*
X131191000Y-56007000D03*
D14*
X131191000Y-53507000D03*
X131191000Y-51007000D03*
G04 #@! TD*
D13*
G04 #@! TO.C,J5*
X164846000Y-37973000D03*
D14*
X164846000Y-35473000D03*
X164846000Y-32973000D03*
X164846000Y-30473000D03*
G04 #@! TD*
D13*
G04 #@! TO.C,J6*
X170053000Y-37973000D03*
D14*
X170053000Y-35473000D03*
X170053000Y-32973000D03*
X170053000Y-30473000D03*
G04 #@! TD*
D17*
G04 #@! TO.C,Q1*
X159782000Y-36642000D03*
X159782000Y-38542000D03*
X161782000Y-37592000D03*
G04 #@! TD*
G04 #@! TO.C,Q2*
X159782000Y-33086000D03*
X159782000Y-34986000D03*
X161782000Y-34036000D03*
G04 #@! TD*
G04 #@! TO.C,Q3*
X159782000Y-29530000D03*
X159782000Y-31430000D03*
X161782000Y-30480000D03*
G04 #@! TD*
D18*
G04 #@! TO.C,U1*
X142747000Y-21590000D03*
X142747000Y-22860000D03*
X142747000Y-24130000D03*
X142747000Y-25400000D03*
X142747000Y-26670000D03*
X142747000Y-27940000D03*
X142747000Y-29210000D03*
X142747000Y-30480000D03*
X142747000Y-31750000D03*
X142747000Y-33020000D03*
X152147000Y-33020000D03*
X152147000Y-31750000D03*
X152147000Y-30480000D03*
X152147000Y-29210000D03*
X152147000Y-27940000D03*
X152147000Y-26670000D03*
X152147000Y-25400000D03*
X152147000Y-24130000D03*
X152147000Y-22860000D03*
X152147000Y-21590000D03*
G04 #@! TD*
D19*
G04 #@! TO.C,U3*
X135890000Y-57040000D03*
X137160000Y-57040000D03*
X138430000Y-57040000D03*
X139700000Y-57040000D03*
X139700000Y-49640000D03*
X138430000Y-49640000D03*
X137160000Y-49640000D03*
X135890000Y-49640000D03*
G04 #@! TD*
D20*
G04 #@! TO.C,C1*
X137180000Y-20320000D03*
X139680000Y-20320000D03*
G04 #@! TD*
G04 #@! TO.C,C2*
X139700000Y-31496000D03*
X137200000Y-31496000D03*
G04 #@! TD*
G04 #@! TO.C,C3*
X143403000Y-19685000D03*
X145903000Y-19685000D03*
G04 #@! TD*
G04 #@! TO.C,C4*
X151491000Y-19558000D03*
X148991000Y-19558000D03*
G04 #@! TD*
D21*
G04 #@! TO.C,R1*
X138430000Y-41322000D03*
X138430000Y-44022000D03*
G04 #@! TD*
G04 #@! TO.C,R2*
X135890000Y-41322000D03*
X135890000Y-44022000D03*
G04 #@! TD*
D22*
G04 #@! TO.C,R3*
X146003000Y-17780000D03*
X143303000Y-17780000D03*
G04 #@! TD*
D21*
G04 #@! TO.C,R4*
X133985000Y-44022000D03*
X133985000Y-41322000D03*
G04 #@! TD*
G04 #@! TO.C,R5*
X140335000Y-44022000D03*
X140335000Y-41322000D03*
G04 #@! TD*
D22*
G04 #@! TO.C,R6*
X155241000Y-36703000D03*
X157941000Y-36703000D03*
G04 #@! TD*
G04 #@! TO.C,C7*
X155495000Y-40640000D03*
X158195000Y-40640000D03*
G04 #@! TD*
G04 #@! TO.C,C8*
X135937000Y-47498000D03*
X138637000Y-47498000D03*
G04 #@! TD*
G04 #@! TO.C,R7*
X155241000Y-33147000D03*
X157941000Y-33147000D03*
G04 #@! TD*
G04 #@! TO.C,R8*
X155241000Y-29591000D03*
X157941000Y-29591000D03*
G04 #@! TD*
D23*
G04 #@! TO.C,C6*
X153394000Y-44704000D03*
X156994000Y-44704000D03*
G04 #@! TD*
D24*
G04 #@! TO.C,U2*
X148082000Y-39776000D03*
D25*
X148082000Y-46076000D03*
X150382000Y-46076000D03*
X145782000Y-46076000D03*
G04 #@! TD*
D26*
G04 #@! TO.C,Y1*
X137180000Y-22758000D03*
X137180000Y-29058000D03*
X139680000Y-29058000D03*
X139680000Y-22758000D03*
G04 #@! TD*
D27*
G04 #@! TO.C,MH1*
X123952000Y-19304000D03*
G04 #@! TD*
G04 #@! TO.C,MH2*
X123952000Y-56642000D03*
G04 #@! TD*
G04 #@! TO.C,MH3*
X170434000Y-44450000D03*
G04 #@! TD*
M02*
