M48
;DRILL file {KiCad 4.0.7} date 01/29/18 16:59:25
;FORMAT={-:-/ absolute / inch / decimal}
FMAT,2
INCH,TZ
T1C0.016
T2C0.031
T3C0.035
T4C0.039
T5C0.040
%
G90
G05
M72
T1
X5.35Y-2.17
X5.45Y-2.16
X5.5Y-2.115
X5.58Y-0.7
X5.585Y-1.695
X5.62Y-1.35
X5.695Y-0.9
X5.695Y-0.955
X5.805Y-0.77
X6.145Y-1.23
X6.235Y-1.37
X6.245Y-1.225
T2
X6.195Y-1.7066
X6.195Y-1.805
T3
X5.165Y-2.0081
X5.165Y-2.1066
X5.165Y-2.205
X6.49Y-1.1997
X6.49Y-1.2981
X6.49Y-1.3966
X6.49Y-1.495
X6.51Y-1.995
X6.51Y-2.0934
X6.695Y-1.1997
X6.695Y-1.2981
X6.695Y-1.3966
X6.695Y-1.495
T4
X5.7813Y-2.2033
X5.86Y-1.98
X5.86Y-2.1769
X5.9387Y-1.9535
X6.13Y-1.955
X6.13Y-2.155
X6.33Y-1.955
X6.33Y-2.155
T5
X4.94Y-1.335
X4.94Y-1.435
X4.94Y-1.535
X4.94Y-1.635
X5.04Y-1.335
X5.04Y-1.435
X5.04Y-1.535
X5.04Y-1.635
X6.39Y-0.81
X6.39Y-0.91
X6.49Y-0.81
X6.49Y-0.91
X6.59Y-0.81
X6.59Y-0.91
T0
M30
