G04 #@! TF.FileFunction,Soldermask,Top*
%FSLAX46Y46*%
G04 Gerber Fmt 4.6, Leading zero omitted, Abs format (unit mm)*
G04 Created by KiCad (PCBNEW 4.0.7) date 01/29/18 16:59:17*
%MOMM*%
%LPD*%
G01*
G04 APERTURE LIST*
%ADD10C,0.100000*%
%ADD11R,2.000000X2.000000*%
%ADD12C,2.000000*%
%ADD13R,1.600000X1.600000*%
%ADD14C,1.600000*%
%ADD15O,2.000000X2.000000*%
%ADD16R,1.850000X1.850000*%
%ADD17C,1.850000*%
%ADD18R,1.727200X1.727200*%
%ADD19O,1.727200X1.727200*%
%ADD20R,0.900000X0.800000*%
%ADD21R,1.950000X0.600000*%
%ADD22R,0.550000X1.750000*%
%ADD23R,1.250000X1.500000*%
%ADD24R,1.500000X1.250000*%
%ADD25R,1.300000X1.500000*%
%ADD26R,1.500000X1.300000*%
%ADD27R,5.100000X5.400000*%
%ADD28R,1.000000X0.900000*%
%ADD29R,5.600000X7.175000*%
G04 APERTURE END LIST*
D10*
D11*
X148844000Y-50292000D03*
D12*
X148844000Y-55292000D03*
D11*
X150844000Y-49619856D03*
D12*
X146844000Y-55964144D03*
D13*
X157353000Y-45847000D03*
D14*
X157353000Y-43347000D03*
D15*
X160782000Y-49657000D03*
X155702000Y-54737000D03*
X160782000Y-54737000D03*
D11*
X155702000Y-49657000D03*
D16*
X165354000Y-50673000D03*
D17*
X165354000Y-53173000D03*
D18*
X128016000Y-41529000D03*
D19*
X125476000Y-41529000D03*
X128016000Y-38989000D03*
X125476000Y-38989000D03*
X128016000Y-36449000D03*
X125476000Y-36449000D03*
X128016000Y-33909000D03*
X125476000Y-33909000D03*
D18*
X162306000Y-23114000D03*
D19*
X162306000Y-20574000D03*
X164846000Y-23114000D03*
X164846000Y-20574000D03*
X167386000Y-23114000D03*
X167386000Y-20574000D03*
D16*
X131191000Y-56007000D03*
D17*
X131191000Y-53507000D03*
X131191000Y-51007000D03*
D16*
X164846000Y-37973000D03*
D17*
X164846000Y-35473000D03*
X164846000Y-32973000D03*
X164846000Y-30473000D03*
D16*
X170053000Y-37973000D03*
D17*
X170053000Y-35473000D03*
X170053000Y-32973000D03*
X170053000Y-30473000D03*
D20*
X159782000Y-36642000D03*
X159782000Y-38542000D03*
X161782000Y-37592000D03*
X159782000Y-33086000D03*
X159782000Y-34986000D03*
X161782000Y-34036000D03*
X159782000Y-29530000D03*
X159782000Y-31430000D03*
X161782000Y-30480000D03*
D21*
X142747000Y-21590000D03*
X142747000Y-22860000D03*
X142747000Y-24130000D03*
X142747000Y-25400000D03*
X142747000Y-26670000D03*
X142747000Y-27940000D03*
X142747000Y-29210000D03*
X142747000Y-30480000D03*
X142747000Y-31750000D03*
X142747000Y-33020000D03*
X152147000Y-33020000D03*
X152147000Y-31750000D03*
X152147000Y-30480000D03*
X152147000Y-29210000D03*
X152147000Y-27940000D03*
X152147000Y-26670000D03*
X152147000Y-25400000D03*
X152147000Y-24130000D03*
X152147000Y-22860000D03*
X152147000Y-21590000D03*
D22*
X135890000Y-57040000D03*
X137160000Y-57040000D03*
X138430000Y-57040000D03*
X139700000Y-57040000D03*
X139700000Y-49640000D03*
X138430000Y-49640000D03*
X137160000Y-49640000D03*
X135890000Y-49640000D03*
D23*
X133858000Y-23388000D03*
X133858000Y-25888000D03*
X133858000Y-31984000D03*
X133858000Y-29484000D03*
D24*
X143403000Y-19685000D03*
X145903000Y-19685000D03*
X151491000Y-19558000D03*
X148991000Y-19558000D03*
D25*
X138430000Y-41322000D03*
X138430000Y-44022000D03*
X135890000Y-41322000D03*
X135890000Y-44022000D03*
D26*
X146003000Y-17780000D03*
X143303000Y-17780000D03*
D25*
X133985000Y-44022000D03*
X133985000Y-41322000D03*
X140335000Y-44022000D03*
X140335000Y-41322000D03*
D26*
X155241000Y-36703000D03*
X157941000Y-36703000D03*
D27*
X146170000Y-43944000D03*
D28*
X153070000Y-46244000D03*
X153070000Y-41644000D03*
D26*
X155495000Y-40640000D03*
X158195000Y-40640000D03*
X135937000Y-47498000D03*
X138637000Y-47498000D03*
X155241000Y-33147000D03*
X157941000Y-33147000D03*
X155241000Y-29591000D03*
X157941000Y-29591000D03*
D29*
X137922000Y-20598500D03*
X137922000Y-34773500D03*
M02*
