G04 #@! TF.GenerationSoftware,KiCad,Pcbnew,(5.0.0)*
G04 #@! TF.CreationDate,2018-08-24T12:12:44+02:00*
G04 #@! TF.ProjectId,dmx_rgb,646D785F7267622E6B696361645F7063,rev?*
G04 #@! TF.SameCoordinates,Original*
G04 #@! TF.FileFunction,Copper,L2,Bot,Signal*
G04 #@! TF.FilePolarity,Positive*
%FSLAX46Y46*%
G04 Gerber Fmt 4.6, Leading zero omitted, Abs format (unit mm)*
G04 Created by KiCad (PCBNEW (5.0.0)) date 08/24/18 12:12:44*
%MOMM*%
%LPD*%
G01*
G04 APERTURE LIST*
G04 #@! TA.AperFunction,ComponentPad*
%ADD10R,2.000000X2.000000*%
G04 #@! TD*
G04 #@! TA.AperFunction,ComponentPad*
%ADD11C,2.000000*%
G04 #@! TD*
G04 #@! TA.AperFunction,ComponentPad*
%ADD12O,2.000000X2.000000*%
G04 #@! TD*
G04 #@! TA.AperFunction,ComponentPad*
%ADD13R,1.850000X1.850000*%
G04 #@! TD*
G04 #@! TA.AperFunction,ComponentPad*
%ADD14C,1.850000*%
G04 #@! TD*
G04 #@! TA.AperFunction,ComponentPad*
%ADD15R,1.727200X1.727200*%
G04 #@! TD*
G04 #@! TA.AperFunction,ComponentPad*
%ADD16O,1.727200X1.727200*%
G04 #@! TD*
G04 #@! TA.AperFunction,ViaPad*
%ADD17C,0.600000*%
G04 #@! TD*
G04 #@! TA.AperFunction,Conductor*
%ADD18C,0.250000*%
G04 #@! TD*
G04 #@! TA.AperFunction,Conductor*
%ADD19C,0.254000*%
G04 #@! TD*
G04 APERTURE END LIST*
D10*
G04 #@! TO.P,C5,1*
G04 #@! TO.N,+12V*
X148844000Y-50292000D03*
D11*
G04 #@! TO.P,C5,2*
G04 #@! TO.N,GND*
X148844000Y-55292000D03*
D10*
G04 #@! TO.P,C5,1*
G04 #@! TO.N,+12V*
X150844000Y-49619856D03*
D11*
G04 #@! TO.P,C5,2*
G04 #@! TO.N,GND*
X146844000Y-55964144D03*
G04 #@! TD*
D12*
G04 #@! TO.P,D1,4*
G04 #@! TO.N,Net-(D1-Pad4)*
X160782000Y-49657000D03*
G04 #@! TO.P,D1,2*
G04 #@! TO.N,Net-(D1-Pad2)*
X155702000Y-54737000D03*
G04 #@! TO.P,D1,3*
G04 #@! TO.N,GND*
X160782000Y-54737000D03*
D10*
G04 #@! TO.P,D1,1*
G04 #@! TO.N,+12V*
X155702000Y-49657000D03*
G04 #@! TD*
D13*
G04 #@! TO.P,J1,1*
G04 #@! TO.N,Net-(D1-Pad4)*
X165354000Y-50673000D03*
D14*
G04 #@! TO.P,J1,2*
G04 #@! TO.N,Net-(D1-Pad2)*
X165354000Y-53173000D03*
G04 #@! TD*
D15*
G04 #@! TO.P,J2,1*
G04 #@! TO.N,/TXD*
X128016000Y-41529000D03*
D16*
G04 #@! TO.P,J2,2*
G04 #@! TO.N,VCC*
X125476000Y-41529000D03*
G04 #@! TO.P,J2,3*
G04 #@! TO.N,Net-(J2-Pad3)*
X128016000Y-38989000D03*
G04 #@! TO.P,J2,4*
G04 #@! TO.N,Net-(J2-Pad4)*
X125476000Y-38989000D03*
G04 #@! TO.P,J2,5*
G04 #@! TO.N,Net-(J2-Pad5)*
X128016000Y-36449000D03*
G04 #@! TO.P,J2,6*
G04 #@! TO.N,Net-(J2-Pad6)*
X125476000Y-36449000D03*
G04 #@! TO.P,J2,7*
G04 #@! TO.N,GND*
X128016000Y-33909000D03*
G04 #@! TO.P,J2,8*
G04 #@! TO.N,/RXD*
X125476000Y-33909000D03*
G04 #@! TD*
D15*
G04 #@! TO.P,J3,1*
G04 #@! TO.N,/MISO*
X162306000Y-23114000D03*
D16*
G04 #@! TO.P,J3,2*
G04 #@! TO.N,VCC*
X162306000Y-20574000D03*
G04 #@! TO.P,J3,3*
G04 #@! TO.N,/SCL/SCK*
X164846000Y-23114000D03*
G04 #@! TO.P,J3,4*
G04 #@! TO.N,/MOSI/SDA*
X164846000Y-20574000D03*
G04 #@! TO.P,J3,5*
G04 #@! TO.N,/RESET*
X167386000Y-23114000D03*
G04 #@! TO.P,J3,6*
G04 #@! TO.N,GND*
X167386000Y-20574000D03*
G04 #@! TD*
D13*
G04 #@! TO.P,J4,1*
G04 #@! TO.N,Net-(J4-Pad1)*
X131191000Y-56007000D03*
D14*
G04 #@! TO.P,J4,2*
G04 #@! TO.N,Net-(J4-Pad2)*
X131191000Y-53507000D03*
G04 #@! TO.P,J4,3*
G04 #@! TO.N,GND*
X131191000Y-51007000D03*
G04 #@! TD*
D13*
G04 #@! TO.P,J5,1*
G04 #@! TO.N,+12V*
X164846000Y-37973000D03*
D14*
G04 #@! TO.P,J5,2*
G04 #@! TO.N,Net-(J5-Pad2)*
X164846000Y-35473000D03*
G04 #@! TO.P,J5,3*
G04 #@! TO.N,Net-(J5-Pad3)*
X164846000Y-32973000D03*
G04 #@! TO.P,J5,4*
G04 #@! TO.N,Net-(J5-Pad4)*
X164846000Y-30473000D03*
G04 #@! TD*
D13*
G04 #@! TO.P,J6,1*
G04 #@! TO.N,+12V*
X170053000Y-37973000D03*
D14*
G04 #@! TO.P,J6,2*
G04 #@! TO.N,Net-(J5-Pad2)*
X170053000Y-35473000D03*
G04 #@! TO.P,J6,3*
G04 #@! TO.N,Net-(J5-Pad3)*
X170053000Y-32973000D03*
G04 #@! TO.P,J6,4*
G04 #@! TO.N,Net-(J5-Pad4)*
X170053000Y-30473000D03*
G04 #@! TD*
D17*
G04 #@! TO.N,GND*
X147447000Y-19558000D03*
X142748000Y-34290000D03*
X158369000Y-34798000D03*
X158623000Y-31115000D03*
X156083000Y-31242000D03*
G04 #@! TO.N,/RESET*
X141732000Y-17780000D03*
G04 #@! TO.N,/TXD*
X139700000Y-53721000D03*
X144653000Y-24257000D03*
G04 #@! TO.N,/RXD*
X135890000Y-55118000D03*
X144653000Y-22860000D03*
G04 #@! TO.N,/DIR*
X138430000Y-54864000D03*
X141859000Y-43053000D03*
G04 #@! TD*
D18*
G04 #@! TO.N,GND*
X148971000Y-19558000D02*
X147447000Y-19558000D01*
G04 #@! TO.N,/RESET*
X166116000Y-21844000D02*
X167386000Y-23114000D01*
X145796000Y-21844000D02*
X166116000Y-21844000D01*
X141732000Y-17780000D02*
X145796000Y-21844000D01*
G04 #@! TO.N,/TXD*
X128016000Y-41529000D02*
X128016000Y-42164000D01*
X128016000Y-42164000D02*
X134620000Y-48768000D01*
X136271000Y-53721000D02*
X139700000Y-53721000D01*
X134620000Y-52070000D02*
X136271000Y-53721000D01*
X134620000Y-48768000D02*
X134620000Y-52070000D01*
X126746000Y-40132000D02*
X128016000Y-41402000D01*
X126746000Y-24257000D02*
X126746000Y-40132000D01*
X144653000Y-24257000D02*
X126746000Y-24257000D01*
X128016000Y-41402000D02*
X128016000Y-41529000D01*
G04 #@! TO.N,/RXD*
X125476000Y-33909000D02*
X124460000Y-33909000D01*
X135255000Y-55118000D02*
X135890000Y-55118000D01*
X134112000Y-53975000D02*
X135255000Y-55118000D01*
X134112000Y-49403000D02*
X134112000Y-53975000D01*
X131826000Y-47117000D02*
X134112000Y-49403000D01*
X128270000Y-47117000D02*
X131826000Y-47117000D01*
X124079000Y-42926000D02*
X128270000Y-47117000D01*
X124079000Y-34290000D02*
X124079000Y-42926000D01*
X124460000Y-33909000D02*
X124079000Y-34290000D01*
X125476000Y-24257000D02*
X125476000Y-33909000D01*
X126873000Y-22860000D02*
X125476000Y-24257000D01*
X144653000Y-22860000D02*
X126873000Y-22860000D01*
G04 #@! TO.N,/DIR*
X141605000Y-54864000D02*
X138430000Y-54864000D01*
X141859000Y-54610000D02*
X141605000Y-54864000D01*
X141859000Y-43053000D02*
X141859000Y-54610000D01*
G04 #@! TD*
D19*
G04 #@! TO.N,GND*
G36*
X140939345Y-17250365D02*
X140797000Y-17594017D01*
X140797000Y-17965983D01*
X140939345Y-18309635D01*
X141202365Y-18572655D01*
X141546017Y-18715000D01*
X141592199Y-18715000D01*
X144802198Y-21925000D01*
X144467017Y-21925000D01*
X144123365Y-22067345D01*
X144090710Y-22100000D01*
X126947846Y-22100000D01*
X126872999Y-22085112D01*
X126798152Y-22100000D01*
X126798148Y-22100000D01*
X126576463Y-22144096D01*
X126576461Y-22144097D01*
X126576462Y-22144097D01*
X126388526Y-22269671D01*
X126388524Y-22269673D01*
X126325071Y-22312071D01*
X126282673Y-22375524D01*
X124991530Y-23666669D01*
X124928071Y-23709071D01*
X124760096Y-23960464D01*
X124716000Y-24182149D01*
X124716000Y-24182153D01*
X124701112Y-24257000D01*
X124716000Y-24331847D01*
X124716001Y-32614465D01*
X124395570Y-32828570D01*
X124142756Y-33206932D01*
X123912071Y-33361071D01*
X123869671Y-33424528D01*
X123594529Y-33699669D01*
X123531071Y-33742071D01*
X123363096Y-33993464D01*
X123319000Y-34215149D01*
X123319000Y-34215153D01*
X123304112Y-34290000D01*
X123319000Y-34364847D01*
X123319001Y-42851148D01*
X123304112Y-42926000D01*
X123319001Y-43000852D01*
X123363097Y-43222537D01*
X123531072Y-43473929D01*
X123594528Y-43516329D01*
X127679670Y-47601472D01*
X127722071Y-47664929D01*
X127973463Y-47832904D01*
X128195148Y-47877000D01*
X128195152Y-47877000D01*
X128269999Y-47891888D01*
X128344846Y-47877000D01*
X131511199Y-47877000D01*
X133352000Y-49717802D01*
X133352001Y-53900148D01*
X133337112Y-53975000D01*
X133396097Y-54271537D01*
X133505026Y-54434560D01*
X133564072Y-54522929D01*
X133627528Y-54565329D01*
X134664671Y-55602473D01*
X134707071Y-55665929D01*
X134958463Y-55833904D01*
X135180148Y-55878000D01*
X135180152Y-55878000D01*
X135254999Y-55892888D01*
X135328064Y-55878354D01*
X135360365Y-55910655D01*
X135704017Y-56053000D01*
X136075983Y-56053000D01*
X136419635Y-55910655D01*
X136682655Y-55647635D01*
X136825000Y-55303983D01*
X136825000Y-54932017D01*
X136682655Y-54588365D01*
X136575290Y-54481000D01*
X137576607Y-54481000D01*
X137495000Y-54678017D01*
X137495000Y-55049983D01*
X137637345Y-55393635D01*
X137900365Y-55656655D01*
X138244017Y-55799000D01*
X138615983Y-55799000D01*
X138855944Y-55699605D01*
X145198092Y-55699605D01*
X145222144Y-56349604D01*
X145424613Y-56838408D01*
X145691468Y-56937071D01*
X146664395Y-55964144D01*
X145691468Y-54991217D01*
X145424613Y-55089880D01*
X145198092Y-55699605D01*
X138855944Y-55699605D01*
X138959635Y-55656655D01*
X138992290Y-55624000D01*
X141530153Y-55624000D01*
X141605000Y-55638888D01*
X141679847Y-55624000D01*
X141679852Y-55624000D01*
X141901537Y-55579904D01*
X142152929Y-55411929D01*
X142195331Y-55348470D01*
X142343470Y-55200331D01*
X142406929Y-55157929D01*
X142574904Y-54906537D01*
X142593785Y-54811612D01*
X145871073Y-54811612D01*
X146844000Y-55784539D01*
X146858143Y-55770397D01*
X147037748Y-55950002D01*
X147023605Y-55964144D01*
X147996532Y-56937071D01*
X148263387Y-56838408D01*
X148269239Y-56822656D01*
X148579461Y-56937908D01*
X149229460Y-56913856D01*
X149718264Y-56711387D01*
X149816927Y-56444532D01*
X148844000Y-55471605D01*
X148829858Y-55485748D01*
X148650253Y-55306143D01*
X148664395Y-55292000D01*
X149023605Y-55292000D01*
X149996532Y-56264927D01*
X150263387Y-56166264D01*
X150489908Y-55556539D01*
X150465856Y-54906540D01*
X150395631Y-54737000D01*
X154034969Y-54737000D01*
X154161864Y-55374945D01*
X154523231Y-55915769D01*
X155064055Y-56277136D01*
X155540969Y-56372000D01*
X155863031Y-56372000D01*
X156339945Y-56277136D01*
X156880769Y-55915769D01*
X157242136Y-55374945D01*
X157293358Y-55117434D01*
X159191876Y-55117434D01*
X159388598Y-55592385D01*
X159822006Y-56060505D01*
X160401565Y-56327133D01*
X160655000Y-56208319D01*
X160655000Y-54864000D01*
X160909000Y-54864000D01*
X160909000Y-56208319D01*
X161162435Y-56327133D01*
X161741994Y-56060505D01*
X162175402Y-55592385D01*
X162372124Y-55117434D01*
X162252777Y-54864000D01*
X160909000Y-54864000D01*
X160655000Y-54864000D01*
X159311223Y-54864000D01*
X159191876Y-55117434D01*
X157293358Y-55117434D01*
X157369031Y-54737000D01*
X157293359Y-54356566D01*
X159191876Y-54356566D01*
X159311223Y-54610000D01*
X160655000Y-54610000D01*
X160655000Y-53265681D01*
X160909000Y-53265681D01*
X160909000Y-54610000D01*
X162252777Y-54610000D01*
X162372124Y-54356566D01*
X162175402Y-53881615D01*
X161741994Y-53413495D01*
X161162435Y-53146867D01*
X160909000Y-53265681D01*
X160655000Y-53265681D01*
X160401565Y-53146867D01*
X159822006Y-53413495D01*
X159388598Y-53881615D01*
X159191876Y-54356566D01*
X157293359Y-54356566D01*
X157242136Y-54099055D01*
X156880769Y-53558231D01*
X156339945Y-53196864D01*
X155863031Y-53102000D01*
X155540969Y-53102000D01*
X155064055Y-53196864D01*
X154523231Y-53558231D01*
X154161864Y-54099055D01*
X154034969Y-54737000D01*
X150395631Y-54737000D01*
X150263387Y-54417736D01*
X149996532Y-54319073D01*
X149023605Y-55292000D01*
X148664395Y-55292000D01*
X147691468Y-54319073D01*
X147424613Y-54417736D01*
X147418761Y-54433488D01*
X147108539Y-54318236D01*
X146458540Y-54342288D01*
X145969736Y-54544757D01*
X145871073Y-54811612D01*
X142593785Y-54811612D01*
X142619000Y-54684852D01*
X142619000Y-54684848D01*
X142633888Y-54610001D01*
X142619000Y-54535154D01*
X142619000Y-54139468D01*
X147871073Y-54139468D01*
X148844000Y-55112395D01*
X149816927Y-54139468D01*
X149718264Y-53872613D01*
X149108539Y-53646092D01*
X148458540Y-53670144D01*
X147969736Y-53872613D01*
X147871073Y-54139468D01*
X142619000Y-54139468D01*
X142619000Y-49292000D01*
X147196560Y-49292000D01*
X147196560Y-51292000D01*
X147245843Y-51539765D01*
X147386191Y-51749809D01*
X147596235Y-51890157D01*
X147844000Y-51939440D01*
X149844000Y-51939440D01*
X150091765Y-51890157D01*
X150301809Y-51749809D01*
X150442157Y-51539765D01*
X150491440Y-51292000D01*
X150491440Y-51267296D01*
X151844000Y-51267296D01*
X152091765Y-51218013D01*
X152301809Y-51077665D01*
X152442157Y-50867621D01*
X152491440Y-50619856D01*
X152491440Y-48657000D01*
X154054560Y-48657000D01*
X154054560Y-50657000D01*
X154103843Y-50904765D01*
X154244191Y-51114809D01*
X154454235Y-51255157D01*
X154702000Y-51304440D01*
X156702000Y-51304440D01*
X156949765Y-51255157D01*
X157159809Y-51114809D01*
X157300157Y-50904765D01*
X157349440Y-50657000D01*
X157349440Y-49657000D01*
X159114969Y-49657000D01*
X159241864Y-50294945D01*
X159603231Y-50835769D01*
X160144055Y-51197136D01*
X160620969Y-51292000D01*
X160943031Y-51292000D01*
X161419945Y-51197136D01*
X161960769Y-50835769D01*
X162322136Y-50294945D01*
X162430929Y-49748000D01*
X163781560Y-49748000D01*
X163781560Y-51598000D01*
X163830843Y-51845765D01*
X163971191Y-52055809D01*
X164147327Y-52173500D01*
X164031496Y-52289331D01*
X163794000Y-52862697D01*
X163794000Y-53483303D01*
X164031496Y-54056669D01*
X164470331Y-54495504D01*
X165043697Y-54733000D01*
X165664303Y-54733000D01*
X166237669Y-54495504D01*
X166676504Y-54056669D01*
X166914000Y-53483303D01*
X166914000Y-52862697D01*
X166676504Y-52289331D01*
X166560673Y-52173500D01*
X166736809Y-52055809D01*
X166877157Y-51845765D01*
X166926440Y-51598000D01*
X166926440Y-49748000D01*
X166877157Y-49500235D01*
X166736809Y-49290191D01*
X166526765Y-49149843D01*
X166279000Y-49100560D01*
X164429000Y-49100560D01*
X164181235Y-49149843D01*
X163971191Y-49290191D01*
X163830843Y-49500235D01*
X163781560Y-49748000D01*
X162430929Y-49748000D01*
X162449031Y-49657000D01*
X162322136Y-49019055D01*
X161960769Y-48478231D01*
X161419945Y-48116864D01*
X160943031Y-48022000D01*
X160620969Y-48022000D01*
X160144055Y-48116864D01*
X159603231Y-48478231D01*
X159241864Y-49019055D01*
X159114969Y-49657000D01*
X157349440Y-49657000D01*
X157349440Y-48657000D01*
X157300157Y-48409235D01*
X157159809Y-48199191D01*
X156949765Y-48058843D01*
X156702000Y-48009560D01*
X154702000Y-48009560D01*
X154454235Y-48058843D01*
X154244191Y-48199191D01*
X154103843Y-48409235D01*
X154054560Y-48657000D01*
X152491440Y-48657000D01*
X152491440Y-48619856D01*
X152442157Y-48372091D01*
X152301809Y-48162047D01*
X152091765Y-48021699D01*
X151844000Y-47972416D01*
X149844000Y-47972416D01*
X149596235Y-48021699D01*
X149386191Y-48162047D01*
X149245843Y-48372091D01*
X149196560Y-48619856D01*
X149196560Y-48644560D01*
X147844000Y-48644560D01*
X147596235Y-48693843D01*
X147386191Y-48834191D01*
X147245843Y-49044235D01*
X147196560Y-49292000D01*
X142619000Y-49292000D01*
X142619000Y-44104887D01*
X168699000Y-44104887D01*
X168699000Y-44795113D01*
X168963138Y-45432799D01*
X169451201Y-45920862D01*
X170088887Y-46185000D01*
X170779113Y-46185000D01*
X171416799Y-45920862D01*
X171904862Y-45432799D01*
X172169000Y-44795113D01*
X172169000Y-44104887D01*
X171904862Y-43467201D01*
X171416799Y-42979138D01*
X170779113Y-42715000D01*
X170088887Y-42715000D01*
X169451201Y-42979138D01*
X168963138Y-43467201D01*
X168699000Y-44104887D01*
X142619000Y-44104887D01*
X142619000Y-43615290D01*
X142651655Y-43582635D01*
X142794000Y-43238983D01*
X142794000Y-42867017D01*
X142651655Y-42523365D01*
X142388635Y-42260345D01*
X142044983Y-42118000D01*
X141673017Y-42118000D01*
X141329365Y-42260345D01*
X141066345Y-42523365D01*
X140924000Y-42867017D01*
X140924000Y-43238983D01*
X141066345Y-43582635D01*
X141099000Y-43615290D01*
X141099001Y-54104000D01*
X140553393Y-54104000D01*
X140635000Y-53906983D01*
X140635000Y-53535017D01*
X140492655Y-53191365D01*
X140229635Y-52928345D01*
X139885983Y-52786000D01*
X139514017Y-52786000D01*
X139170365Y-52928345D01*
X139137710Y-52961000D01*
X136585802Y-52961000D01*
X135380000Y-51755199D01*
X135380000Y-48842846D01*
X135394888Y-48767999D01*
X135380000Y-48693152D01*
X135380000Y-48693148D01*
X135335904Y-48471463D01*
X135269506Y-48372091D01*
X135210329Y-48283526D01*
X135210327Y-48283524D01*
X135167929Y-48220071D01*
X135104476Y-48177673D01*
X129492591Y-42565790D01*
X129527040Y-42392600D01*
X129527040Y-40665400D01*
X129477757Y-40417635D01*
X129337409Y-40207591D01*
X129127365Y-40067243D01*
X129101349Y-40062068D01*
X129427650Y-39573725D01*
X129543959Y-38989000D01*
X129427650Y-38404275D01*
X129096430Y-37908570D01*
X128812719Y-37719000D01*
X129096430Y-37529430D01*
X129418111Y-37048000D01*
X163273560Y-37048000D01*
X163273560Y-38898000D01*
X163322843Y-39145765D01*
X163463191Y-39355809D01*
X163673235Y-39496157D01*
X163921000Y-39545440D01*
X165771000Y-39545440D01*
X166018765Y-39496157D01*
X166228809Y-39355809D01*
X166369157Y-39145765D01*
X166418440Y-38898000D01*
X166418440Y-37048000D01*
X168480560Y-37048000D01*
X168480560Y-38898000D01*
X168529843Y-39145765D01*
X168670191Y-39355809D01*
X168880235Y-39496157D01*
X169128000Y-39545440D01*
X170978000Y-39545440D01*
X171225765Y-39496157D01*
X171435809Y-39355809D01*
X171576157Y-39145765D01*
X171625440Y-38898000D01*
X171625440Y-37048000D01*
X171576157Y-36800235D01*
X171435809Y-36590191D01*
X171259673Y-36472500D01*
X171375504Y-36356669D01*
X171613000Y-35783303D01*
X171613000Y-35162697D01*
X171375504Y-34589331D01*
X171009173Y-34223000D01*
X171375504Y-33856669D01*
X171613000Y-33283303D01*
X171613000Y-32662697D01*
X171375504Y-32089331D01*
X171009173Y-31723000D01*
X171375504Y-31356669D01*
X171613000Y-30783303D01*
X171613000Y-30162697D01*
X171375504Y-29589331D01*
X170936669Y-29150496D01*
X170363303Y-28913000D01*
X169742697Y-28913000D01*
X169169331Y-29150496D01*
X168730496Y-29589331D01*
X168493000Y-30162697D01*
X168493000Y-30783303D01*
X168730496Y-31356669D01*
X169096827Y-31723000D01*
X168730496Y-32089331D01*
X168493000Y-32662697D01*
X168493000Y-33283303D01*
X168730496Y-33856669D01*
X169096827Y-34223000D01*
X168730496Y-34589331D01*
X168493000Y-35162697D01*
X168493000Y-35783303D01*
X168730496Y-36356669D01*
X168846327Y-36472500D01*
X168670191Y-36590191D01*
X168529843Y-36800235D01*
X168480560Y-37048000D01*
X166418440Y-37048000D01*
X166369157Y-36800235D01*
X166228809Y-36590191D01*
X166052673Y-36472500D01*
X166168504Y-36356669D01*
X166406000Y-35783303D01*
X166406000Y-35162697D01*
X166168504Y-34589331D01*
X165802173Y-34223000D01*
X166168504Y-33856669D01*
X166406000Y-33283303D01*
X166406000Y-32662697D01*
X166168504Y-32089331D01*
X165802173Y-31723000D01*
X166168504Y-31356669D01*
X166406000Y-30783303D01*
X166406000Y-30162697D01*
X166168504Y-29589331D01*
X165729669Y-29150496D01*
X165156303Y-28913000D01*
X164535697Y-28913000D01*
X163962331Y-29150496D01*
X163523496Y-29589331D01*
X163286000Y-30162697D01*
X163286000Y-30783303D01*
X163523496Y-31356669D01*
X163889827Y-31723000D01*
X163523496Y-32089331D01*
X163286000Y-32662697D01*
X163286000Y-33283303D01*
X163523496Y-33856669D01*
X163889827Y-34223000D01*
X163523496Y-34589331D01*
X163286000Y-35162697D01*
X163286000Y-35783303D01*
X163523496Y-36356669D01*
X163639327Y-36472500D01*
X163463191Y-36590191D01*
X163322843Y-36800235D01*
X163273560Y-37048000D01*
X129418111Y-37048000D01*
X129427650Y-37033725D01*
X129543959Y-36449000D01*
X129427650Y-35864275D01*
X129096430Y-35368570D01*
X128808174Y-35175963D01*
X129222821Y-34797490D01*
X129470968Y-34268027D01*
X129350469Y-34036000D01*
X128143000Y-34036000D01*
X128143000Y-34056000D01*
X127889000Y-34056000D01*
X127889000Y-34036000D01*
X127869000Y-34036000D01*
X127869000Y-33782000D01*
X127889000Y-33782000D01*
X127889000Y-32575183D01*
X128143000Y-32575183D01*
X128143000Y-33782000D01*
X129350469Y-33782000D01*
X129470968Y-33549973D01*
X129222821Y-33020510D01*
X128790947Y-32626312D01*
X128375026Y-32454042D01*
X128143000Y-32575183D01*
X127889000Y-32575183D01*
X127656974Y-32454042D01*
X127506000Y-32516574D01*
X127506000Y-25017000D01*
X144090710Y-25017000D01*
X144123365Y-25049655D01*
X144467017Y-25192000D01*
X144838983Y-25192000D01*
X145182635Y-25049655D01*
X145445655Y-24786635D01*
X145588000Y-24442983D01*
X145588000Y-24071017D01*
X145445655Y-23727365D01*
X145276790Y-23558500D01*
X145445655Y-23389635D01*
X145588000Y-23045983D01*
X145588000Y-22674017D01*
X145544439Y-22568850D01*
X145721148Y-22604000D01*
X145721153Y-22604000D01*
X145796000Y-22618888D01*
X145870847Y-22604000D01*
X160794960Y-22604000D01*
X160794960Y-23977600D01*
X160844243Y-24225365D01*
X160984591Y-24435409D01*
X161194635Y-24575757D01*
X161442400Y-24625040D01*
X163169600Y-24625040D01*
X163417365Y-24575757D01*
X163627409Y-24435409D01*
X163767757Y-24225365D01*
X163772932Y-24199349D01*
X164261275Y-24525650D01*
X164698402Y-24612600D01*
X164993598Y-24612600D01*
X165430725Y-24525650D01*
X165926430Y-24194430D01*
X166116000Y-23910719D01*
X166305570Y-24194430D01*
X166801275Y-24525650D01*
X167238402Y-24612600D01*
X167533598Y-24612600D01*
X167970725Y-24525650D01*
X168466430Y-24194430D01*
X168797650Y-23698725D01*
X168913959Y-23114000D01*
X168797650Y-22529275D01*
X168466430Y-22033570D01*
X168164979Y-21832146D01*
X168274490Y-21780821D01*
X168668688Y-21348947D01*
X168840958Y-20933026D01*
X168719817Y-20701000D01*
X167513000Y-20701000D01*
X167513000Y-20721000D01*
X167259000Y-20721000D01*
X167259000Y-20701000D01*
X167239000Y-20701000D01*
X167239000Y-20447000D01*
X167259000Y-20447000D01*
X167259000Y-19239531D01*
X167513000Y-19239531D01*
X167513000Y-20447000D01*
X168719817Y-20447000D01*
X168840958Y-20214974D01*
X168668688Y-19799053D01*
X168274490Y-19367179D01*
X167745027Y-19119032D01*
X167513000Y-19239531D01*
X167259000Y-19239531D01*
X167026973Y-19119032D01*
X166497510Y-19367179D01*
X166119037Y-19781826D01*
X165926430Y-19493570D01*
X165430725Y-19162350D01*
X164993598Y-19075400D01*
X164698402Y-19075400D01*
X164261275Y-19162350D01*
X163765570Y-19493570D01*
X163576000Y-19777281D01*
X163386430Y-19493570D01*
X162890725Y-19162350D01*
X162453598Y-19075400D01*
X162158402Y-19075400D01*
X161721275Y-19162350D01*
X161225570Y-19493570D01*
X160894350Y-19989275D01*
X160778041Y-20574000D01*
X160879486Y-21084000D01*
X146110802Y-21084000D01*
X142667000Y-17640199D01*
X142667000Y-17594017D01*
X142524655Y-17250365D01*
X142469290Y-17195000D01*
X172543000Y-17195000D01*
X172543001Y-58751000D01*
X121843000Y-58751000D01*
X121843000Y-56296887D01*
X122217000Y-56296887D01*
X122217000Y-56987113D01*
X122481138Y-57624799D01*
X122969201Y-58112862D01*
X123606887Y-58377000D01*
X124297113Y-58377000D01*
X124934799Y-58112862D01*
X125422862Y-57624799D01*
X125687000Y-56987113D01*
X125687000Y-56296887D01*
X125422862Y-55659201D01*
X124934799Y-55171138D01*
X124719601Y-55082000D01*
X129618560Y-55082000D01*
X129618560Y-56932000D01*
X129667843Y-57179765D01*
X129808191Y-57389809D01*
X130018235Y-57530157D01*
X130266000Y-57579440D01*
X132116000Y-57579440D01*
X132363765Y-57530157D01*
X132573809Y-57389809D01*
X132714157Y-57179765D01*
X132726706Y-57116676D01*
X145871073Y-57116676D01*
X145969736Y-57383531D01*
X146579461Y-57610052D01*
X147229460Y-57586000D01*
X147718264Y-57383531D01*
X147816927Y-57116676D01*
X146844000Y-56143749D01*
X145871073Y-57116676D01*
X132726706Y-57116676D01*
X132763440Y-56932000D01*
X132763440Y-55082000D01*
X132714157Y-54834235D01*
X132573809Y-54624191D01*
X132397673Y-54506500D01*
X132513504Y-54390669D01*
X132751000Y-53817303D01*
X132751000Y-53196697D01*
X132513504Y-52623331D01*
X132080330Y-52190157D01*
X132109651Y-52105256D01*
X131191000Y-51186605D01*
X130272349Y-52105256D01*
X130301670Y-52190157D01*
X129868496Y-52623331D01*
X129631000Y-53196697D01*
X129631000Y-53817303D01*
X129868496Y-54390669D01*
X129984327Y-54506500D01*
X129808191Y-54624191D01*
X129667843Y-54834235D01*
X129618560Y-55082000D01*
X124719601Y-55082000D01*
X124297113Y-54907000D01*
X123606887Y-54907000D01*
X122969201Y-55171138D01*
X122481138Y-55659201D01*
X122217000Y-56296887D01*
X121843000Y-56296887D01*
X121843000Y-50760368D01*
X129619675Y-50760368D01*
X129644903Y-51380461D01*
X129833668Y-51836179D01*
X130092744Y-51925651D01*
X131011395Y-51007000D01*
X131370605Y-51007000D01*
X132289256Y-51925651D01*
X132548332Y-51836179D01*
X132762325Y-51253632D01*
X132737097Y-50633539D01*
X132548332Y-50177821D01*
X132289256Y-50088349D01*
X131370605Y-51007000D01*
X131011395Y-51007000D01*
X130092744Y-50088349D01*
X129833668Y-50177821D01*
X129619675Y-50760368D01*
X121843000Y-50760368D01*
X121843000Y-49908744D01*
X130272349Y-49908744D01*
X131191000Y-50827395D01*
X132109651Y-49908744D01*
X132020179Y-49649668D01*
X131437632Y-49435675D01*
X130817539Y-49460903D01*
X130361821Y-49649668D01*
X130272349Y-49908744D01*
X121843000Y-49908744D01*
X121843000Y-18958887D01*
X122217000Y-18958887D01*
X122217000Y-19649113D01*
X122481138Y-20286799D01*
X122969201Y-20774862D01*
X123606887Y-21039000D01*
X124297113Y-21039000D01*
X124934799Y-20774862D01*
X125422862Y-20286799D01*
X125687000Y-19649113D01*
X125687000Y-18958887D01*
X125422862Y-18321201D01*
X124934799Y-17833138D01*
X124297113Y-17569000D01*
X123606887Y-17569000D01*
X122969201Y-17833138D01*
X122481138Y-18321201D01*
X122217000Y-18958887D01*
X121843000Y-18958887D01*
X121843000Y-17195000D01*
X140994710Y-17195000D01*
X140939345Y-17250365D01*
X140939345Y-17250365D01*
G37*
X140939345Y-17250365D02*
X140797000Y-17594017D01*
X140797000Y-17965983D01*
X140939345Y-18309635D01*
X141202365Y-18572655D01*
X141546017Y-18715000D01*
X141592199Y-18715000D01*
X144802198Y-21925000D01*
X144467017Y-21925000D01*
X144123365Y-22067345D01*
X144090710Y-22100000D01*
X126947846Y-22100000D01*
X126872999Y-22085112D01*
X126798152Y-22100000D01*
X126798148Y-22100000D01*
X126576463Y-22144096D01*
X126576461Y-22144097D01*
X126576462Y-22144097D01*
X126388526Y-22269671D01*
X126388524Y-22269673D01*
X126325071Y-22312071D01*
X126282673Y-22375524D01*
X124991530Y-23666669D01*
X124928071Y-23709071D01*
X124760096Y-23960464D01*
X124716000Y-24182149D01*
X124716000Y-24182153D01*
X124701112Y-24257000D01*
X124716000Y-24331847D01*
X124716001Y-32614465D01*
X124395570Y-32828570D01*
X124142756Y-33206932D01*
X123912071Y-33361071D01*
X123869671Y-33424528D01*
X123594529Y-33699669D01*
X123531071Y-33742071D01*
X123363096Y-33993464D01*
X123319000Y-34215149D01*
X123319000Y-34215153D01*
X123304112Y-34290000D01*
X123319000Y-34364847D01*
X123319001Y-42851148D01*
X123304112Y-42926000D01*
X123319001Y-43000852D01*
X123363097Y-43222537D01*
X123531072Y-43473929D01*
X123594528Y-43516329D01*
X127679670Y-47601472D01*
X127722071Y-47664929D01*
X127973463Y-47832904D01*
X128195148Y-47877000D01*
X128195152Y-47877000D01*
X128269999Y-47891888D01*
X128344846Y-47877000D01*
X131511199Y-47877000D01*
X133352000Y-49717802D01*
X133352001Y-53900148D01*
X133337112Y-53975000D01*
X133396097Y-54271537D01*
X133505026Y-54434560D01*
X133564072Y-54522929D01*
X133627528Y-54565329D01*
X134664671Y-55602473D01*
X134707071Y-55665929D01*
X134958463Y-55833904D01*
X135180148Y-55878000D01*
X135180152Y-55878000D01*
X135254999Y-55892888D01*
X135328064Y-55878354D01*
X135360365Y-55910655D01*
X135704017Y-56053000D01*
X136075983Y-56053000D01*
X136419635Y-55910655D01*
X136682655Y-55647635D01*
X136825000Y-55303983D01*
X136825000Y-54932017D01*
X136682655Y-54588365D01*
X136575290Y-54481000D01*
X137576607Y-54481000D01*
X137495000Y-54678017D01*
X137495000Y-55049983D01*
X137637345Y-55393635D01*
X137900365Y-55656655D01*
X138244017Y-55799000D01*
X138615983Y-55799000D01*
X138855944Y-55699605D01*
X145198092Y-55699605D01*
X145222144Y-56349604D01*
X145424613Y-56838408D01*
X145691468Y-56937071D01*
X146664395Y-55964144D01*
X145691468Y-54991217D01*
X145424613Y-55089880D01*
X145198092Y-55699605D01*
X138855944Y-55699605D01*
X138959635Y-55656655D01*
X138992290Y-55624000D01*
X141530153Y-55624000D01*
X141605000Y-55638888D01*
X141679847Y-55624000D01*
X141679852Y-55624000D01*
X141901537Y-55579904D01*
X142152929Y-55411929D01*
X142195331Y-55348470D01*
X142343470Y-55200331D01*
X142406929Y-55157929D01*
X142574904Y-54906537D01*
X142593785Y-54811612D01*
X145871073Y-54811612D01*
X146844000Y-55784539D01*
X146858143Y-55770397D01*
X147037748Y-55950002D01*
X147023605Y-55964144D01*
X147996532Y-56937071D01*
X148263387Y-56838408D01*
X148269239Y-56822656D01*
X148579461Y-56937908D01*
X149229460Y-56913856D01*
X149718264Y-56711387D01*
X149816927Y-56444532D01*
X148844000Y-55471605D01*
X148829858Y-55485748D01*
X148650253Y-55306143D01*
X148664395Y-55292000D01*
X149023605Y-55292000D01*
X149996532Y-56264927D01*
X150263387Y-56166264D01*
X150489908Y-55556539D01*
X150465856Y-54906540D01*
X150395631Y-54737000D01*
X154034969Y-54737000D01*
X154161864Y-55374945D01*
X154523231Y-55915769D01*
X155064055Y-56277136D01*
X155540969Y-56372000D01*
X155863031Y-56372000D01*
X156339945Y-56277136D01*
X156880769Y-55915769D01*
X157242136Y-55374945D01*
X157293358Y-55117434D01*
X159191876Y-55117434D01*
X159388598Y-55592385D01*
X159822006Y-56060505D01*
X160401565Y-56327133D01*
X160655000Y-56208319D01*
X160655000Y-54864000D01*
X160909000Y-54864000D01*
X160909000Y-56208319D01*
X161162435Y-56327133D01*
X161741994Y-56060505D01*
X162175402Y-55592385D01*
X162372124Y-55117434D01*
X162252777Y-54864000D01*
X160909000Y-54864000D01*
X160655000Y-54864000D01*
X159311223Y-54864000D01*
X159191876Y-55117434D01*
X157293358Y-55117434D01*
X157369031Y-54737000D01*
X157293359Y-54356566D01*
X159191876Y-54356566D01*
X159311223Y-54610000D01*
X160655000Y-54610000D01*
X160655000Y-53265681D01*
X160909000Y-53265681D01*
X160909000Y-54610000D01*
X162252777Y-54610000D01*
X162372124Y-54356566D01*
X162175402Y-53881615D01*
X161741994Y-53413495D01*
X161162435Y-53146867D01*
X160909000Y-53265681D01*
X160655000Y-53265681D01*
X160401565Y-53146867D01*
X159822006Y-53413495D01*
X159388598Y-53881615D01*
X159191876Y-54356566D01*
X157293359Y-54356566D01*
X157242136Y-54099055D01*
X156880769Y-53558231D01*
X156339945Y-53196864D01*
X155863031Y-53102000D01*
X155540969Y-53102000D01*
X155064055Y-53196864D01*
X154523231Y-53558231D01*
X154161864Y-54099055D01*
X154034969Y-54737000D01*
X150395631Y-54737000D01*
X150263387Y-54417736D01*
X149996532Y-54319073D01*
X149023605Y-55292000D01*
X148664395Y-55292000D01*
X147691468Y-54319073D01*
X147424613Y-54417736D01*
X147418761Y-54433488D01*
X147108539Y-54318236D01*
X146458540Y-54342288D01*
X145969736Y-54544757D01*
X145871073Y-54811612D01*
X142593785Y-54811612D01*
X142619000Y-54684852D01*
X142619000Y-54684848D01*
X142633888Y-54610001D01*
X142619000Y-54535154D01*
X142619000Y-54139468D01*
X147871073Y-54139468D01*
X148844000Y-55112395D01*
X149816927Y-54139468D01*
X149718264Y-53872613D01*
X149108539Y-53646092D01*
X148458540Y-53670144D01*
X147969736Y-53872613D01*
X147871073Y-54139468D01*
X142619000Y-54139468D01*
X142619000Y-49292000D01*
X147196560Y-49292000D01*
X147196560Y-51292000D01*
X147245843Y-51539765D01*
X147386191Y-51749809D01*
X147596235Y-51890157D01*
X147844000Y-51939440D01*
X149844000Y-51939440D01*
X150091765Y-51890157D01*
X150301809Y-51749809D01*
X150442157Y-51539765D01*
X150491440Y-51292000D01*
X150491440Y-51267296D01*
X151844000Y-51267296D01*
X152091765Y-51218013D01*
X152301809Y-51077665D01*
X152442157Y-50867621D01*
X152491440Y-50619856D01*
X152491440Y-48657000D01*
X154054560Y-48657000D01*
X154054560Y-50657000D01*
X154103843Y-50904765D01*
X154244191Y-51114809D01*
X154454235Y-51255157D01*
X154702000Y-51304440D01*
X156702000Y-51304440D01*
X156949765Y-51255157D01*
X157159809Y-51114809D01*
X157300157Y-50904765D01*
X157349440Y-50657000D01*
X157349440Y-49657000D01*
X159114969Y-49657000D01*
X159241864Y-50294945D01*
X159603231Y-50835769D01*
X160144055Y-51197136D01*
X160620969Y-51292000D01*
X160943031Y-51292000D01*
X161419945Y-51197136D01*
X161960769Y-50835769D01*
X162322136Y-50294945D01*
X162430929Y-49748000D01*
X163781560Y-49748000D01*
X163781560Y-51598000D01*
X163830843Y-51845765D01*
X163971191Y-52055809D01*
X164147327Y-52173500D01*
X164031496Y-52289331D01*
X163794000Y-52862697D01*
X163794000Y-53483303D01*
X164031496Y-54056669D01*
X164470331Y-54495504D01*
X165043697Y-54733000D01*
X165664303Y-54733000D01*
X166237669Y-54495504D01*
X166676504Y-54056669D01*
X166914000Y-53483303D01*
X166914000Y-52862697D01*
X166676504Y-52289331D01*
X166560673Y-52173500D01*
X166736809Y-52055809D01*
X166877157Y-51845765D01*
X166926440Y-51598000D01*
X166926440Y-49748000D01*
X166877157Y-49500235D01*
X166736809Y-49290191D01*
X166526765Y-49149843D01*
X166279000Y-49100560D01*
X164429000Y-49100560D01*
X164181235Y-49149843D01*
X163971191Y-49290191D01*
X163830843Y-49500235D01*
X163781560Y-49748000D01*
X162430929Y-49748000D01*
X162449031Y-49657000D01*
X162322136Y-49019055D01*
X161960769Y-48478231D01*
X161419945Y-48116864D01*
X160943031Y-48022000D01*
X160620969Y-48022000D01*
X160144055Y-48116864D01*
X159603231Y-48478231D01*
X159241864Y-49019055D01*
X159114969Y-49657000D01*
X157349440Y-49657000D01*
X157349440Y-48657000D01*
X157300157Y-48409235D01*
X157159809Y-48199191D01*
X156949765Y-48058843D01*
X156702000Y-48009560D01*
X154702000Y-48009560D01*
X154454235Y-48058843D01*
X154244191Y-48199191D01*
X154103843Y-48409235D01*
X154054560Y-48657000D01*
X152491440Y-48657000D01*
X152491440Y-48619856D01*
X152442157Y-48372091D01*
X152301809Y-48162047D01*
X152091765Y-48021699D01*
X151844000Y-47972416D01*
X149844000Y-47972416D01*
X149596235Y-48021699D01*
X149386191Y-48162047D01*
X149245843Y-48372091D01*
X149196560Y-48619856D01*
X149196560Y-48644560D01*
X147844000Y-48644560D01*
X147596235Y-48693843D01*
X147386191Y-48834191D01*
X147245843Y-49044235D01*
X147196560Y-49292000D01*
X142619000Y-49292000D01*
X142619000Y-44104887D01*
X168699000Y-44104887D01*
X168699000Y-44795113D01*
X168963138Y-45432799D01*
X169451201Y-45920862D01*
X170088887Y-46185000D01*
X170779113Y-46185000D01*
X171416799Y-45920862D01*
X171904862Y-45432799D01*
X172169000Y-44795113D01*
X172169000Y-44104887D01*
X171904862Y-43467201D01*
X171416799Y-42979138D01*
X170779113Y-42715000D01*
X170088887Y-42715000D01*
X169451201Y-42979138D01*
X168963138Y-43467201D01*
X168699000Y-44104887D01*
X142619000Y-44104887D01*
X142619000Y-43615290D01*
X142651655Y-43582635D01*
X142794000Y-43238983D01*
X142794000Y-42867017D01*
X142651655Y-42523365D01*
X142388635Y-42260345D01*
X142044983Y-42118000D01*
X141673017Y-42118000D01*
X141329365Y-42260345D01*
X141066345Y-42523365D01*
X140924000Y-42867017D01*
X140924000Y-43238983D01*
X141066345Y-43582635D01*
X141099000Y-43615290D01*
X141099001Y-54104000D01*
X140553393Y-54104000D01*
X140635000Y-53906983D01*
X140635000Y-53535017D01*
X140492655Y-53191365D01*
X140229635Y-52928345D01*
X139885983Y-52786000D01*
X139514017Y-52786000D01*
X139170365Y-52928345D01*
X139137710Y-52961000D01*
X136585802Y-52961000D01*
X135380000Y-51755199D01*
X135380000Y-48842846D01*
X135394888Y-48767999D01*
X135380000Y-48693152D01*
X135380000Y-48693148D01*
X135335904Y-48471463D01*
X135269506Y-48372091D01*
X135210329Y-48283526D01*
X135210327Y-48283524D01*
X135167929Y-48220071D01*
X135104476Y-48177673D01*
X129492591Y-42565790D01*
X129527040Y-42392600D01*
X129527040Y-40665400D01*
X129477757Y-40417635D01*
X129337409Y-40207591D01*
X129127365Y-40067243D01*
X129101349Y-40062068D01*
X129427650Y-39573725D01*
X129543959Y-38989000D01*
X129427650Y-38404275D01*
X129096430Y-37908570D01*
X128812719Y-37719000D01*
X129096430Y-37529430D01*
X129418111Y-37048000D01*
X163273560Y-37048000D01*
X163273560Y-38898000D01*
X163322843Y-39145765D01*
X163463191Y-39355809D01*
X163673235Y-39496157D01*
X163921000Y-39545440D01*
X165771000Y-39545440D01*
X166018765Y-39496157D01*
X166228809Y-39355809D01*
X166369157Y-39145765D01*
X166418440Y-38898000D01*
X166418440Y-37048000D01*
X168480560Y-37048000D01*
X168480560Y-38898000D01*
X168529843Y-39145765D01*
X168670191Y-39355809D01*
X168880235Y-39496157D01*
X169128000Y-39545440D01*
X170978000Y-39545440D01*
X171225765Y-39496157D01*
X171435809Y-39355809D01*
X171576157Y-39145765D01*
X171625440Y-38898000D01*
X171625440Y-37048000D01*
X171576157Y-36800235D01*
X171435809Y-36590191D01*
X171259673Y-36472500D01*
X171375504Y-36356669D01*
X171613000Y-35783303D01*
X171613000Y-35162697D01*
X171375504Y-34589331D01*
X171009173Y-34223000D01*
X171375504Y-33856669D01*
X171613000Y-33283303D01*
X171613000Y-32662697D01*
X171375504Y-32089331D01*
X171009173Y-31723000D01*
X171375504Y-31356669D01*
X171613000Y-30783303D01*
X171613000Y-30162697D01*
X171375504Y-29589331D01*
X170936669Y-29150496D01*
X170363303Y-28913000D01*
X169742697Y-28913000D01*
X169169331Y-29150496D01*
X168730496Y-29589331D01*
X168493000Y-30162697D01*
X168493000Y-30783303D01*
X168730496Y-31356669D01*
X169096827Y-31723000D01*
X168730496Y-32089331D01*
X168493000Y-32662697D01*
X168493000Y-33283303D01*
X168730496Y-33856669D01*
X169096827Y-34223000D01*
X168730496Y-34589331D01*
X168493000Y-35162697D01*
X168493000Y-35783303D01*
X168730496Y-36356669D01*
X168846327Y-36472500D01*
X168670191Y-36590191D01*
X168529843Y-36800235D01*
X168480560Y-37048000D01*
X166418440Y-37048000D01*
X166369157Y-36800235D01*
X166228809Y-36590191D01*
X166052673Y-36472500D01*
X166168504Y-36356669D01*
X166406000Y-35783303D01*
X166406000Y-35162697D01*
X166168504Y-34589331D01*
X165802173Y-34223000D01*
X166168504Y-33856669D01*
X166406000Y-33283303D01*
X166406000Y-32662697D01*
X166168504Y-32089331D01*
X165802173Y-31723000D01*
X166168504Y-31356669D01*
X166406000Y-30783303D01*
X166406000Y-30162697D01*
X166168504Y-29589331D01*
X165729669Y-29150496D01*
X165156303Y-28913000D01*
X164535697Y-28913000D01*
X163962331Y-29150496D01*
X163523496Y-29589331D01*
X163286000Y-30162697D01*
X163286000Y-30783303D01*
X163523496Y-31356669D01*
X163889827Y-31723000D01*
X163523496Y-32089331D01*
X163286000Y-32662697D01*
X163286000Y-33283303D01*
X163523496Y-33856669D01*
X163889827Y-34223000D01*
X163523496Y-34589331D01*
X163286000Y-35162697D01*
X163286000Y-35783303D01*
X163523496Y-36356669D01*
X163639327Y-36472500D01*
X163463191Y-36590191D01*
X163322843Y-36800235D01*
X163273560Y-37048000D01*
X129418111Y-37048000D01*
X129427650Y-37033725D01*
X129543959Y-36449000D01*
X129427650Y-35864275D01*
X129096430Y-35368570D01*
X128808174Y-35175963D01*
X129222821Y-34797490D01*
X129470968Y-34268027D01*
X129350469Y-34036000D01*
X128143000Y-34036000D01*
X128143000Y-34056000D01*
X127889000Y-34056000D01*
X127889000Y-34036000D01*
X127869000Y-34036000D01*
X127869000Y-33782000D01*
X127889000Y-33782000D01*
X127889000Y-32575183D01*
X128143000Y-32575183D01*
X128143000Y-33782000D01*
X129350469Y-33782000D01*
X129470968Y-33549973D01*
X129222821Y-33020510D01*
X128790947Y-32626312D01*
X128375026Y-32454042D01*
X128143000Y-32575183D01*
X127889000Y-32575183D01*
X127656974Y-32454042D01*
X127506000Y-32516574D01*
X127506000Y-25017000D01*
X144090710Y-25017000D01*
X144123365Y-25049655D01*
X144467017Y-25192000D01*
X144838983Y-25192000D01*
X145182635Y-25049655D01*
X145445655Y-24786635D01*
X145588000Y-24442983D01*
X145588000Y-24071017D01*
X145445655Y-23727365D01*
X145276790Y-23558500D01*
X145445655Y-23389635D01*
X145588000Y-23045983D01*
X145588000Y-22674017D01*
X145544439Y-22568850D01*
X145721148Y-22604000D01*
X145721153Y-22604000D01*
X145796000Y-22618888D01*
X145870847Y-22604000D01*
X160794960Y-22604000D01*
X160794960Y-23977600D01*
X160844243Y-24225365D01*
X160984591Y-24435409D01*
X161194635Y-24575757D01*
X161442400Y-24625040D01*
X163169600Y-24625040D01*
X163417365Y-24575757D01*
X163627409Y-24435409D01*
X163767757Y-24225365D01*
X163772932Y-24199349D01*
X164261275Y-24525650D01*
X164698402Y-24612600D01*
X164993598Y-24612600D01*
X165430725Y-24525650D01*
X165926430Y-24194430D01*
X166116000Y-23910719D01*
X166305570Y-24194430D01*
X166801275Y-24525650D01*
X167238402Y-24612600D01*
X167533598Y-24612600D01*
X167970725Y-24525650D01*
X168466430Y-24194430D01*
X168797650Y-23698725D01*
X168913959Y-23114000D01*
X168797650Y-22529275D01*
X168466430Y-22033570D01*
X168164979Y-21832146D01*
X168274490Y-21780821D01*
X168668688Y-21348947D01*
X168840958Y-20933026D01*
X168719817Y-20701000D01*
X167513000Y-20701000D01*
X167513000Y-20721000D01*
X167259000Y-20721000D01*
X167259000Y-20701000D01*
X167239000Y-20701000D01*
X167239000Y-20447000D01*
X167259000Y-20447000D01*
X167259000Y-19239531D01*
X167513000Y-19239531D01*
X167513000Y-20447000D01*
X168719817Y-20447000D01*
X168840958Y-20214974D01*
X168668688Y-19799053D01*
X168274490Y-19367179D01*
X167745027Y-19119032D01*
X167513000Y-19239531D01*
X167259000Y-19239531D01*
X167026973Y-19119032D01*
X166497510Y-19367179D01*
X166119037Y-19781826D01*
X165926430Y-19493570D01*
X165430725Y-19162350D01*
X164993598Y-19075400D01*
X164698402Y-19075400D01*
X164261275Y-19162350D01*
X163765570Y-19493570D01*
X163576000Y-19777281D01*
X163386430Y-19493570D01*
X162890725Y-19162350D01*
X162453598Y-19075400D01*
X162158402Y-19075400D01*
X161721275Y-19162350D01*
X161225570Y-19493570D01*
X160894350Y-19989275D01*
X160778041Y-20574000D01*
X160879486Y-21084000D01*
X146110802Y-21084000D01*
X142667000Y-17640199D01*
X142667000Y-17594017D01*
X142524655Y-17250365D01*
X142469290Y-17195000D01*
X172543000Y-17195000D01*
X172543001Y-58751000D01*
X121843000Y-58751000D01*
X121843000Y-56296887D01*
X122217000Y-56296887D01*
X122217000Y-56987113D01*
X122481138Y-57624799D01*
X122969201Y-58112862D01*
X123606887Y-58377000D01*
X124297113Y-58377000D01*
X124934799Y-58112862D01*
X125422862Y-57624799D01*
X125687000Y-56987113D01*
X125687000Y-56296887D01*
X125422862Y-55659201D01*
X124934799Y-55171138D01*
X124719601Y-55082000D01*
X129618560Y-55082000D01*
X129618560Y-56932000D01*
X129667843Y-57179765D01*
X129808191Y-57389809D01*
X130018235Y-57530157D01*
X130266000Y-57579440D01*
X132116000Y-57579440D01*
X132363765Y-57530157D01*
X132573809Y-57389809D01*
X132714157Y-57179765D01*
X132726706Y-57116676D01*
X145871073Y-57116676D01*
X145969736Y-57383531D01*
X146579461Y-57610052D01*
X147229460Y-57586000D01*
X147718264Y-57383531D01*
X147816927Y-57116676D01*
X146844000Y-56143749D01*
X145871073Y-57116676D01*
X132726706Y-57116676D01*
X132763440Y-56932000D01*
X132763440Y-55082000D01*
X132714157Y-54834235D01*
X132573809Y-54624191D01*
X132397673Y-54506500D01*
X132513504Y-54390669D01*
X132751000Y-53817303D01*
X132751000Y-53196697D01*
X132513504Y-52623331D01*
X132080330Y-52190157D01*
X132109651Y-52105256D01*
X131191000Y-51186605D01*
X130272349Y-52105256D01*
X130301670Y-52190157D01*
X129868496Y-52623331D01*
X129631000Y-53196697D01*
X129631000Y-53817303D01*
X129868496Y-54390669D01*
X129984327Y-54506500D01*
X129808191Y-54624191D01*
X129667843Y-54834235D01*
X129618560Y-55082000D01*
X124719601Y-55082000D01*
X124297113Y-54907000D01*
X123606887Y-54907000D01*
X122969201Y-55171138D01*
X122481138Y-55659201D01*
X122217000Y-56296887D01*
X121843000Y-56296887D01*
X121843000Y-50760368D01*
X129619675Y-50760368D01*
X129644903Y-51380461D01*
X129833668Y-51836179D01*
X130092744Y-51925651D01*
X131011395Y-51007000D01*
X131370605Y-51007000D01*
X132289256Y-51925651D01*
X132548332Y-51836179D01*
X132762325Y-51253632D01*
X132737097Y-50633539D01*
X132548332Y-50177821D01*
X132289256Y-50088349D01*
X131370605Y-51007000D01*
X131011395Y-51007000D01*
X130092744Y-50088349D01*
X129833668Y-50177821D01*
X129619675Y-50760368D01*
X121843000Y-50760368D01*
X121843000Y-49908744D01*
X130272349Y-49908744D01*
X131191000Y-50827395D01*
X132109651Y-49908744D01*
X132020179Y-49649668D01*
X131437632Y-49435675D01*
X130817539Y-49460903D01*
X130361821Y-49649668D01*
X130272349Y-49908744D01*
X121843000Y-49908744D01*
X121843000Y-18958887D01*
X122217000Y-18958887D01*
X122217000Y-19649113D01*
X122481138Y-20286799D01*
X122969201Y-20774862D01*
X123606887Y-21039000D01*
X124297113Y-21039000D01*
X124934799Y-20774862D01*
X125422862Y-20286799D01*
X125687000Y-19649113D01*
X125687000Y-18958887D01*
X125422862Y-18321201D01*
X124934799Y-17833138D01*
X124297113Y-17569000D01*
X123606887Y-17569000D01*
X122969201Y-17833138D01*
X122481138Y-18321201D01*
X122217000Y-18958887D01*
X121843000Y-18958887D01*
X121843000Y-17195000D01*
X140994710Y-17195000D01*
X140939345Y-17250365D01*
G04 #@! TD*
M02*
